G04*
G04 #@! TF.GenerationSoftware,Altium Limited,Altium Designer,22.10.1 (41)*
G04*
G04 Layer_Color=8388736*
%FSLAX44Y44*%
%MOMM*%
G71*
G04*
G04 #@! TF.SameCoordinates,ED3CD574-296F-4DA1-8CEE-BF2CD4CAFD89*
G04*
G04*
G04 #@! TF.FilePolarity,Negative*
G04*
G01*
G75*
%ADD17R,1.2621X0.9578*%
%ADD18R,1.7540X1.8062*%
%ADD22R,1.6000X5.7000*%
%ADD23R,1.8000X2.1000*%
%ADD24R,1.7000X2.5000*%
%ADD25R,0.9587X0.9121*%
%ADD27R,0.6000X1.2000*%
%ADD29R,0.5000X0.2500*%
%ADD30R,0.5000X0.4250*%
%ADD31R,0.2500X0.5000*%
%ADD32R,0.4250X0.5000*%
%ADD34R,1.0000X2.1000*%
%ADD35R,0.6500X0.4000*%
G04:AMPARAMS|DCode=36|XSize=0.75mm|YSize=0.31mm|CornerRadius=0.0496mm|HoleSize=0mm|Usage=FLASHONLY|Rotation=0.000|XOffset=0mm|YOffset=0mm|HoleType=Round|Shape=RoundedRectangle|*
%AMROUNDEDRECTD36*
21,1,0.7500,0.2108,0,0,0.0*
21,1,0.6508,0.3100,0,0,0.0*
1,1,0.0992,0.3254,-0.1054*
1,1,0.0992,-0.3254,-0.1054*
1,1,0.0992,-0.3254,0.1054*
1,1,0.0992,0.3254,0.1054*
%
%ADD36ROUNDEDRECTD36*%
G04:AMPARAMS|DCode=37|XSize=0.31mm|YSize=0.75mm|CornerRadius=0.0496mm|HoleSize=0mm|Usage=FLASHONLY|Rotation=0.000|XOffset=0mm|YOffset=0mm|HoleType=Round|Shape=RoundedRectangle|*
%AMROUNDEDRECTD37*
21,1,0.3100,0.6508,0,0,0.0*
21,1,0.2108,0.7500,0,0,0.0*
1,1,0.0992,0.1054,-0.3254*
1,1,0.0992,-0.1054,-0.3254*
1,1,0.0992,-0.1054,0.3254*
1,1,0.0992,0.1054,0.3254*
%
%ADD37ROUNDEDRECTD37*%
%ADD38R,0.4000X0.6500*%
%ADD39R,2.1000X1.0000*%
%ADD40O,0.8032X1.7532*%
%ADD41R,0.8032X0.8032*%
%ADD42R,0.8032X0.8032*%
%ADD43R,0.8432X0.8432*%
%ADD44R,0.8432X0.8432*%
G04:AMPARAMS|DCode=45|XSize=0.6532mm|YSize=1.8032mm|CornerRadius=0.1511mm|HoleSize=0mm|Usage=FLASHONLY|Rotation=180.000|XOffset=0mm|YOffset=0mm|HoleType=Round|Shape=RoundedRectangle|*
%AMROUNDEDRECTD45*
21,1,0.6532,1.5010,0,0,180.0*
21,1,0.3510,1.8032,0,0,180.0*
1,1,0.3022,-0.1755,0.7505*
1,1,0.3022,0.1755,0.7505*
1,1,0.3022,0.1755,-0.7505*
1,1,0.3022,-0.1755,-0.7505*
%
%ADD45ROUNDEDRECTD45*%
%ADD46R,2.2000X2.2000*%
%ADD47R,2.9210X0.7620*%
%ADD48C,2.6032*%
%ADD49R,2.6032X2.6032*%
%ADD50C,1.2500*%
%ADD51R,1.2500X1.2500*%
%ADD52C,0.2032*%
%ADD53C,1.7532*%
%ADD54R,1.7532X1.7532*%
%ADD55C,1.5032*%
%ADD56C,1.7032*%
%ADD57C,3.2512*%
%ADD58C,0.9000*%
D17*
X88000Y551728D02*
D03*
Y566272D02*
D03*
X160000Y733272D02*
D03*
Y718728D02*
D03*
D18*
X120239Y663000D02*
D03*
X143761D02*
D03*
X119239Y542000D02*
D03*
X142761D02*
D03*
D22*
X88500Y718000D02*
D03*
X135500D02*
D03*
D23*
X124000Y323000D02*
D03*
Y279000D02*
D03*
D24*
X87826Y643000D02*
D03*
Y603000D02*
D03*
D25*
X34733Y363000D02*
D03*
X49267D02*
D03*
D27*
X115500Y611000D02*
D03*
X125000D02*
D03*
X134500D02*
D03*
Y637000D02*
D03*
X125000D02*
D03*
X115500D02*
D03*
D29*
X537500Y635500D02*
D03*
Y640500D02*
D03*
Y645500D02*
D03*
Y650500D02*
D03*
Y655500D02*
D03*
Y660500D02*
D03*
X552500D02*
D03*
Y655500D02*
D03*
Y650500D02*
D03*
Y645500D02*
D03*
Y640500D02*
D03*
Y635500D02*
D03*
Y508000D02*
D03*
Y513000D02*
D03*
Y518000D02*
D03*
Y523000D02*
D03*
Y528000D02*
D03*
Y533000D02*
D03*
X537500D02*
D03*
Y528000D02*
D03*
Y523000D02*
D03*
Y518000D02*
D03*
Y513000D02*
D03*
Y508000D02*
D03*
D30*
Y629625D02*
D03*
Y666375D02*
D03*
X552500D02*
D03*
Y629625D02*
D03*
Y502125D02*
D03*
Y538875D02*
D03*
X537500D02*
D03*
Y502125D02*
D03*
D31*
X500500Y187500D02*
D03*
X495500D02*
D03*
X490500D02*
D03*
X485500D02*
D03*
X480500D02*
D03*
X475500D02*
D03*
Y202500D02*
D03*
X480500D02*
D03*
X485500D02*
D03*
X490500D02*
D03*
X495500D02*
D03*
X500500D02*
D03*
X616000Y156000D02*
D03*
X611000D02*
D03*
X606000D02*
D03*
X601000D02*
D03*
X596000D02*
D03*
X591000D02*
D03*
Y171000D02*
D03*
X596000D02*
D03*
X601000D02*
D03*
X606000D02*
D03*
X611000D02*
D03*
X616000D02*
D03*
D32*
X506375Y187500D02*
D03*
X469625D02*
D03*
Y202500D02*
D03*
X506375D02*
D03*
X621875Y156000D02*
D03*
X585125D02*
D03*
Y171000D02*
D03*
X621875D02*
D03*
D34*
X70500Y180750D02*
D03*
Y157250D02*
D03*
X55500D02*
D03*
Y180750D02*
D03*
D35*
X83750Y189000D02*
D03*
Y181000D02*
D03*
Y173000D02*
D03*
Y165000D02*
D03*
Y157000D02*
D03*
Y149000D02*
D03*
X42250D02*
D03*
Y157000D02*
D03*
Y165000D02*
D03*
Y173000D02*
D03*
Y181000D02*
D03*
Y189000D02*
D03*
D36*
X52793Y334250D02*
D03*
Y327750D02*
D03*
Y321250D02*
D03*
Y314750D02*
D03*
Y308250D02*
D03*
X99292D02*
D03*
Y314750D02*
D03*
Y321250D02*
D03*
Y327750D02*
D03*
Y334250D02*
D03*
D37*
X63042Y298000D02*
D03*
X69542D02*
D03*
X76042D02*
D03*
X82543D02*
D03*
X89043D02*
D03*
Y344500D02*
D03*
X82543D02*
D03*
X76042D02*
D03*
X69542D02*
D03*
X63042D02*
D03*
D38*
X92000Y252750D02*
D03*
X84000D02*
D03*
X76000D02*
D03*
X68000D02*
D03*
X60000D02*
D03*
X52000D02*
D03*
Y211250D02*
D03*
X60000D02*
D03*
X68000D02*
D03*
X76000D02*
D03*
X84000D02*
D03*
X92000D02*
D03*
D39*
X83750Y239500D02*
D03*
X60250D02*
D03*
Y224500D02*
D03*
X83750D02*
D03*
D40*
X125700Y429250D02*
D03*
X100300D02*
D03*
X125700Y364750D02*
D03*
X100300D02*
D03*
X172207Y429250D02*
D03*
X146807D02*
D03*
X172207Y364750D02*
D03*
X146807D02*
D03*
X193300D02*
D03*
X218700D02*
D03*
X193300Y429250D02*
D03*
X218700D02*
D03*
D41*
X83500Y285000D02*
D03*
X92500D02*
D03*
X61500Y272000D02*
D03*
X52500D02*
D03*
X83500D02*
D03*
X92500D02*
D03*
X61500Y285000D02*
D03*
X52500D02*
D03*
X278500Y128000D02*
D03*
X269500D02*
D03*
X278500Y115000D02*
D03*
X269500D02*
D03*
X278500Y102000D02*
D03*
X269500D02*
D03*
X73500Y359000D02*
D03*
X82500D02*
D03*
X214000Y348941D02*
D03*
X223000D02*
D03*
D42*
X34000Y319500D02*
D03*
Y310500D02*
D03*
X194000Y338500D02*
D03*
Y347500D02*
D03*
X147000Y338500D02*
D03*
Y347500D02*
D03*
X142000Y588500D02*
D03*
Y579500D02*
D03*
X34000Y331500D02*
D03*
Y340500D02*
D03*
X137000Y511500D02*
D03*
Y520500D02*
D03*
X129000Y579500D02*
D03*
Y588500D02*
D03*
X125000Y520500D02*
D03*
Y511500D02*
D03*
D43*
X115000Y588600D02*
D03*
Y579400D02*
D03*
X584000Y108600D02*
D03*
Y99400D02*
D03*
X507000Y68400D02*
D03*
Y77600D02*
D03*
X424000Y68400D02*
D03*
Y77600D02*
D03*
X499000Y99400D02*
D03*
Y108600D02*
D03*
D44*
X160600Y271000D02*
D03*
X151400D02*
D03*
X182600D02*
D03*
X173400D02*
D03*
D45*
X569750Y73500D02*
D03*
X563250D02*
D03*
X556750D02*
D03*
X550250D02*
D03*
X543750D02*
D03*
X537250D02*
D03*
X530750D02*
D03*
X524250D02*
D03*
X569750Y12500D02*
D03*
X563250D02*
D03*
X556750D02*
D03*
X550250D02*
D03*
X543750D02*
D03*
X537250D02*
D03*
X530750D02*
D03*
X524250D02*
D03*
X439250D02*
D03*
X445750D02*
D03*
X452250D02*
D03*
X458750D02*
D03*
X465250D02*
D03*
X471750D02*
D03*
X478250D02*
D03*
X484750D02*
D03*
X439250Y73500D02*
D03*
X445750D02*
D03*
X452250D02*
D03*
X458750D02*
D03*
X465250D02*
D03*
X471750D02*
D03*
X478250D02*
D03*
X484750D02*
D03*
X436208Y103543D02*
D03*
X442707D02*
D03*
X449207D02*
D03*
X455708D02*
D03*
X462207D02*
D03*
X468708D02*
D03*
X475207D02*
D03*
X481707D02*
D03*
X436208Y164543D02*
D03*
X442707D02*
D03*
X449207D02*
D03*
X455708D02*
D03*
X462207D02*
D03*
X468708D02*
D03*
X475207D02*
D03*
X481707D02*
D03*
X566708Y164543D02*
D03*
X560207D02*
D03*
X553708D02*
D03*
X547207D02*
D03*
X540708D02*
D03*
X534207D02*
D03*
X527708D02*
D03*
X521208D02*
D03*
X566708Y103543D02*
D03*
X560207D02*
D03*
X553708D02*
D03*
X547207D02*
D03*
X540708D02*
D03*
X534207D02*
D03*
X527708D02*
D03*
X521208D02*
D03*
D46*
X76042Y321250D02*
D03*
D47*
X212926Y244450D02*
D03*
Y231750D02*
D03*
Y219050D02*
D03*
Y206350D02*
D03*
Y193650D02*
D03*
Y180950D02*
D03*
Y168250D02*
D03*
Y155550D02*
D03*
X127074D02*
D03*
Y168250D02*
D03*
Y180950D02*
D03*
Y193650D02*
D03*
Y206350D02*
D03*
Y219050D02*
D03*
Y231750D02*
D03*
Y244450D02*
D03*
D48*
X32000Y613600D02*
D03*
D49*
Y664400D02*
D03*
D50*
X60957Y399453D02*
D03*
Y450253D02*
D03*
Y526453D02*
D03*
D51*
Y551853D02*
D03*
D52*
X609600Y736600D02*
D03*
X25400Y25400D02*
D03*
X609600D02*
D03*
X25400Y736600D02*
D03*
D53*
X483000Y690800D02*
D03*
Y665400D02*
D03*
Y640000D02*
D03*
Y614600D02*
D03*
Y589200D02*
D03*
Y563800D02*
D03*
Y538400D02*
D03*
Y513000D02*
D03*
Y487600D02*
D03*
Y462200D02*
D03*
X457600Y665400D02*
D03*
Y640000D02*
D03*
Y614600D02*
D03*
Y589200D02*
D03*
Y563800D02*
D03*
Y538400D02*
D03*
Y513000D02*
D03*
Y487600D02*
D03*
Y462200D02*
D03*
X178200D02*
D03*
Y487600D02*
D03*
Y513000D02*
D03*
Y538400D02*
D03*
Y563800D02*
D03*
Y589200D02*
D03*
Y614600D02*
D03*
Y640000D02*
D03*
Y665400D02*
D03*
X203600Y462200D02*
D03*
Y487600D02*
D03*
Y513000D02*
D03*
Y538400D02*
D03*
Y563800D02*
D03*
Y589200D02*
D03*
Y614600D02*
D03*
Y640000D02*
D03*
Y665400D02*
D03*
Y690800D02*
D03*
X610000D02*
D03*
Y665400D02*
D03*
Y640000D02*
D03*
Y614600D02*
D03*
Y589200D02*
D03*
Y563800D02*
D03*
Y538400D02*
D03*
Y513000D02*
D03*
Y487600D02*
D03*
Y462200D02*
D03*
Y436800D02*
D03*
Y411400D02*
D03*
Y386000D02*
D03*
Y360600D02*
D03*
Y335200D02*
D03*
Y309800D02*
D03*
Y284400D02*
D03*
Y259000D02*
D03*
Y233600D02*
D03*
Y208200D02*
D03*
X584600Y665400D02*
D03*
Y640000D02*
D03*
Y614600D02*
D03*
Y589200D02*
D03*
Y563800D02*
D03*
Y538400D02*
D03*
Y513000D02*
D03*
Y487600D02*
D03*
Y462200D02*
D03*
Y436800D02*
D03*
Y411400D02*
D03*
Y386000D02*
D03*
Y360600D02*
D03*
Y335200D02*
D03*
Y309800D02*
D03*
Y284400D02*
D03*
Y259000D02*
D03*
Y233600D02*
D03*
Y208200D02*
D03*
D54*
X457600Y690800D02*
D03*
X178200D02*
D03*
X584600D02*
D03*
D55*
X270000Y170000D02*
D03*
Y150000D02*
D03*
X290000Y170000D02*
D03*
Y150000D02*
D03*
X310000Y170000D02*
D03*
Y150000D02*
D03*
D56*
X272900Y45700D02*
D03*
X369400Y185400D02*
D03*
Y160000D02*
D03*
Y134600D02*
D03*
Y109200D02*
D03*
Y83800D02*
D03*
X272900Y477500D02*
D03*
X298300D02*
D03*
X323700D02*
D03*
X349100D02*
D03*
X374500D02*
D03*
X247500Y20300D02*
D03*
Y45700D02*
D03*
Y71100D02*
D03*
Y96500D02*
D03*
Y121900D02*
D03*
Y147300D02*
D03*
Y172700D02*
D03*
Y198100D02*
D03*
Y223500D02*
D03*
Y248900D02*
D03*
Y274300D02*
D03*
Y299700D02*
D03*
Y325100D02*
D03*
Y350500D02*
D03*
Y375900D02*
D03*
Y401300D02*
D03*
Y426700D02*
D03*
Y452100D02*
D03*
Y477500D02*
D03*
Y502900D02*
D03*
Y528300D02*
D03*
Y553700D02*
D03*
Y579100D02*
D03*
Y604500D02*
D03*
X399900D02*
D03*
Y579100D02*
D03*
Y553700D02*
D03*
Y528300D02*
D03*
Y502900D02*
D03*
Y477500D02*
D03*
Y452100D02*
D03*
Y426700D02*
D03*
Y401300D02*
D03*
Y375900D02*
D03*
Y350500D02*
D03*
Y325100D02*
D03*
Y299700D02*
D03*
Y274300D02*
D03*
Y248900D02*
D03*
Y223500D02*
D03*
Y198100D02*
D03*
Y172700D02*
D03*
Y147300D02*
D03*
Y121900D02*
D03*
Y96500D02*
D03*
Y71100D02*
D03*
Y45700D02*
D03*
Y20300D02*
D03*
D57*
X198740Y26820D02*
D03*
X71740D02*
D03*
D58*
X66660Y118260D02*
D03*
X89520D02*
D03*
X180960D02*
D03*
X203820D02*
D03*
X99680Y70000D02*
D03*
X109840Y52220D02*
D03*
X120000Y70000D02*
D03*
X130160Y52220D02*
D03*
X140320Y70000D02*
D03*
X150480Y52220D02*
D03*
X160640Y70000D02*
D03*
X170800Y52220D02*
D03*
M02*
