G04*
G04 #@! TF.GenerationSoftware,Altium Limited,Altium Designer,22.10.1 (41)*
G04*
G04 Layer_Color=65535*
%FSLAX44Y44*%
%MOMM*%
G71*
G04*
G04 #@! TF.SameCoordinates,ED3CD574-296F-4DA1-8CEE-BF2CD4CAFD89*
G04*
G04*
G04 #@! TF.FilePolarity,Positive*
G04*
G01*
G75*
%ADD10C,0.6000*%
%ADD11C,0.2500*%
%ADD12C,0.2000*%
%ADD13C,0.1000*%
%ADD14C,0.2540*%
%ADD15C,0.1500*%
G36*
X504597Y743787D02*
X504684D01*
X504761Y743776D01*
X504794D01*
X504827Y743765D01*
X504870Y743754D01*
X504969Y743721D01*
X505046Y743666D01*
X505056Y743655D01*
X505089Y743600D01*
X505111Y743524D01*
X505122Y743403D01*
Y743392D01*
Y743371D01*
X505111Y743338D01*
Y743283D01*
X505100Y743217D01*
X505078Y743141D01*
X505056Y743042D01*
X505035Y742944D01*
X502670Y733956D01*
Y733945D01*
X502659Y733923D01*
X502648Y733890D01*
X502637Y733846D01*
X502582Y733737D01*
X502528Y733638D01*
X502517Y733616D01*
X502473Y733573D01*
X502385Y733518D01*
X502276Y733474D01*
X502265D01*
X502243Y733463D01*
X502210Y733452D01*
X502166Y733441D01*
X502101Y733430D01*
X502024Y733419D01*
X501849Y733398D01*
X501805D01*
X501739Y733387D01*
X501575D01*
X501455Y733376D01*
X500918D01*
X500798Y733387D01*
X500557D01*
X500448Y733398D01*
X500404D01*
X500349Y733408D01*
X500294Y733419D01*
X500152Y733441D01*
X500010Y733474D01*
X499999D01*
X499988Y733485D01*
X499922Y733518D01*
X499846Y733562D01*
X499780Y733638D01*
Y733649D01*
X499769Y733660D01*
X499736Y733726D01*
X499703Y733824D01*
X499670Y733956D01*
X498006Y740491D01*
X497995D01*
X496430Y733956D01*
Y733945D01*
X496419Y733923D01*
X496408Y733890D01*
X496397Y733846D01*
X496364Y733748D01*
X496310Y733649D01*
X496299Y733627D01*
X496255Y733584D01*
X496189Y733529D01*
X496091Y733474D01*
X496080D01*
X496058Y733463D01*
X496025Y733452D01*
X495981Y733441D01*
X495915Y733430D01*
X495850Y733419D01*
X495762Y733408D01*
X495664Y733398D01*
X495620D01*
X495554Y733387D01*
X495379D01*
X495258Y733376D01*
X494700D01*
X494580Y733387D01*
X494328D01*
X494218Y733398D01*
X494175D01*
X494120Y733408D01*
X494065Y733419D01*
X493923Y733441D01*
X493781Y733474D01*
X493770D01*
X493759Y733485D01*
X493693Y733518D01*
X493616Y733562D01*
X493551Y733638D01*
Y733649D01*
X493540Y733660D01*
X493518Y733726D01*
X493474Y733824D01*
X493441Y733956D01*
X491088Y742965D01*
Y742977D01*
X491077Y743009D01*
X491066Y743064D01*
X491044Y743130D01*
X491022Y743272D01*
X491011Y743349D01*
X491000Y743414D01*
Y743425D01*
Y743447D01*
X491011Y743513D01*
X491044Y743589D01*
X491099Y743666D01*
X491120Y743677D01*
X491175Y743710D01*
X491219Y743732D01*
X491274Y743754D01*
X491350Y743765D01*
X491427Y743776D01*
X491471D01*
X491525Y743787D01*
X491679D01*
X491788Y743798D01*
X492281D01*
X492467Y743787D01*
X492565D01*
X492653Y743776D01*
X492730D01*
X492774Y743765D01*
X492883Y743754D01*
X492981Y743721D01*
X492992D01*
X493003Y743710D01*
X493047Y743688D01*
X493102Y743644D01*
X493135Y743589D01*
X493146Y743579D01*
X493157Y743535D01*
X493178Y743458D01*
X493200Y743360D01*
X495018Y735456D01*
X495029D01*
X496912Y743305D01*
Y743316D01*
X496923Y743327D01*
X496934Y743392D01*
X496955Y743469D01*
X496988Y743546D01*
X496999Y743568D01*
X497032Y743600D01*
X497087Y743655D01*
X497163Y743699D01*
X497174D01*
X497185Y743710D01*
X497218Y743721D01*
X497251Y743732D01*
X497360Y743754D01*
X497503Y743776D01*
X497547D01*
X497590Y743787D01*
X497744D01*
X497842Y743798D01*
X498302D01*
X498499Y743787D01*
X498609D01*
X498696Y743776D01*
X498729D01*
X498773Y743765D01*
X498827D01*
X498937Y743743D01*
X499046Y743710D01*
X499057D01*
X499068Y743699D01*
X499112Y743666D01*
X499167Y743622D01*
X499221Y743557D01*
X499232Y743546D01*
X499254Y743491D01*
X499287Y743414D01*
X499320Y743305D01*
X501269Y735456D01*
X501280D01*
X503097Y743338D01*
Y743349D01*
Y743360D01*
X503108Y743414D01*
X503130Y743491D01*
X503152Y743557D01*
X503163Y743568D01*
X503185Y743611D01*
X503239Y743655D01*
X503305Y743699D01*
X503316D01*
X503327Y743710D01*
X503392Y743732D01*
X503491Y743754D01*
X503633Y743776D01*
X503677D01*
X503721Y743787D01*
X503863D01*
X503962Y743798D01*
X504411D01*
X504597Y743787D01*
D02*
G37*
G36*
X563702Y743929D02*
X563778D01*
X563975Y743918D01*
X564194Y743885D01*
X564435Y743852D01*
X564676Y743798D01*
X564906Y743732D01*
X564917D01*
X564928Y743721D01*
X564961Y743710D01*
X565004Y743699D01*
X565114Y743644D01*
X565256Y743579D01*
X565410Y743502D01*
X565585Y743403D01*
X565749Y743294D01*
X565902Y743163D01*
X565924Y743152D01*
X565968Y743097D01*
X566044Y743020D01*
X566132Y742922D01*
X566231Y742790D01*
X566329Y742648D01*
X566428Y742484D01*
X566504Y742298D01*
X566515Y742276D01*
X566537Y742210D01*
X566570Y742112D01*
X566603Y741980D01*
X566636Y741816D01*
X566668Y741641D01*
X566690Y741433D01*
X566701Y741225D01*
Y741203D01*
Y741137D01*
Y741039D01*
X566690Y740907D01*
X566679Y740765D01*
X566657Y740590D01*
X566636Y740415D01*
X566603Y740229D01*
Y740207D01*
X566581Y740141D01*
X566559Y740043D01*
X566515Y739922D01*
X566460Y739758D01*
X566395Y739583D01*
X566307Y739386D01*
X566198Y739178D01*
Y739167D01*
X566187Y739156D01*
X566165Y739123D01*
X566143Y739079D01*
X566077Y738970D01*
X565979Y738817D01*
X565858Y738630D01*
X565716Y738411D01*
X565541Y738182D01*
X565344Y737930D01*
X565333Y737919D01*
X565322Y737897D01*
X565289Y737864D01*
X565245Y737809D01*
X565191Y737744D01*
X565125Y737667D01*
X565048Y737579D01*
X564961Y737481D01*
X564753Y737251D01*
X564501Y736977D01*
X564216Y736682D01*
X563888Y736353D01*
X562684Y735116D01*
X566767D01*
X566800Y735105D01*
X566844Y735094D01*
X566898Y735061D01*
X566909Y735051D01*
X566942Y735029D01*
X566975Y734985D01*
X567008Y734919D01*
X567019Y734897D01*
X567041Y734854D01*
X567062Y734766D01*
X567084Y734656D01*
Y734645D01*
X567095Y734624D01*
Y734591D01*
X567106Y734547D01*
X567117Y734426D01*
Y734262D01*
Y734251D01*
Y734230D01*
Y734186D01*
Y734131D01*
X567106Y734000D01*
X567095Y733868D01*
Y733857D01*
Y733846D01*
X567084Y733770D01*
X567062Y733693D01*
X567030Y733605D01*
X567019Y733595D01*
X567008Y733551D01*
X566975Y733507D01*
X566931Y733463D01*
X566920Y733452D01*
X566887Y733441D01*
X566844Y733430D01*
X566789Y733419D01*
X560746D01*
X560636Y733430D01*
X560538Y733441D01*
X560516Y733452D01*
X560472Y733474D01*
X560396Y733507D01*
X560330Y733562D01*
X560319Y733584D01*
X560286Y733638D01*
X560253Y733715D01*
X560220Y733835D01*
Y733846D01*
Y733868D01*
X560210Y733901D01*
Y733956D01*
X560199Y734022D01*
Y734109D01*
X560188Y734197D01*
Y734295D01*
Y734306D01*
Y734339D01*
Y734394D01*
Y734448D01*
X560199Y734591D01*
X560210Y734744D01*
Y734755D01*
Y734777D01*
X560220Y734810D01*
X560231Y734854D01*
X560253Y734963D01*
X560297Y735072D01*
Y735083D01*
X560308Y735094D01*
X560341Y735171D01*
X560396Y735258D01*
X560461Y735357D01*
Y735368D01*
X560483Y735379D01*
X560527Y735456D01*
X560615Y735554D01*
X560713Y735675D01*
X562508Y737590D01*
X562519Y737601D01*
X562530Y737612D01*
X562563Y737645D01*
X562596Y737689D01*
X562695Y737787D01*
X562815Y737930D01*
X562957Y738083D01*
X563100Y738258D01*
X563242Y738433D01*
X563373Y738608D01*
X563384Y738630D01*
X563428Y738685D01*
X563483Y738773D01*
X563559Y738882D01*
X563636Y739014D01*
X563724Y739156D01*
X563800Y739298D01*
X563877Y739441D01*
X563888Y739462D01*
X563910Y739506D01*
X563942Y739583D01*
X563975Y739670D01*
X564019Y739780D01*
X564063Y739900D01*
X564096Y740021D01*
X564129Y740141D01*
Y740152D01*
X564140Y740196D01*
X564151Y740262D01*
X564172Y740338D01*
X564183Y740437D01*
X564194Y740535D01*
X564205Y740754D01*
Y740765D01*
Y740798D01*
Y740853D01*
X564194Y740918D01*
X564172Y741072D01*
X564118Y741247D01*
Y741258D01*
X564107Y741291D01*
X564085Y741334D01*
X564052Y741389D01*
X563975Y741520D01*
X563866Y741663D01*
X563855Y741674D01*
X563833Y741696D01*
X563800Y741729D01*
X563756Y741761D01*
X563691Y741805D01*
X563625Y741849D01*
X563450Y741936D01*
X563439D01*
X563406Y741958D01*
X563351Y741969D01*
X563286Y741991D01*
X563209Y742013D01*
X563111Y742024D01*
X563001Y742046D01*
X562804D01*
X562716Y742035D01*
X562596D01*
X562465Y742013D01*
X562322Y741991D01*
X562180Y741958D01*
X562038Y741915D01*
X562027D01*
X561972Y741893D01*
X561906Y741871D01*
X561819Y741838D01*
X561720Y741794D01*
X561622Y741750D01*
X561403Y741641D01*
X561392Y741630D01*
X561359Y741619D01*
X561304Y741586D01*
X561239Y741553D01*
X561096Y741466D01*
X560943Y741378D01*
X560932D01*
X560910Y741356D01*
X560877Y741345D01*
X560834Y741323D01*
X560746Y741280D01*
X560702Y741269D01*
X560658Y741258D01*
X560647D01*
X560615Y741269D01*
X560571Y741280D01*
X560527Y741301D01*
X560516Y741312D01*
X560505Y741334D01*
X560472Y741389D01*
X560450Y741455D01*
Y741466D01*
Y741477D01*
X560428Y741542D01*
X560418Y741630D01*
X560396Y741761D01*
Y741772D01*
Y741794D01*
Y741838D01*
Y741893D01*
X560385Y741958D01*
Y742035D01*
Y742221D01*
Y742232D01*
Y742254D01*
Y742287D01*
Y742320D01*
Y742418D01*
X560396Y742517D01*
Y742528D01*
Y742539D01*
X560406Y742593D01*
X560418Y742670D01*
X560428Y742736D01*
Y742757D01*
X560439Y742790D01*
X560461Y742845D01*
X560483Y742900D01*
X560494Y742911D01*
X560516Y742944D01*
X560560Y742998D01*
X560625Y743064D01*
X560636D01*
X560647Y743086D01*
X560669Y743108D01*
X560713Y743130D01*
X560768Y743163D01*
X560834Y743206D01*
X560910Y743250D01*
X560998Y743305D01*
X561009Y743316D01*
X561041Y743327D01*
X561107Y743360D01*
X561184Y743403D01*
X561271Y743447D01*
X561381Y743491D01*
X561512Y743546D01*
X561655Y743600D01*
X561676Y743611D01*
X561720Y743622D01*
X561808Y743655D01*
X561906Y743688D01*
X562038Y743721D01*
X562191Y743765D01*
X562344Y743809D01*
X562519Y743841D01*
X562541D01*
X562596Y743852D01*
X562695Y743874D01*
X562815Y743896D01*
X562968Y743907D01*
X563132Y743929D01*
X563308Y743940D01*
X563625D01*
X563702Y743929D01*
D02*
G37*
G36*
X555415D02*
X555491D01*
X555688Y743918D01*
X555907Y743885D01*
X556148Y743852D01*
X556389Y743798D01*
X556619Y743732D01*
X556630D01*
X556641Y743721D01*
X556674Y743710D01*
X556717Y743699D01*
X556827Y743644D01*
X556969Y743579D01*
X557122Y743502D01*
X557298Y743403D01*
X557462Y743294D01*
X557615Y743163D01*
X557637Y743152D01*
X557681Y743097D01*
X557757Y743020D01*
X557845Y742922D01*
X557943Y742790D01*
X558042Y742648D01*
X558140Y742484D01*
X558217Y742298D01*
X558228Y742276D01*
X558250Y742210D01*
X558283Y742112D01*
X558316Y741980D01*
X558348Y741816D01*
X558381Y741641D01*
X558403Y741433D01*
X558414Y741225D01*
Y741203D01*
Y741137D01*
Y741039D01*
X558403Y740907D01*
X558392Y740765D01*
X558370Y740590D01*
X558348Y740415D01*
X558316Y740229D01*
Y740207D01*
X558294Y740141D01*
X558272Y740043D01*
X558228Y739922D01*
X558173Y739758D01*
X558108Y739583D01*
X558020Y739386D01*
X557910Y739178D01*
Y739167D01*
X557900Y739156D01*
X557878Y739123D01*
X557856Y739079D01*
X557790Y738970D01*
X557692Y738817D01*
X557571Y738630D01*
X557429Y738411D01*
X557254Y738182D01*
X557057Y737930D01*
X557046Y737919D01*
X557035Y737897D01*
X557002Y737864D01*
X556958Y737809D01*
X556903Y737744D01*
X556838Y737667D01*
X556761Y737579D01*
X556674Y737481D01*
X556465Y737251D01*
X556214Y736977D01*
X555929Y736682D01*
X555601Y736353D01*
X554396Y735116D01*
X558480D01*
X558513Y735105D01*
X558556Y735094D01*
X558611Y735061D01*
X558622Y735051D01*
X558655Y735029D01*
X558688Y734985D01*
X558721Y734919D01*
X558732Y734897D01*
X558754Y734854D01*
X558775Y734766D01*
X558797Y734656D01*
Y734645D01*
X558808Y734624D01*
Y734591D01*
X558819Y734547D01*
X558830Y734426D01*
Y734262D01*
Y734251D01*
Y734230D01*
Y734186D01*
Y734131D01*
X558819Y734000D01*
X558808Y733868D01*
Y733857D01*
Y733846D01*
X558797Y733770D01*
X558775Y733693D01*
X558742Y733605D01*
X558732Y733595D01*
X558721Y733551D01*
X558688Y733507D01*
X558644Y733463D01*
X558633Y733452D01*
X558600Y733441D01*
X558556Y733430D01*
X558502Y733419D01*
X552459D01*
X552349Y733430D01*
X552251Y733441D01*
X552229Y733452D01*
X552185Y733474D01*
X552108Y733507D01*
X552043Y733562D01*
X552032Y733584D01*
X551999Y733638D01*
X551966Y733715D01*
X551933Y733835D01*
Y733846D01*
Y733868D01*
X551922Y733901D01*
Y733956D01*
X551911Y734022D01*
Y734109D01*
X551900Y734197D01*
Y734295D01*
Y734306D01*
Y734339D01*
Y734394D01*
Y734448D01*
X551911Y734591D01*
X551922Y734744D01*
Y734755D01*
Y734777D01*
X551933Y734810D01*
X551944Y734854D01*
X551966Y734963D01*
X552010Y735072D01*
Y735083D01*
X552021Y735094D01*
X552054Y735171D01*
X552108Y735258D01*
X552174Y735357D01*
Y735368D01*
X552196Y735379D01*
X552240Y735456D01*
X552327Y735554D01*
X552426Y735675D01*
X554221Y737590D01*
X554232Y737601D01*
X554243Y737612D01*
X554276Y737645D01*
X554309Y737689D01*
X554407Y737787D01*
X554528Y737930D01*
X554670Y738083D01*
X554812Y738258D01*
X554955Y738433D01*
X555086Y738608D01*
X555097Y738630D01*
X555141Y738685D01*
X555196Y738773D01*
X555272Y738882D01*
X555349Y739014D01*
X555436Y739156D01*
X555513Y739298D01*
X555590Y739441D01*
X555601Y739462D01*
X555622Y739506D01*
X555655Y739583D01*
X555688Y739670D01*
X555732Y739780D01*
X555776Y739900D01*
X555809Y740021D01*
X555841Y740141D01*
Y740152D01*
X555852Y740196D01*
X555863Y740262D01*
X555885Y740338D01*
X555896Y740437D01*
X555907Y740535D01*
X555918Y740754D01*
Y740765D01*
Y740798D01*
Y740853D01*
X555907Y740918D01*
X555885Y741072D01*
X555830Y741247D01*
Y741258D01*
X555820Y741291D01*
X555798Y741334D01*
X555765Y741389D01*
X555688Y741520D01*
X555579Y741663D01*
X555568Y741674D01*
X555546Y741696D01*
X555513Y741729D01*
X555469Y741761D01*
X555404Y741805D01*
X555338Y741849D01*
X555163Y741936D01*
X555152D01*
X555119Y741958D01*
X555064Y741969D01*
X554999Y741991D01*
X554922Y742013D01*
X554823Y742024D01*
X554714Y742046D01*
X554517D01*
X554429Y742035D01*
X554309D01*
X554178Y742013D01*
X554035Y741991D01*
X553893Y741958D01*
X553750Y741915D01*
X553740D01*
X553685Y741893D01*
X553619Y741871D01*
X553532Y741838D01*
X553433Y741794D01*
X553335Y741750D01*
X553116Y741641D01*
X553105Y741630D01*
X553072Y741619D01*
X553017Y741586D01*
X552951Y741553D01*
X552809Y741466D01*
X552656Y741378D01*
X552645D01*
X552623Y741356D01*
X552590Y741345D01*
X552546Y741323D01*
X552459Y741280D01*
X552415Y741269D01*
X552371Y741258D01*
X552360D01*
X552327Y741269D01*
X552284Y741280D01*
X552240Y741301D01*
X552229Y741312D01*
X552218Y741334D01*
X552185Y741389D01*
X552163Y741455D01*
Y741466D01*
Y741477D01*
X552141Y741542D01*
X552130Y741630D01*
X552108Y741761D01*
Y741772D01*
Y741794D01*
Y741838D01*
Y741893D01*
X552097Y741958D01*
Y742035D01*
Y742221D01*
Y742232D01*
Y742254D01*
Y742287D01*
Y742320D01*
Y742418D01*
X552108Y742517D01*
Y742528D01*
Y742539D01*
X552119Y742593D01*
X552130Y742670D01*
X552141Y742736D01*
Y742757D01*
X552152Y742790D01*
X552174Y742845D01*
X552196Y742900D01*
X552207Y742911D01*
X552229Y742944D01*
X552273Y742998D01*
X552338Y743064D01*
X552349D01*
X552360Y743086D01*
X552382Y743108D01*
X552426Y743130D01*
X552481Y743163D01*
X552546Y743206D01*
X552623Y743250D01*
X552710Y743305D01*
X552721Y743316D01*
X552754Y743327D01*
X552820Y743360D01*
X552897Y743403D01*
X552984Y743447D01*
X553094Y743491D01*
X553225Y743546D01*
X553367Y743600D01*
X553389Y743611D01*
X553433Y743622D01*
X553521Y743655D01*
X553619Y743688D01*
X553750Y743721D01*
X553904Y743765D01*
X554057Y743809D01*
X554232Y743841D01*
X554254D01*
X554309Y743852D01*
X554407Y743874D01*
X554528Y743896D01*
X554681Y743907D01*
X554845Y743929D01*
X555020Y743940D01*
X555338D01*
X555415Y743929D01*
D02*
G37*
G36*
X540811Y743819D02*
X540887D01*
X540964Y743809D01*
X541030D01*
X541073Y743798D01*
X541161Y743787D01*
X541249Y743765D01*
X541259D01*
X541303Y743743D01*
X541347Y743721D01*
X541380Y743688D01*
X541391Y743677D01*
X541402Y743655D01*
X541413Y743622D01*
Y743579D01*
Y735040D01*
X543099D01*
X543131Y735029D01*
X543175Y735018D01*
X543219Y734985D01*
X543230Y734974D01*
X543263Y734952D01*
X543296Y734908D01*
X543329Y734843D01*
X543340Y734832D01*
X543350Y734777D01*
X543372Y734700D01*
X543394Y734602D01*
Y734591D01*
Y734580D01*
X543405Y734536D01*
Y734492D01*
Y734437D01*
X543416Y734372D01*
Y734208D01*
Y734197D01*
Y734175D01*
Y734131D01*
Y734076D01*
X543405Y733956D01*
X543383Y733835D01*
Y733824D01*
Y733813D01*
X543372Y733748D01*
X543350Y733660D01*
X543318Y733584D01*
X543307Y733573D01*
X543285Y733540D01*
X543263Y733496D01*
X543219Y733452D01*
X543208D01*
X543186Y733441D01*
X543143Y733430D01*
X543088Y733419D01*
X537351D01*
X537318Y733430D01*
X537275Y733452D01*
X537264Y733463D01*
X537242Y733485D01*
X537209Y733529D01*
X537176Y733584D01*
X537165Y733605D01*
X537154Y733649D01*
X537132Y733737D01*
X537110Y733835D01*
Y733846D01*
Y733868D01*
X537099Y733901D01*
Y733945D01*
X537089Y734054D01*
Y734208D01*
Y734219D01*
Y734251D01*
Y734295D01*
Y734350D01*
Y734481D01*
X537099Y734602D01*
Y734613D01*
Y734624D01*
X537121Y734689D01*
X537132Y734766D01*
X537165Y734843D01*
X537176Y734864D01*
X537198Y734897D01*
X537231Y734941D01*
X537264Y734985D01*
X537275Y734996D01*
X537297Y735018D01*
X537340Y735029D01*
X537395Y735040D01*
X539322D01*
Y741772D01*
X537658Y740853D01*
X537647D01*
X537625Y740842D01*
X537592Y740820D01*
X537548Y740798D01*
X537450Y740765D01*
X537351Y740732D01*
X537286D01*
X537231Y740754D01*
X537176Y740787D01*
X537165Y740798D01*
X537143Y740842D01*
X537110Y740907D01*
X537089Y741017D01*
Y741028D01*
Y741050D01*
X537078Y741094D01*
Y741148D01*
Y741214D01*
X537067Y741291D01*
Y741389D01*
Y741499D01*
Y741509D01*
Y741531D01*
Y741564D01*
Y741608D01*
Y741707D01*
Y741805D01*
Y741816D01*
Y741827D01*
X537078Y741882D01*
X537089Y741958D01*
X537110Y742024D01*
X537121Y742035D01*
X537132Y742079D01*
X537165Y742123D01*
X537198Y742166D01*
X537209Y742177D01*
X537242Y742199D01*
X537286Y742243D01*
X537351Y742287D01*
X539563Y743721D01*
X539574Y743732D01*
X539595Y743743D01*
X539661Y743776D01*
X539672D01*
X539705Y743787D01*
X539749Y743798D01*
X539814Y743809D01*
X539836D01*
X539880Y743819D01*
X540132D01*
X540176Y743830D01*
X540647D01*
X540811Y743819D01*
D02*
G37*
G36*
X532523D02*
X532600D01*
X532677Y743809D01*
X532742D01*
X532786Y743798D01*
X532874Y743787D01*
X532961Y743765D01*
X532972D01*
X533016Y743743D01*
X533060Y743721D01*
X533093Y743688D01*
X533104Y743677D01*
X533115Y743655D01*
X533126Y743622D01*
Y743579D01*
Y735040D01*
X534812D01*
X534844Y735029D01*
X534888Y735018D01*
X534932Y734985D01*
X534943Y734974D01*
X534976Y734952D01*
X535009Y734908D01*
X535041Y734843D01*
X535052Y734832D01*
X535063Y734777D01*
X535085Y734700D01*
X535107Y734602D01*
Y734591D01*
Y734580D01*
X535118Y734536D01*
Y734492D01*
Y734437D01*
X535129Y734372D01*
Y734208D01*
Y734197D01*
Y734175D01*
Y734131D01*
Y734076D01*
X535118Y733956D01*
X535096Y733835D01*
Y733824D01*
Y733813D01*
X535085Y733748D01*
X535063Y733660D01*
X535031Y733584D01*
X535019Y733573D01*
X534998Y733540D01*
X534976Y733496D01*
X534932Y733452D01*
X534921D01*
X534899Y733441D01*
X534855Y733430D01*
X534801Y733419D01*
X529064D01*
X529031Y733430D01*
X528988Y733452D01*
X528977Y733463D01*
X528955Y733485D01*
X528922Y733529D01*
X528889Y733584D01*
X528878Y733605D01*
X528867Y733649D01*
X528845Y733737D01*
X528823Y733835D01*
Y733846D01*
Y733868D01*
X528812Y733901D01*
Y733945D01*
X528801Y734054D01*
Y734208D01*
Y734219D01*
Y734251D01*
Y734295D01*
Y734350D01*
Y734481D01*
X528812Y734602D01*
Y734613D01*
Y734624D01*
X528834Y734689D01*
X528845Y734766D01*
X528878Y734843D01*
X528889Y734864D01*
X528911Y734897D01*
X528944Y734941D01*
X528977Y734985D01*
X528988Y734996D01*
X529009Y735018D01*
X529053Y735029D01*
X529108Y735040D01*
X531035D01*
Y741772D01*
X529371Y740853D01*
X529360D01*
X529338Y740842D01*
X529305Y740820D01*
X529261Y740798D01*
X529163Y740765D01*
X529064Y740732D01*
X528998D01*
X528944Y740754D01*
X528889Y740787D01*
X528878Y740798D01*
X528856Y740842D01*
X528823Y740907D01*
X528801Y741017D01*
Y741028D01*
Y741050D01*
X528790Y741094D01*
Y741148D01*
Y741214D01*
X528779Y741291D01*
Y741389D01*
Y741499D01*
Y741509D01*
Y741531D01*
Y741564D01*
Y741608D01*
Y741707D01*
Y741805D01*
Y741816D01*
Y741827D01*
X528790Y741882D01*
X528801Y741958D01*
X528823Y742024D01*
X528834Y742035D01*
X528845Y742079D01*
X528878Y742123D01*
X528911Y742166D01*
X528922Y742177D01*
X528955Y742199D01*
X528998Y742243D01*
X529064Y742287D01*
X531275Y743721D01*
X531286Y743732D01*
X531308Y743743D01*
X531374Y743776D01*
X531385D01*
X531418Y743787D01*
X531462Y743798D01*
X531527Y743809D01*
X531549D01*
X531593Y743819D01*
X531845D01*
X531889Y743830D01*
X532359D01*
X532523Y743819D01*
D02*
G37*
G36*
X519562Y743743D02*
X519682D01*
X519781Y743732D01*
X519879D01*
X519945Y743721D01*
X520098Y743710D01*
X520262Y743688D01*
X520295D01*
X520328Y743677D01*
X520372Y743666D01*
X520481Y743644D01*
X520635Y743622D01*
X520810Y743579D01*
X520996Y743524D01*
X521182Y743458D01*
X521379Y743382D01*
X521390D01*
X521401Y743371D01*
X521467Y743349D01*
X521554Y743294D01*
X521675Y743239D01*
X521806Y743152D01*
X521948Y743064D01*
X522091Y742944D01*
X522222Y742823D01*
X522233Y742812D01*
X522277Y742768D01*
X522342Y742692D01*
X522419Y742593D01*
X522507Y742473D01*
X522594Y742331D01*
X522682Y742177D01*
X522758Y742002D01*
X522769Y741980D01*
X522791Y741915D01*
X522813Y741816D01*
X522857Y741696D01*
X522890Y741531D01*
X522912Y741345D01*
X522934Y741137D01*
X522944Y740918D01*
Y740907D01*
Y740897D01*
Y740831D01*
X522934Y740732D01*
X522923Y740601D01*
X522912Y740459D01*
X522890Y740294D01*
X522846Y740130D01*
X522802Y739966D01*
X522791Y739944D01*
X522780Y739889D01*
X522747Y739813D01*
X522704Y739714D01*
X522649Y739594D01*
X522583Y739462D01*
X522507Y739331D01*
X522419Y739200D01*
X522408Y739189D01*
X522375Y739145D01*
X522321Y739079D01*
X522244Y739003D01*
X522156Y738915D01*
X522047Y738817D01*
X521926Y738718D01*
X521784Y738619D01*
X521762Y738608D01*
X521718Y738576D01*
X521642Y738532D01*
X521543Y738477D01*
X521412Y738422D01*
X521270Y738357D01*
X521116Y738291D01*
X520941Y738225D01*
X520952D01*
X520985Y738203D01*
X521029Y738182D01*
X521083Y738149D01*
X521215Y738061D01*
X521368Y737952D01*
X521379Y737941D01*
X521401Y737919D01*
X521445Y737886D01*
X521499Y737842D01*
X521620Y737722D01*
X521751Y737558D01*
X521762Y737547D01*
X521784Y737514D01*
X521817Y737470D01*
X521861Y737415D01*
X521916Y737339D01*
X521970Y737251D01*
X522091Y737043D01*
X522102Y737032D01*
X522123Y736988D01*
X522156Y736934D01*
X522189Y736857D01*
X522244Y736758D01*
X522299Y736649D01*
X522353Y736517D01*
X522408Y736386D01*
X523273Y734350D01*
X523284Y734339D01*
X523295Y734295D01*
X523317Y734240D01*
X523339Y734175D01*
X523393Y734032D01*
X523415Y733967D01*
X523437Y733901D01*
X523448Y733879D01*
X523459Y733824D01*
X523470Y733759D01*
X523481Y733693D01*
Y733682D01*
Y733638D01*
X523470Y733595D01*
X523448Y733540D01*
X523437Y733529D01*
X523415Y733507D01*
X523372Y733474D01*
X523295Y733441D01*
X523273D01*
X523240Y733430D01*
X523207Y733419D01*
X523098Y733408D01*
X522944Y733398D01*
X522901D01*
X522846Y733387D01*
X522693D01*
X522583Y733376D01*
X522123D01*
X521948Y733387D01*
X521861D01*
X521773Y733398D01*
X521740D01*
X521707Y733408D01*
X521664D01*
X521554Y733419D01*
X521456Y733441D01*
X521434Y733452D01*
X521390Y733474D01*
X521335Y733507D01*
X521292Y733551D01*
X521281Y733562D01*
X521270Y733605D01*
X521248Y733660D01*
X521226Y733726D01*
X520295Y736025D01*
X520284Y736047D01*
X520262Y736091D01*
X520230Y736167D01*
X520197Y736255D01*
X520142Y736364D01*
X520087Y736485D01*
X519967Y736715D01*
X519956Y736725D01*
X519934Y736769D01*
X519901Y736824D01*
X519857Y736890D01*
X519748Y737065D01*
X519606Y737229D01*
X519595Y737240D01*
X519573Y737262D01*
X519529Y737306D01*
X519485Y737349D01*
X519420Y737393D01*
X519343Y737448D01*
X519157Y737536D01*
X519146D01*
X519113Y737558D01*
X519058Y737569D01*
X518993Y737590D01*
X518905Y737612D01*
X518806Y737623D01*
X518686Y737645D01*
X517920D01*
Y733704D01*
Y733693D01*
X517909Y733660D01*
X517898Y733616D01*
X517865Y733562D01*
X517854Y733551D01*
X517821Y733529D01*
X517766Y733485D01*
X517690Y733452D01*
X517668D01*
X517602Y733430D01*
X517504Y733419D01*
X517372Y733398D01*
X517340D01*
X517296Y733387D01*
X517164D01*
X517077Y733376D01*
X516683D01*
X516507Y733387D01*
X516343Y733398D01*
X516310D01*
X516278Y733408D01*
X516234D01*
X516124Y733430D01*
X516026Y733452D01*
X516004Y733463D01*
X515960Y733485D01*
X515905Y733518D01*
X515862Y733562D01*
X515851Y733573D01*
X515840Y733605D01*
X515829Y733649D01*
X515818Y733704D01*
Y743086D01*
Y743097D01*
Y743141D01*
X515829Y743206D01*
X515840Y743283D01*
X515862Y743360D01*
X515894Y743447D01*
X515938Y743524D01*
X515993Y743589D01*
X516004Y743600D01*
X516026Y743611D01*
X516059Y743644D01*
X516113Y743677D01*
X516179Y743699D01*
X516256Y743732D01*
X516332Y743743D01*
X516431Y743754D01*
X519452D01*
X519562Y743743D01*
D02*
G37*
G36*
X510355D02*
X510475D01*
X510574Y743732D01*
X510672D01*
X510738Y743721D01*
X510891Y743710D01*
X511056Y743688D01*
X511088D01*
X511121Y743677D01*
X511165Y743666D01*
X511275Y743644D01*
X511428Y743622D01*
X511603Y743579D01*
X511789Y743524D01*
X511975Y743458D01*
X512172Y743382D01*
X512183D01*
X512194Y743371D01*
X512260Y743349D01*
X512347Y743294D01*
X512468Y743239D01*
X512599Y743152D01*
X512742Y743064D01*
X512884Y742944D01*
X513015Y742823D01*
X513026Y742812D01*
X513070Y742768D01*
X513136Y742692D01*
X513212Y742593D01*
X513300Y742473D01*
X513387Y742331D01*
X513475Y742177D01*
X513552Y742002D01*
X513563Y741980D01*
X513585Y741915D01*
X513606Y741816D01*
X513650Y741696D01*
X513683Y741531D01*
X513705Y741345D01*
X513727Y741137D01*
X513738Y740918D01*
Y740907D01*
Y740897D01*
Y740831D01*
X513727Y740732D01*
X513716Y740601D01*
X513705Y740459D01*
X513683Y740294D01*
X513639Y740130D01*
X513595Y739966D01*
X513585Y739944D01*
X513573Y739889D01*
X513541Y739813D01*
X513497Y739714D01*
X513442Y739594D01*
X513377Y739462D01*
X513300Y739331D01*
X513212Y739200D01*
X513201Y739189D01*
X513168Y739145D01*
X513114Y739079D01*
X513037Y739003D01*
X512949Y738915D01*
X512840Y738817D01*
X512720Y738718D01*
X512577Y738619D01*
X512555Y738608D01*
X512512Y738576D01*
X512435Y738532D01*
X512337Y738477D01*
X512205Y738422D01*
X512063Y738357D01*
X511909Y738291D01*
X511734Y738225D01*
X511745D01*
X511778Y738203D01*
X511822Y738182D01*
X511877Y738149D01*
X512008Y738061D01*
X512161Y737952D01*
X512172Y737941D01*
X512194Y737919D01*
X512238Y737886D01*
X512293Y737842D01*
X512413Y737722D01*
X512545Y737558D01*
X512555Y737547D01*
X512577Y737514D01*
X512610Y737470D01*
X512654Y737415D01*
X512709Y737339D01*
X512763Y737251D01*
X512884Y737043D01*
X512895Y737032D01*
X512917Y736988D01*
X512949Y736934D01*
X512982Y736857D01*
X513037Y736758D01*
X513092Y736649D01*
X513147Y736517D01*
X513201Y736386D01*
X514066Y734350D01*
X514077Y734339D01*
X514088Y734295D01*
X514110Y734240D01*
X514132Y734175D01*
X514187Y734032D01*
X514208Y733967D01*
X514230Y733901D01*
X514241Y733879D01*
X514252Y733824D01*
X514263Y733759D01*
X514274Y733693D01*
Y733682D01*
Y733638D01*
X514263Y733595D01*
X514241Y733540D01*
X514230Y733529D01*
X514208Y733507D01*
X514165Y733474D01*
X514088Y733441D01*
X514066D01*
X514033Y733430D01*
X514001Y733419D01*
X513891Y733408D01*
X513738Y733398D01*
X513694D01*
X513639Y733387D01*
X513486D01*
X513377Y733376D01*
X512917D01*
X512742Y733387D01*
X512654D01*
X512566Y733398D01*
X512533D01*
X512501Y733408D01*
X512457D01*
X512347Y733419D01*
X512249Y733441D01*
X512227Y733452D01*
X512183Y733474D01*
X512128Y733507D01*
X512085Y733551D01*
X512074Y733562D01*
X512063Y733605D01*
X512041Y733660D01*
X512019Y733726D01*
X511088Y736025D01*
X511077Y736047D01*
X511056Y736091D01*
X511023Y736167D01*
X510990Y736255D01*
X510935Y736364D01*
X510881Y736485D01*
X510760Y736715D01*
X510749Y736725D01*
X510727Y736769D01*
X510694Y736824D01*
X510651Y736890D01*
X510541Y737065D01*
X510399Y737229D01*
X510388Y737240D01*
X510366Y737262D01*
X510322Y737306D01*
X510278Y737349D01*
X510213Y737393D01*
X510136Y737448D01*
X509950Y737536D01*
X509939D01*
X509906Y737558D01*
X509851Y737569D01*
X509786Y737590D01*
X509698Y737612D01*
X509600Y737623D01*
X509479Y737645D01*
X508713D01*
Y733704D01*
Y733693D01*
X508702Y733660D01*
X508691Y733616D01*
X508658Y733562D01*
X508647Y733551D01*
X508614Y733529D01*
X508560Y733485D01*
X508483Y733452D01*
X508461D01*
X508395Y733430D01*
X508297Y733419D01*
X508166Y733398D01*
X508133D01*
X508089Y733387D01*
X507957D01*
X507870Y733376D01*
X507476D01*
X507301Y733387D01*
X507136Y733398D01*
X507104D01*
X507071Y733408D01*
X507027D01*
X506917Y733430D01*
X506819Y733452D01*
X506797Y733463D01*
X506753Y733485D01*
X506699Y733518D01*
X506655Y733562D01*
X506644Y733573D01*
X506633Y733605D01*
X506622Y733649D01*
X506611Y733704D01*
Y743086D01*
Y743097D01*
Y743141D01*
X506622Y743206D01*
X506633Y743283D01*
X506655Y743360D01*
X506688Y743447D01*
X506731Y743524D01*
X506786Y743589D01*
X506797Y743600D01*
X506819Y743611D01*
X506852Y743644D01*
X506907Y743677D01*
X506972Y743699D01*
X507049Y743732D01*
X507126Y743743D01*
X507224Y743754D01*
X510246D01*
X510355Y743743D01*
D02*
G37*
G36*
X550368Y745286D02*
X550455Y745275D01*
X550532Y745265D01*
X550543D01*
X550565Y745254D01*
X550609D01*
X550652Y745243D01*
X550751Y745210D01*
X550839Y745166D01*
X550860Y745155D01*
X550893Y745122D01*
X550937Y745067D01*
X550959Y745002D01*
Y744980D01*
X550970Y744936D01*
X550959Y744859D01*
X550948Y744761D01*
X546186Y731361D01*
X546175Y731339D01*
X546153Y731296D01*
X546120Y731241D01*
X546076Y731186D01*
X546065Y731175D01*
X546033Y731153D01*
X545967Y731120D01*
X545890Y731088D01*
X545868Y731077D01*
X545814Y731066D01*
X545726Y731044D01*
X545606Y731022D01*
X545573D01*
X545540Y731011D01*
X545430D01*
X545354Y731000D01*
X544993D01*
X544817Y731011D01*
X544730Y731022D01*
X544642Y731033D01*
X544631D01*
X544609Y731044D01*
X544566D01*
X544522Y731055D01*
X544423Y731088D01*
X544325Y731131D01*
X544303Y731142D01*
X544270Y731175D01*
X544226Y731230D01*
X544193Y731296D01*
Y731318D01*
Y731361D01*
X544204Y731438D01*
X544237Y731536D01*
X549010Y744936D01*
Y744958D01*
X549032Y744991D01*
X549054Y745045D01*
X549098Y745100D01*
X549109Y745111D01*
X549142Y745144D01*
X549196Y745177D01*
X549273Y745210D01*
X549295Y745221D01*
X549350Y745232D01*
X549437Y745254D01*
X549558Y745275D01*
X549590D01*
X549634Y745286D01*
X549755D01*
X549831Y745297D01*
X550193D01*
X550368Y745286D01*
D02*
G37*
G36*
X423175Y744760D02*
X423559Y744733D01*
X423723D01*
X423833Y744705D01*
X424080Y744678D01*
X424299Y744596D01*
X424354Y744568D01*
X424436Y744513D01*
X424573Y744431D01*
X424655Y744322D01*
X424682Y744294D01*
X424710Y744239D01*
X424737Y744130D01*
X424765Y743993D01*
Y743965D01*
Y743911D01*
X424737Y743746D01*
Y743719D01*
Y743664D01*
Y743554D01*
X424710Y743445D01*
Y743417D01*
X424682Y743335D01*
X424655Y743225D01*
X424628Y743061D01*
Y743034D01*
X424600Y742924D01*
X424573Y742759D01*
X424518Y742568D01*
X419146Y726425D01*
Y726398D01*
X419119Y726370D01*
X419064Y726233D01*
X418982Y726041D01*
X418872Y725850D01*
X418845Y725822D01*
X418735Y725740D01*
X418571Y725630D01*
X418297Y725548D01*
X418269D01*
X418214Y725521D01*
X418132D01*
X418023Y725493D01*
X417886Y725466D01*
X417694Y725439D01*
X417502D01*
X417255Y725411D01*
X417146D01*
X416981Y725384D01*
X416543D01*
X416241Y725356D01*
X414898D01*
X414624Y725384D01*
X414049D01*
X413775Y725411D01*
X413665D01*
X413555Y725439D01*
X413391Y725466D01*
X413062Y725493D01*
X412733Y725575D01*
X412706D01*
X412678Y725603D01*
X412514Y725658D01*
X412322Y725740D01*
X412158Y725877D01*
X412130Y725904D01*
X412075Y726041D01*
X411993Y726206D01*
X411911Y726425D01*
X406539Y742568D01*
Y742595D01*
X406512Y742622D01*
X406484Y742787D01*
X406402Y743006D01*
X406347Y743253D01*
Y743280D01*
Y743308D01*
X406320Y743445D01*
X406293Y743582D01*
X406265Y743719D01*
Y743746D01*
Y743828D01*
Y743993D01*
Y744020D01*
X406293Y744102D01*
X406320Y744212D01*
X406375Y744322D01*
X406402Y744349D01*
X406457Y744431D01*
X406594Y744513D01*
X406758Y744596D01*
X406813Y744623D01*
X406950Y744650D01*
X407197Y744705D01*
X407526Y744733D01*
X407608D01*
X407718Y744760D01*
X408047D01*
X408266Y744788D01*
X409225D01*
X409664Y744760D01*
X409883D01*
X410075Y744733D01*
X410157D01*
X410239Y744705D01*
X410349D01*
X410595Y744650D01*
X410842Y744568D01*
X410869D01*
X410897Y744541D01*
X411007Y744513D01*
X411144Y744431D01*
X411253Y744322D01*
X411281Y744294D01*
X411335Y744212D01*
X411418Y744075D01*
X411473Y743911D01*
X415556Y730810D01*
X415666Y730317D01*
X415775Y730810D01*
X419777Y743911D01*
Y743965D01*
X419832Y744048D01*
X419886Y744185D01*
X419968Y744322D01*
X419996Y744349D01*
X420078Y744404D01*
X420188Y744486D01*
X420380Y744568D01*
X420434Y744596D01*
X420571Y744623D01*
X420818Y744678D01*
X421120Y744733D01*
X421202D01*
X421311Y744760D01*
X421640D01*
X421860Y744788D01*
X422791D01*
X423175Y744760D01*
D02*
G37*
G36*
X321990Y751776D02*
X322182D01*
X322675Y751749D01*
X323223Y751667D01*
X323826Y751584D01*
X324429Y751447D01*
X325005Y751283D01*
X325032D01*
X325059Y751255D01*
X325142Y751228D01*
X325251Y751201D01*
X325525Y751064D01*
X325882Y750899D01*
X326265Y750707D01*
X326704Y750461D01*
X327115Y750187D01*
X327499Y749858D01*
X327553Y749830D01*
X327663Y749693D01*
X327855Y749501D01*
X328074Y749255D01*
X328321Y748926D01*
X328568Y748570D01*
X328814Y748159D01*
X329006Y747693D01*
X329033Y747638D01*
X329088Y747473D01*
X329170Y747227D01*
X329253Y746898D01*
X329335Y746487D01*
X329417Y746048D01*
X329472Y745527D01*
X329499Y745007D01*
Y744952D01*
Y744788D01*
Y744541D01*
X329472Y744212D01*
X329445Y743856D01*
X329390Y743417D01*
X329335Y742979D01*
X329253Y742513D01*
Y742458D01*
X329198Y742294D01*
X329143Y742047D01*
X329033Y741745D01*
X328896Y741334D01*
X328732Y740896D01*
X328513Y740403D01*
X328239Y739882D01*
Y739854D01*
X328211Y739827D01*
X328156Y739745D01*
X328102Y739635D01*
X327937Y739361D01*
X327691Y738977D01*
X327389Y738512D01*
X327033Y737963D01*
X326594Y737388D01*
X326101Y736757D01*
X326073Y736730D01*
X326046Y736675D01*
X325964Y736593D01*
X325854Y736456D01*
X325717Y736292D01*
X325553Y736100D01*
X325361Y735880D01*
X325142Y735634D01*
X324621Y735058D01*
X323991Y734373D01*
X323278Y733633D01*
X322456Y732811D01*
X319441Y729714D01*
X329664D01*
X329746Y729687D01*
X329856Y729659D01*
X329993Y729577D01*
X330020Y729549D01*
X330102Y729495D01*
X330185Y729385D01*
X330267Y729221D01*
X330294Y729166D01*
X330349Y729056D01*
X330404Y728837D01*
X330458Y728563D01*
Y728535D01*
X330486Y728481D01*
Y728398D01*
X330513Y728289D01*
X330541Y727987D01*
Y727576D01*
Y727549D01*
Y727494D01*
Y727384D01*
Y727247D01*
X330513Y726918D01*
X330486Y726590D01*
Y726562D01*
Y726535D01*
X330458Y726343D01*
X330404Y726151D01*
X330322Y725932D01*
X330294Y725904D01*
X330267Y725795D01*
X330185Y725685D01*
X330075Y725575D01*
X330047Y725548D01*
X329965Y725521D01*
X329856Y725493D01*
X329719Y725466D01*
X314590D01*
X314316Y725493D01*
X314069Y725521D01*
X314015Y725548D01*
X313905Y725603D01*
X313713Y725685D01*
X313549Y725822D01*
X313521Y725877D01*
X313439Y726014D01*
X313357Y726206D01*
X313275Y726507D01*
Y726535D01*
Y726590D01*
X313247Y726672D01*
Y726809D01*
X313220Y726973D01*
Y727193D01*
X313192Y727412D01*
Y727658D01*
Y727686D01*
Y727768D01*
Y727905D01*
Y728042D01*
X313220Y728398D01*
X313247Y728782D01*
Y728810D01*
Y728864D01*
X313275Y728947D01*
X313302Y729056D01*
X313357Y729330D01*
X313466Y729604D01*
Y729632D01*
X313494Y729659D01*
X313576Y729851D01*
X313713Y730070D01*
X313878Y730317D01*
Y730344D01*
X313932Y730372D01*
X314042Y730564D01*
X314261Y730810D01*
X314508Y731112D01*
X319003Y735908D01*
X319030Y735935D01*
X319057Y735963D01*
X319140Y736045D01*
X319222Y736154D01*
X319468Y736401D01*
X319770Y736757D01*
X320126Y737141D01*
X320482Y737580D01*
X320839Y738018D01*
X321168Y738457D01*
X321195Y738512D01*
X321305Y738649D01*
X321442Y738868D01*
X321634Y739142D01*
X321825Y739471D01*
X322045Y739827D01*
X322237Y740183D01*
X322428Y740539D01*
X322456Y740594D01*
X322511Y740704D01*
X322593Y740896D01*
X322675Y741115D01*
X322785Y741389D01*
X322894Y741691D01*
X322976Y741992D01*
X323059Y742294D01*
Y742321D01*
X323086Y742431D01*
X323114Y742595D01*
X323168Y742787D01*
X323196Y743034D01*
X323223Y743280D01*
X323251Y743828D01*
Y743856D01*
Y743938D01*
Y744075D01*
X323223Y744239D01*
X323168Y744623D01*
X323031Y745062D01*
Y745089D01*
X323004Y745171D01*
X322949Y745281D01*
X322867Y745418D01*
X322675Y745747D01*
X322401Y746103D01*
X322374Y746131D01*
X322319Y746185D01*
X322237Y746267D01*
X322127Y746350D01*
X321963Y746459D01*
X321798Y746569D01*
X321360Y746788D01*
X321332D01*
X321250Y746843D01*
X321113Y746870D01*
X320948Y746925D01*
X320757Y746980D01*
X320510Y747008D01*
X320236Y747062D01*
X319743D01*
X319523Y747035D01*
X319222D01*
X318893Y746980D01*
X318537Y746925D01*
X318180Y746843D01*
X317824Y746733D01*
X317797D01*
X317660Y746679D01*
X317495Y746624D01*
X317276Y746542D01*
X317029Y746432D01*
X316783Y746322D01*
X316234Y746048D01*
X316207Y746021D01*
X316125Y745993D01*
X315988Y745911D01*
X315823Y745829D01*
X315467Y745610D01*
X315083Y745390D01*
X315056D01*
X315001Y745336D01*
X314919Y745308D01*
X314809Y745254D01*
X314590Y745144D01*
X314480Y745116D01*
X314371Y745089D01*
X314343D01*
X314261Y745116D01*
X314152Y745144D01*
X314042Y745199D01*
X314015Y745226D01*
X313987Y745281D01*
X313905Y745418D01*
X313850Y745582D01*
Y745610D01*
Y745637D01*
X313795Y745802D01*
X313768Y746021D01*
X313713Y746350D01*
Y746377D01*
Y746432D01*
Y746542D01*
Y746679D01*
X313686Y746843D01*
Y747035D01*
Y747501D01*
Y747528D01*
Y747583D01*
Y747665D01*
Y747747D01*
Y747994D01*
X313713Y748241D01*
Y748268D01*
Y748296D01*
X313741Y748433D01*
X313768Y748624D01*
X313795Y748789D01*
Y748844D01*
X313823Y748926D01*
X313878Y749063D01*
X313932Y749200D01*
X313960Y749227D01*
X314015Y749310D01*
X314124Y749447D01*
X314289Y749611D01*
X314316D01*
X314343Y749666D01*
X314398Y749721D01*
X314508Y749776D01*
X314645Y749858D01*
X314809Y749967D01*
X315001Y750077D01*
X315221Y750214D01*
X315248Y750241D01*
X315330Y750269D01*
X315494Y750351D01*
X315686Y750461D01*
X315906Y750570D01*
X316180Y750680D01*
X316509Y750817D01*
X316865Y750954D01*
X316920Y750982D01*
X317029Y751009D01*
X317249Y751091D01*
X317495Y751173D01*
X317824Y751255D01*
X318208Y751365D01*
X318591Y751475D01*
X319030Y751557D01*
X319085D01*
X319222Y751584D01*
X319468Y751639D01*
X319770Y751694D01*
X320154Y751721D01*
X320565Y751776D01*
X321003Y751804D01*
X321798D01*
X321990Y751776D01*
D02*
G37*
G36*
X267423Y751283D02*
X267533Y751228D01*
X267560Y751201D01*
X267615Y751146D01*
X267697Y751036D01*
X267780Y750872D01*
X267807Y750817D01*
X267834Y750707D01*
X267889Y750516D01*
X267944Y750241D01*
Y750214D01*
Y750187D01*
X267971Y750077D01*
Y749967D01*
Y749830D01*
X267999Y749666D01*
Y749255D01*
Y749227D01*
Y749173D01*
Y749063D01*
Y748926D01*
X267971Y748597D01*
X267944Y748296D01*
Y748268D01*
Y748241D01*
X267917Y748076D01*
X267862Y747857D01*
X267780Y747665D01*
X267752Y747638D01*
X267725Y747556D01*
X267643Y747446D01*
X267533Y747336D01*
X267506Y747309D01*
X267451Y747282D01*
X267341Y747254D01*
X267232Y747227D01*
X258023D01*
Y740923D01*
X265834D01*
X265916Y740896D01*
X266026Y740868D01*
X266135Y740786D01*
X266163Y740759D01*
X266217Y740704D01*
X266300Y740594D01*
X266382Y740457D01*
X266409Y740430D01*
X266437Y740293D01*
X266492Y740101D01*
X266546Y739827D01*
Y739800D01*
Y739772D01*
X266574Y739690D01*
Y739580D01*
X266601Y739279D01*
Y738895D01*
Y738868D01*
Y738785D01*
Y738676D01*
Y738539D01*
X266574Y738237D01*
X266546Y737908D01*
Y737881D01*
Y737854D01*
X266519Y737689D01*
X266464Y737497D01*
X266382Y737306D01*
X266355Y737278D01*
X266327Y737196D01*
X266245Y737086D01*
X266135Y736977D01*
X266108D01*
X266053Y736949D01*
X265943Y736922D01*
X265806Y736895D01*
X258023D01*
Y729577D01*
X267341D01*
X267423Y729549D01*
X267533Y729522D01*
X267643Y729440D01*
X267670Y729413D01*
X267725Y729358D01*
X267807Y729248D01*
X267889Y729084D01*
X267917Y729056D01*
X267944Y728919D01*
X267999Y728727D01*
X268054Y728481D01*
Y728453D01*
Y728426D01*
X268081Y728316D01*
Y728207D01*
X268109Y727905D01*
Y727521D01*
Y727494D01*
Y727412D01*
Y727302D01*
Y727165D01*
X268081Y726864D01*
X268054Y726535D01*
Y726507D01*
Y726480D01*
X268026Y726316D01*
X267971Y726096D01*
X267889Y725904D01*
X267862Y725877D01*
X267834Y725795D01*
X267752Y725685D01*
X267643Y725575D01*
X267615Y725548D01*
X267560Y725521D01*
X267451Y725493D01*
X267314Y725466D01*
X254213D01*
X254104Y725493D01*
X253939Y725521D01*
X253583Y725630D01*
X253391Y725713D01*
X253227Y725850D01*
X253199Y725877D01*
X253172Y725932D01*
X253090Y726014D01*
X253008Y726151D01*
X252925Y726316D01*
X252871Y726535D01*
X252816Y726809D01*
X252788Y727110D01*
Y749666D01*
Y749693D01*
Y749803D01*
X252816Y749967D01*
X252843Y750159D01*
X252898Y750351D01*
X252980Y750570D01*
X253090Y750762D01*
X253227Y750927D01*
X253254Y750954D01*
X253309Y750982D01*
X253391Y751064D01*
X253528Y751146D01*
X253693Y751201D01*
X253885Y751283D01*
X254076Y751310D01*
X254323Y751338D01*
X267341D01*
X267423Y751283D01*
D02*
G37*
G36*
X447951Y751420D02*
X448252D01*
X448526Y751393D01*
X448773D01*
X448937Y751365D01*
X449294Y751338D01*
X449458Y751283D01*
X449622Y751255D01*
X449650D01*
X449677Y751228D01*
X449842Y751173D01*
X450033Y751064D01*
X450198Y750927D01*
X450225Y750899D01*
X450308Y750762D01*
X450390Y750570D01*
X450499Y750324D01*
X458475Y727412D01*
Y727384D01*
X458502Y727302D01*
X458557Y727165D01*
X458612Y727001D01*
X458694Y726617D01*
X458776Y726261D01*
Y726233D01*
Y726206D01*
Y726041D01*
X458721Y725822D01*
X458612Y725658D01*
X458557Y725630D01*
X458420Y725548D01*
X458310Y725521D01*
X458173Y725466D01*
X458009Y725439D01*
X457817Y725411D01*
X457707D01*
X457598Y725384D01*
X457214D01*
X456940Y725356D01*
X455707D01*
X455186Y725384D01*
X454939D01*
X454693Y725411D01*
X454501D01*
X454391Y725439D01*
X454117Y725466D01*
X453843Y725493D01*
X453788Y725521D01*
X453679Y725548D01*
X453542Y725630D01*
X453405Y725740D01*
X453377Y725767D01*
X453350Y725850D01*
X453268Y725987D01*
X453213Y726151D01*
X451486Y731358D01*
X441757D01*
X440112Y726288D01*
X440085Y726233D01*
X440057Y726124D01*
X439975Y725987D01*
X439893Y725822D01*
X439866Y725795D01*
X439811Y725713D01*
X439674Y725603D01*
X439482Y725521D01*
X439427D01*
X439290Y725466D01*
X439016Y725439D01*
X438660Y725411D01*
X438578D01*
X438441Y725384D01*
X438084D01*
X437865Y725356D01*
X436769D01*
X436275Y725384D01*
X436056D01*
X435837Y725411D01*
X435755D01*
X435672Y725439D01*
X435563Y725466D01*
X435316Y725548D01*
X435207Y725603D01*
X435124Y725685D01*
X435097Y725740D01*
X435042Y725850D01*
X434987Y726069D01*
Y726343D01*
Y726370D01*
Y726425D01*
X435015Y726507D01*
X435042Y726644D01*
X435097Y726809D01*
X435152Y727001D01*
X435207Y727220D01*
X435289Y727467D01*
X443264Y750406D01*
Y750433D01*
X443292Y750461D01*
X443346Y750598D01*
X443429Y750762D01*
X443538Y750927D01*
X443566Y750954D01*
X443675Y751064D01*
X443840Y751146D01*
X444059Y751255D01*
X444086D01*
X444114Y751283D01*
X444196D01*
X444306Y751310D01*
X444443Y751338D01*
X444607Y751365D01*
X445018Y751393D01*
X445128D01*
X445265Y751420D01*
X445703D01*
X445977Y751447D01*
X447649D01*
X447951Y751420D01*
D02*
G37*
G36*
X374391Y751310D02*
X374693D01*
X374939Y751283D01*
X375186D01*
X375351Y751255D01*
X375734Y751228D01*
X376145Y751173D01*
X376228D01*
X376310Y751146D01*
X376419Y751118D01*
X376693Y751064D01*
X377077Y751009D01*
X377516Y750899D01*
X377982Y750762D01*
X378447Y750598D01*
X378941Y750406D01*
X378968D01*
X378996Y750378D01*
X379160Y750324D01*
X379379Y750187D01*
X379681Y750050D01*
X380010Y749830D01*
X380366Y749611D01*
X380722Y749310D01*
X381051Y749008D01*
X381078Y748981D01*
X381188Y748871D01*
X381353Y748679D01*
X381544Y748433D01*
X381764Y748131D01*
X381983Y747775D01*
X382202Y747391D01*
X382394Y746953D01*
X382421Y746898D01*
X382476Y746733D01*
X382531Y746487D01*
X382641Y746185D01*
X382723Y745774D01*
X382778Y745308D01*
X382833Y744788D01*
X382860Y744239D01*
Y744212D01*
Y744185D01*
Y744020D01*
X382833Y743773D01*
X382805Y743445D01*
X382778Y743088D01*
X382723Y742677D01*
X382613Y742266D01*
X382504Y741855D01*
X382476Y741800D01*
X382449Y741663D01*
X382367Y741471D01*
X382257Y741225D01*
X382120Y740923D01*
X381955Y740594D01*
X381764Y740266D01*
X381544Y739937D01*
X381517Y739909D01*
X381435Y739800D01*
X381298Y739635D01*
X381106Y739443D01*
X380887Y739224D01*
X380613Y738977D01*
X380311Y738731D01*
X379955Y738484D01*
X379900Y738457D01*
X379790Y738374D01*
X379599Y738265D01*
X379352Y738128D01*
X379023Y737991D01*
X378667Y737826D01*
X378283Y737662D01*
X377845Y737497D01*
X377872D01*
X377954Y737443D01*
X378064Y737388D01*
X378201Y737306D01*
X378530Y737086D01*
X378913Y736812D01*
X378941Y736785D01*
X378996Y736730D01*
X379105Y736648D01*
X379242Y736538D01*
X379544Y736237D01*
X379873Y735826D01*
X379900Y735798D01*
X379955Y735716D01*
X380037Y735606D01*
X380147Y735469D01*
X380284Y735277D01*
X380421Y735058D01*
X380722Y734538D01*
X380750Y734510D01*
X380804Y734400D01*
X380887Y734263D01*
X380969Y734072D01*
X381106Y733825D01*
X381243Y733551D01*
X381380Y733222D01*
X381517Y732893D01*
X383682Y727795D01*
X383710Y727768D01*
X383737Y727658D01*
X383792Y727521D01*
X383847Y727357D01*
X383984Y727001D01*
X384038Y726836D01*
X384093Y726672D01*
X384121Y726617D01*
X384148Y726480D01*
X384175Y726316D01*
X384203Y726151D01*
Y726124D01*
Y726014D01*
X384175Y725904D01*
X384121Y725767D01*
X384093Y725740D01*
X384038Y725685D01*
X383929Y725603D01*
X383737Y725521D01*
X383682D01*
X383600Y725493D01*
X383518Y725466D01*
X383244Y725439D01*
X382860Y725411D01*
X382750D01*
X382613Y725384D01*
X382230D01*
X381955Y725356D01*
X380804D01*
X380366Y725384D01*
X380147D01*
X379927Y725411D01*
X379845D01*
X379763Y725439D01*
X379653D01*
X379379Y725466D01*
X379133Y725521D01*
X379078Y725548D01*
X378968Y725603D01*
X378831Y725685D01*
X378722Y725795D01*
X378694Y725822D01*
X378667Y725932D01*
X378612Y726069D01*
X378557Y726233D01*
X376228Y731989D01*
X376200Y732044D01*
X376145Y732153D01*
X376063Y732345D01*
X375981Y732564D01*
X375844Y732838D01*
X375707Y733140D01*
X375405Y733715D01*
X375378Y733743D01*
X375323Y733852D01*
X375241Y733989D01*
X375131Y734154D01*
X374857Y734592D01*
X374501Y735003D01*
X374473Y735031D01*
X374419Y735086D01*
X374309Y735195D01*
X374199Y735305D01*
X374035Y735415D01*
X373843Y735552D01*
X373377Y735771D01*
X373350D01*
X373268Y735826D01*
X373131Y735853D01*
X372966Y735908D01*
X372747Y735963D01*
X372500Y735990D01*
X372199Y736045D01*
X370280D01*
Y726179D01*
Y726151D01*
X370253Y726069D01*
X370225Y725959D01*
X370143Y725822D01*
X370116Y725795D01*
X370034Y725740D01*
X369897Y725630D01*
X369705Y725548D01*
X369650D01*
X369486Y725493D01*
X369239Y725466D01*
X368910Y725411D01*
X368828D01*
X368718Y725384D01*
X368389D01*
X368170Y725356D01*
X367183D01*
X366745Y725384D01*
X366334Y725411D01*
X366252D01*
X366169Y725439D01*
X366060D01*
X365786Y725493D01*
X365539Y725548D01*
X365484Y725575D01*
X365375Y725630D01*
X365238Y725713D01*
X365128Y725822D01*
X365101Y725850D01*
X365073Y725932D01*
X365046Y726041D01*
X365018Y726179D01*
Y749666D01*
Y749693D01*
Y749803D01*
X365046Y749967D01*
X365073Y750159D01*
X365128Y750351D01*
X365210Y750570D01*
X365320Y750762D01*
X365457Y750927D01*
X365484Y750954D01*
X365539Y750982D01*
X365621Y751064D01*
X365758Y751146D01*
X365923Y751201D01*
X366115Y751283D01*
X366306Y751310D01*
X366553Y751338D01*
X374117D01*
X374391Y751310D01*
D02*
G37*
G36*
X346437Y751420D02*
X346738D01*
X347012Y751393D01*
X347122D01*
X347259Y751365D01*
X347423D01*
X347807Y751310D01*
X348163Y751228D01*
X348191D01*
X348245Y751201D01*
X348410Y751146D01*
X348602Y751064D01*
X348794Y750954D01*
X348821Y750927D01*
X348903Y750844D01*
X348985Y750735D01*
X349013Y750570D01*
Y735031D01*
X351342D01*
X351479Y734976D01*
X351562Y734921D01*
X351671Y734812D01*
X351754Y734702D01*
X351836Y734538D01*
Y734510D01*
X351863Y734455D01*
X351918Y734318D01*
X351973Y734154D01*
X352000Y733907D01*
X352055Y733633D01*
X352082Y733304D01*
Y732893D01*
Y732838D01*
Y732729D01*
Y732537D01*
X352055Y732318D01*
X352000Y731824D01*
X351945Y731578D01*
X351863Y731358D01*
Y731331D01*
X351836Y731276D01*
X351699Y731112D01*
X351534Y730920D01*
X351425Y730865D01*
X351288Y730838D01*
X349013D01*
Y726151D01*
Y726124D01*
X348985Y726014D01*
X348958Y725904D01*
X348876Y725767D01*
X348848Y725740D01*
X348794Y725685D01*
X348657Y725630D01*
X348465Y725548D01*
X348410D01*
X348245Y725493D01*
X347999Y725466D01*
X347670Y725411D01*
X347588D01*
X347478Y725384D01*
X347177D01*
X346957Y725356D01*
X346026D01*
X345642Y725384D01*
X345231Y725411D01*
X345149D01*
X345066Y725439D01*
X344957D01*
X344683Y725493D01*
X344436Y725548D01*
X344381Y725575D01*
X344299Y725603D01*
X344162Y725685D01*
X344052Y725767D01*
X344025Y725795D01*
X343997Y725877D01*
X343970Y725987D01*
X343943Y726151D01*
Y730838D01*
X333884D01*
X333720Y730865D01*
X333555Y730892D01*
X333528Y730920D01*
X333419Y730975D01*
X333309Y731057D01*
X333172Y731221D01*
X333144Y731276D01*
X333090Y731413D01*
X333035Y731632D01*
X332952Y731934D01*
Y731961D01*
Y732016D01*
X332925Y732126D01*
Y732263D01*
Y732455D01*
X332898Y732674D01*
Y732921D01*
Y733195D01*
Y733222D01*
Y733304D01*
Y733414D01*
Y733578D01*
Y733934D01*
X332925Y734291D01*
Y734318D01*
Y734373D01*
Y734455D01*
X332952Y734565D01*
X332980Y734839D01*
X333007Y735140D01*
Y735168D01*
X333035Y735195D01*
X333062Y735387D01*
X333117Y735606D01*
X333199Y735853D01*
Y735880D01*
X333227Y735908D01*
X333309Y736072D01*
X333419Y736292D01*
X333555Y736566D01*
X341586Y750735D01*
X341613Y750762D01*
X341668Y750844D01*
X341750Y750954D01*
X341914Y751036D01*
X341969Y751064D01*
X342079Y751118D01*
X342298Y751201D01*
X342572Y751255D01*
X342600D01*
X342654Y751283D01*
X342737D01*
X342874Y751310D01*
X343038Y751338D01*
X343230Y751365D01*
X343669Y751393D01*
X343778D01*
X343915Y751420D01*
X344354D01*
X344628Y751447D01*
X346135D01*
X346437Y751420D01*
D02*
G37*
G36*
X239688Y751310D02*
X239989D01*
X240592Y751255D01*
X240620D01*
X240757Y751228D01*
X240921D01*
X241168Y751201D01*
X241442Y751146D01*
X241798Y751091D01*
X242182Y751036D01*
X242593Y750954D01*
X242648D01*
X242785Y750899D01*
X243032Y750844D01*
X243306Y750762D01*
X243662Y750653D01*
X244073Y750516D01*
X244484Y750324D01*
X244923Y750104D01*
X244950D01*
X244977Y750077D01*
X245114Y749995D01*
X245361Y749858D01*
X245635Y749666D01*
X245937Y749447D01*
X246293Y749173D01*
X246622Y748871D01*
X246951Y748515D01*
X246978Y748460D01*
X247088Y748350D01*
X247252Y748159D01*
X247444Y747885D01*
X247636Y747583D01*
X247855Y747199D01*
X248047Y746788D01*
X248239Y746322D01*
X248266Y746267D01*
X248321Y746103D01*
X248376Y745829D01*
X248485Y745500D01*
X248568Y745062D01*
X248622Y744596D01*
X248677Y744048D01*
X248705Y743472D01*
Y743445D01*
Y743390D01*
Y743253D01*
Y743116D01*
X248677Y742924D01*
Y742705D01*
X248650Y742458D01*
X248622Y742184D01*
X248540Y741581D01*
X248403Y740923D01*
X248239Y740266D01*
X248020Y739608D01*
Y739580D01*
X247992Y739526D01*
X247937Y739443D01*
X247882Y739334D01*
X247745Y739032D01*
X247526Y738621D01*
X247225Y738183D01*
X246896Y737717D01*
X246485Y737251D01*
X246019Y736785D01*
X245991D01*
X245964Y736730D01*
X245882Y736675D01*
X245800Y736593D01*
X245525Y736401D01*
X245142Y736127D01*
X244676Y735853D01*
X244128Y735552D01*
X243525Y735277D01*
X242840Y735031D01*
X242812D01*
X242757Y735003D01*
X242648Y734976D01*
X242511Y734949D01*
X242319Y734894D01*
X242100Y734839D01*
X241853Y734784D01*
X241579Y734757D01*
X241278Y734702D01*
X240921Y734647D01*
X240181Y734538D01*
X239332Y734483D01*
X238400Y734455D01*
X236262D01*
Y726179D01*
Y726151D01*
X236235Y726069D01*
X236207Y725959D01*
X236125Y725822D01*
X236098Y725795D01*
X236015Y725740D01*
X235878Y725630D01*
X235686Y725548D01*
X235632D01*
X235467Y725493D01*
X235221Y725466D01*
X234892Y725411D01*
X234809D01*
X234700Y725384D01*
X234371D01*
X234152Y725356D01*
X233165D01*
X232727Y725384D01*
X232316Y725411D01*
X232233D01*
X232151Y725439D01*
X232041D01*
X231767Y725493D01*
X231521Y725548D01*
X231466Y725575D01*
X231356Y725630D01*
X231219Y725713D01*
X231110Y725822D01*
X231082Y725850D01*
X231055Y725932D01*
X231027Y726041D01*
X231000Y726179D01*
Y749447D01*
Y749501D01*
Y749611D01*
X231027Y749776D01*
X231055Y749967D01*
X231110Y750187D01*
X231192Y750433D01*
X231301Y750653D01*
X231466Y750844D01*
X231493Y750872D01*
X231548Y750927D01*
X231658Y751009D01*
X231822Y751091D01*
X231987Y751173D01*
X232206Y751255D01*
X232480Y751310D01*
X232754Y751338D01*
X239414D01*
X239688Y751310D01*
D02*
G37*
G36*
X396371Y745089D02*
X396591D01*
X397111Y745034D01*
X397714Y744952D01*
X398372Y744815D01*
X399002Y744650D01*
X399633Y744431D01*
X399660D01*
X399715Y744404D01*
X399797Y744377D01*
X399907Y744322D01*
X400181Y744157D01*
X400565Y743965D01*
X400976Y743691D01*
X401414Y743390D01*
X401825Y743006D01*
X402236Y742595D01*
X402291Y742540D01*
X402401Y742403D01*
X402593Y742157D01*
X402812Y741828D01*
X403059Y741417D01*
X403305Y740951D01*
X403552Y740403D01*
X403744Y739827D01*
Y739800D01*
X403771Y739745D01*
X403799Y739662D01*
X403826Y739553D01*
X403853Y739389D01*
X403908Y739224D01*
X403991Y738785D01*
X404073Y738292D01*
X404155Y737689D01*
X404210Y737031D01*
X404237Y736346D01*
Y735552D01*
Y735524D01*
Y735415D01*
X404210Y735250D01*
X404182Y735058D01*
X404128Y734839D01*
X404073Y734592D01*
X403963Y734400D01*
X403826Y734209D01*
X403799Y734181D01*
X403744Y734154D01*
X403662Y734072D01*
X403525Y733989D01*
X403360Y733907D01*
X403168Y733852D01*
X402949Y733798D01*
X402675Y733770D01*
X391849D01*
Y733715D01*
Y733578D01*
X391877Y733359D01*
Y733085D01*
X391904Y732756D01*
X391959Y732400D01*
X392096Y731687D01*
X392123Y731660D01*
X392151Y731523D01*
X392206Y731358D01*
X392315Y731139D01*
X392425Y730892D01*
X392562Y730618D01*
X392754Y730344D01*
X392946Y730098D01*
X392973Y730070D01*
X393055Y729988D01*
X393192Y729878D01*
X393357Y729741D01*
X393576Y729577D01*
X393850Y729440D01*
X394151Y729275D01*
X394480Y729138D01*
X394535D01*
X394645Y729084D01*
X394837Y729029D01*
X395111Y728974D01*
X395440Y728919D01*
X395823Y728864D01*
X396234Y728837D01*
X396700Y728810D01*
X397166D01*
X397495Y728837D01*
X397851Y728864D01*
X398235Y728892D01*
X398619Y728947D01*
X399002Y729001D01*
X399057D01*
X399167Y729029D01*
X399359Y729084D01*
X399605Y729138D01*
X399879Y729193D01*
X400154Y729248D01*
X400455Y729330D01*
X400729Y729413D01*
X400756D01*
X400866Y729440D01*
X400976Y729495D01*
X401168Y729549D01*
X401551Y729687D01*
X401935Y729824D01*
X401962D01*
X402017Y729851D01*
X402099Y729906D01*
X402209Y729933D01*
X402483Y730015D01*
X402730Y730043D01*
X402839D01*
X402949Y730015D01*
X403031Y729961D01*
X403059Y729933D01*
X403086Y729906D01*
X403168Y729824D01*
X403223Y729687D01*
X403251Y729659D01*
X403278Y729577D01*
X403305Y729413D01*
X403333Y729193D01*
Y729166D01*
Y729138D01*
X403360Y728974D01*
X403387Y728700D01*
Y728371D01*
Y728344D01*
Y728289D01*
Y728207D01*
Y728124D01*
Y727878D01*
X403360Y727631D01*
Y727576D01*
X403333Y727467D01*
X403305Y727275D01*
X403278Y727110D01*
Y727083D01*
X403251Y726973D01*
X403223Y726864D01*
X403168Y726727D01*
X403141Y726699D01*
X403113Y726644D01*
X402949Y726452D01*
X402922Y726425D01*
X402812Y726343D01*
X402730Y726288D01*
X402620Y726233D01*
X402456Y726151D01*
X402264Y726069D01*
X402236D01*
X402154Y726014D01*
X402045Y725987D01*
X401853Y725904D01*
X401661Y725850D01*
X401387Y725767D01*
X401113Y725658D01*
X400784Y725575D01*
X400756D01*
X400619Y725548D01*
X400428Y725493D01*
X400181Y725439D01*
X399879Y725384D01*
X399523Y725329D01*
X399140Y725247D01*
X398701Y725192D01*
X398646D01*
X398509Y725164D01*
X398262Y725137D01*
X397961Y725110D01*
X397605Y725055D01*
X397166Y725027D01*
X396728Y725000D01*
X395823D01*
X395631Y725027D01*
X395385D01*
X395111Y725055D01*
X394809Y725082D01*
X394179Y725137D01*
X393466Y725247D01*
X392754Y725384D01*
X392069Y725575D01*
X392041D01*
X391986Y725603D01*
X391904Y725630D01*
X391767Y725685D01*
X391630Y725740D01*
X391438Y725822D01*
X391027Y726041D01*
X390561Y726288D01*
X390068Y726590D01*
X389547Y726973D01*
X389081Y727384D01*
Y727412D01*
X389026Y727439D01*
X388889Y727604D01*
X388670Y727878D01*
X388424Y728234D01*
X388122Y728672D01*
X387821Y729221D01*
X387547Y729824D01*
X387300Y730481D01*
Y730509D01*
X387272Y730564D01*
X387245Y730673D01*
X387218Y730810D01*
X387163Y731002D01*
X387108Y731194D01*
X387053Y731441D01*
X387026Y731715D01*
X386971Y732044D01*
X386916Y732372D01*
X386806Y733112D01*
X386752Y733934D01*
X386724Y734839D01*
Y734866D01*
Y734949D01*
Y735086D01*
Y735250D01*
X386752Y735442D01*
Y735689D01*
X386779Y735963D01*
X386806Y736264D01*
X386861Y736922D01*
X386971Y737662D01*
X387135Y738402D01*
X387327Y739114D01*
Y739142D01*
X387355Y739197D01*
X387382Y739306D01*
X387437Y739443D01*
X387519Y739608D01*
X387601Y739800D01*
X387793Y740238D01*
X388040Y740759D01*
X388369Y741280D01*
X388725Y741828D01*
X389136Y742348D01*
X389164Y742376D01*
X389191Y742403D01*
X389355Y742568D01*
X389602Y742814D01*
X389931Y743116D01*
X390342Y743445D01*
X390835Y743773D01*
X391383Y744102D01*
X391986Y744404D01*
X392014D01*
X392069Y744431D01*
X392151Y744459D01*
X392288Y744513D01*
X392452Y744568D01*
X392644Y744623D01*
X392863Y744705D01*
X393110Y744760D01*
X393658Y744897D01*
X394316Y745007D01*
X395028Y745089D01*
X395796Y745116D01*
X396180D01*
X396371Y745089D01*
D02*
G37*
G36*
X301983Y751776D02*
X302257Y751749D01*
X302559Y751721D01*
X302887Y751694D01*
X303573Y751584D01*
X304313Y751420D01*
X305053Y751173D01*
X305738Y750872D01*
X305765D01*
X305820Y750817D01*
X305902Y750790D01*
X306039Y750707D01*
X306341Y750488D01*
X306752Y750214D01*
X307190Y749830D01*
X307656Y749392D01*
X308095Y748844D01*
X308506Y748241D01*
Y748213D01*
X308561Y748159D01*
X308615Y748076D01*
X308670Y747939D01*
X308752Y747775D01*
X308862Y747583D01*
X308944Y747336D01*
X309054Y747090D01*
X309191Y746788D01*
X309301Y746487D01*
X309547Y745774D01*
X309739Y744952D01*
X309931Y744075D01*
Y744048D01*
X309958Y743965D01*
Y743828D01*
X309986Y743636D01*
X310041Y743417D01*
X310068Y743143D01*
X310095Y742814D01*
X310150Y742458D01*
X310178Y742047D01*
X310205Y741636D01*
X310260Y741170D01*
X310287Y740677D01*
X310315Y739635D01*
X310342Y738484D01*
Y738457D01*
Y738347D01*
Y738183D01*
Y737963D01*
X310315Y737689D01*
Y737360D01*
X310287Y737004D01*
Y736620D01*
X310260Y736209D01*
X310205Y735771D01*
X310123Y734812D01*
X309986Y733852D01*
X309821Y732893D01*
Y732866D01*
X309794Y732784D01*
X309767Y732646D01*
X309739Y732482D01*
X309684Y732263D01*
X309602Y732016D01*
X309520Y731742D01*
X309438Y731413D01*
X309218Y730755D01*
X308944Y730043D01*
X308588Y729303D01*
X308204Y728618D01*
Y728590D01*
X308150Y728535D01*
X308095Y728453D01*
X308013Y728344D01*
X307766Y728015D01*
X307410Y727631D01*
X306999Y727193D01*
X306478Y726754D01*
X305902Y726316D01*
X305245Y725932D01*
X305217D01*
X305162Y725904D01*
X305053Y725850D01*
X304916Y725795D01*
X304751Y725713D01*
X304532Y725630D01*
X304285Y725548D01*
X304011Y725466D01*
X303710Y725384D01*
X303381Y725302D01*
X302997Y725219D01*
X302613Y725137D01*
X301764Y725027D01*
X300832Y725000D01*
X300585D01*
X300394Y725027D01*
X300174D01*
X299900Y725055D01*
X299599Y725082D01*
X299297Y725110D01*
X298585Y725219D01*
X297845Y725384D01*
X297105Y725603D01*
X296420Y725904D01*
X296392D01*
X296337Y725959D01*
X296255Y725987D01*
X296145Y726069D01*
X295817Y726288D01*
X295433Y726562D01*
X294994Y726946D01*
X294529Y727384D01*
X294063Y727905D01*
X293652Y728508D01*
Y728535D01*
X293597Y728590D01*
X293569Y728672D01*
X293487Y728810D01*
X293405Y728974D01*
X293323Y729193D01*
X293213Y729413D01*
X293103Y729687D01*
X292966Y729961D01*
X292857Y730290D01*
X292610Y731002D01*
X292418Y731824D01*
X292226Y732701D01*
Y732729D01*
X292199Y732811D01*
Y732948D01*
X292171Y733140D01*
X292144Y733359D01*
X292117Y733661D01*
X292062Y733962D01*
X292034Y734318D01*
X292007Y734729D01*
X291952Y735140D01*
X291925Y735606D01*
X291898Y736100D01*
X291870Y737169D01*
X291843Y738292D01*
Y738320D01*
Y738429D01*
Y738594D01*
Y738813D01*
X291870Y739087D01*
Y739389D01*
X291898Y739745D01*
Y740128D01*
X291925Y740567D01*
X291952Y741005D01*
X292062Y741937D01*
X292171Y742896D01*
X292336Y743856D01*
Y743883D01*
X292363Y743965D01*
X292391Y744102D01*
X292446Y744267D01*
X292500Y744486D01*
X292555Y744760D01*
X292637Y745034D01*
X292747Y745336D01*
X292966Y746021D01*
X293240Y746733D01*
X293597Y747446D01*
X293980Y748131D01*
X294008Y748159D01*
X294035Y748213D01*
X294090Y748296D01*
X294172Y748433D01*
X294419Y748734D01*
X294775Y749145D01*
X295186Y749584D01*
X295680Y750022D01*
X296255Y750461D01*
X296913Y750844D01*
X296940D01*
X296995Y750899D01*
X297105Y750927D01*
X297242Y751009D01*
X297406Y751064D01*
X297625Y751146D01*
X297872Y751228D01*
X298146Y751338D01*
X298448Y751420D01*
X298776Y751502D01*
X299160Y751584D01*
X299544Y751667D01*
X300394Y751776D01*
X301325Y751804D01*
X301764D01*
X301983Y751776D01*
D02*
G37*
G36*
X281236D02*
X281510Y751749D01*
X281812Y751721D01*
X282141Y751694D01*
X282826Y751584D01*
X283566Y751420D01*
X284306Y751173D01*
X284991Y750872D01*
X285018D01*
X285073Y750817D01*
X285155Y750790D01*
X285292Y750707D01*
X285594Y750488D01*
X286005Y750214D01*
X286444Y749830D01*
X286910Y749392D01*
X287348Y748844D01*
X287759Y748241D01*
Y748213D01*
X287814Y748159D01*
X287869Y748076D01*
X287924Y747939D01*
X288006Y747775D01*
X288115Y747583D01*
X288198Y747336D01*
X288307Y747090D01*
X288444Y746788D01*
X288554Y746487D01*
X288801Y745774D01*
X288992Y744952D01*
X289184Y744075D01*
Y744048D01*
X289212Y743965D01*
Y743828D01*
X289239Y743636D01*
X289294Y743417D01*
X289321Y743143D01*
X289349Y742814D01*
X289403Y742458D01*
X289431Y742047D01*
X289458Y741636D01*
X289513Y741170D01*
X289541Y740677D01*
X289568Y739635D01*
X289595Y738484D01*
Y738457D01*
Y738347D01*
Y738183D01*
Y737963D01*
X289568Y737689D01*
Y737360D01*
X289541Y737004D01*
Y736620D01*
X289513Y736209D01*
X289458Y735771D01*
X289376Y734812D01*
X289239Y733852D01*
X289075Y732893D01*
Y732866D01*
X289047Y732784D01*
X289020Y732646D01*
X288992Y732482D01*
X288937Y732263D01*
X288855Y732016D01*
X288773Y731742D01*
X288691Y731413D01*
X288472Y730755D01*
X288198Y730043D01*
X287841Y729303D01*
X287458Y728618D01*
Y728590D01*
X287403Y728535D01*
X287348Y728453D01*
X287266Y728344D01*
X287019Y728015D01*
X286663Y727631D01*
X286252Y727193D01*
X285731Y726754D01*
X285155Y726316D01*
X284498Y725932D01*
X284470D01*
X284415Y725904D01*
X284306Y725850D01*
X284169Y725795D01*
X284004Y725713D01*
X283785Y725630D01*
X283538Y725548D01*
X283264Y725466D01*
X282963Y725384D01*
X282634Y725302D01*
X282250Y725219D01*
X281867Y725137D01*
X281017Y725027D01*
X280085Y725000D01*
X279839D01*
X279647Y725027D01*
X279428D01*
X279153Y725055D01*
X278852Y725082D01*
X278550Y725110D01*
X277838Y725219D01*
X277098Y725384D01*
X276358Y725603D01*
X275673Y725904D01*
X275645D01*
X275590Y725959D01*
X275508Y725987D01*
X275399Y726069D01*
X275070Y726288D01*
X274686Y726562D01*
X274248Y726946D01*
X273782Y727384D01*
X273316Y727905D01*
X272905Y728508D01*
Y728535D01*
X272850Y728590D01*
X272822Y728672D01*
X272740Y728810D01*
X272658Y728974D01*
X272576Y729193D01*
X272466Y729413D01*
X272357Y729687D01*
X272220Y729961D01*
X272110Y730290D01*
X271863Y731002D01*
X271671Y731824D01*
X271479Y732701D01*
Y732729D01*
X271452Y732811D01*
Y732948D01*
X271425Y733140D01*
X271397Y733359D01*
X271370Y733661D01*
X271315Y733962D01*
X271288Y734318D01*
X271260Y734729D01*
X271206Y735140D01*
X271178Y735606D01*
X271151Y736100D01*
X271123Y737169D01*
X271096Y738292D01*
Y738320D01*
Y738429D01*
Y738594D01*
Y738813D01*
X271123Y739087D01*
Y739389D01*
X271151Y739745D01*
Y740128D01*
X271178Y740567D01*
X271206Y741005D01*
X271315Y741937D01*
X271425Y742896D01*
X271589Y743856D01*
Y743883D01*
X271617Y743965D01*
X271644Y744102D01*
X271699Y744267D01*
X271754Y744486D01*
X271808Y744760D01*
X271891Y745034D01*
X272000Y745336D01*
X272220Y746021D01*
X272494Y746733D01*
X272850Y747446D01*
X273234Y748131D01*
X273261Y748159D01*
X273288Y748213D01*
X273343Y748296D01*
X273425Y748433D01*
X273672Y748734D01*
X274028Y749145D01*
X274440Y749584D01*
X274933Y750022D01*
X275508Y750461D01*
X276166Y750844D01*
X276194D01*
X276248Y750899D01*
X276358Y750927D01*
X276495Y751009D01*
X276659Y751064D01*
X276879Y751146D01*
X277125Y751228D01*
X277399Y751338D01*
X277701Y751420D01*
X278030Y751502D01*
X278413Y751584D01*
X278797Y751667D01*
X279647Y751776D01*
X280578Y751804D01*
X281017D01*
X281236Y751776D01*
D02*
G37*
%LPC*%
G36*
X519102Y742144D02*
X517920D01*
Y739221D01*
X519058D01*
X519146Y739232D01*
X519244D01*
X519365Y739243D01*
X519496Y739265D01*
X519627Y739287D01*
X519759Y739320D01*
X519770D01*
X519814Y739342D01*
X519879Y739364D01*
X519956Y739397D01*
X520142Y739495D01*
X520230Y739561D01*
X520317Y739627D01*
X520328Y739638D01*
X520350Y739659D01*
X520394Y739703D01*
X520448Y739758D01*
X520503Y739824D01*
X520558Y739900D01*
X520613Y739988D01*
X520657Y740086D01*
X520667Y740097D01*
X520678Y740130D01*
X520700Y740196D01*
X520722Y740262D01*
X520744Y740360D01*
X520755Y740459D01*
X520777Y740579D01*
Y740699D01*
Y740710D01*
Y740721D01*
Y740787D01*
X520766Y740875D01*
X520744Y740995D01*
X520722Y741126D01*
X520678Y741269D01*
X520613Y741411D01*
X520536Y741553D01*
X520525Y741564D01*
X520492Y741608D01*
X520438Y741674D01*
X520361Y741750D01*
X520252Y741827D01*
X520120Y741915D01*
X519967Y741991D01*
X519781Y742057D01*
X519770D01*
X519759Y742068D01*
X519726D01*
X519682Y742079D01*
X519562Y742090D01*
X519420Y742112D01*
X519408D01*
X519387Y742123D01*
X519332D01*
X519277Y742133D01*
X519190D01*
X519102Y742144D01*
D02*
G37*
G36*
X509895D02*
X508713D01*
Y739221D01*
X509851D01*
X509939Y739232D01*
X510037D01*
X510158Y739243D01*
X510289Y739265D01*
X510421Y739287D01*
X510552Y739320D01*
X510563D01*
X510607Y739342D01*
X510672Y739364D01*
X510749Y739397D01*
X510935Y739495D01*
X511023Y739561D01*
X511110Y739627D01*
X511121Y739638D01*
X511143Y739659D01*
X511187Y739703D01*
X511242Y739758D01*
X511297Y739824D01*
X511351Y739900D01*
X511406Y739988D01*
X511450Y740086D01*
X511461Y740097D01*
X511472Y740130D01*
X511493Y740196D01*
X511515Y740262D01*
X511537Y740360D01*
X511548Y740459D01*
X511570Y740579D01*
Y740699D01*
Y740710D01*
Y740721D01*
Y740787D01*
X511559Y740875D01*
X511537Y740995D01*
X511515Y741126D01*
X511472Y741269D01*
X511406Y741411D01*
X511329Y741553D01*
X511318Y741564D01*
X511286Y741608D01*
X511231Y741674D01*
X511154Y741750D01*
X511045Y741827D01*
X510913Y741915D01*
X510760Y741991D01*
X510574Y742057D01*
X510563D01*
X510552Y742068D01*
X510519D01*
X510475Y742079D01*
X510355Y742090D01*
X510213Y742112D01*
X510202D01*
X510180Y742123D01*
X510125D01*
X510070Y742133D01*
X509983D01*
X509895Y742144D01*
D02*
G37*
G36*
X446608Y746405D02*
X446580D01*
X442935Y735387D01*
X450253D01*
X446608Y746405D01*
D02*
G37*
G36*
X373240Y747309D02*
X370280D01*
Y739991D01*
X373131D01*
X373350Y740019D01*
X373596D01*
X373898Y740046D01*
X374227Y740101D01*
X374556Y740156D01*
X374885Y740238D01*
X374912D01*
X375022Y740293D01*
X375186Y740348D01*
X375378Y740430D01*
X375844Y740677D01*
X376063Y740841D01*
X376282Y741005D01*
X376310Y741033D01*
X376365Y741088D01*
X376474Y741197D01*
X376611Y741334D01*
X376748Y741499D01*
X376885Y741691D01*
X377022Y741910D01*
X377132Y742157D01*
X377159Y742184D01*
X377187Y742266D01*
X377242Y742431D01*
X377296Y742595D01*
X377351Y742842D01*
X377379Y743088D01*
X377434Y743390D01*
Y743691D01*
Y743719D01*
Y743746D01*
Y743911D01*
X377406Y744130D01*
X377351Y744431D01*
X377296Y744760D01*
X377187Y745116D01*
X377022Y745473D01*
X376830Y745829D01*
X376803Y745856D01*
X376721Y745966D01*
X376584Y746131D01*
X376392Y746322D01*
X376118Y746514D01*
X375789Y746733D01*
X375405Y746925D01*
X374939Y747090D01*
X374912D01*
X374885Y747117D01*
X374802D01*
X374693Y747144D01*
X374391Y747172D01*
X374035Y747227D01*
X374008D01*
X373953Y747254D01*
X373816D01*
X373679Y747282D01*
X373460D01*
X373240Y747309D01*
D02*
G37*
G36*
X343943Y746898D02*
X343888D01*
X337091Y735031D01*
X343943D01*
Y746898D01*
D02*
G37*
G36*
X238482Y747282D02*
X236262D01*
Y738512D01*
X238811D01*
X239030Y738539D01*
X239332Y738566D01*
X239660Y738594D01*
X240017Y738649D01*
X240373Y738731D01*
X240702Y738840D01*
X240729Y738868D01*
X240839Y738895D01*
X241003Y738977D01*
X241195Y739087D01*
X241415Y739224D01*
X241634Y739361D01*
X241853Y739553D01*
X242072Y739772D01*
X242100Y739800D01*
X242155Y739882D01*
X242264Y740019D01*
X242374Y740183D01*
X242511Y740403D01*
X242648Y740677D01*
X242785Y740951D01*
X242894Y741252D01*
X242922Y741280D01*
X242949Y741389D01*
X243004Y741581D01*
X243059Y741800D01*
X243114Y742074D01*
X243141Y742376D01*
X243196Y742732D01*
Y743088D01*
Y743116D01*
Y743143D01*
Y743308D01*
X243169Y743582D01*
X243141Y743883D01*
X243086Y744239D01*
X242977Y744623D01*
X242867Y744979D01*
X242703Y745336D01*
X242675Y745363D01*
X242620Y745473D01*
X242511Y745637D01*
X242374Y745829D01*
X242209Y746048D01*
X242017Y746240D01*
X241771Y746459D01*
X241524Y746624D01*
X241497Y746651D01*
X241415Y746679D01*
X241278Y746761D01*
X241086Y746843D01*
X240866Y746925D01*
X240620Y747008D01*
X240346Y747090D01*
X240072Y747144D01*
X240044D01*
X239935Y747172D01*
X239797Y747199D01*
X239578Y747227D01*
X239359D01*
X239085Y747254D01*
X238482Y747282D01*
D02*
G37*
G36*
X396043Y741554D02*
X395522D01*
X395357Y741526D01*
X395111Y741499D01*
X394864Y741471D01*
X394590Y741389D01*
X394288Y741307D01*
X394015Y741170D01*
X393987Y741143D01*
X393905Y741115D01*
X393768Y741033D01*
X393603Y740923D01*
X393411Y740786D01*
X393220Y740622D01*
X392836Y740211D01*
X392809Y740183D01*
X392754Y740101D01*
X392672Y739964D01*
X392562Y739800D01*
X392452Y739580D01*
X392343Y739334D01*
X392233Y739060D01*
X392123Y738758D01*
Y738731D01*
X392096Y738621D01*
X392041Y738457D01*
X391986Y738237D01*
X391959Y737963D01*
X391904Y737662D01*
X391849Y737004D01*
X399359D01*
Y737031D01*
Y737086D01*
Y737196D01*
Y737360D01*
X399331Y737525D01*
Y737744D01*
X399277Y738210D01*
X399167Y738731D01*
X399002Y739306D01*
X398783Y739827D01*
X398482Y740320D01*
Y740348D01*
X398427Y740375D01*
X398317Y740512D01*
X398098Y740704D01*
X397797Y740951D01*
X397413Y741170D01*
X396920Y741362D01*
X396344Y741499D01*
X396043Y741554D01*
D02*
G37*
G36*
X301106Y747638D02*
X300914D01*
X300695Y747610D01*
X300421Y747556D01*
X300119Y747501D01*
X299791Y747391D01*
X299462Y747254D01*
X299160Y747062D01*
X299133Y747035D01*
X299023Y746953D01*
X298886Y746816D01*
X298722Y746624D01*
X298530Y746377D01*
X298311Y746103D01*
X298119Y745747D01*
X297927Y745336D01*
X297899Y745281D01*
X297845Y745144D01*
X297790Y744897D01*
X297680Y744568D01*
X297571Y744157D01*
X297488Y743664D01*
X297379Y743116D01*
X297297Y742513D01*
Y742485D01*
Y742431D01*
X297269Y742348D01*
Y742211D01*
Y742047D01*
X297242Y741855D01*
Y741636D01*
X297214Y741389D01*
X297187Y740786D01*
X297160Y740128D01*
X297132Y739361D01*
Y738539D01*
Y738512D01*
Y738429D01*
Y738265D01*
Y738073D01*
Y737854D01*
Y737580D01*
X297160Y737251D01*
Y736922D01*
X297187Y736209D01*
X297214Y735442D01*
X297269Y734675D01*
X297351Y733962D01*
Y733934D01*
Y733880D01*
X297379Y733798D01*
X297406Y733661D01*
Y733523D01*
X297434Y733332D01*
X297516Y732921D01*
X297625Y732455D01*
X297735Y731989D01*
X297872Y731523D01*
X298036Y731084D01*
X298064Y731029D01*
X298119Y730920D01*
X298228Y730728D01*
X298365Y730509D01*
X298530Y730235D01*
X298749Y729988D01*
X298968Y729769D01*
X299242Y729577D01*
X299270Y729549D01*
X299380Y729522D01*
X299544Y729440D01*
X299736Y729385D01*
X300010Y729303D01*
X300311Y729221D01*
X300640Y729193D01*
X301024Y729166D01*
X301161D01*
X301298Y729193D01*
X301490D01*
X301709Y729221D01*
X301956Y729275D01*
X302422Y729413D01*
X302449D01*
X302531Y729467D01*
X302641Y729522D01*
X302778Y729604D01*
X303107Y729824D01*
X303463Y730152D01*
X303491Y730180D01*
X303545Y730235D01*
X303627Y730344D01*
X303737Y730509D01*
X303847Y730673D01*
X303984Y730892D01*
X304093Y731139D01*
X304203Y731413D01*
X304230Y731441D01*
X304258Y731550D01*
X304313Y731715D01*
X304368Y731934D01*
X304450Y732180D01*
X304532Y732482D01*
X304614Y732811D01*
X304696Y733167D01*
Y733222D01*
X304724Y733359D01*
X304751Y733551D01*
X304806Y733825D01*
X304861Y734181D01*
X304888Y734565D01*
X304943Y734976D01*
X304970Y735442D01*
Y735469D01*
Y735497D01*
X304998Y735661D01*
Y735908D01*
X305025Y736264D01*
Y736675D01*
X305053Y737141D01*
Y737662D01*
Y738210D01*
Y738237D01*
Y738292D01*
Y738402D01*
Y738512D01*
Y738676D01*
Y738868D01*
Y739306D01*
X305025Y739800D01*
X304998Y740348D01*
X304970Y740896D01*
X304943Y741444D01*
Y741471D01*
Y741499D01*
Y741581D01*
X304916Y741691D01*
X304888Y741937D01*
X304861Y742294D01*
X304806Y742677D01*
X304751Y743088D01*
X304696Y743500D01*
X304614Y743911D01*
Y743965D01*
X304587Y744075D01*
X304532Y744267D01*
X304477Y744513D01*
X304395Y744788D01*
X304313Y745089D01*
X304203Y745390D01*
X304093Y745665D01*
Y745692D01*
X304039Y745774D01*
X303984Y745911D01*
X303902Y746076D01*
X303655Y746459D01*
X303518Y746651D01*
X303353Y746816D01*
X303326Y746843D01*
X303271Y746898D01*
X303189Y746953D01*
X303052Y747062D01*
X302750Y747254D01*
X302339Y747446D01*
X302312D01*
X302257Y747473D01*
X302120Y747501D01*
X301983Y747556D01*
X301791Y747583D01*
X301599Y747610D01*
X301106Y747638D01*
D02*
G37*
G36*
X280359D02*
X280167D01*
X279948Y747610D01*
X279674Y747556D01*
X279373Y747501D01*
X279044Y747391D01*
X278715Y747254D01*
X278413Y747062D01*
X278386Y747035D01*
X278276Y746953D01*
X278139Y746816D01*
X277975Y746624D01*
X277783Y746377D01*
X277564Y746103D01*
X277372Y745747D01*
X277180Y745336D01*
X277153Y745281D01*
X277098Y745144D01*
X277043Y744897D01*
X276933Y744568D01*
X276824Y744157D01*
X276742Y743664D01*
X276632Y743116D01*
X276550Y742513D01*
Y742485D01*
Y742431D01*
X276522Y742348D01*
Y742211D01*
Y742047D01*
X276495Y741855D01*
Y741636D01*
X276467Y741389D01*
X276440Y740786D01*
X276413Y740128D01*
X276385Y739361D01*
Y738539D01*
Y738512D01*
Y738429D01*
Y738265D01*
Y738073D01*
Y737854D01*
Y737580D01*
X276413Y737251D01*
Y736922D01*
X276440Y736209D01*
X276467Y735442D01*
X276522Y734675D01*
X276605Y733962D01*
Y733934D01*
Y733880D01*
X276632Y733798D01*
X276659Y733661D01*
Y733523D01*
X276687Y733332D01*
X276769Y732921D01*
X276879Y732455D01*
X276988Y731989D01*
X277125Y731523D01*
X277290Y731084D01*
X277317Y731029D01*
X277372Y730920D01*
X277482Y730728D01*
X277619Y730509D01*
X277783Y730235D01*
X278002Y729988D01*
X278222Y729769D01*
X278496Y729577D01*
X278523Y729549D01*
X278633Y729522D01*
X278797Y729440D01*
X278989Y729385D01*
X279263Y729303D01*
X279564Y729221D01*
X279893Y729193D01*
X280277Y729166D01*
X280414D01*
X280551Y729193D01*
X280743D01*
X280962Y729221D01*
X281209Y729275D01*
X281675Y729413D01*
X281702D01*
X281784Y729467D01*
X281894Y729522D01*
X282031Y729604D01*
X282360Y729824D01*
X282716Y730152D01*
X282744Y730180D01*
X282799Y730235D01*
X282881Y730344D01*
X282990Y730509D01*
X283100Y730673D01*
X283237Y730892D01*
X283347Y731139D01*
X283456Y731413D01*
X283484Y731441D01*
X283511Y731550D01*
X283566Y731715D01*
X283621Y731934D01*
X283703Y732180D01*
X283785Y732482D01*
X283867Y732811D01*
X283950Y733167D01*
Y733222D01*
X283977Y733359D01*
X284004Y733551D01*
X284059Y733825D01*
X284114Y734181D01*
X284141Y734565D01*
X284196Y734976D01*
X284224Y735442D01*
Y735469D01*
Y735497D01*
X284251Y735661D01*
Y735908D01*
X284278Y736264D01*
Y736675D01*
X284306Y737141D01*
Y737662D01*
Y738210D01*
Y738237D01*
Y738292D01*
Y738402D01*
Y738512D01*
Y738676D01*
Y738868D01*
Y739306D01*
X284278Y739800D01*
X284251Y740348D01*
X284224Y740896D01*
X284196Y741444D01*
Y741471D01*
Y741499D01*
Y741581D01*
X284169Y741691D01*
X284141Y741937D01*
X284114Y742294D01*
X284059Y742677D01*
X284004Y743088D01*
X283950Y743500D01*
X283867Y743911D01*
Y743965D01*
X283840Y744075D01*
X283785Y744267D01*
X283730Y744513D01*
X283648Y744788D01*
X283566Y745089D01*
X283456Y745390D01*
X283347Y745665D01*
Y745692D01*
X283292Y745774D01*
X283237Y745911D01*
X283155Y746076D01*
X282908Y746459D01*
X282771Y746651D01*
X282607Y746816D01*
X282579Y746843D01*
X282524Y746898D01*
X282442Y746953D01*
X282305Y747062D01*
X282004Y747254D01*
X281593Y747446D01*
X281565D01*
X281510Y747473D01*
X281373Y747501D01*
X281236Y747556D01*
X281044Y747583D01*
X280853Y747610D01*
X280359Y747638D01*
D02*
G37*
%LPD*%
D10*
X107000Y386500D02*
G03*
X107000Y386500I-3000J0D01*
G01*
X153507D02*
G03*
X153507Y386500I-3000J0D01*
G01*
X200000D02*
G03*
X200000Y386500I-3000J0D01*
G01*
X534500Y34500D02*
G03*
X534500Y34500I-3000J0D01*
G01*
X449500D02*
G03*
X449500Y34500I-3000J0D01*
G01*
X477458Y142543D02*
G03*
X477458Y142543I-3000J0D01*
G01*
X562458Y142543D02*
G03*
X562458Y142543I-3000J0D01*
G01*
D11*
X93050Y364750D02*
G03*
X93050Y364750I-1250J0D01*
G01*
X139557D02*
G03*
X139557Y364750I-1250J0D01*
G01*
X186050D02*
G03*
X186050Y364750I-1250J0D01*
G01*
X125250Y339250D02*
G03*
X125250Y339250I-1250J0D01*
G01*
X89076Y661000D02*
G03*
X89076Y661000I-1250J0D01*
G01*
X116750Y599750D02*
G03*
X116750Y599750I-1250J0D01*
G01*
X4708Y554553D02*
G03*
X4708Y554553I-1250J0D01*
G01*
X561750Y629750D02*
G03*
X561750Y629750I-1250J0D01*
G01*
Y502250D02*
G03*
X561750Y502250I-1250J0D01*
G01*
X507500Y210500D02*
G03*
X507500Y210500I-1250J0D01*
G01*
X623000Y179000D02*
G03*
X623000Y179000I-1250J0D01*
G01*
X517750Y12500D02*
G03*
X517750Y12500I-1250J0D01*
G01*
X432750D02*
G03*
X432750Y12500I-1250J0D01*
G01*
X490708Y164543D02*
G03*
X490708Y164543I-1250J0D01*
G01*
X575708Y164543D02*
G03*
X575708Y164543I-1250J0D01*
G01*
X34250Y189000D02*
G03*
X34250Y189000I-1250J0D01*
G01*
X44792Y334300D02*
G03*
X44792Y334300I-1250J0D01*
G01*
X93250Y262000D02*
G03*
X93250Y262000I-1250J0D01*
G01*
X59940Y659320D02*
Y669480D01*
X54860Y664400D02*
X59940Y659320D01*
X54860Y664400D02*
X59940Y669480D01*
D12*
X98750Y546939D02*
Y571061D01*
X77250Y546939D02*
Y571061D01*
X149250Y713939D02*
Y738061D01*
X170750Y713939D02*
Y738061D01*
X111469Y649969D02*
X152531D01*
X111469Y676031D02*
X152531D01*
X110469Y528969D02*
X151531D01*
X110469Y555031D02*
X151531D01*
X132000Y376500D02*
Y417500D01*
X94000Y376500D02*
Y417500D01*
X132000D01*
X94000Y376500D02*
X132000D01*
X178507D02*
Y417500D01*
X140507Y376500D02*
Y417500D01*
X178507D01*
X140507Y376500D02*
X178507D01*
X187000D02*
X225000D01*
X187000Y417500D02*
X225000D01*
X187000Y376500D02*
Y417500D01*
X225000Y376500D02*
Y417500D01*
X100250Y749000D02*
X123750D01*
X100250Y687000D02*
X123750D01*
X137950Y278000D02*
Y324000D01*
X110050Y278000D02*
X111250D01*
X136750D02*
X137950D01*
X110050D02*
Y324000D01*
X111250D01*
X136750D02*
X137950D01*
X110800Y307750D02*
X137200D01*
X102427Y600000D02*
Y646000D01*
X73226Y600000D02*
X75577D01*
X100077D02*
X102427D01*
X73226D02*
Y646000D01*
X75577D01*
X100077D02*
X102427D01*
X29939Y354439D02*
X54061D01*
X29939Y371561D02*
X54061D01*
X110000Y620750D02*
Y627250D01*
X140000Y620750D02*
Y627250D01*
X8207Y577603D02*
X71708D01*
X8207Y379103D02*
Y577603D01*
Y379103D02*
X71708D01*
Y577603D01*
X444900Y449500D02*
Y705400D01*
X495700D01*
Y449500D02*
Y705400D01*
X444900Y449500D02*
X495700D01*
X165500D02*
X216300D01*
Y705400D01*
X165500D02*
X216300D01*
X165500Y449500D02*
Y705400D01*
X571900Y193600D02*
X622700D01*
X571900D02*
Y705400D01*
X622700D01*
Y193600D02*
Y705400D01*
X543750Y628500D02*
X546250D01*
X543750Y667500D02*
X546250D01*
X543750Y540000D02*
X546250D01*
X543750Y501000D02*
X546250D01*
X507500Y193750D02*
Y196250D01*
X468500Y193750D02*
Y196250D01*
X623000Y162250D02*
Y164750D01*
X584000Y162250D02*
Y164750D01*
X572500Y24500D02*
Y61500D01*
X521500Y24500D02*
Y61500D01*
X572500D01*
X521500Y24500D02*
X572500D01*
X436500D02*
X487500D01*
X436500Y61500D02*
X487500D01*
X436500Y24500D02*
Y61500D01*
X487500Y24500D02*
Y61500D01*
X433458Y115543D02*
Y152543D01*
X484458Y115543D02*
Y152543D01*
X433458Y115543D02*
X484458D01*
X433458Y152543D02*
X484458D01*
X518458Y152543D02*
X569458D01*
X518458Y115543D02*
X569458D01*
Y152543D01*
X518458Y115543D02*
Y152543D01*
X40000Y195500D02*
X86000D01*
X40000Y142500D02*
X86000D01*
X50542Y346750D02*
X57743D01*
X94342D02*
X101543D01*
Y295750D02*
Y302950D01*
Y339550D02*
Y346750D01*
X50542Y295750D02*
X57743D01*
X94342D02*
X101543D01*
X50542D02*
Y302950D01*
Y339550D02*
Y346750D01*
X45500Y209000D02*
Y255000D01*
X98500Y209000D02*
Y255000D01*
D13*
X86500Y289000D02*
X89500D01*
X86500Y281000D02*
X89500D01*
X55500Y268000D02*
X58500D01*
X55500Y276000D02*
X58500D01*
X86500Y276000D02*
X89500D01*
X86500Y268000D02*
X89500D01*
X55500Y281000D02*
X58500D01*
X55500Y289000D02*
X58500D01*
X38000Y313500D02*
Y316500D01*
X30000Y313500D02*
Y316500D01*
X272500Y124000D02*
X275500D01*
X272500Y132000D02*
X275500D01*
X272500Y111000D02*
X275500D01*
X272500Y119000D02*
X275500D01*
X272500Y98000D02*
X275500D01*
X272500Y106000D02*
X275500D01*
X190000Y341500D02*
Y344500D01*
X198000Y341500D02*
Y344500D01*
X143000Y341500D02*
Y344500D01*
X151000Y341500D02*
Y344500D01*
X76500Y363000D02*
X79500D01*
X76500Y355000D02*
X79500D01*
X146000Y582500D02*
Y585500D01*
X138000Y582500D02*
Y585500D01*
X30000Y334500D02*
Y337500D01*
X38000Y334500D02*
Y337500D01*
X133000Y514500D02*
Y517500D01*
X141000Y514500D02*
Y517500D01*
X125000Y582500D02*
Y585500D01*
X133000Y582500D02*
Y585500D01*
X129000Y514500D02*
Y517500D01*
X121000Y514500D02*
Y517500D01*
X119000Y582500D02*
Y585500D01*
X111000Y582500D02*
Y585500D01*
X154500Y267000D02*
X157500D01*
X154500Y275000D02*
X157500D01*
X176500Y267000D02*
X179500D01*
X176500Y275000D02*
X179500D01*
X217000Y352942D02*
X220000D01*
X217000Y344941D02*
X220000D01*
X588000Y102500D02*
Y105500D01*
X580000Y102500D02*
Y105500D01*
X503000Y71500D02*
Y74500D01*
X511000Y71500D02*
Y74500D01*
X420000Y71500D02*
Y74500D01*
X428000Y71500D02*
Y74500D01*
X495000Y102500D02*
Y105500D01*
X503000Y102500D02*
Y105500D01*
D14*
X415140Y5060D02*
Y619740D01*
X232260Y5060D02*
Y619740D01*
X415140D01*
X232260Y5060D02*
X415140D01*
X219060Y-23980D02*
Y130960D01*
X216520D02*
X219060D01*
X51420D02*
X216520D01*
X51420Y-23980D02*
Y130960D01*
D15*
X84501Y537998D02*
X82002Y540498D01*
X77003D01*
X74504Y537998D01*
Y528002D01*
X77003Y525502D01*
X82002D01*
X84501Y528002D01*
X96997Y525502D02*
Y540498D01*
X89499Y533000D01*
X99496D01*
X192000Y743998D02*
X189501Y746498D01*
X184502D01*
X182003Y743998D01*
Y734002D01*
X184502Y731502D01*
X189501D01*
X192000Y734002D01*
X196998Y731502D02*
X201997D01*
X199498D01*
Y746498D01*
X196998Y743998D01*
X91501Y678998D02*
X89002Y681498D01*
X84003D01*
X81504Y678998D01*
Y669002D01*
X84003Y666502D01*
X89002D01*
X91501Y669002D01*
X106496Y666502D02*
X96499D01*
X106496Y676499D01*
Y678998D01*
X103997Y681498D01*
X98998D01*
X96499Y678998D01*
X159998Y517499D02*
X162498Y519998D01*
Y524997D01*
X159998Y527496D01*
X150002D01*
X147502Y524997D01*
Y519998D01*
X150002Y517499D01*
X162498Y502504D02*
Y512501D01*
X155000D01*
X157499Y507502D01*
Y505003D01*
X155000Y502504D01*
X150002D01*
X147502Y505003D01*
Y510002D01*
X150002Y512501D01*
X20000Y701498D02*
X15002D01*
X17501D01*
Y689002D01*
X15002Y686502D01*
X12502D01*
X10003Y689002D01*
X24998Y686502D02*
X29997D01*
X27498D01*
Y701498D01*
X24998Y698998D01*
X101504Y460498D02*
Y448002D01*
X104003Y445502D01*
X109002D01*
X111501Y448002D01*
Y460498D01*
X116499Y457998D02*
X118998Y460498D01*
X123997D01*
X126496Y457998D01*
Y455499D01*
X123997Y453000D01*
X121498D01*
X123997D01*
X126496Y450501D01*
Y448002D01*
X123997Y445502D01*
X118998D01*
X116499Y448002D01*
X139504Y460498D02*
Y448002D01*
X142003Y445502D01*
X147002D01*
X149501Y448002D01*
Y460498D01*
X161997Y445502D02*
Y460498D01*
X154499Y453000D01*
X164496D01*
X233498Y472496D02*
X221002D01*
X218503Y469997D01*
Y464998D01*
X221002Y462499D01*
X233498D01*
Y447504D02*
Y457501D01*
X226000D01*
X228499Y452502D01*
Y450003D01*
X226000Y447504D01*
X221002D01*
X218503Y450003D01*
Y455002D01*
X221002Y457501D01*
X98002Y291830D02*
X107998D01*
Y286831D01*
X106332Y285165D01*
X103000D01*
X101334Y286831D01*
Y291830D01*
Y288498D02*
X98002Y285165D01*
Y281833D02*
Y278501D01*
Y280167D01*
X107998D01*
X106332Y281833D01*
X98002Y273502D02*
Y270170D01*
Y271836D01*
X107998D01*
X106332Y273502D01*
X3256Y241502D02*
Y256498D01*
X10754D01*
X13253Y253998D01*
Y249000D01*
X10754Y246501D01*
X3256D01*
X8255D02*
X13253Y241502D01*
X18251D02*
X23250D01*
X20750D01*
Y256498D01*
X18251Y253998D01*
X38245Y241502D02*
Y256498D01*
X30747Y249000D01*
X40744D01*
X101256Y251502D02*
Y266498D01*
X108754D01*
X111253Y263998D01*
Y259000D01*
X108754Y256501D01*
X101256D01*
X106254D02*
X111253Y251502D01*
X116251D02*
X121250D01*
X118750D01*
Y266498D01*
X116251Y263998D01*
X128747D02*
X131246Y266498D01*
X136245D01*
X138744Y263998D01*
Y261499D01*
X136245Y259000D01*
X133746D01*
X136245D01*
X138744Y256501D01*
Y254002D01*
X136245Y251502D01*
X131246D01*
X128747Y254002D01*
X3256Y261502D02*
Y276498D01*
X10754D01*
X13253Y273998D01*
Y269000D01*
X10754Y266501D01*
X3256D01*
X8255D02*
X13253Y261502D01*
X18251D02*
X23250D01*
X20750D01*
Y276498D01*
X18251Y273998D01*
X40744Y261502D02*
X30747D01*
X40744Y271499D01*
Y273998D01*
X38245Y276498D01*
X33246D01*
X30747Y273998D01*
X5502Y322744D02*
X20498D01*
Y315246D01*
X17998Y312747D01*
X13000D01*
X10501Y315246D01*
Y322744D01*
Y317745D02*
X5502Y312747D01*
Y307749D02*
Y302750D01*
Y305250D01*
X20498D01*
X17998Y307749D01*
Y295253D02*
X20498Y292754D01*
Y287755D01*
X17998Y285256D01*
X8002D01*
X5502Y287755D01*
Y292754D01*
X8002Y295253D01*
X17998D01*
X297256Y118502D02*
Y133498D01*
X304754D01*
X307253Y130998D01*
Y126000D01*
X304754Y123501D01*
X297256D01*
X302255D02*
X307253Y118502D01*
X312251D02*
X317250D01*
X314750D01*
Y133498D01*
X312251Y130998D01*
X334744Y133498D02*
X324747D01*
Y126000D01*
X329746Y128499D01*
X332245D01*
X334744Y126000D01*
Y121002D01*
X332245Y118502D01*
X327246D01*
X324747Y121002D01*
X297256Y94502D02*
Y109498D01*
X304754D01*
X307253Y106998D01*
Y102000D01*
X304754Y99501D01*
X297256D01*
X302255D02*
X307253Y94502D01*
X312251D02*
X317250D01*
X314750D01*
Y109498D01*
X312251Y106998D01*
X334744Y109498D02*
X329746Y106998D01*
X324747Y102000D01*
Y97002D01*
X327246Y94502D01*
X332245D01*
X334744Y97002D01*
Y99501D01*
X332245Y102000D01*
X324747D01*
X297256Y70502D02*
Y85498D01*
X304754D01*
X307253Y82998D01*
Y78000D01*
X304754Y75501D01*
X297256D01*
X302255D02*
X307253Y70502D01*
X312251D02*
X317250D01*
X314750D01*
Y85498D01*
X312251Y82998D01*
X324747Y85498D02*
X334744D01*
Y82998D01*
X324747Y73002D01*
Y70502D01*
X187502Y327496D02*
X202498D01*
Y319998D01*
X199998Y317499D01*
X195000D01*
X192501Y319998D01*
Y327496D01*
Y322497D02*
X187502Y317499D01*
X199998Y312501D02*
X202498Y310002D01*
Y305003D01*
X199998Y302504D01*
X197499D01*
X195000Y305003D01*
X192501Y302504D01*
X190002D01*
X187502Y305003D01*
Y310002D01*
X190002Y312501D01*
X192501D01*
X195000Y310002D01*
X197499Y312501D01*
X199998D01*
X195000Y310002D02*
Y305003D01*
X157504Y332502D02*
Y347498D01*
X165002D01*
X167501Y344998D01*
Y340000D01*
X165002Y337501D01*
X157504D01*
X162502D02*
X167501Y332502D01*
X172499Y347498D02*
X182496D01*
Y344998D01*
X172499Y335002D01*
Y332502D01*
X75502Y390496D02*
X90498D01*
Y382998D01*
X87998Y380499D01*
X83000D01*
X80501Y382998D01*
Y390496D01*
Y385498D02*
X75502Y380499D01*
X90498Y365504D02*
Y375501D01*
X83000D01*
X85499Y370502D01*
Y368003D01*
X83000Y365504D01*
X78002D01*
X75502Y368003D01*
Y373002D01*
X78002Y375501D01*
X147502Y608997D02*
X162498D01*
Y601499D01*
X159998Y599000D01*
X155000D01*
X152501Y601499D01*
Y608997D01*
Y603998D02*
X147502Y599000D01*
Y594002D02*
Y589003D01*
Y591502D01*
X162498D01*
X159998Y594002D01*
X5502Y356496D02*
X20498D01*
Y348998D01*
X17998Y346499D01*
X13000D01*
X10501Y348998D01*
Y356496D01*
Y351497D02*
X5502Y346499D01*
X8002Y341501D02*
X5502Y339002D01*
Y334003D01*
X8002Y331504D01*
X17998D01*
X20498Y334003D01*
Y339002D01*
X17998Y341501D01*
X15499D01*
X13000Y339002D01*
Y331504D01*
X141503Y496496D02*
X156498D01*
Y488998D01*
X153998Y486499D01*
X149000D01*
X146501Y488998D01*
Y496496D01*
Y491497D02*
X141503Y486499D01*
Y474003D02*
X156498D01*
X149000Y481501D01*
Y471504D01*
X138504Y558502D02*
Y573498D01*
X146002D01*
X148501Y570998D01*
Y566000D01*
X146002Y563501D01*
X138504D01*
X143503D02*
X148501Y558502D01*
X163496D02*
X153499D01*
X163496Y568499D01*
Y570998D01*
X160997Y573498D01*
X155998D01*
X153499Y570998D01*
X119502Y496496D02*
X134498D01*
Y488998D01*
X131998Y486499D01*
X127000D01*
X124501Y488998D01*
Y496496D01*
Y491497D02*
X119502Y486499D01*
X131998Y481501D02*
X134498Y479002D01*
Y474003D01*
X131998Y471504D01*
X129499D01*
X127000Y474003D01*
Y476502D01*
Y474003D01*
X124501Y471504D01*
X122002D01*
X119502Y474003D01*
Y479002D01*
X122002Y481501D01*
X54003Y717498D02*
Y702502D01*
X64000D01*
X68998D02*
X73997D01*
X71498D01*
Y717498D01*
X68998Y714998D01*
X144504Y321498D02*
Y306502D01*
X152002D01*
X154501Y309002D01*
Y318998D01*
X152002Y321498D01*
X144504D01*
X169496Y306502D02*
X159499D01*
X169496Y316499D01*
Y318998D01*
X166997Y321498D01*
X161998D01*
X159499Y318998D01*
X50003Y645498D02*
Y630502D01*
X57501D01*
X60000Y633002D01*
Y642998D01*
X57501Y645498D01*
X50003D01*
X64998Y630502D02*
X69997D01*
X67498D01*
Y645498D01*
X64998Y642998D01*
X12501Y372998D02*
X10002Y375498D01*
X5003D01*
X2504Y372998D01*
Y363002D01*
X5003Y360502D01*
X10002D01*
X12501Y363002D01*
X27496Y375498D02*
X22498Y372998D01*
X17499Y368000D01*
Y363002D01*
X19998Y360502D01*
X24997D01*
X27496Y363002D01*
Y365501D01*
X24997Y368000D01*
X17499D01*
X115501Y570998D02*
X113002Y573498D01*
X108003D01*
X105504Y570998D01*
Y561002D01*
X108003Y558502D01*
X113002D01*
X115501Y561002D01*
X120499Y570998D02*
X122998Y573498D01*
X127997D01*
X130496Y570998D01*
Y568499D01*
X127997Y566000D01*
X125498D01*
X127997D01*
X130496Y563501D01*
Y561002D01*
X127997Y558502D01*
X122998D01*
X120499Y561002D01*
X158498Y632997D02*
X146002D01*
X143503Y630498D01*
Y625499D01*
X146002Y623000D01*
X158498D01*
X143503Y618002D02*
Y613003D01*
Y615502D01*
X158498D01*
X155998Y618002D01*
X74506Y481502D02*
Y496498D01*
X79504Y491499D01*
X84502Y496498D01*
Y481502D01*
X89501Y496498D02*
Y481502D01*
X96998D01*
X99498Y484002D01*
Y493998D01*
X96998Y496498D01*
X89501D01*
X104496Y481502D02*
X109494D01*
X106995D01*
Y496498D01*
X104496Y493998D01*
X412504Y688502D02*
Y703498D01*
X420002D01*
X422501Y700998D01*
Y696000D01*
X420002Y693501D01*
X412504D01*
X437496Y688502D02*
X427499D01*
X437496Y698499D01*
Y700998D01*
X434997Y703498D01*
X429998D01*
X427499Y700998D01*
X221003Y685502D02*
Y700498D01*
X228501D01*
X231000Y697998D01*
Y693000D01*
X228501Y690501D01*
X221003D01*
X235998Y685502D02*
X240997D01*
X238498D01*
Y700498D01*
X235998Y697998D01*
X156501Y293998D02*
X154002Y296498D01*
X149003D01*
X146504Y293998D01*
Y284002D01*
X149003Y281502D01*
X154002D01*
X156501Y284002D01*
X161499Y296498D02*
X171496D01*
Y293998D01*
X161499Y284002D01*
Y281502D01*
X189501Y293998D02*
X187002Y296498D01*
X182003D01*
X179504Y293998D01*
Y284002D01*
X182003Y281502D01*
X187002D01*
X189501Y284002D01*
X194499Y293998D02*
X196998Y296498D01*
X201997D01*
X204496Y293998D01*
Y291499D01*
X201997Y289000D01*
X204496Y286501D01*
Y284002D01*
X201997Y281502D01*
X196998D01*
X194499Y284002D01*
Y286501D01*
X196998Y289000D01*
X194499Y291499D01*
Y293998D01*
X196998Y289000D02*
X201997D01*
X211502Y337496D02*
X226498D01*
Y329998D01*
X223998Y327499D01*
X219000D01*
X216501Y329998D01*
Y337496D01*
Y332497D02*
X211502Y327499D01*
X226498Y312504D02*
X223998Y317502D01*
X219000Y322501D01*
X214002D01*
X211502Y320002D01*
Y315003D01*
X214002Y312504D01*
X216501D01*
X219000Y315003D01*
Y322501D01*
X607998Y102499D02*
X610498Y104998D01*
Y109997D01*
X607998Y112496D01*
X598002D01*
X595502Y109997D01*
Y104998D01*
X598002Y102499D01*
Y97501D02*
X595502Y95002D01*
Y90003D01*
X598002Y87504D01*
X607998D01*
X610498Y90003D01*
Y95002D01*
X607998Y97501D01*
X605499D01*
X603000Y95002D01*
Y87504D01*
X561504Y710502D02*
Y725498D01*
X569002D01*
X571501Y722998D01*
Y718000D01*
X569002Y715501D01*
X561504D01*
X576499Y722998D02*
X578998Y725498D01*
X583997D01*
X586496Y722998D01*
Y720499D01*
X583997Y718000D01*
X581498D01*
X583997D01*
X586496Y715501D01*
Y713002D01*
X583997Y710502D01*
X578998D01*
X576499Y713002D01*
X519506Y682502D02*
Y697498D01*
X527003D01*
X529502Y694998D01*
Y690000D01*
X527003Y687501D01*
X519506D01*
X524504D02*
X529502Y682502D01*
X534501D02*
Y697498D01*
X544498Y682502D01*
Y697498D01*
X549496Y682502D02*
X554494D01*
X551995D01*
Y697498D01*
X549496Y694998D01*
X516007Y555502D02*
Y570498D01*
X523504D01*
X526003Y567998D01*
Y563000D01*
X523504Y560501D01*
X516007D01*
X521005D02*
X526003Y555502D01*
X531002D02*
Y570498D01*
X540998Y555502D01*
Y570498D01*
X555993Y555502D02*
X545997D01*
X555993Y565499D01*
Y567998D01*
X553494Y570498D01*
X548496D01*
X545997Y567998D01*
X468007Y213502D02*
Y228498D01*
X475504D01*
X478003Y225998D01*
Y221000D01*
X475504Y218501D01*
X468007D01*
X473005D02*
X478003Y213502D01*
X483002D02*
Y228498D01*
X492998Y213502D01*
Y228498D01*
X497997Y225998D02*
X500496Y228498D01*
X505494D01*
X507994Y225998D01*
Y223499D01*
X505494Y221000D01*
X502995D01*
X505494D01*
X507994Y218501D01*
Y216002D01*
X505494Y213502D01*
X500496D01*
X497997Y216002D01*
X584007Y128502D02*
Y143498D01*
X591504D01*
X594003Y140998D01*
Y136000D01*
X591504Y133501D01*
X584007D01*
X589005D02*
X594003Y128502D01*
X599002D02*
Y143498D01*
X608998Y128502D01*
Y143498D01*
X621494Y128502D02*
Y143498D01*
X613997Y136000D01*
X623993D01*
X511998Y47248D02*
X514498Y49747D01*
Y54745D01*
X511998Y57245D01*
X502002D01*
X499502Y54745D01*
Y49747D01*
X502002Y47248D01*
X499502Y42249D02*
Y37251D01*
Y39750D01*
X514498D01*
X511998Y42249D01*
X499502Y29754D02*
Y24755D01*
Y27254D01*
X514498D01*
X511998Y29754D01*
X428998Y114747D02*
X431497Y117246D01*
Y122245D01*
X428998Y124744D01*
X419002D01*
X416502Y122245D01*
Y117246D01*
X419002Y114747D01*
X416502Y109749D02*
Y104750D01*
Y107250D01*
X431497D01*
X428998Y109749D01*
X416502Y87256D02*
Y97253D01*
X426499Y87256D01*
X428998D01*
X431497Y89755D01*
Y94754D01*
X428998Y97253D01*
X505998Y148747D02*
X508498Y151246D01*
Y156245D01*
X505998Y158744D01*
X496002D01*
X493502Y156245D01*
Y151246D01*
X496002Y148747D01*
X493502Y143749D02*
Y138750D01*
Y141250D01*
X508498D01*
X505998Y143749D01*
Y131253D02*
X508498Y128754D01*
Y123755D01*
X505998Y121256D01*
X496002D01*
X493502Y123755D01*
Y128754D01*
X496002Y131253D01*
X505998D01*
X322504Y649498D02*
Y637002D01*
X325003Y634502D01*
X330002D01*
X332501Y637002D01*
Y649498D01*
X347496Y634502D02*
X337499D01*
X347496Y644499D01*
Y646998D01*
X344997Y649498D01*
X339998D01*
X337499Y646998D01*
X579256Y71498D02*
Y59002D01*
X581755Y56502D01*
X586754D01*
X589253Y59002D01*
Y71498D01*
X594251Y56502D02*
X599250D01*
X596750D01*
Y71498D01*
X594251Y68998D01*
X616744Y56502D02*
X606747D01*
X616744Y66499D01*
Y68998D01*
X614245Y71498D01*
X609246D01*
X606747Y68998D01*
X432497Y53245D02*
X420002D01*
X417502Y50746D01*
Y45747D01*
X420002Y43248D01*
X432497D01*
X417502Y38250D02*
Y33251D01*
Y35750D01*
X432497D01*
X429998Y38250D01*
X417502Y25754D02*
Y20755D01*
Y23254D01*
X432497D01*
X429998Y25754D01*
X419256Y194498D02*
Y182002D01*
X421755Y179502D01*
X426754D01*
X429253Y182002D01*
Y194498D01*
X434251Y179502D02*
X439250D01*
X436750D01*
Y194498D01*
X434251Y191998D01*
X446747D02*
X449246Y194498D01*
X454245D01*
X456744Y191998D01*
Y182002D01*
X454245Y179502D01*
X449246D01*
X446747Y182002D01*
Y191998D01*
X537504Y193498D02*
Y181002D01*
X540003Y178502D01*
X545002D01*
X547501Y181002D01*
Y193498D01*
X552499Y181002D02*
X554998Y178502D01*
X559997D01*
X562496Y181002D01*
Y190998D01*
X559997Y193498D01*
X554998D01*
X552499Y190998D01*
Y188499D01*
X554998Y186000D01*
X562496D01*
X5504Y182498D02*
Y170002D01*
X8003Y167502D01*
X13002D01*
X15501Y170002D01*
Y182498D01*
X20499Y179998D02*
X22998Y182498D01*
X27997D01*
X30496Y179998D01*
Y177499D01*
X27997Y175000D01*
X30496Y172501D01*
Y170002D01*
X27997Y167502D01*
X22998D01*
X20499Y170002D01*
Y172501D01*
X22998Y175000D01*
X20499Y177499D01*
Y179998D01*
X22998Y175000D02*
X27997D01*
X104504Y354498D02*
Y342002D01*
X107003Y339502D01*
X112002D01*
X114501Y342002D01*
Y354498D01*
X129496D02*
X124498Y351998D01*
X119499Y347000D01*
Y342002D01*
X121998Y339502D01*
X126997D01*
X129496Y342002D01*
Y344501D01*
X126997Y347000D01*
X119499D01*
X9504Y231498D02*
Y219002D01*
X12003Y216502D01*
X17002D01*
X19501Y219002D01*
Y231498D01*
X24499D02*
X34496D01*
Y228998D01*
X24499Y219002D01*
Y216502D01*
X201003Y272498D02*
X211000D01*
X206002D01*
Y257502D01*
X215998D02*
X220997D01*
X218498D01*
Y272498D01*
X215998Y269998D01*
X21501Y110498D02*
X16502D01*
X19002D01*
Y98002D01*
X16502Y95502D01*
X14003D01*
X11504Y98002D01*
X36496Y95502D02*
X26499D01*
X36496Y105499D01*
Y107998D01*
X33997Y110498D01*
X28998D01*
X26499Y107998D01*
M02*
