G04*
G04 #@! TF.GenerationSoftware,Altium Limited,Altium Designer,22.10.1 (41)*
G04*
G04 Layer_Physical_Order=4*
G04 Layer_Color=16711680*
%FSLAX44Y44*%
%MOMM*%
G71*
G04*
G04 #@! TF.SameCoordinates,ED3CD574-296F-4DA1-8CEE-BF2CD4CAFD89*
G04*
G04*
G04 #@! TF.FilePolarity,Positive*
G04*
G01*
G75*
%ADD11C,0.2500*%
%ADD50C,1.2500*%
%ADD51R,1.2500X1.2500*%
%ADD59C,1.0000*%
%ADD61C,0.5000*%
%ADD63C,0.2350*%
%ADD64C,2.4000*%
%ADD65R,2.4000X2.4000*%
%ADD66C,1.5500*%
%ADD67R,1.5500X1.5500*%
%ADD68C,1.3000*%
%ADD69C,1.5000*%
%ADD70C,1.4000*%
%ADD71C,0.5500*%
%ADD72C,0.5000*%
D11*
X135000Y572000D02*
Y647000D01*
X118000Y511000D02*
Y555000D01*
X135000Y572000D01*
X91000Y400406D02*
Y484000D01*
X118000Y511000D01*
X91000Y400406D02*
X107000Y384406D01*
Y322000D02*
Y384406D01*
X60957Y551853D02*
X84000Y528811D01*
Y383611D02*
X90611Y377000D01*
X84000Y383611D02*
Y528811D01*
X98000Y222000D02*
Y253000D01*
X69535Y165000D02*
X71000Y163536D01*
X35000Y165000D02*
X69535D01*
X71000Y138000D02*
Y163536D01*
X35000Y165000D02*
X35000Y165000D01*
X235438Y145438D02*
X245638D01*
X247500Y147300D01*
X228000Y138000D02*
X235438Y145438D01*
X184000Y166000D02*
X193000Y175000D01*
Y358000D01*
X136000Y415000D02*
X193000Y358000D01*
X100000Y415000D02*
X136000D01*
X183913Y157597D02*
X188597D01*
X183913Y157527D02*
X184055Y157385D01*
X183913Y157527D02*
Y157597D01*
X188597D02*
X197000Y166000D01*
Y364000D01*
X147000Y414000D02*
X197000Y364000D01*
X184000Y145000D02*
X201000Y162000D01*
Y369000D01*
X193000Y377000D02*
Y416000D01*
Y377000D02*
X201000Y369000D01*
X66660Y118260D02*
Y119660D01*
X77500Y130500D02*
X178500D01*
X66660Y119660D02*
X77500Y130500D01*
X209000Y161000D02*
Y340000D01*
X178500Y130500D02*
X209000Y161000D01*
X178200Y665400D02*
X193100Y650500D01*
X303500D01*
X350000Y604000D01*
X178200Y462200D02*
X216000Y424400D01*
Y204200D02*
X247500Y172700D01*
X216000Y204200D02*
Y424400D01*
X203600Y462200D02*
X221000Y444800D01*
Y224600D02*
X247500Y198100D01*
X221000Y224600D02*
Y444800D01*
X226000Y245000D02*
Y456000D01*
X204944Y477056D02*
X226000Y456000D01*
Y245000D02*
X247500Y223500D01*
X231000Y265400D02*
Y460200D01*
X203600Y487600D02*
X231000Y460200D01*
Y265400D02*
X247500Y248900D01*
X236000Y296705D02*
X247155Y285550D01*
X236000Y296705D02*
Y470050D01*
X207949Y498100D02*
X236000Y470050D01*
X178200Y487600D02*
X188744Y477056D01*
X204944D01*
X193100Y498100D02*
X207949D01*
X178200Y513000D02*
X193100Y498100D01*
X247155Y274646D02*
Y285550D01*
Y274646D02*
X247500Y274300D01*
X203600Y513000D02*
X223950Y492650D01*
X246846D01*
X257750Y481746D01*
Y309950D02*
Y481746D01*
X247500Y299700D02*
X257750Y309950D01*
X247500Y145961D02*
Y147300D01*
Y145961D02*
X261787Y131674D01*
Y130862D02*
Y131674D01*
X466421Y430771D02*
X493500Y457851D01*
X399900Y401300D02*
X429371Y430771D01*
X466421D01*
X472500Y599700D02*
X483000Y589200D01*
X415000Y622800D02*
X457600Y665400D01*
X453721Y443471D02*
X468100Y457851D01*
X399900Y426700D02*
X416671Y443471D01*
X453721D01*
X472500Y625100D02*
X483000Y614600D01*
X434000Y591000D02*
X457600Y614600D01*
X472500Y650500D02*
X483000Y640000D01*
X424000Y606400D02*
X457600Y640000D01*
X493500Y457851D02*
Y553300D01*
X483000Y563800D02*
X493500Y553300D01*
X468100Y457851D02*
Y578700D01*
X457600Y589200D02*
X468100Y578700D01*
X424000Y551000D02*
Y606400D01*
X401300Y528300D02*
X424000Y551000D01*
X399900Y528300D02*
X401300D01*
X453251Y650500D02*
X472500D01*
X419000Y616249D02*
X453251Y650500D01*
X419000Y571000D02*
Y616249D01*
X401700Y553700D02*
X419000Y571000D01*
X399900Y553700D02*
X401700D01*
X434000Y511600D02*
Y591000D01*
X399900Y477500D02*
X434000Y511600D01*
X453251Y625100D02*
X472500D01*
X429000Y600849D02*
X453251Y625100D01*
X429000Y530000D02*
Y600849D01*
X401900Y502900D02*
X429000Y530000D01*
X399900Y502900D02*
X401900D01*
X415000Y594200D02*
Y622800D01*
X399900Y579100D02*
X415000Y594200D01*
X453251Y599700D02*
X472500D01*
X439000Y585449D02*
X453251Y599700D01*
X439000Y491200D02*
Y585449D01*
X399900Y452100D02*
X439000Y491200D01*
X413000Y172000D02*
X441000Y200000D01*
X417000Y168000D02*
X449000Y200000D01*
X399900Y71100D02*
X400246Y71446D01*
Y82350D01*
X413000Y95104D01*
Y172000D01*
X399900Y45700D02*
X400246Y46046D01*
Y56950D01*
X417000Y73704D01*
Y168000D01*
X421000Y81222D02*
X431000Y71222D01*
X421000Y81222D02*
Y160970D01*
X503672Y243642D01*
X425000Y101843D02*
X439000Y87843D01*
X425000Y101843D02*
Y159314D01*
X507672Y241985D01*
X429000Y103500D02*
Y157657D01*
Y103500D02*
X468000Y64500D01*
X429000Y157657D02*
X511672Y240328D01*
X543000Y139000D02*
X567000Y115000D01*
X565000Y48000D02*
Y48812D01*
X567000Y50812D01*
Y115000D01*
X547828Y139828D02*
X572000Y115657D01*
Y47222D02*
Y115657D01*
X567278Y42500D02*
X572000Y47222D01*
X568935Y38500D02*
X577000Y46565D01*
X551828Y141485D02*
X577000Y116314D01*
Y46565D02*
Y116314D01*
X539000Y137000D02*
X554500Y121500D01*
Y82222D02*
Y121500D01*
X554000Y81722D02*
X554500Y82222D01*
X554000Y64222D02*
Y81722D01*
X545000Y55222D02*
X554000Y64222D01*
X578000Y128000D02*
Y156250D01*
X524500Y583157D02*
Y626278D01*
Y583157D02*
X563000Y544657D01*
X519778Y631000D02*
X524500Y626278D01*
X530157Y583157D02*
Y627621D01*
X519778Y638000D02*
X530157Y627621D01*
X519000Y638000D02*
X519778D01*
X530157Y583157D02*
X567000Y546314D01*
X551828Y206946D02*
X567000Y222118D01*
Y546314D01*
X551828Y141485D02*
Y206946D01*
X555722Y38500D02*
X568935D01*
X554796Y39426D02*
X555722Y38500D01*
X551949Y39426D02*
X554796D01*
X551375Y40000D02*
X551949Y39426D01*
X519000Y631000D02*
X519778D01*
X547828Y208603D02*
X563000Y223775D01*
Y544657D01*
X547828Y139828D02*
Y208603D01*
X562722Y42500D02*
X567278D01*
X561796Y43426D02*
X562722Y42500D01*
X558574Y43426D02*
X561796D01*
X558000Y44000D02*
X558574Y43426D01*
X519000Y583000D02*
Y624000D01*
X559000Y225432D02*
Y543000D01*
X519000Y583000D02*
X559000Y543000D01*
X543000Y209432D02*
X559000Y225432D01*
X543000Y139000D02*
Y209432D01*
X513000Y639778D02*
X518222Y645000D01*
X513000Y582000D02*
Y639778D01*
X518222Y645000D02*
X519000D01*
X539000Y211089D02*
X555000Y227089D01*
Y540000D01*
X513000Y582000D02*
X555000Y540000D01*
X539000Y137000D02*
Y211089D01*
X545000Y36000D02*
Y55222D01*
X509000Y642778D02*
X518222Y652000D01*
X509000Y579328D02*
Y642778D01*
Y579328D02*
X551000Y537328D01*
X518222Y652000D02*
X519000D01*
X497000Y574343D02*
X538500Y532843D01*
Y233216D02*
Y532843D01*
X497000Y574343D02*
Y651778D01*
X505000Y577657D02*
X547000Y535657D01*
X505000Y577657D02*
Y645778D01*
X518222Y659000D01*
X501000Y576000D02*
X543000Y534000D01*
X501000Y648778D02*
X518222Y666000D01*
X501000Y576000D02*
Y648778D01*
X497000Y651778D02*
X518222Y673000D01*
X551000Y228745D02*
Y537328D01*
X535000Y212745D02*
X551000Y228745D01*
X535000Y87000D02*
Y212745D01*
X540000Y93500D02*
Y117188D01*
X544000Y121188D01*
Y122000D01*
X535000Y87000D02*
X538000Y84000D01*
Y33000D02*
Y84000D01*
X518222Y659000D02*
X519000D01*
X547000Y230402D02*
Y535657D01*
X531000Y29000D02*
Y214402D01*
X547000Y230402D01*
X518222Y666000D02*
X519000D01*
X527000Y216059D02*
X543000Y232059D01*
X527000Y66343D02*
Y216059D01*
X543000Y232059D02*
Y534000D01*
X524000Y63343D02*
X527000Y66343D01*
X524000Y25000D02*
Y63343D01*
X518222Y673000D02*
X519000D01*
X509500Y204216D02*
X538500Y233216D01*
X509500Y150389D02*
Y204216D01*
Y150389D02*
X511000Y148889D01*
Y131000D02*
Y148889D01*
Y131000D02*
X522500Y119500D01*
Y67500D02*
Y119500D01*
X517000Y62000D02*
X522500Y67500D01*
X516000Y116400D02*
X516500Y115900D01*
Y85000D02*
X517000Y84500D01*
X516500Y85000D02*
Y115900D01*
X493778Y131971D02*
X509500Y116249D01*
Y48751D02*
Y116249D01*
X488249Y27500D02*
X509500Y48751D01*
X540000Y93500D02*
X549000Y84500D01*
X470250Y138456D02*
Y180861D01*
Y138456D02*
X472440Y136266D01*
X475965Y115035D02*
X476000Y115000D01*
X475965Y115035D02*
Y121500D01*
X472440Y125024D02*
X475965Y121500D01*
X472440Y125024D02*
Y136266D01*
X477778Y200778D02*
X517000Y240000D01*
X482500Y97722D02*
X490500Y89722D01*
X482500Y97722D02*
Y120621D01*
X477778Y125343D02*
X482500Y120621D01*
X477778Y125343D02*
Y200778D01*
X443139Y115639D02*
Y134861D01*
X443000Y135000D02*
X443139Y134861D01*
Y115639D02*
X443278Y115500D01*
Y96722D02*
Y115500D01*
Y96722D02*
X478000Y62000D01*
X503500Y265172D02*
X503672Y265000D01*
X503500Y265172D02*
Y532278D01*
X516222Y545000D01*
X517000D01*
X503672Y243642D02*
Y265000D01*
X431000Y62000D02*
Y71222D01*
X507672Y241985D02*
Y381561D01*
X507500Y381732D02*
Y529278D01*
X516222Y538000D01*
X507500Y381732D02*
X507672Y381561D01*
X516222Y538000D02*
X517000D01*
X439000Y25000D02*
Y87843D01*
X446000Y29000D02*
Y34000D01*
X468000Y56000D02*
Y64500D01*
X446000Y34000D02*
X468000Y56000D01*
X511672Y240328D02*
Y383218D01*
X511500Y383389D02*
Y526278D01*
X516222Y531000D01*
X511500Y383389D02*
X511672Y383218D01*
X516222Y531000D02*
X517000D01*
X517778Y524000D02*
X534500Y507278D01*
X493778Y194151D02*
X534500Y234873D01*
X517000Y524000D02*
X517778D01*
X534500Y234873D02*
Y507278D01*
X493778Y131971D02*
Y194151D01*
X458500Y27500D02*
X488249D01*
X453000Y33000D02*
X458500Y27500D01*
X530500Y236530D02*
Y504278D01*
X517778Y517000D02*
X530500Y504278D01*
X517000Y517000D02*
X517778D01*
X489778Y195808D02*
X530500Y236530D01*
X489778Y130314D02*
Y195808D01*
X505500Y50408D02*
Y114592D01*
X489778Y130314D02*
X505500Y114592D01*
X460000Y37000D02*
X465500Y31500D01*
X486592D01*
X505500Y50408D01*
X517778Y510000D02*
X526500Y501278D01*
X485778Y197465D02*
X526500Y238186D01*
X517000Y510000D02*
X517778D01*
X526500Y238186D02*
Y501278D01*
X485778Y128657D02*
Y197465D01*
Y128657D02*
X501500Y112935D01*
Y52065D02*
Y112935D01*
X484935Y35500D02*
X501500Y52065D01*
X471886Y35500D02*
X484935D01*
X466387Y41000D02*
X471886Y35500D01*
X517778Y503000D02*
X522500Y498278D01*
Y239843D02*
Y498278D01*
X481778Y199121D02*
X522500Y239843D01*
X517000Y503000D02*
X517778D01*
X481778Y127000D02*
Y199121D01*
Y127000D02*
X497500Y111278D01*
Y53722D02*
Y111278D01*
X483278Y39500D02*
X497500Y53722D01*
X478500Y39500D02*
X483278D01*
X473000Y45000D02*
X478500Y39500D01*
X517000Y240000D02*
Y496000D01*
X490500Y66722D02*
Y89722D01*
X481000Y57222D02*
X490500Y66722D01*
X481000Y45000D02*
Y57222D01*
X451000Y51000D02*
Y62000D01*
X436000Y116000D02*
Y128000D01*
X469000Y100500D02*
Y115000D01*
Y100500D02*
X485000Y84500D01*
X455000Y95500D02*
X466000Y84500D01*
X455000Y95500D02*
Y115000D01*
D50*
X60957Y399453D02*
D03*
Y450253D02*
D03*
Y526453D02*
D03*
D51*
Y551853D02*
D03*
D59*
X247500Y71100D02*
X260100D01*
X342832Y153832D01*
Y361590D01*
X363000Y381758D01*
X368858Y375900D01*
X399900D01*
X363000Y381758D02*
Y463000D01*
X482513Y691287D02*
X483000Y690800D01*
X363000Y711000D02*
X474000D01*
X482513Y691287D02*
Y702487D01*
X474000Y711000D02*
X482513Y702487D01*
X363000Y489000D02*
Y711000D01*
X223800D02*
X363000D01*
X203600Y690800D02*
X223800Y711000D01*
D61*
X363000Y463000D02*
Y489000D01*
D63*
X108000Y579000D02*
Y637000D01*
D64*
X32000Y613600D02*
D03*
D65*
Y664400D02*
D03*
D66*
X483000Y690800D02*
D03*
Y665400D02*
D03*
Y640000D02*
D03*
Y614600D02*
D03*
Y589200D02*
D03*
Y563800D02*
D03*
Y538400D02*
D03*
Y513000D02*
D03*
Y487600D02*
D03*
Y462200D02*
D03*
X457600Y665400D02*
D03*
Y640000D02*
D03*
Y614600D02*
D03*
Y589200D02*
D03*
Y563800D02*
D03*
Y538400D02*
D03*
Y513000D02*
D03*
Y487600D02*
D03*
Y462200D02*
D03*
X178200D02*
D03*
Y487600D02*
D03*
Y513000D02*
D03*
Y538400D02*
D03*
Y563800D02*
D03*
Y589200D02*
D03*
Y614600D02*
D03*
Y640000D02*
D03*
Y665400D02*
D03*
X203600Y462200D02*
D03*
Y487600D02*
D03*
Y513000D02*
D03*
Y538400D02*
D03*
Y563800D02*
D03*
Y589200D02*
D03*
Y614600D02*
D03*
Y640000D02*
D03*
Y665400D02*
D03*
Y690800D02*
D03*
X610000D02*
D03*
Y665400D02*
D03*
Y640000D02*
D03*
Y614600D02*
D03*
Y589200D02*
D03*
Y563800D02*
D03*
Y538400D02*
D03*
Y513000D02*
D03*
Y487600D02*
D03*
Y462200D02*
D03*
Y436800D02*
D03*
Y411400D02*
D03*
Y386000D02*
D03*
Y360600D02*
D03*
Y335200D02*
D03*
Y309800D02*
D03*
Y284400D02*
D03*
Y259000D02*
D03*
Y233600D02*
D03*
Y208200D02*
D03*
X584600Y665400D02*
D03*
Y640000D02*
D03*
Y614600D02*
D03*
Y589200D02*
D03*
Y563800D02*
D03*
Y538400D02*
D03*
Y513000D02*
D03*
Y487600D02*
D03*
Y462200D02*
D03*
Y436800D02*
D03*
Y411400D02*
D03*
Y386000D02*
D03*
Y360600D02*
D03*
Y335200D02*
D03*
Y309800D02*
D03*
Y284400D02*
D03*
Y259000D02*
D03*
Y233600D02*
D03*
Y208200D02*
D03*
D67*
X457600Y690800D02*
D03*
X178200D02*
D03*
X584600D02*
D03*
D68*
X270000Y170000D02*
D03*
Y150000D02*
D03*
X290000Y170000D02*
D03*
Y150000D02*
D03*
X310000Y170000D02*
D03*
Y150000D02*
D03*
D69*
X272900Y45700D02*
D03*
X369400Y185400D02*
D03*
Y160000D02*
D03*
Y134600D02*
D03*
Y109200D02*
D03*
Y83800D02*
D03*
X272900Y477500D02*
D03*
X298300D02*
D03*
X323700D02*
D03*
X349100D02*
D03*
X374500D02*
D03*
X247500Y20300D02*
D03*
Y45700D02*
D03*
Y71100D02*
D03*
Y96500D02*
D03*
Y121900D02*
D03*
Y147300D02*
D03*
Y172700D02*
D03*
Y198100D02*
D03*
Y223500D02*
D03*
Y248900D02*
D03*
Y274300D02*
D03*
Y299700D02*
D03*
Y325100D02*
D03*
Y350500D02*
D03*
Y375900D02*
D03*
Y401300D02*
D03*
Y426700D02*
D03*
Y452100D02*
D03*
Y477500D02*
D03*
Y502900D02*
D03*
Y528300D02*
D03*
Y553700D02*
D03*
Y579100D02*
D03*
Y604500D02*
D03*
X399900D02*
D03*
Y579100D02*
D03*
Y553700D02*
D03*
Y528300D02*
D03*
Y502900D02*
D03*
Y477500D02*
D03*
Y452100D02*
D03*
Y426700D02*
D03*
Y401300D02*
D03*
Y375900D02*
D03*
Y350500D02*
D03*
Y325100D02*
D03*
Y299700D02*
D03*
Y274300D02*
D03*
Y248900D02*
D03*
Y223500D02*
D03*
Y198100D02*
D03*
Y172700D02*
D03*
Y147300D02*
D03*
Y121900D02*
D03*
Y96500D02*
D03*
Y71100D02*
D03*
Y45700D02*
D03*
Y20300D02*
D03*
D70*
X66660Y118260D02*
D03*
X89520D02*
D03*
X180960D02*
D03*
X203820D02*
D03*
X99680Y70000D02*
D03*
X109840Y52220D02*
D03*
X120000Y70000D02*
D03*
X130160Y52220D02*
D03*
X140320Y70000D02*
D03*
X150480Y52220D02*
D03*
X160640Y70000D02*
D03*
X170800Y52220D02*
D03*
D71*
X173000Y436000D02*
D03*
Y446000D02*
D03*
X178000Y441000D02*
D03*
X173000Y278000D02*
D03*
X145000Y271000D02*
D03*
X584000Y116000D02*
D03*
Y92000D02*
D03*
X576000Y13000D02*
D03*
X491000Y12000D02*
D03*
X424000Y62000D02*
D03*
X120000Y676000D02*
D03*
X135000Y647000D02*
D03*
X118000Y511000D02*
D03*
X107000Y322000D02*
D03*
X90611Y377000D02*
D03*
X108000Y637000D02*
D03*
Y579000D02*
D03*
X157000Y663000D02*
D03*
X125000Y621000D02*
D03*
X142000Y573000D02*
D03*
X87982Y574286D02*
D03*
X88000Y587000D02*
D03*
X124000Y529000D02*
D03*
X139000D02*
D03*
X214000Y439000D02*
D03*
X173000Y441000D02*
D03*
X210500Y364813D02*
D03*
X172000Y353000D02*
D03*
X126000D02*
D03*
X107000Y308000D02*
D03*
Y315000D02*
D03*
X45000Y308000D02*
D03*
Y315000D02*
D03*
X50000Y354000D02*
D03*
X34000Y350000D02*
D03*
Y304000D02*
D03*
X46000Y285000D02*
D03*
Y272000D02*
D03*
X100000D02*
D03*
Y285000D02*
D03*
X138000Y323000D02*
D03*
X137000Y279000D02*
D03*
X98000Y222000D02*
D03*
Y253000D02*
D03*
X84000Y260000D02*
D03*
X76000D02*
D03*
X60000D02*
D03*
X52000D02*
D03*
X84000Y204000D02*
D03*
X76000D02*
D03*
X60000D02*
D03*
X52000D02*
D03*
X71000Y138000D02*
D03*
X35000Y165000D02*
D03*
X91117Y180830D02*
D03*
X91000Y173000D02*
D03*
X35000Y181000D02*
D03*
Y173000D02*
D03*
Y149000D02*
D03*
Y157000D02*
D03*
X92000D02*
D03*
X92141Y148871D02*
D03*
X228000Y138000D02*
D03*
X184000Y166000D02*
D03*
X100000Y415000D02*
D03*
X184055Y157385D02*
D03*
X147000Y414000D02*
D03*
X184000Y145000D02*
D03*
X193000Y416000D02*
D03*
X209000Y340000D02*
D03*
X350000Y604000D02*
D03*
X261787Y130862D02*
D03*
X441000Y200000D02*
D03*
X449000D02*
D03*
X561000Y90000D02*
D03*
X578000Y128000D02*
D03*
X544000Y122000D02*
D03*
X517000Y62000D02*
D03*
X515000Y166000D02*
D03*
X516000Y116400D02*
D03*
X517000Y84500D02*
D03*
X515000Y69000D02*
D03*
X549000Y84500D02*
D03*
X544000Y62000D02*
D03*
X578000Y156250D02*
D03*
X470250Y180861D02*
D03*
X476000Y115000D02*
D03*
X436000Y152000D02*
D03*
X443000Y135000D02*
D03*
X431000Y62000D02*
D03*
X547000Y115000D02*
D03*
X481000Y45000D02*
D03*
X451000Y51000D02*
D03*
X517000Y77000D02*
D03*
X492000Y109000D02*
D03*
X488000Y100000D02*
D03*
X436000Y128000D02*
D03*
X451000Y62000D02*
D03*
X443278Y115500D02*
D03*
X485000Y84500D02*
D03*
X455000Y115000D02*
D03*
X469000D02*
D03*
X462000D02*
D03*
X478000Y62000D02*
D03*
X466000Y84500D02*
D03*
X458000Y62000D02*
D03*
X565000Y48000D02*
D03*
X558000Y44000D02*
D03*
X551375Y40000D02*
D03*
X545000Y36000D02*
D03*
X538000Y33000D02*
D03*
X531000Y29000D02*
D03*
X473000Y45000D02*
D03*
X466387Y41000D02*
D03*
X453000Y33000D02*
D03*
X446000Y29000D02*
D03*
X460000Y37000D02*
D03*
X436000Y116000D02*
D03*
X432000Y78000D02*
D03*
X439000Y25000D02*
D03*
X524000D02*
D03*
X519000Y673000D02*
D03*
X517000Y510000D02*
D03*
X519000Y638000D02*
D03*
Y652000D02*
D03*
Y659000D02*
D03*
Y645000D02*
D03*
Y666000D02*
D03*
Y631000D02*
D03*
X517000Y524000D02*
D03*
Y538000D02*
D03*
Y517000D02*
D03*
Y531000D02*
D03*
Y545000D02*
D03*
X519000Y624000D02*
D03*
X517000Y503000D02*
D03*
Y496000D02*
D03*
D72*
X67543Y321250D02*
D03*
X76042D02*
D03*
X84543D02*
D03*
X76042Y329750D02*
D03*
Y312750D02*
D03*
M02*
