G04*
G04 #@! TF.GenerationSoftware,Altium Limited,Altium Designer,22.10.1 (41)*
G04*
G04 Layer_Physical_Order=1*
G04 Layer_Color=255*
%FSLAX44Y44*%
%MOMM*%
G71*
G04*
G04 #@! TF.SameCoordinates,ED3CD574-296F-4DA1-8CEE-BF2CD4CAFD89*
G04*
G04*
G04 #@! TF.FilePolarity,Positive*
G04*
G01*
G75*
%ADD11C,0.2500*%
%ADD17R,1.2621X0.9578*%
%ADD18R,1.7540X1.8062*%
%ADD19O,0.6000X1.5500*%
%ADD20R,0.6000X0.6000*%
%ADD21R,0.6000X0.6000*%
%ADD22R,1.6000X5.7000*%
%ADD23R,1.8000X2.1000*%
%ADD24R,1.7000X2.5000*%
%ADD25R,0.9587X0.9121*%
%ADD26R,0.6400X0.6400*%
%ADD27R,0.6000X1.2000*%
%ADD28R,0.6400X0.6400*%
%ADD29R,0.5000X0.2500*%
%ADD30R,0.5000X0.4250*%
%ADD31R,0.2500X0.5000*%
%ADD32R,0.4250X0.5000*%
G04:AMPARAMS|DCode=33|XSize=0.45mm|YSize=1.6mm|CornerRadius=0.0495mm|HoleSize=0mm|Usage=FLASHONLY|Rotation=180.000|XOffset=0mm|YOffset=0mm|HoleType=Round|Shape=RoundedRectangle|*
%AMROUNDEDRECTD33*
21,1,0.4500,1.5010,0,0,180.0*
21,1,0.3510,1.6000,0,0,180.0*
1,1,0.0990,-0.1755,0.7505*
1,1,0.0990,0.1755,0.7505*
1,1,0.0990,0.1755,-0.7505*
1,1,0.0990,-0.1755,-0.7505*
%
%ADD33ROUNDEDRECTD33*%
%ADD34R,1.0000X2.1000*%
%ADD35R,0.6500X0.4000*%
G04:AMPARAMS|DCode=36|XSize=0.75mm|YSize=0.31mm|CornerRadius=0.0496mm|HoleSize=0mm|Usage=FLASHONLY|Rotation=0.000|XOffset=0mm|YOffset=0mm|HoleType=Round|Shape=RoundedRectangle|*
%AMROUNDEDRECTD36*
21,1,0.7500,0.2108,0,0,0.0*
21,1,0.6508,0.3100,0,0,0.0*
1,1,0.0992,0.3254,-0.1054*
1,1,0.0992,-0.3254,-0.1054*
1,1,0.0992,-0.3254,0.1054*
1,1,0.0992,0.3254,0.1054*
%
%ADD36ROUNDEDRECTD36*%
G04:AMPARAMS|DCode=37|XSize=0.31mm|YSize=0.75mm|CornerRadius=0.0496mm|HoleSize=0mm|Usage=FLASHONLY|Rotation=0.000|XOffset=0mm|YOffset=0mm|HoleType=Round|Shape=RoundedRectangle|*
%AMROUNDEDRECTD37*
21,1,0.3100,0.6508,0,0,0.0*
21,1,0.2108,0.7500,0,0,0.0*
1,1,0.0992,0.1054,-0.3254*
1,1,0.0992,-0.1054,-0.3254*
1,1,0.0992,-0.1054,0.3254*
1,1,0.0992,0.1054,0.3254*
%
%ADD37ROUNDEDRECTD37*%
%ADD38R,0.4000X0.6500*%
%ADD39R,2.1000X1.0000*%
%ADD46R,2.2000X2.2000*%
%ADD47R,2.9210X0.7620*%
%ADD50C,1.2500*%
%ADD51R,1.2500X1.2500*%
%ADD59C,1.0000*%
%ADD60C,1.5000*%
%ADD61C,0.5000*%
%ADD62C,0.7000*%
%ADD63C,0.2350*%
%ADD64C,2.4000*%
%ADD65R,2.4000X2.4000*%
%ADD66C,1.5500*%
%ADD67R,1.5500X1.5500*%
%ADD68C,1.3000*%
%ADD69C,1.5000*%
%ADD70C,1.4000*%
%ADD71C,0.5500*%
%ADD72C,0.5000*%
G36*
X151149Y719998D02*
X160000D01*
Y718728D01*
X161270D01*
Y711399D01*
X167000D01*
Y618000D01*
X139000D01*
Y618500D01*
X130540D01*
Y619540D01*
X119460D01*
Y618500D01*
X111000D01*
Y618000D01*
X103000D01*
Y560000D01*
X96851D01*
Y565002D01*
X88000D01*
Y566272D01*
X86730D01*
Y573601D01*
X79149D01*
X79000Y574809D01*
Y587960D01*
X86557D01*
Y603000D01*
Y618040D01*
X79000D01*
Y629000D01*
X140000D01*
Y651429D01*
X142491D01*
Y663000D01*
Y674571D01*
X134000D01*
Y688000D01*
X145000D01*
Y724000D01*
X151149D01*
Y719998D01*
D02*
G37*
%LPC*%
G36*
X158730Y717458D02*
X151149D01*
Y711399D01*
X158730D01*
Y717458D01*
D02*
G37*
G36*
X155071Y674571D02*
X145031D01*
Y664270D01*
X155071D01*
Y674571D01*
D02*
G37*
G36*
Y661730D02*
X145031D01*
Y651429D01*
X155071D01*
Y661730D01*
D02*
G37*
G36*
X98867Y618040D02*
X89096D01*
Y604270D01*
X98867D01*
Y618040D01*
D02*
G37*
G36*
Y601730D02*
X89096D01*
Y587960D01*
X98867D01*
Y601730D01*
D02*
G37*
G36*
X89270Y573601D02*
Y567542D01*
X96851D01*
Y573601D01*
X89270D01*
D02*
G37*
%LPD*%
D11*
X125700Y429250D02*
Y449953D01*
X126000Y450253D01*
X584000Y92000D02*
X584000Y92000D01*
Y99400D02*
X584000Y99400D01*
X584000Y92000D02*
Y99400D01*
X134750Y637250D02*
Y646750D01*
X134500Y637000D02*
X134750Y637250D01*
Y646750D02*
X135000Y647000D01*
X118000Y511000D02*
X118250Y511250D01*
X124750D02*
X125000Y511500D01*
X118250Y511250D02*
X124750D01*
X99292Y321250D02*
X99593Y321550D01*
X106550D01*
X107000Y322000D01*
X124000Y529000D02*
Y537239D01*
X119239Y542000D02*
X124000Y537239D01*
Y528188D02*
Y529000D01*
X125000Y520500D02*
Y527188D01*
X124000Y528188D02*
X125000Y527188D01*
X139000Y529000D02*
Y538239D01*
X142761Y542000D01*
X137000Y526188D02*
X139000Y528188D01*
Y529000D01*
X137000Y520500D02*
Y526188D01*
X125000Y511500D02*
X125000Y511500D01*
X137000D01*
X218700Y429250D02*
Y434150D01*
X214000Y438850D02*
X218700Y434150D01*
X214000Y438850D02*
Y439000D01*
X210500Y364813D02*
X218637D01*
X218700Y364750D01*
X172104Y353104D02*
Y364646D01*
X172207Y364750D01*
X172000Y353000D02*
X172104Y353104D01*
X125850Y353150D02*
Y364600D01*
Y353150D02*
X126000Y353000D01*
X125700Y364750D02*
X125850Y364600D01*
X110000Y352000D02*
Y371000D01*
X104000Y377000D02*
X110000Y371000D01*
Y352000D02*
X123000Y339000D01*
X75250Y361639D02*
X90611Y377000D01*
X104000D01*
X73500Y359000D02*
X75250Y360750D01*
Y361639D01*
X147000Y338500D02*
X194000D01*
X146500Y339000D02*
X147000Y338500D01*
X123000Y339000D02*
X146500D01*
X67750Y363139D02*
X88611Y384000D01*
X132307D02*
X146807Y369500D01*
X88611Y384000D02*
X132307D01*
X76000Y389000D02*
X173800D01*
X63750Y376750D02*
X76000Y389000D01*
X63750Y353204D02*
Y376750D01*
X173800Y389000D02*
X193300Y369500D01*
X99417Y308125D02*
X106875D01*
X107000Y308000D01*
X99292Y308250D02*
X99417Y308125D01*
X99418Y314875D02*
X106875D01*
X107000Y315000D01*
X99292Y314750D02*
X99418Y314875D01*
X34000Y350000D02*
Y362267D01*
X34733Y363000D01*
X34000Y340500D02*
Y350000D01*
X45000Y202000D02*
X49000Y198000D01*
X61778D01*
X45000Y202000D02*
Y230000D01*
X61778Y198000D02*
X68000Y204222D01*
X50750Y235750D02*
X56500D01*
X45000Y230000D02*
X50750Y235750D01*
X56500D02*
X60250Y239500D01*
X68000Y204222D02*
Y211250D01*
X73722Y198500D02*
X86278D01*
X68000Y204222D02*
X73722Y198500D01*
X86278D02*
X92000Y204222D01*
Y211250D01*
X92125Y252875D02*
X97875D01*
X92000Y252750D02*
X92125Y252875D01*
X97875D02*
X98000Y253000D01*
X92000Y252750D02*
Y259778D01*
Y252750D02*
X92000Y252750D01*
X86278Y265500D02*
X92000Y259778D01*
X73722Y265500D02*
X86278D01*
X68000Y259778D02*
X73722Y265500D01*
X68000Y252750D02*
Y259778D01*
X63250Y194000D02*
X77500D01*
X55500Y186250D02*
X63250Y194000D01*
X82500Y189000D02*
X83750D01*
X77500Y194000D02*
X82500Y189000D01*
X55500Y180750D02*
Y186250D01*
X90750Y188976D02*
X96617Y183109D01*
X83750Y165000D02*
X90778D01*
X96617Y170839D01*
Y183109D01*
X83775Y188976D02*
X90750D01*
X83750Y189000D02*
X83775Y188976D01*
X31000Y165000D02*
X35000D01*
X42250D01*
X27000Y169000D02*
X31000Y165000D01*
X27000Y169000D02*
Y186000D01*
X30000Y189000D02*
X42250D01*
X27000Y186000D02*
X30000Y189000D01*
X184000Y186381D02*
Y230000D01*
Y186381D02*
X202131Y168250D01*
X160600Y253400D02*
X184000Y230000D01*
X160600Y253400D02*
Y271000D01*
X202131Y168250D02*
X212926D01*
X182600Y251281D02*
X202131Y231750D01*
X212926D01*
X182600Y251281D02*
Y271000D01*
X226188Y139000D02*
X227188Y138000D01*
X228000D01*
X226000Y139000D02*
X226188D01*
X219513Y145487D02*
X226000Y139000D01*
X200685Y145487D02*
X219513D01*
X194198Y151974D02*
X200685Y145487D01*
X194198Y151974D02*
Y155802D01*
X184000Y166000D02*
X194198Y155802D01*
X100000Y415000D02*
X100150Y415150D01*
Y429100D02*
X100300Y429250D01*
X100150Y415150D02*
Y429100D01*
X198634Y138366D02*
X212634D01*
X184055Y152945D02*
Y157385D01*
Y152945D02*
X198634Y138366D01*
X229100Y121900D02*
X247500D01*
X212634Y138366D02*
X229100Y121900D01*
X247500D02*
X249610D01*
X212000Y132000D02*
X247500Y96500D01*
X197000Y132000D02*
X212000D01*
X184000Y145000D02*
X197000Y132000D01*
X146904Y414096D02*
X147000Y414000D01*
X146807Y429250D02*
X146904Y429154D01*
Y414096D02*
Y429154D01*
X193000Y416000D02*
X193150Y416150D01*
Y429100D02*
X193300Y429250D01*
X193150Y416150D02*
Y429100D01*
X209045Y340045D02*
Y343986D01*
X214000Y348941D01*
X209000Y340000D02*
X209045Y340045D01*
X223779Y349721D02*
X246721D01*
X223000Y348941D02*
X223779Y349721D01*
X246721D02*
X247500Y350500D01*
X193300Y364750D02*
X193650Y364400D01*
Y347850D02*
Y364400D01*
Y347850D02*
X194000Y347500D01*
X146904Y347596D02*
Y364654D01*
Y347596D02*
X147000Y347500D01*
X146807Y364750D02*
X146904Y364654D01*
X193300Y364750D02*
Y369500D01*
X63750Y353204D02*
X67343Y349612D01*
Y348900D02*
Y349612D01*
Y348900D02*
X69542Y346700D01*
Y344500D02*
Y346700D01*
X146807Y364750D02*
Y369500D01*
X67750Y354861D02*
X70631Y351980D01*
X67750Y354861D02*
Y363139D01*
X70631Y351980D02*
X70961D01*
X73843Y349099D01*
Y348900D02*
X76042Y346700D01*
X73843Y348900D02*
Y349099D01*
X76042Y344500D02*
Y346700D01*
X88250Y364750D02*
X100300D01*
X82500Y359000D02*
X88250Y364750D01*
X82521Y344521D02*
X82543Y344500D01*
X82521Y344521D02*
Y358979D01*
X82500Y359000D02*
X82521Y358979D01*
X350000Y604000D02*
X350500Y604500D01*
X399900D01*
X261787Y130862D02*
X264649Y128000D01*
X269500D01*
X256510Y115000D02*
X269500D01*
X249610Y121900D02*
X256510Y115000D01*
X250883Y96500D02*
X256383Y102000D01*
X247500Y96500D02*
X250883D01*
X256383Y102000D02*
X269500D01*
X278500Y115000D02*
Y128000D01*
Y102000D02*
Y115000D01*
X259100Y71100D02*
X278500Y90500D01*
Y102000D01*
X247500Y71100D02*
X259100D01*
X247500Y325100D02*
X261000Y338600D01*
Y376896D01*
X249296Y388600D02*
X261000Y376896D01*
X216000Y473343D02*
Y515449D01*
X205290Y526159D02*
X216000Y515449D01*
Y473343D02*
X224450Y464893D01*
X220000Y475000D02*
X232000Y463000D01*
X203600Y538400D02*
X220000Y522000D01*
Y475000D02*
Y522000D01*
X232000Y493000D02*
X247500Y477500D01*
X232000Y493000D02*
Y541000D01*
X228000Y481000D02*
Y539343D01*
Y481000D02*
X247114Y461886D01*
X224450Y409855D02*
X245704Y388600D01*
X190441Y526159D02*
X205290D01*
X178200Y538400D02*
X190441Y526159D01*
X245704Y388600D02*
X249296D01*
X224450Y409855D02*
Y464893D01*
X232000Y416800D02*
X247500Y401300D01*
X232000Y416800D02*
Y463000D01*
X193100Y548900D02*
X207949D01*
X178200Y563800D02*
X193100Y548900D01*
X207949D02*
X224000Y532850D01*
Y479000D02*
X237000Y466000D01*
X224000Y479000D02*
Y532850D01*
X237000Y448105D02*
X247155Y437950D01*
X237000Y448105D02*
Y466000D01*
X247155Y427046D02*
X247500Y426700D01*
X247155Y427046D02*
Y437950D01*
X218000Y549343D02*
Y549400D01*
Y549343D02*
X228000Y539343D01*
X203600Y563800D02*
X218000Y549400D01*
X222000Y551000D02*
X232000Y541000D01*
X222000Y551000D02*
Y560249D01*
X247114Y452486D02*
X247500Y452100D01*
X247114Y452486D02*
Y461886D01*
X226000Y554000D02*
Y566800D01*
X236000Y514400D02*
Y544000D01*
X226000Y554000D02*
X236000Y544000D01*
Y514400D02*
X247500Y502900D01*
X178200Y589200D02*
X193100Y574300D01*
X207949D02*
X222000Y560249D01*
X193100Y574300D02*
X207949D01*
X203600Y589200D02*
X226000Y566800D01*
X207949Y599700D02*
X231000Y576650D01*
Y555705D02*
X247155Y539550D01*
X231000Y555705D02*
Y576650D01*
X203600Y614600D02*
X236000Y582200D01*
Y565200D02*
X247500Y553700D01*
X236000Y565200D02*
Y582200D01*
X245949Y580651D02*
Y590051D01*
X210900Y625100D02*
X245949Y590051D01*
X193100Y625100D02*
X210900D01*
X245949Y580651D02*
X247500Y579100D01*
X178200Y614600D02*
X193100Y599700D01*
X207949D01*
X247155Y528646D02*
Y539550D01*
Y528646D02*
X247500Y528300D01*
X178200Y640000D02*
X193100Y625100D01*
X206087Y637513D02*
X214488D01*
X203600Y640000D02*
X206087Y637513D01*
X214488D02*
X247500Y604500D01*
X472500Y498100D02*
X483000Y487600D01*
X564751Y518000D02*
X580251Y502500D01*
X552500Y518000D02*
X564751D01*
X568195Y616156D02*
X580429Y603922D01*
X568195Y616156D02*
Y622444D01*
X556139Y634500D02*
X568195Y622444D01*
X564251Y645500D02*
X580251Y629500D01*
X552500Y645500D02*
X564251D01*
X433000Y488400D02*
X457600Y513000D01*
X552500Y494300D02*
X584600Y462200D01*
X610000Y259000D02*
X630750Y238250D01*
X552473Y621327D02*
X584600Y589200D01*
X416000Y522200D02*
X457600Y563800D01*
X566100Y265900D02*
X584600Y284400D01*
X472500Y523500D02*
X483000Y513000D01*
X574100Y203851D02*
X587401Y190550D01*
X597700D02*
X611000Y177250D01*
X587401Y190550D02*
X597700D01*
X593089Y186551D02*
X605000Y174639D01*
Y173250D02*
X606000Y172250D01*
X605000Y173250D02*
Y174639D01*
X606000Y171000D02*
Y172250D01*
X544681Y295281D02*
X584600Y335200D01*
X443000Y473000D02*
X457600Y487600D01*
X558700Y640500D02*
X584600Y614600D01*
X599500Y396500D02*
X610000Y386000D01*
X599500Y294900D02*
X610000Y284400D01*
X581082Y665400D02*
X584600D01*
X576182Y660500D02*
X581082Y665400D01*
X552500Y660500D02*
X576182D01*
X599500Y421900D02*
X610000Y411400D01*
X559200Y513000D02*
X584600Y487600D01*
X574600Y523000D02*
X584600Y513000D01*
X602000Y167361D02*
X603611Y165750D01*
X611000Y171000D02*
Y177250D01*
X574100Y650500D02*
X584600Y640000D01*
X424000Y504800D02*
X457600Y538400D01*
Y461989D02*
Y462200D01*
X599500Y345700D02*
X610000Y335200D01*
X475500Y302300D02*
X584600Y411400D01*
X472500Y548900D02*
X483000Y538400D01*
X599500Y675900D02*
X610000Y665400D01*
X568195Y489156D02*
X580429Y476922D01*
X556139Y507000D02*
X568195Y494944D01*
Y489156D02*
Y494944D01*
X599500Y523500D02*
X610000Y513000D01*
X599500Y650500D02*
X610000Y640000D01*
X595100Y218700D02*
X614349D01*
X566100Y200537D02*
X591000Y175637D01*
X562100Y198880D02*
X585125Y175855D01*
X562100Y198880D02*
Y276749D01*
X566100Y200537D02*
Y265900D01*
X621875Y171000D02*
Y211174D01*
X614349Y218700D02*
X621875Y211174D01*
X485500Y286900D02*
X584600Y386000D01*
X465625Y444825D02*
X483000Y462200D01*
X599500Y548900D02*
X610000Y538400D01*
X495500Y271500D02*
X584600Y360600D01*
X610000Y204682D02*
Y208200D01*
X599500Y371100D02*
X610000Y360600D01*
X581082Y538400D02*
X584600D01*
X575682Y533000D02*
X581082Y538400D01*
X552500Y533000D02*
X575682D01*
X580251Y502500D02*
X595100D01*
X610000Y487600D01*
X574100Y203851D02*
Y223100D01*
X584600Y233600D01*
X580429Y603922D02*
X595279D01*
X610000Y589200D01*
X580251Y629500D02*
X595100D01*
X610000Y614600D01*
X585744Y186551D02*
X593089D01*
X570100Y202194D02*
X585744Y186551D01*
X570100Y202194D02*
Y233949D01*
X580251Y244100D01*
X599500D01*
X610000Y233600D01*
X584600Y259000D02*
X595500Y248100D01*
X610349D01*
X626750Y231699D01*
Y167361D02*
Y231699D01*
X625139Y165750D02*
X626750Y167361D01*
X603611Y165750D02*
X625139D01*
X602000Y167361D02*
Y168750D01*
X601000Y169750D02*
X602000Y168750D01*
X601000Y169750D02*
Y171000D01*
X580429Y476922D02*
X595279D01*
X610000Y462200D01*
X584600Y208200D02*
X595100Y218700D01*
X580251Y371100D02*
X599500D01*
X490500Y281349D02*
X580251Y371100D01*
X490500Y202500D02*
Y281349D01*
X610000Y204682D02*
X616000Y198682D01*
Y171000D02*
Y198682D01*
X495500Y202500D02*
Y271500D01*
X562900Y548900D02*
X599500D01*
X552875Y538875D02*
X562900Y548900D01*
X552500Y538875D02*
X552875D01*
X465625Y208847D02*
Y444825D01*
X451278Y194500D02*
X465625Y208847D01*
X446500Y194500D02*
X451278D01*
X441000Y200000D02*
X446500Y194500D01*
X485500Y202500D02*
Y286900D01*
X584651Y650500D02*
X599500D01*
X579651Y655500D02*
X584651Y650500D01*
X552500Y655500D02*
X579651D01*
X584651Y523500D02*
X599500D01*
X580151Y528000D02*
X584651Y523500D01*
X552500Y528000D02*
X580151D01*
X554750Y507000D02*
X556139D01*
X553750Y508000D02*
X554750Y507000D01*
X552500Y508000D02*
X553750D01*
X579629Y675900D02*
X599500D01*
X570104Y666375D02*
X579629Y675900D01*
X552500Y666375D02*
X570104D01*
X453251Y548900D02*
X472500D01*
X420000Y515649D02*
X453251Y548900D01*
X420000Y345200D02*
Y515649D01*
X399900Y325100D02*
X420000Y345200D01*
X475500Y202500D02*
Y302300D01*
X580251Y345700D02*
X599500D01*
X500500Y265949D02*
X580251Y345700D01*
X500500Y202500D02*
Y265949D01*
X449000Y453389D02*
X457600Y461989D01*
X449000Y200000D02*
Y453389D01*
X424000Y323800D02*
Y504800D01*
X399900Y299700D02*
X424000Y323800D01*
X552500Y650500D02*
X574100D01*
X552500Y523000D02*
X574600D01*
X552500Y513000D02*
X559200D01*
X580251Y421900D02*
X599500D01*
X469625Y311274D02*
X580251Y421900D01*
X469625Y202500D02*
Y311274D01*
X580251Y294900D02*
X599500D01*
X562100Y276749D02*
X580251Y294900D01*
X585125Y171000D02*
Y175855D01*
X580251Y396500D02*
X599500D01*
X480500Y296749D02*
X580251Y396500D01*
X480500Y202500D02*
Y296749D01*
X552500Y640500D02*
X558700D01*
X443000Y241200D02*
Y473000D01*
X399900Y198100D02*
X443000Y241200D01*
X544681Y241181D02*
Y295281D01*
X506375Y202875D02*
X544681Y241181D01*
X506375Y202500D02*
Y202875D01*
X453251Y523500D02*
X472500D01*
X428000Y498249D02*
X453251Y523500D01*
X428000Y302400D02*
Y498249D01*
X399900Y274300D02*
X428000Y302400D01*
X399900Y274300D02*
Y274300D01*
X591000Y171000D02*
Y175637D01*
X416000Y366600D02*
Y522200D01*
X399900Y350500D02*
X416000Y366600D01*
X552473Y621327D02*
Y629598D01*
X596000Y167704D02*
Y171000D01*
Y167704D02*
X601954Y161750D01*
X626796D01*
X630750Y165704D01*
Y238250D01*
X552500Y494300D02*
Y502125D01*
X433000Y282000D02*
Y488400D01*
X399900Y248900D02*
X433000Y282000D01*
X554750Y634500D02*
X556139D01*
X553750Y635500D02*
X554750Y634500D01*
X552500Y635500D02*
X553750D01*
X453251Y498100D02*
X472500D01*
X438000Y482849D02*
X453251Y498100D01*
X438000Y260000D02*
Y482849D01*
X401500Y223500D02*
X438000Y260000D01*
X399900Y223500D02*
X401500D01*
X180960Y105040D02*
Y118260D01*
X227000Y59000D02*
X265000D01*
X180960Y105040D02*
X227000Y59000D01*
X290000Y84000D02*
Y150000D01*
X265000Y59000D02*
X290000Y84000D01*
X396500Y56500D02*
X533278D01*
X399900Y147300D02*
X399900D01*
X386000Y133400D02*
X399900Y147300D01*
X386000Y67000D02*
X396500Y56500D01*
X386000Y67000D02*
Y133400D01*
X270132Y137050D02*
X279250Y146169D01*
X223721Y155550D02*
X242221Y137050D01*
X270132D01*
X279250Y146169D02*
Y160750D01*
X270000Y170000D02*
X279250Y160750D01*
X234768Y221737D02*
X248155Y208350D01*
X223721Y180950D02*
X242221Y162450D01*
X212926Y180950D02*
X223721D01*
X437026Y135574D02*
X442426D01*
X443000Y135000D01*
X399900Y172700D02*
X437026Y135574D01*
X407615Y90645D02*
X449207D01*
X401759Y96500D02*
X407615Y90645D01*
X399900Y96500D02*
X401759D01*
X399900Y121900D02*
X455708D01*
X234768Y196337D02*
X246020Y185084D01*
X212926Y219050D02*
X223721D01*
Y244450D02*
X234768Y233403D01*
Y221737D02*
Y233403D01*
X248155Y208350D02*
X271650D01*
X310000Y170000D01*
X242221Y162450D02*
X257550D01*
X270000Y150000D01*
X223721Y219050D02*
X234768Y208003D01*
Y196337D02*
Y208003D01*
X246020Y185084D02*
X287997D01*
X299250Y173832D01*
Y160750D02*
Y173832D01*
Y160750D02*
X310000Y150000D01*
X212926Y244450D02*
X223721D01*
X212926Y155550D02*
X223721D01*
X533278Y56500D02*
X537250Y60472D01*
Y73500D01*
X137869Y244450D02*
X170800Y211519D01*
X137869Y180950D02*
X150480Y168339D01*
X127074Y180950D02*
X137869D01*
X150480Y52220D02*
Y168339D01*
X137869Y219050D02*
X160640Y196279D01*
Y70000D02*
Y196279D01*
X127074Y78129D02*
Y155550D01*
X120000Y71055D02*
X127074Y78129D01*
X120000Y70000D02*
Y71055D01*
X127074Y219050D02*
X137869D01*
X127074Y244450D02*
X137869D01*
X170800Y52220D02*
Y211519D01*
X50593Y334250D02*
X52793D01*
X44500Y340500D02*
X50293Y334707D01*
X34000Y340500D02*
X44500D01*
X50293Y334550D02*
X50593Y334250D01*
X50293Y334550D02*
Y334707D01*
X40750Y331021D02*
X44021Y327750D01*
X52793D01*
X34000Y331500D02*
X34479Y331021D01*
X40750D01*
X35450Y320950D02*
X52493D01*
X34000Y319500D02*
X35450Y320950D01*
X52493D02*
X52793Y321250D01*
X82521Y297979D02*
X82543Y298000D01*
X82521Y297979D02*
Y297979D01*
X82800Y285700D02*
X83500Y285000D01*
X82800Y285700D02*
Y297700D01*
X82521Y297979D02*
X82800Y297700D01*
X69500Y280000D02*
Y297957D01*
X69542Y298000D01*
X67536Y278036D02*
X69500Y280000D01*
X67536Y278036D02*
Y278036D01*
X61500Y272000D02*
X67536Y278036D01*
X76000Y279500D02*
Y297957D01*
X76042Y298000D01*
X76000Y279500D02*
X83500Y272000D01*
X61500Y285000D02*
X62743Y286243D01*
Y297700D02*
X63042Y298000D01*
X62743Y286243D02*
Y297700D01*
X517000Y496000D02*
X517778D01*
X523903Y502125D02*
X537500D01*
X517778Y496000D02*
X523903Y502125D01*
X517778Y503000D02*
X522778Y508000D01*
X517000Y503000D02*
X517778D01*
X522778Y508000D02*
X537500D01*
X517812Y510000D02*
X520812Y513000D01*
X537500D01*
X517000Y510000D02*
X517812D01*
X517000Y517000D02*
X517812D01*
X518812Y518000D02*
X537500D01*
X517812Y517000D02*
X518812Y518000D01*
X517000Y524000D02*
X517812D01*
X518812Y523000D02*
X537500D01*
X517812Y524000D02*
X518812Y523000D01*
X517000Y531000D02*
X517812D01*
X520812Y528000D02*
X537500D01*
X517812Y531000D02*
X520812Y528000D01*
X517000Y538000D02*
X517778D01*
X522778Y533000D01*
X537500D01*
X517000Y545000D02*
X517778D01*
X523903Y538875D02*
X537500D01*
X517778Y545000D02*
X523903Y538875D01*
X525403Y629625D02*
X537500D01*
X519000Y624000D02*
X519778D01*
X525403Y629625D01*
X519000Y631000D02*
X519778D01*
X524278Y635500D01*
X537500D01*
X519000Y638000D02*
X519778D01*
X522278Y640500D02*
X537500D01*
X519778Y638000D02*
X522278Y640500D01*
X519500Y645500D02*
X537500D01*
X519000Y645000D02*
X519500Y645500D01*
X519000Y673000D02*
X519778D01*
X526403Y666375D02*
X537500D01*
X519778Y673000D02*
X526403Y666375D01*
X519778Y666000D02*
X525278Y660500D01*
X537500D01*
X519000Y666000D02*
X519778D01*
X519812Y659000D02*
X523312Y655500D01*
X537500D01*
X519000Y659000D02*
X519812D01*
X519000Y652000D02*
X519812D01*
X521312Y650500D02*
X537500D01*
X519812Y652000D02*
X521312Y650500D01*
X563250Y73500D02*
Y86938D01*
X561000Y89188D02*
Y90000D01*
Y89188D02*
X563250Y86938D01*
X564293Y114293D02*
X578000Y128000D01*
X560207Y110208D02*
X561707Y111707D01*
Y112392D01*
X563608Y114293D01*
X564293D01*
X560207Y103543D02*
Y110208D01*
X540708Y103543D02*
Y117896D01*
X543900Y121900D02*
X544000Y122000D01*
X543900Y121088D02*
Y121900D01*
X455708D02*
X543900D01*
X540708Y117896D02*
X543900Y121088D01*
X517000Y62000D02*
X526599D01*
X529750Y65151D02*
Y72500D01*
X526599Y62000D02*
X529750Y65151D01*
Y72500D02*
X530750Y73500D01*
X515000Y166000D02*
X519750D01*
X521208Y164543D01*
X516000Y116400D02*
X516301Y116099D01*
X522500D01*
X526708Y111892D01*
Y104543D02*
X527708Y103543D01*
X526708Y104543D02*
Y111892D01*
X478000Y62000D02*
X487099D01*
X495355Y70256D01*
Y76244D01*
X503611Y84500D01*
X517000D01*
X507300Y68700D02*
X514700D01*
X515000Y69000D01*
X455708Y115000D02*
Y121900D01*
Y103543D02*
Y115000D01*
X549574Y74176D02*
Y83926D01*
X549000Y84500D02*
X549574Y83926D01*
Y74176D02*
X550250Y73500D01*
X543750D02*
X543875Y73375D01*
Y62125D02*
Y73375D01*
Y62125D02*
X544000Y62000D01*
X578125Y156125D02*
X585000D01*
X578000Y156250D02*
X578125Y156125D01*
X585000D02*
X585125Y156000D01*
X469938Y181173D02*
Y187188D01*
X469625Y187500D02*
X469938Y187188D01*
Y181173D02*
X470250Y180861D01*
X475207Y114207D02*
X476000Y115000D01*
X475207Y103543D02*
Y114207D01*
X436104Y164439D02*
X436208Y164543D01*
X436104Y152104D02*
Y164439D01*
X436000Y152000D02*
X436104Y152104D01*
X445500Y73250D02*
X445750Y73500D01*
X445500Y63464D02*
Y73250D01*
X444035Y62000D02*
X445500Y63464D01*
X431000Y62000D02*
X444035D01*
X547000Y115000D02*
X547104Y114896D01*
Y103646D02*
Y114896D01*
Y103646D02*
X547207Y103543D01*
X553354Y103897D02*
Y124646D01*
X436000Y128000D02*
X550000D01*
X553354Y124646D01*
X451000Y51000D02*
X560000D01*
X569750Y60750D01*
Y73500D01*
X480426Y44426D02*
X481000Y45000D01*
X478500Y37250D02*
X480426Y39176D01*
X478500Y12750D02*
Y37250D01*
X480426Y39176D02*
Y44426D01*
X478250Y12500D02*
X478500Y12750D01*
X507000Y68400D02*
X507300Y68700D01*
X517000Y77000D02*
X523250D01*
X524250Y73500D02*
Y76000D01*
X523250Y77000D02*
X524250Y76000D01*
X516400Y77600D02*
X517000Y77000D01*
X507000Y77600D02*
X516400D01*
X492000Y109000D02*
X492400Y108600D01*
X499000D01*
X481707Y101000D02*
X482707Y100000D01*
X481707Y101000D02*
Y103543D01*
X482707Y100000D02*
X488000D01*
X488600Y99400D01*
X499000D01*
X553354Y103897D02*
X553708Y103543D01*
X451574Y62574D02*
Y72824D01*
X452250Y73500D01*
X451000Y62000D02*
X451574Y62574D01*
X442707Y103543D02*
X442993Y103828D01*
Y115215D01*
X443278Y115500D01*
X484875Y73625D02*
Y84375D01*
X485000Y84500D01*
X484750Y73500D02*
X484875Y73625D01*
X468708Y114707D02*
X469000Y115000D01*
X468708Y103543D02*
Y114707D01*
X462000Y115000D02*
X462207Y114792D01*
Y103543D02*
Y114792D01*
X478000Y62000D02*
X478125Y62125D01*
Y73375D02*
X478250Y73500D01*
X478125Y62125D02*
Y73375D01*
X465250Y73500D02*
X465625Y73875D01*
Y84125D01*
X466000Y84500D01*
X458000Y62000D02*
X458750Y62750D01*
Y73500D01*
X564250Y13500D02*
Y46438D01*
X565000Y47188D01*
Y48000D01*
X550801Y13051D02*
Y39426D01*
X550250Y12500D02*
X550801Y13051D01*
Y39426D02*
X551375Y40000D01*
X545000Y35188D02*
Y36000D01*
X543750Y33938D02*
X545000Y35188D01*
X543750Y12500D02*
Y33938D01*
X556875Y42063D02*
X558000Y43188D01*
X556875Y12625D02*
Y42063D01*
X558000Y43188D02*
Y44000D01*
X556750Y12500D02*
X556875Y12625D01*
X537625Y12875D02*
Y32625D01*
X538000Y33000D01*
X537250Y12500D02*
X537625Y12875D01*
X530750Y12500D02*
X530875Y12625D01*
Y28875D01*
X531000Y29000D01*
X471887Y12637D02*
Y43075D01*
X473000Y44188D02*
Y45000D01*
X471887Y43075D02*
X473000Y44188D01*
X471750Y12500D02*
X471887Y12637D01*
X465625Y12875D02*
Y39427D01*
X466387Y40188D01*
X465250Y12500D02*
X465625Y12875D01*
X466387Y40188D02*
Y41000D01*
X452625Y12875D02*
Y32625D01*
X452250Y12500D02*
X452625Y12875D01*
Y32625D02*
X453000Y33000D01*
X445750Y12500D02*
X445875Y12625D01*
Y28875D01*
X446000Y29000D01*
X458750Y12500D02*
X459426Y13176D01*
Y36426D02*
X460000Y37000D01*
X459426Y13176D02*
Y36426D01*
X436000Y116000D02*
X436208Y115793D01*
Y103543D02*
Y115793D01*
X431800Y77800D02*
X432000Y78000D01*
X424000Y77600D02*
X424200Y77800D01*
X431800D01*
X438250Y78000D02*
X439250Y77000D01*
X432000Y78000D02*
X438250D01*
X439250Y73500D02*
Y77000D01*
X566708Y103543D02*
X567250Y103000D01*
X575000D01*
X577050Y100950D02*
X582450D01*
X575000Y103000D02*
X577050Y100950D01*
X582450D02*
X584000Y99400D01*
X552000Y90000D02*
X556750Y85250D01*
Y73500D02*
Y85250D01*
X533713Y90000D02*
X552000D01*
X449852D02*
X471512D01*
X449207Y90645D02*
X449852Y90000D01*
X449207Y90645D02*
Y103543D01*
X471512Y90000D02*
X533713D01*
X471750Y73500D02*
Y89762D01*
X471512Y90000D02*
X471750Y89762D01*
X533713Y90000D02*
X534207Y90494D01*
Y103543D01*
X439000Y25000D02*
X439125Y24875D01*
Y12625D02*
X439250Y12500D01*
X439125Y12625D02*
Y24875D01*
X563250Y12500D02*
X564250Y13500D01*
X524000Y25000D02*
X524125Y24875D01*
Y12625D02*
X524250Y12500D01*
X524125Y12625D02*
Y24875D01*
X609064Y134750D02*
X621875Y147562D01*
Y156000D01*
X550151Y134750D02*
X609064D01*
X528708Y156194D02*
X550151Y134750D01*
X528708Y156194D02*
Y163543D01*
X527708Y164543D02*
X528708Y163543D01*
X616000Y147343D02*
Y156000D01*
X552651Y138750D02*
X607407D01*
X616000Y147343D01*
X535207Y156194D02*
X552651Y138750D01*
X535207Y156194D02*
Y163543D01*
X534207Y164543D02*
X535207Y163543D01*
X605750Y142750D02*
X611000Y148000D01*
Y156000D01*
X541708Y156194D02*
X555151Y142750D01*
X541708Y156194D02*
Y163543D01*
X540708Y164543D02*
X541708Y163543D01*
X555151Y142750D02*
X605750D01*
X606000Y150000D02*
Y156000D01*
X602750Y146750D02*
X606000Y150000D01*
X557651Y146750D02*
X602750D01*
X548208Y156194D02*
X557651Y146750D01*
X548208Y156194D02*
Y163543D01*
X547207Y164543D02*
X548208Y163543D01*
X601000Y152215D02*
Y156000D01*
X599536Y150750D02*
X601000Y152215D01*
X560151Y150750D02*
X599536D01*
X554708Y156194D02*
X560151Y150750D01*
X554708Y156194D02*
Y163543D01*
X553708Y164543D02*
X554708Y163543D01*
X566708Y162750D02*
Y164543D01*
Y162750D02*
X567708Y161750D01*
X587889D01*
X591000Y158639D01*
X589546Y165750D02*
X596000Y159296D01*
X581861Y165750D02*
X589546D01*
X572318Y175293D02*
X581861Y165750D01*
X596000Y156000D02*
Y159296D01*
X561208Y172892D02*
X563608Y175293D01*
X572318D01*
X561208Y165543D02*
Y172892D01*
X560207Y164543D02*
X561208Y165543D01*
X591000Y156000D02*
Y158639D01*
X464750Y178250D02*
Y191139D01*
X468451Y164799D02*
X468708Y164543D01*
X468451Y164799D02*
Y174549D01*
X464750Y178250D02*
X468451Y174549D01*
X506375Y158391D02*
Y187500D01*
X489777Y141793D02*
X506375Y158391D01*
X458108Y141793D02*
X489777D01*
X443708Y156194D02*
X458108Y141793D01*
X443708Y156194D02*
Y163543D01*
X442707Y164543D02*
X443708Y163543D01*
X500500Y158173D02*
Y187500D01*
X488120Y145793D02*
X500500Y158173D01*
X460608Y145793D02*
X488120D01*
X450207Y156194D02*
X460608Y145793D01*
X450207Y156194D02*
Y163543D01*
X449207Y164543D02*
X450207Y163543D01*
X495500Y187500D02*
Y190139D01*
X464704Y196750D02*
X488889D01*
X495500Y190139D01*
X455708Y187754D02*
X464704Y196750D01*
X455708Y164543D02*
Y187754D01*
X466361Y192750D02*
X482889D01*
X484500Y190215D02*
X484500Y190215D01*
Y189750D02*
Y190215D01*
X485500Y187500D02*
Y188750D01*
X484500Y190215D02*
Y191139D01*
X484500Y189750D02*
X485500Y188750D01*
X464750Y191139D02*
X466361Y192750D01*
X482889D02*
X484500Y191139D01*
X490500Y178814D02*
Y187500D01*
Y178814D02*
X490708Y178606D01*
X486464Y149793D02*
X490708Y154037D01*
X469608Y149793D02*
X486464D01*
X463208Y156194D02*
X469608Y149793D01*
X490708Y154037D02*
Y178606D01*
X463208Y156194D02*
Y163543D01*
X462207Y164543D02*
X463208Y163543D01*
X480500Y183157D02*
Y187500D01*
Y183157D02*
X486708Y176950D01*
Y155694D02*
Y176950D01*
X478608Y153793D02*
X484807D01*
X486708Y155694D01*
X476208Y156194D02*
X478608Y153793D01*
X476208Y156194D02*
Y163543D01*
X475207Y164543D02*
X476208Y163543D01*
X475500Y182500D02*
X481707Y176293D01*
X475500Y182500D02*
Y187500D01*
X481707Y164543D02*
Y176293D01*
D17*
X88000Y551728D02*
D03*
Y566272D02*
D03*
X160000Y733272D02*
D03*
Y718728D02*
D03*
D18*
X120239Y663000D02*
D03*
X143761D02*
D03*
X119239Y542000D02*
D03*
X142761D02*
D03*
D19*
X125700Y429250D02*
D03*
X100300D02*
D03*
X125700Y364750D02*
D03*
X100300D02*
D03*
X172207Y429250D02*
D03*
X146807D02*
D03*
X172207Y364750D02*
D03*
X146807D02*
D03*
X193300D02*
D03*
X218700D02*
D03*
X193300Y429250D02*
D03*
X218700D02*
D03*
D20*
X83500Y285000D02*
D03*
X92500D02*
D03*
X61500Y272000D02*
D03*
X52500D02*
D03*
X83500D02*
D03*
X92500D02*
D03*
X61500Y285000D02*
D03*
X52500D02*
D03*
X278500Y128000D02*
D03*
X269500D02*
D03*
X278500Y115000D02*
D03*
X269500D02*
D03*
X278500Y102000D02*
D03*
X269500D02*
D03*
X73500Y359000D02*
D03*
X82500D02*
D03*
X214000Y348941D02*
D03*
X223000D02*
D03*
D21*
X34000Y319500D02*
D03*
Y310500D02*
D03*
X194000Y338500D02*
D03*
Y347500D02*
D03*
X147000Y338500D02*
D03*
Y347500D02*
D03*
X142000Y588500D02*
D03*
Y579500D02*
D03*
X34000Y331500D02*
D03*
Y340500D02*
D03*
X137000Y511500D02*
D03*
Y520500D02*
D03*
X129000Y579500D02*
D03*
Y588500D02*
D03*
X125000Y520500D02*
D03*
Y511500D02*
D03*
D22*
X88500Y718000D02*
D03*
X135500D02*
D03*
D23*
X124000Y323000D02*
D03*
Y279000D02*
D03*
D24*
X87826Y643000D02*
D03*
Y603000D02*
D03*
D25*
X34733Y363000D02*
D03*
X49267D02*
D03*
D26*
X115000Y588600D02*
D03*
Y579400D02*
D03*
X584000Y108600D02*
D03*
Y99400D02*
D03*
X507000Y68400D02*
D03*
Y77600D02*
D03*
X424000Y68400D02*
D03*
Y77600D02*
D03*
X499000Y99400D02*
D03*
Y108600D02*
D03*
D27*
X115500Y611000D02*
D03*
X125000D02*
D03*
X134500D02*
D03*
Y637000D02*
D03*
X125000D02*
D03*
X115500D02*
D03*
D28*
X160600Y271000D02*
D03*
X151400D02*
D03*
X182600D02*
D03*
X173400D02*
D03*
D29*
X537500Y635500D02*
D03*
Y640500D02*
D03*
Y645500D02*
D03*
Y650500D02*
D03*
Y655500D02*
D03*
Y660500D02*
D03*
X552500D02*
D03*
Y655500D02*
D03*
Y650500D02*
D03*
Y645500D02*
D03*
Y640500D02*
D03*
Y635500D02*
D03*
Y508000D02*
D03*
Y513000D02*
D03*
Y518000D02*
D03*
Y523000D02*
D03*
Y528000D02*
D03*
Y533000D02*
D03*
X537500D02*
D03*
Y528000D02*
D03*
Y523000D02*
D03*
Y518000D02*
D03*
Y513000D02*
D03*
Y508000D02*
D03*
D30*
Y629625D02*
D03*
Y666375D02*
D03*
X552500D02*
D03*
Y629625D02*
D03*
Y502125D02*
D03*
Y538875D02*
D03*
X537500D02*
D03*
Y502125D02*
D03*
D31*
X500500Y187500D02*
D03*
X495500D02*
D03*
X490500D02*
D03*
X485500D02*
D03*
X480500D02*
D03*
X475500D02*
D03*
Y202500D02*
D03*
X480500D02*
D03*
X485500D02*
D03*
X490500D02*
D03*
X495500D02*
D03*
X500500D02*
D03*
X616000Y156000D02*
D03*
X611000D02*
D03*
X606000D02*
D03*
X601000D02*
D03*
X596000D02*
D03*
X591000D02*
D03*
Y171000D02*
D03*
X596000D02*
D03*
X601000D02*
D03*
X606000D02*
D03*
X611000D02*
D03*
X616000D02*
D03*
D32*
X506375Y187500D02*
D03*
X469625D02*
D03*
Y202500D02*
D03*
X506375D02*
D03*
X621875Y156000D02*
D03*
X585125D02*
D03*
Y171000D02*
D03*
X621875D02*
D03*
D33*
X569750Y73500D02*
D03*
X563250D02*
D03*
X556750D02*
D03*
X550250D02*
D03*
X543750D02*
D03*
X537250D02*
D03*
X530750D02*
D03*
X524250D02*
D03*
X569750Y12500D02*
D03*
X563250D02*
D03*
X556750D02*
D03*
X550250D02*
D03*
X543750D02*
D03*
X537250D02*
D03*
X530750D02*
D03*
X524250D02*
D03*
X439250D02*
D03*
X445750D02*
D03*
X452250D02*
D03*
X458750D02*
D03*
X465250D02*
D03*
X471750D02*
D03*
X478250D02*
D03*
X484750D02*
D03*
X439250Y73500D02*
D03*
X445750D02*
D03*
X452250D02*
D03*
X458750D02*
D03*
X465250D02*
D03*
X471750D02*
D03*
X478250D02*
D03*
X484750D02*
D03*
X436208Y103543D02*
D03*
X442707D02*
D03*
X449207D02*
D03*
X455708D02*
D03*
X462207D02*
D03*
X468708D02*
D03*
X475207D02*
D03*
X481707D02*
D03*
X436208Y164543D02*
D03*
X442707D02*
D03*
X449207D02*
D03*
X455708D02*
D03*
X462207D02*
D03*
X468708D02*
D03*
X475207D02*
D03*
X481707D02*
D03*
X566708Y164543D02*
D03*
X560207D02*
D03*
X553708D02*
D03*
X547207D02*
D03*
X540708D02*
D03*
X534207D02*
D03*
X527708D02*
D03*
X521208D02*
D03*
X566708Y103543D02*
D03*
X560207D02*
D03*
X553708D02*
D03*
X547207D02*
D03*
X540708D02*
D03*
X534207D02*
D03*
X527708D02*
D03*
X521208D02*
D03*
D34*
X70500Y180750D02*
D03*
Y157250D02*
D03*
X55500D02*
D03*
Y180750D02*
D03*
D35*
X83750Y189000D02*
D03*
Y181000D02*
D03*
Y173000D02*
D03*
Y165000D02*
D03*
Y157000D02*
D03*
Y149000D02*
D03*
X42250D02*
D03*
Y157000D02*
D03*
Y165000D02*
D03*
Y173000D02*
D03*
Y181000D02*
D03*
Y189000D02*
D03*
D36*
X52793Y334250D02*
D03*
Y327750D02*
D03*
Y321250D02*
D03*
Y314750D02*
D03*
Y308250D02*
D03*
X99292D02*
D03*
Y314750D02*
D03*
Y321250D02*
D03*
Y327750D02*
D03*
Y334250D02*
D03*
D37*
X63042Y298000D02*
D03*
X69542D02*
D03*
X76042D02*
D03*
X82543D02*
D03*
X89043D02*
D03*
Y344500D02*
D03*
X82543D02*
D03*
X76042D02*
D03*
X69542D02*
D03*
X63042D02*
D03*
D38*
X92000Y252750D02*
D03*
X84000D02*
D03*
X76000D02*
D03*
X68000D02*
D03*
X60000D02*
D03*
X52000D02*
D03*
Y211250D02*
D03*
X60000D02*
D03*
X68000D02*
D03*
X76000D02*
D03*
X84000D02*
D03*
X92000D02*
D03*
D39*
X83750Y239500D02*
D03*
X60250D02*
D03*
Y224500D02*
D03*
X83750D02*
D03*
D46*
X76042Y321250D02*
D03*
D47*
X212926Y244450D02*
D03*
Y231750D02*
D03*
Y219050D02*
D03*
Y206350D02*
D03*
Y193650D02*
D03*
Y180950D02*
D03*
Y168250D02*
D03*
Y155550D02*
D03*
X127074D02*
D03*
Y168250D02*
D03*
Y180950D02*
D03*
Y193650D02*
D03*
Y206350D02*
D03*
Y219050D02*
D03*
Y231750D02*
D03*
Y244450D02*
D03*
D50*
X60957Y399453D02*
D03*
Y450253D02*
D03*
Y526453D02*
D03*
D51*
Y551853D02*
D03*
D59*
X67000Y748142D02*
X72858Y754000D01*
X67000Y697000D02*
Y748142D01*
X61000Y691000D02*
X67000Y697000D01*
X72858Y754000D02*
X153071D01*
X61000Y551896D02*
Y691000D01*
X88163Y717663D02*
X88500Y718000D01*
X87826Y643000D02*
X88163Y643337D01*
Y717663D01*
X91327Y637000D02*
X108000D01*
X87826Y640500D02*
Y643000D01*
Y640500D02*
X91327Y637000D01*
X153071Y754000D02*
X160000Y747071D01*
X60957Y551853D02*
X61000Y551896D01*
X160000Y733272D02*
Y747071D01*
X135500Y718000D02*
Y727772D01*
X141000Y733272D01*
X160000D01*
X60957Y551853D02*
X87875D01*
X88000Y551728D01*
X83750Y239500D02*
X100500D01*
X60250D02*
X83750D01*
Y224500D02*
X95500D01*
X60250D02*
X83750D01*
X98000Y222000D02*
X104367Y215633D01*
X110225Y168250D02*
X127074D01*
X104367Y174108D02*
X110225Y168250D01*
X104367Y174108D02*
Y215633D01*
X55500Y157250D02*
Y177777D01*
Y130500D02*
Y157250D01*
X70500Y138500D02*
Y180750D01*
Y138500D02*
X71000Y138000D01*
X70500Y137858D02*
X76358Y132000D01*
X335000Y705050D02*
X488903D01*
X243250D02*
X335000D01*
X336000Y491000D02*
Y704050D01*
X335000Y705050D02*
X336000Y704050D01*
X325000Y452000D02*
X336000Y463000D01*
X325000Y64000D02*
Y452000D01*
X247500Y20300D02*
X281300D01*
X325000Y64000D01*
X483000Y665400D02*
Y666888D01*
X497250Y681138D01*
Y696703D01*
X488903Y705050D02*
X497250Y696703D01*
X203600Y665400D02*
X243250Y705050D01*
X100445Y62697D02*
X109840Y53302D01*
Y52220D02*
Y53302D01*
X100500Y239500D02*
X108250Y231750D01*
X53160Y89808D02*
X104248Y38720D01*
X99680Y70000D02*
Y95797D01*
X131882Y59127D02*
X140320Y67565D01*
X127074Y168250D02*
X127074Y168250D01*
X108250Y231750D02*
X127074D01*
X130160Y52220D02*
X131882Y53942D01*
Y59127D01*
X140320Y67565D02*
Y70000D01*
X129078Y52220D02*
X130160D01*
X115578Y38720D02*
X129078Y52220D01*
X104248Y38720D02*
X115578D01*
X53160Y128160D02*
X55500Y130500D01*
X53160Y89808D02*
Y128160D01*
X76358Y132000D02*
X94872D01*
X107000Y119872D01*
Y103117D02*
Y119872D01*
X99680Y95797D02*
X107000Y103117D01*
D60*
X126000Y450253D02*
X163747D01*
X173000Y441000D01*
X60957Y450253D02*
X126000D01*
D61*
X173096Y271304D02*
X173400Y271000D01*
X173096Y271304D02*
Y277904D01*
X173000Y278000D02*
X173096Y277904D01*
X151400Y271000D02*
X151400Y271000D01*
X145000Y271000D02*
X151400D01*
X584000Y116000D02*
X584000Y116000D01*
Y108600D02*
X584000Y108600D01*
X584000Y108600D02*
Y116000D01*
X569750Y12750D02*
X570000Y13000D01*
X569750Y12500D02*
Y12750D01*
X570000Y13000D02*
X576000D01*
X484750Y12250D02*
Y12500D01*
Y12250D02*
X485000Y12000D01*
X491000D01*
X424000Y62000D02*
Y68400D01*
X424000Y68400D01*
X120000Y663239D02*
X120239Y663000D01*
X120000Y663239D02*
Y676000D01*
X143761Y663000D02*
X157000D01*
X125000Y611000D02*
Y621000D01*
X142000Y573000D02*
Y579500D01*
X87982Y574286D02*
X88000Y574268D01*
Y566272D02*
Y574268D01*
Y587000D02*
Y602826D01*
X87826Y603000D02*
X88000Y602826D01*
X45096Y308096D02*
X52638D01*
X45000Y308000D02*
X45096Y308096D01*
X52638D02*
X52793Y308250D01*
X45096Y314904D02*
X52638D01*
X45000Y315000D02*
X45096Y314904D01*
X52638D02*
X52793Y314750D01*
X49904Y354096D02*
Y362363D01*
X49267Y363000D02*
X49904Y362363D01*
Y354096D02*
X50000Y354000D01*
X34000Y310500D02*
X34000Y310500D01*
Y304000D02*
Y310500D01*
X46000Y285000D02*
X52500D01*
X46000Y272000D02*
X52500D01*
X92500D02*
X100000D01*
X92500Y285000D02*
X100000D01*
X124000Y323000D02*
X124000Y323000D01*
X138000D01*
X124000Y279000D02*
X137000D01*
X84000Y252750D02*
Y260000D01*
X84000Y260000D02*
X84000Y260000D01*
Y252750D02*
X84000Y252750D01*
X76000Y252750D02*
Y260000D01*
X76000Y260000D02*
X76000Y260000D01*
Y252750D02*
X76000Y252750D01*
X60000Y260000D02*
X60000Y260000D01*
Y252750D02*
Y260000D01*
X52000Y252750D02*
Y260000D01*
Y252750D02*
X52000Y252750D01*
X52000Y260000D02*
X52000Y260000D01*
X84000Y204000D02*
X84000Y204000D01*
Y211250D01*
X76000Y204000D02*
Y211250D01*
X76000Y211250D01*
X76000Y204000D02*
X76000Y204000D01*
X60000D02*
Y211250D01*
X60000Y211250D01*
X60000Y204000D02*
X60000Y204000D01*
X52000D02*
Y211250D01*
X52000Y211250D01*
X52000Y204000D02*
X52000Y204000D01*
X90947Y181000D02*
X91117Y180830D01*
X83750Y181000D02*
X90947D01*
X91000Y173000D02*
X91000Y173000D01*
X83750Y173000D02*
X83750Y173000D01*
X91000D01*
X35000Y181000D02*
X42250D01*
X35000Y181000D02*
X35000Y181000D01*
X42250D02*
X42250Y181000D01*
X35000Y173000D02*
X42250D01*
X35000Y173000D02*
X35000Y173000D01*
X42250D02*
X42250Y173000D01*
X35000Y149000D02*
X35000Y149000D01*
X42250D01*
X42250Y157000D02*
X42250Y157000D01*
X35000Y157000D02*
X42250D01*
X35000Y157000D02*
X35000Y157000D01*
X92000Y157000D02*
X92000Y157000D01*
X83750Y157000D02*
X92000D01*
X92011Y149000D02*
X92141Y148871D01*
X83750Y149000D02*
X92011D01*
X120239Y663000D02*
X125000Y658239D01*
Y637000D02*
Y658239D01*
X336000Y463000D02*
Y491000D01*
D62*
X108000Y637000D02*
X115500D01*
D63*
X108000Y579000D02*
X108200Y579200D01*
X114800D02*
X115000Y579400D01*
X108200Y579200D02*
X114800D01*
X115250Y588850D02*
Y610750D01*
X115500Y611000D01*
X115000Y588600D02*
X115250Y588850D01*
X135000Y588500D02*
X142000D01*
X129000D02*
X135000D01*
X134500Y589000D02*
X135000Y588500D01*
X134500Y589000D02*
Y611000D01*
X142000Y588500D02*
X142000Y588500D01*
X88000Y551728D02*
X101228D01*
X129000Y579500D01*
D64*
X32000Y613600D02*
D03*
D65*
Y664400D02*
D03*
D66*
X483000Y690800D02*
D03*
Y665400D02*
D03*
Y640000D02*
D03*
Y614600D02*
D03*
Y589200D02*
D03*
Y563800D02*
D03*
Y538400D02*
D03*
Y513000D02*
D03*
Y487600D02*
D03*
Y462200D02*
D03*
X457600Y665400D02*
D03*
Y640000D02*
D03*
Y614600D02*
D03*
Y589200D02*
D03*
Y563800D02*
D03*
Y538400D02*
D03*
Y513000D02*
D03*
Y487600D02*
D03*
Y462200D02*
D03*
X178200D02*
D03*
Y487600D02*
D03*
Y513000D02*
D03*
Y538400D02*
D03*
Y563800D02*
D03*
Y589200D02*
D03*
Y614600D02*
D03*
Y640000D02*
D03*
Y665400D02*
D03*
X203600Y462200D02*
D03*
Y487600D02*
D03*
Y513000D02*
D03*
Y538400D02*
D03*
Y563800D02*
D03*
Y589200D02*
D03*
Y614600D02*
D03*
Y640000D02*
D03*
Y665400D02*
D03*
Y690800D02*
D03*
X610000D02*
D03*
Y665400D02*
D03*
Y640000D02*
D03*
Y614600D02*
D03*
Y589200D02*
D03*
Y563800D02*
D03*
Y538400D02*
D03*
Y513000D02*
D03*
Y487600D02*
D03*
Y462200D02*
D03*
Y436800D02*
D03*
Y411400D02*
D03*
Y386000D02*
D03*
Y360600D02*
D03*
Y335200D02*
D03*
Y309800D02*
D03*
Y284400D02*
D03*
Y259000D02*
D03*
Y233600D02*
D03*
Y208200D02*
D03*
X584600Y665400D02*
D03*
Y640000D02*
D03*
Y614600D02*
D03*
Y589200D02*
D03*
Y563800D02*
D03*
Y538400D02*
D03*
Y513000D02*
D03*
Y487600D02*
D03*
Y462200D02*
D03*
Y436800D02*
D03*
Y411400D02*
D03*
Y386000D02*
D03*
Y360600D02*
D03*
Y335200D02*
D03*
Y309800D02*
D03*
Y284400D02*
D03*
Y259000D02*
D03*
Y233600D02*
D03*
Y208200D02*
D03*
D67*
X457600Y690800D02*
D03*
X178200D02*
D03*
X584600D02*
D03*
D68*
X270000Y170000D02*
D03*
Y150000D02*
D03*
X290000Y170000D02*
D03*
Y150000D02*
D03*
X310000Y170000D02*
D03*
Y150000D02*
D03*
D69*
X272900Y45700D02*
D03*
X369400Y185400D02*
D03*
Y160000D02*
D03*
Y134600D02*
D03*
Y109200D02*
D03*
Y83800D02*
D03*
X272900Y477500D02*
D03*
X298300D02*
D03*
X323700D02*
D03*
X349100D02*
D03*
X374500D02*
D03*
X247500Y20300D02*
D03*
Y45700D02*
D03*
Y71100D02*
D03*
Y96500D02*
D03*
Y121900D02*
D03*
Y147300D02*
D03*
Y172700D02*
D03*
Y198100D02*
D03*
Y223500D02*
D03*
Y248900D02*
D03*
Y274300D02*
D03*
Y299700D02*
D03*
Y325100D02*
D03*
Y350500D02*
D03*
Y375900D02*
D03*
Y401300D02*
D03*
Y426700D02*
D03*
Y452100D02*
D03*
Y477500D02*
D03*
Y502900D02*
D03*
Y528300D02*
D03*
Y553700D02*
D03*
Y579100D02*
D03*
Y604500D02*
D03*
X399900D02*
D03*
Y579100D02*
D03*
Y553700D02*
D03*
Y528300D02*
D03*
Y502900D02*
D03*
Y477500D02*
D03*
Y452100D02*
D03*
Y426700D02*
D03*
Y401300D02*
D03*
Y375900D02*
D03*
Y350500D02*
D03*
Y325100D02*
D03*
Y299700D02*
D03*
Y274300D02*
D03*
Y248900D02*
D03*
Y223500D02*
D03*
Y198100D02*
D03*
Y172700D02*
D03*
Y147300D02*
D03*
Y121900D02*
D03*
Y96500D02*
D03*
Y71100D02*
D03*
Y45700D02*
D03*
Y20300D02*
D03*
D70*
X66660Y118260D02*
D03*
X89520D02*
D03*
X180960D02*
D03*
X203820D02*
D03*
X99680Y70000D02*
D03*
X109840Y52220D02*
D03*
X120000Y70000D02*
D03*
X130160Y52220D02*
D03*
X140320Y70000D02*
D03*
X150480Y52220D02*
D03*
X160640Y70000D02*
D03*
X170800Y52220D02*
D03*
D71*
X173000Y436000D02*
D03*
Y446000D02*
D03*
X178000Y441000D02*
D03*
X173000Y278000D02*
D03*
X145000Y271000D02*
D03*
X584000Y116000D02*
D03*
Y92000D02*
D03*
X576000Y13000D02*
D03*
X491000Y12000D02*
D03*
X424000Y62000D02*
D03*
X120000Y676000D02*
D03*
X135000Y647000D02*
D03*
X118000Y511000D02*
D03*
X107000Y322000D02*
D03*
X90611Y377000D02*
D03*
X108000Y637000D02*
D03*
Y579000D02*
D03*
X157000Y663000D02*
D03*
X125000Y621000D02*
D03*
X142000Y573000D02*
D03*
X87982Y574286D02*
D03*
X88000Y587000D02*
D03*
X124000Y529000D02*
D03*
X139000D02*
D03*
X214000Y439000D02*
D03*
X173000Y441000D02*
D03*
X210500Y364813D02*
D03*
X172000Y353000D02*
D03*
X126000D02*
D03*
X107000Y308000D02*
D03*
Y315000D02*
D03*
X45000Y308000D02*
D03*
Y315000D02*
D03*
X50000Y354000D02*
D03*
X34000Y350000D02*
D03*
Y304000D02*
D03*
X46000Y285000D02*
D03*
Y272000D02*
D03*
X100000D02*
D03*
Y285000D02*
D03*
X138000Y323000D02*
D03*
X137000Y279000D02*
D03*
X98000Y222000D02*
D03*
Y253000D02*
D03*
X84000Y260000D02*
D03*
X76000D02*
D03*
X60000D02*
D03*
X52000D02*
D03*
X84000Y204000D02*
D03*
X76000D02*
D03*
X60000D02*
D03*
X52000D02*
D03*
X71000Y138000D02*
D03*
X35000Y165000D02*
D03*
X91117Y180830D02*
D03*
X91000Y173000D02*
D03*
X35000Y181000D02*
D03*
Y173000D02*
D03*
Y149000D02*
D03*
Y157000D02*
D03*
X92000D02*
D03*
X92141Y148871D02*
D03*
X228000Y138000D02*
D03*
X184000Y166000D02*
D03*
X100000Y415000D02*
D03*
X184055Y157385D02*
D03*
X147000Y414000D02*
D03*
X184000Y145000D02*
D03*
X193000Y416000D02*
D03*
X209000Y340000D02*
D03*
X350000Y604000D02*
D03*
X261787Y130862D02*
D03*
X441000Y200000D02*
D03*
X449000D02*
D03*
X561000Y90000D02*
D03*
X578000Y128000D02*
D03*
X544000Y122000D02*
D03*
X517000Y62000D02*
D03*
X515000Y166000D02*
D03*
X516000Y116400D02*
D03*
X517000Y84500D02*
D03*
X515000Y69000D02*
D03*
X549000Y84500D02*
D03*
X544000Y62000D02*
D03*
X578000Y156250D02*
D03*
X470250Y180861D02*
D03*
X476000Y115000D02*
D03*
X436000Y152000D02*
D03*
X443000Y135000D02*
D03*
X431000Y62000D02*
D03*
X547000Y115000D02*
D03*
X481000Y45000D02*
D03*
X451000Y51000D02*
D03*
X517000Y77000D02*
D03*
X492000Y109000D02*
D03*
X488000Y100000D02*
D03*
X436000Y128000D02*
D03*
X451000Y62000D02*
D03*
X443278Y115500D02*
D03*
X485000Y84500D02*
D03*
X455000Y115000D02*
D03*
X469000D02*
D03*
X462000D02*
D03*
X478000Y62000D02*
D03*
X466000Y84500D02*
D03*
X458000Y62000D02*
D03*
X565000Y48000D02*
D03*
X558000Y44000D02*
D03*
X551375Y40000D02*
D03*
X545000Y36000D02*
D03*
X538000Y33000D02*
D03*
X531000Y29000D02*
D03*
X473000Y45000D02*
D03*
X466387Y41000D02*
D03*
X453000Y33000D02*
D03*
X446000Y29000D02*
D03*
X460000Y37000D02*
D03*
X436000Y116000D02*
D03*
X432000Y78000D02*
D03*
X439000Y25000D02*
D03*
X524000D02*
D03*
X519000Y673000D02*
D03*
X517000Y510000D02*
D03*
X519000Y638000D02*
D03*
Y652000D02*
D03*
Y659000D02*
D03*
Y645000D02*
D03*
Y666000D02*
D03*
Y631000D02*
D03*
X517000Y524000D02*
D03*
Y538000D02*
D03*
Y517000D02*
D03*
Y531000D02*
D03*
Y545000D02*
D03*
X519000Y624000D02*
D03*
X517000Y503000D02*
D03*
Y496000D02*
D03*
D72*
X67543Y321250D02*
D03*
X76042D02*
D03*
X84543D02*
D03*
X76042Y329750D02*
D03*
Y312750D02*
D03*
M02*
