G04*
G04 #@! TF.GenerationSoftware,Altium Limited,Altium Designer,22.10.1 (41)*
G04*
G04 Layer_Physical_Order=2*
G04 Layer_Color=36540*
%FSLAX44Y44*%
%MOMM*%
G71*
G04*
G04 #@! TF.SameCoordinates,ED3CD574-296F-4DA1-8CEE-BF2CD4CAFD89*
G04*
G04*
G04 #@! TF.FilePolarity,Positive*
G04*
G01*
G75*
%ADD50C,1.2500*%
%ADD65R,2.4000X2.4000*%
%ADD66C,1.5500*%
%ADD67R,1.5500X1.5500*%
%ADD68C,1.3000*%
%ADD69C,1.5000*%
%ADD70C,1.4000*%
%ADD71C,0.5500*%
%ADD72C,0.5000*%
G36*
X630000Y0D02*
X1000D01*
Y130000D01*
X1414Y131000D01*
X140000D01*
Y275990D01*
X140603Y276593D01*
X141250Y278155D01*
Y279845D01*
X140603Y281407D01*
X140000Y282010D01*
Y288000D01*
X240000D01*
Y292676D01*
X241270Y293202D01*
X241974Y292498D01*
X244026Y291313D01*
X246315Y290700D01*
X248685D01*
X250974Y291313D01*
X253026Y292498D01*
X254702Y294174D01*
X255887Y296226D01*
X256500Y298515D01*
Y300885D01*
X255887Y303174D01*
X254702Y305226D01*
X253026Y306902D01*
X250974Y308087D01*
X248685Y308700D01*
X246315D01*
X244026Y308087D01*
X241974Y306902D01*
X241270Y306198D01*
X240000Y306724D01*
Y318076D01*
X241270Y318602D01*
X241974Y317898D01*
X244026Y316714D01*
X246315Y316100D01*
X248685D01*
X250974Y316714D01*
X253026Y317898D01*
X254702Y319574D01*
X255887Y321626D01*
X256500Y323915D01*
Y326285D01*
X255887Y328574D01*
X254702Y330626D01*
X253026Y332302D01*
X250974Y333487D01*
X248685Y334100D01*
X246315D01*
X244026Y333487D01*
X241974Y332302D01*
X241270Y331598D01*
X240000Y332124D01*
Y343476D01*
X241270Y344002D01*
X241974Y343298D01*
X244026Y342113D01*
X246315Y341500D01*
X248685D01*
X250974Y342113D01*
X253026Y343298D01*
X254702Y344974D01*
X255887Y347026D01*
X256500Y349315D01*
Y351685D01*
X255887Y353974D01*
X254702Y356026D01*
X253026Y357702D01*
X250974Y358887D01*
X248685Y359500D01*
X246315D01*
X244026Y358887D01*
X241974Y357702D01*
X241270Y356998D01*
X240000Y357524D01*
Y367542D01*
X241173Y368028D01*
X241335Y367866D01*
X243625Y366544D01*
X246178Y365860D01*
X246230D01*
Y375900D01*
Y385940D01*
X246178D01*
X243625Y385256D01*
X241335Y383934D01*
X241173Y383772D01*
X240000Y384258D01*
Y394276D01*
X241270Y394802D01*
X241974Y394098D01*
X244026Y392914D01*
X246315Y392300D01*
X248685D01*
X250974Y392914D01*
X253026Y394098D01*
X254702Y395774D01*
X255887Y397826D01*
X256500Y400115D01*
Y402485D01*
X255887Y404774D01*
X254702Y406826D01*
X253026Y408502D01*
X250974Y409687D01*
X248685Y410300D01*
X246315D01*
X244026Y409687D01*
X241974Y408502D01*
X241270Y407798D01*
X240000Y408324D01*
Y418777D01*
X240000Y419676D01*
X241127Y420345D01*
X241974Y419498D01*
X244026Y418313D01*
X246315Y417700D01*
X248685D01*
X250974Y418313D01*
X253026Y419498D01*
X254702Y421174D01*
X255887Y423226D01*
X256500Y425515D01*
Y427885D01*
X255887Y430174D01*
X254702Y432226D01*
X253026Y433902D01*
X250974Y435087D01*
X248685Y435700D01*
X246315D01*
X244026Y435087D01*
X241974Y433902D01*
X240298Y432226D01*
X239114Y430174D01*
X238500Y427885D01*
Y425515D01*
X239114Y423226D01*
X240231Y421291D01*
X240298Y421174D01*
X240321Y421086D01*
X239676Y420000D01*
X238864Y420000D01*
X194449D01*
X193845Y420250D01*
X192155D01*
X191551Y420000D01*
X169000D01*
Y457095D01*
X170270Y457435D01*
X170798Y456521D01*
X172521Y454798D01*
X174630Y453581D01*
X176982Y452950D01*
X179418D01*
X181770Y453581D01*
X183880Y454798D01*
X185602Y456521D01*
X186820Y458630D01*
X187450Y460982D01*
Y463418D01*
X186820Y465770D01*
X185602Y467880D01*
X183880Y469602D01*
X181770Y470820D01*
X179418Y471450D01*
X176982D01*
X174630Y470820D01*
X172521Y469602D01*
X170798Y467880D01*
X170270Y466965D01*
X169000Y467305D01*
Y482495D01*
X170270Y482836D01*
X170798Y481921D01*
X172521Y480198D01*
X174630Y478980D01*
X176982Y478350D01*
X179418D01*
X181770Y478980D01*
X183880Y480198D01*
X185602Y481921D01*
X186820Y484030D01*
X187450Y486382D01*
Y488818D01*
X186820Y491171D01*
X185602Y493280D01*
X183880Y495002D01*
X181770Y496220D01*
X179418Y496850D01*
X176982D01*
X174630Y496220D01*
X172521Y495002D01*
X170798Y493280D01*
X170270Y492365D01*
X169000Y492705D01*
Y507895D01*
X170270Y508236D01*
X170798Y507321D01*
X172521Y505598D01*
X174630Y504380D01*
X176982Y503750D01*
X179418D01*
X181770Y504380D01*
X183880Y505598D01*
X185602Y507321D01*
X186820Y509430D01*
X187450Y511782D01*
Y514218D01*
X186820Y516571D01*
X185602Y518680D01*
X183880Y520402D01*
X181770Y521620D01*
X179418Y522250D01*
X176982D01*
X174630Y521620D01*
X172521Y520402D01*
X170798Y518680D01*
X170270Y517765D01*
X169000Y518105D01*
Y533295D01*
X170270Y533635D01*
X170798Y532720D01*
X172521Y530998D01*
X174630Y529781D01*
X176982Y529150D01*
X179418D01*
X181770Y529781D01*
X183880Y530998D01*
X185602Y532720D01*
X186820Y534830D01*
X187450Y537182D01*
Y539618D01*
X186820Y541970D01*
X185602Y544080D01*
X183880Y545802D01*
X181770Y547020D01*
X179418Y547650D01*
X176982D01*
X174630Y547020D01*
X172521Y545802D01*
X170798Y544080D01*
X170270Y543165D01*
X169000Y543505D01*
Y558695D01*
X170270Y559035D01*
X170798Y558120D01*
X172521Y556398D01*
X174630Y555181D01*
X176982Y554550D01*
X179418D01*
X181770Y555181D01*
X183880Y556398D01*
X185602Y558120D01*
X186820Y560230D01*
X187450Y562582D01*
Y565018D01*
X186820Y567370D01*
X185602Y569480D01*
X183880Y571202D01*
X181770Y572420D01*
X179418Y573050D01*
X176982D01*
X174630Y572420D01*
X172521Y571202D01*
X170798Y569480D01*
X170270Y568565D01*
X169000Y568905D01*
Y584095D01*
X170270Y584436D01*
X170798Y583521D01*
X172521Y581798D01*
X174630Y580580D01*
X176982Y579950D01*
X179418D01*
X181770Y580580D01*
X183880Y581798D01*
X185602Y583521D01*
X186820Y585630D01*
X187450Y587982D01*
Y590418D01*
X186820Y592771D01*
X185602Y594880D01*
X183880Y596602D01*
X181770Y597820D01*
X179418Y598450D01*
X176982D01*
X174630Y597820D01*
X172521Y596602D01*
X170798Y594880D01*
X170270Y593965D01*
X169000Y594305D01*
Y609495D01*
X170270Y609836D01*
X170798Y608921D01*
X172521Y607198D01*
X174630Y605980D01*
X176982Y605350D01*
X179418D01*
X181770Y605980D01*
X183880Y607198D01*
X185602Y608921D01*
X186820Y611030D01*
X187450Y613382D01*
Y615818D01*
X186820Y618171D01*
X185602Y620280D01*
X183880Y622002D01*
X181770Y623220D01*
X179418Y623850D01*
X176982D01*
X174630Y623220D01*
X172521Y622002D01*
X170798Y620280D01*
X170270Y619365D01*
X169000Y619705D01*
Y634895D01*
X170270Y635235D01*
X170798Y634320D01*
X172521Y632598D01*
X174630Y631381D01*
X176982Y630750D01*
X179418D01*
X181770Y631381D01*
X183880Y632598D01*
X185602Y634320D01*
X186820Y636430D01*
X187450Y638782D01*
Y641218D01*
X186820Y643570D01*
X185602Y645680D01*
X183880Y647402D01*
X181770Y648620D01*
X179418Y649250D01*
X176982D01*
X174630Y648620D01*
X172521Y647402D01*
X170798Y645680D01*
X170270Y644765D01*
X169000Y645105D01*
Y660295D01*
X170270Y660636D01*
X170798Y659721D01*
X172521Y657998D01*
X174630Y656780D01*
X176982Y656150D01*
X179418D01*
X181770Y656780D01*
X183880Y657998D01*
X185602Y659721D01*
X186820Y661830D01*
X187450Y664182D01*
Y666618D01*
X186820Y668970D01*
X185602Y671080D01*
X183880Y672802D01*
X181770Y674020D01*
X179418Y674650D01*
X176982D01*
X174630Y674020D01*
X172521Y672802D01*
X170798Y671080D01*
X170270Y670165D01*
X169000Y670505D01*
Y680510D01*
X176930D01*
Y690800D01*
Y701090D01*
X169000D01*
Y760000D01*
X630000D01*
Y0D01*
D02*
G37*
G36*
X167376Y701090D02*
X167852Y699942D01*
X168950Y699487D01*
Y682113D01*
X167852Y681658D01*
X167376Y680510D01*
Y670505D01*
X167539Y670114D01*
X167594Y669693D01*
X167768Y669560D01*
X167852Y669357D01*
X168244Y669195D01*
X168580Y668937D01*
X169505Y668689D01*
X168950Y666618D01*
Y664182D01*
X169505Y662111D01*
X168580Y661863D01*
X168244Y661606D01*
X167852Y661443D01*
X167768Y661241D01*
X167594Y661107D01*
X167539Y660687D01*
X167376Y660295D01*
Y645105D01*
X167539Y644714D01*
X167594Y644293D01*
X167768Y644160D01*
X167852Y643957D01*
X168244Y643795D01*
X168580Y643537D01*
X169505Y643289D01*
X168950Y641218D01*
Y638782D01*
X169505Y636711D01*
X168580Y636464D01*
X168244Y636205D01*
X167852Y636043D01*
X167768Y635841D01*
X167594Y635707D01*
X167539Y635287D01*
X167376Y634895D01*
Y619705D01*
X167539Y619314D01*
X167594Y618893D01*
X167768Y618760D01*
X167852Y618557D01*
X168244Y618395D01*
X168580Y618137D01*
X169505Y617889D01*
X168950Y615818D01*
Y613382D01*
X169505Y611311D01*
X168580Y611063D01*
X168244Y610806D01*
X167852Y610643D01*
X167768Y610441D01*
X167594Y610307D01*
X167539Y609887D01*
X167376Y609495D01*
Y594305D01*
X167539Y593913D01*
X167594Y593493D01*
X167768Y593360D01*
X167852Y593157D01*
X168244Y592995D01*
X168580Y592737D01*
X169505Y592489D01*
X168950Y590418D01*
Y587982D01*
X169505Y585911D01*
X168580Y585663D01*
X168244Y585406D01*
X167852Y585243D01*
X167768Y585041D01*
X167594Y584907D01*
X167539Y584487D01*
X167376Y584095D01*
Y568905D01*
X167539Y568513D01*
X167594Y568093D01*
X167768Y567960D01*
X167852Y567757D01*
X168244Y567595D01*
X168580Y567337D01*
X169505Y567089D01*
X168950Y565018D01*
Y562582D01*
X169505Y560511D01*
X168580Y560263D01*
X168244Y560005D01*
X167852Y559843D01*
X167768Y559641D01*
X167594Y559507D01*
X167539Y559087D01*
X167376Y558695D01*
Y543505D01*
X167539Y543114D01*
X167594Y542693D01*
X167768Y542560D01*
X167852Y542357D01*
X168244Y542195D01*
X168580Y541937D01*
X169505Y541689D01*
X168950Y539618D01*
Y537182D01*
X169505Y535111D01*
X168580Y534864D01*
X168244Y534605D01*
X167852Y534443D01*
X167768Y534241D01*
X167594Y534107D01*
X167539Y533687D01*
X167376Y533295D01*
Y518105D01*
X167539Y517714D01*
X167594Y517293D01*
X167768Y517160D01*
X167852Y516957D01*
X168244Y516795D01*
X168580Y516537D01*
X169505Y516289D01*
X168950Y514218D01*
Y511782D01*
X169505Y509711D01*
X168580Y509464D01*
X168244Y509206D01*
X167852Y509043D01*
X167768Y508841D01*
X167594Y508707D01*
X167539Y508287D01*
X167376Y507895D01*
Y492705D01*
X167539Y492313D01*
X167594Y491893D01*
X167768Y491760D01*
X167852Y491557D01*
X168244Y491395D01*
X168580Y491137D01*
X169505Y490889D01*
X168950Y488818D01*
Y486382D01*
X169505Y484311D01*
X168580Y484063D01*
X168244Y483806D01*
X167852Y483643D01*
X167768Y483441D01*
X167594Y483307D01*
X167539Y482887D01*
X167376Y482495D01*
Y467305D01*
X167539Y466913D01*
X167594Y466493D01*
X167768Y466360D01*
X167852Y466157D01*
X168244Y465995D01*
X168580Y465737D01*
X169505Y465489D01*
X168950Y463418D01*
Y460982D01*
X169505Y458911D01*
X168580Y458663D01*
X168244Y458405D01*
X167852Y458243D01*
X167768Y458041D01*
X167594Y457907D01*
X167539Y457487D01*
X167376Y457095D01*
Y420000D01*
X167852Y418852D01*
X169000Y418376D01*
X188241D01*
X188947Y417320D01*
X188750Y416845D01*
Y415155D01*
X189397Y413593D01*
X190593Y412397D01*
X192155Y411750D01*
X193845D01*
X195407Y412397D01*
X196603Y413593D01*
X197250Y415155D01*
Y416845D01*
X197053Y417320D01*
X197759Y418376D01*
X238376D01*
Y408324D01*
X238500Y408026D01*
Y407703D01*
X238728Y407474D01*
X238852Y407176D01*
X239079Y407082D01*
X239385Y406739D01*
X239479Y405408D01*
X239114Y404774D01*
X238500Y402485D01*
Y400115D01*
X239114Y397826D01*
X239479Y397193D01*
X239385Y395861D01*
X239079Y395518D01*
X238852Y395424D01*
X238728Y395126D01*
X238500Y394898D01*
Y394575D01*
X238376Y394276D01*
Y384258D01*
X238500Y383960D01*
Y383637D01*
X238728Y383408D01*
X238852Y383110D01*
X239150Y382986D01*
X239379Y382758D01*
X240000Y382501D01*
Y380910D01*
X239114Y379374D01*
X238500Y377085D01*
Y374715D01*
X239114Y372426D01*
X240000Y370891D01*
Y369300D01*
X239379Y369042D01*
X239150Y368814D01*
X238852Y368690D01*
X238728Y368392D01*
X238500Y368163D01*
Y367840D01*
X238376Y367542D01*
Y357524D01*
X238500Y357226D01*
Y356903D01*
X238728Y356674D01*
X238852Y356376D01*
X239079Y356282D01*
X239385Y355939D01*
X239479Y354608D01*
X239114Y353974D01*
X238500Y351685D01*
Y349315D01*
X239114Y347026D01*
X239479Y346393D01*
X239385Y345061D01*
X239079Y344719D01*
X238852Y344624D01*
X238728Y344326D01*
X238500Y344098D01*
Y343775D01*
X238376Y343476D01*
Y332124D01*
X238500Y331826D01*
Y331503D01*
X238728Y331274D01*
X238852Y330976D01*
X239079Y330882D01*
X239385Y330539D01*
X239479Y329208D01*
X239114Y328574D01*
X238500Y326285D01*
Y323915D01*
X239114Y321626D01*
X239479Y320993D01*
X239385Y319661D01*
X239079Y319319D01*
X238852Y319224D01*
X238728Y318926D01*
X238500Y318698D01*
Y318375D01*
X238376Y318076D01*
Y306724D01*
X238500Y306426D01*
Y306103D01*
X238728Y305874D01*
X238852Y305576D01*
X239079Y305482D01*
X239385Y305139D01*
X239479Y303808D01*
X239114Y303174D01*
X238500Y300885D01*
Y300000D01*
X141624D01*
X141148Y301148D01*
X140000Y301624D01*
X91624D01*
Y372750D01*
X91599Y372809D01*
X93018Y373397D01*
X94214Y374593D01*
X94861Y376155D01*
Y377845D01*
X94214Y379407D01*
X93018Y380603D01*
X91456Y381250D01*
X89766D01*
X88203Y380603D01*
X87089Y381148D01*
X86676Y381319D01*
X86313Y381580D01*
X86121Y381549D01*
X85941Y381624D01*
X0D01*
Y760000D01*
X167376D01*
Y701090D01*
D02*
G37*
G36*
X86727Y378730D02*
X86361Y377845D01*
Y376155D01*
X87008Y374593D01*
X88203Y373397D01*
X89766Y372750D01*
X90000D01*
Y300000D01*
X140000D01*
Y289624D01*
X138852Y289148D01*
X138376Y288000D01*
Y282010D01*
X138852Y280862D01*
X139227Y280488D01*
X139626Y279522D01*
Y278477D01*
X139227Y277512D01*
X138852Y277138D01*
X138376Y275990D01*
Y132624D01*
X72445D01*
X72192Y133894D01*
X73407Y134397D01*
X74603Y135593D01*
X75250Y137155D01*
Y138845D01*
X74603Y140407D01*
X73407Y141603D01*
X71845Y142250D01*
X70155D01*
X68593Y141603D01*
X67397Y140407D01*
X66750Y138845D01*
Y137155D01*
X67397Y135593D01*
X68593Y134397D01*
X69808Y133894D01*
X69555Y132624D01*
X1414D01*
X1270Y132564D01*
X492Y132858D01*
X0Y133442D01*
Y380000D01*
X85941D01*
X86727Y378730D01*
D02*
G37*
%LPC*%
G36*
X611311Y753975D02*
X607889D01*
X604532Y753307D01*
X601370Y751998D01*
X598524Y750096D01*
X596104Y747676D01*
X594202Y744830D01*
X592893Y741668D01*
X592225Y738311D01*
Y734889D01*
X592893Y731532D01*
X594202Y728370D01*
X596104Y725524D01*
X598524Y723104D01*
X601370Y721202D01*
X604532Y719893D01*
X607889Y719225D01*
X611311D01*
X614668Y719893D01*
X617830Y721202D01*
X620676Y723104D01*
X623096Y725524D01*
X624997Y728370D01*
X626307Y731532D01*
X626975Y734889D01*
Y738311D01*
X626307Y741668D01*
X624997Y744830D01*
X623096Y747676D01*
X620676Y750096D01*
X617830Y751998D01*
X614668Y753307D01*
X611311Y753975D01*
D02*
G37*
G36*
X611355Y701090D02*
X611270D01*
Y692070D01*
X620290D01*
Y692155D01*
X619589Y694772D01*
X618234Y697118D01*
X616318Y699034D01*
X613972Y700389D01*
X611355Y701090D01*
D02*
G37*
G36*
X594890D02*
X585870D01*
Y692070D01*
X594890D01*
Y701090D01*
D02*
G37*
G36*
X467890D02*
X458870D01*
Y692070D01*
X467890D01*
Y701090D01*
D02*
G37*
G36*
X188490D02*
X179470D01*
Y692070D01*
X188490D01*
Y701090D01*
D02*
G37*
G36*
X608730D02*
X608645D01*
X606028Y700389D01*
X603682Y699034D01*
X601766Y697118D01*
X600411Y694772D01*
X599710Y692155D01*
Y692070D01*
X608730D01*
Y701090D01*
D02*
G37*
G36*
X583330D02*
X574310D01*
Y692070D01*
X583330D01*
Y701090D01*
D02*
G37*
G36*
X456330D02*
X447310D01*
Y692070D01*
X456330D01*
Y701090D01*
D02*
G37*
G36*
X484218Y700050D02*
X481782D01*
X479430Y699420D01*
X477321Y698202D01*
X475598Y696480D01*
X474380Y694370D01*
X473750Y692018D01*
Y689582D01*
X474380Y687230D01*
X475598Y685120D01*
X477321Y683398D01*
X479430Y682180D01*
X481782Y681550D01*
X484218D01*
X486571Y682180D01*
X488680Y683398D01*
X490402Y685120D01*
X491620Y687230D01*
X492250Y689582D01*
Y692018D01*
X491620Y694370D01*
X490402Y696480D01*
X488680Y698202D01*
X486571Y699420D01*
X484218Y700050D01*
D02*
G37*
G36*
X204818D02*
X202382D01*
X200030Y699420D01*
X197920Y698202D01*
X196198Y696480D01*
X194981Y694370D01*
X194350Y692018D01*
Y689582D01*
X194981Y687230D01*
X196198Y685120D01*
X197920Y683398D01*
X200030Y682180D01*
X202382Y681550D01*
X204818D01*
X207171Y682180D01*
X209280Y683398D01*
X211002Y685120D01*
X212220Y687230D01*
X212850Y689582D01*
Y692018D01*
X212220Y694370D01*
X211002Y696480D01*
X209280Y698202D01*
X207171Y699420D01*
X204818Y700050D01*
D02*
G37*
G36*
X620290Y689530D02*
X611270D01*
Y680510D01*
X611355D01*
X613972Y681211D01*
X616318Y682566D01*
X618234Y684482D01*
X619589Y686828D01*
X620290Y689445D01*
Y689530D01*
D02*
G37*
G36*
X608730D02*
X599710D01*
Y689445D01*
X600411Y686828D01*
X601766Y684482D01*
X603682Y682566D01*
X606028Y681211D01*
X608645Y680510D01*
X608730D01*
Y689530D01*
D02*
G37*
G36*
X594890D02*
X585870D01*
Y680510D01*
X594890D01*
Y689530D01*
D02*
G37*
G36*
X583330D02*
X574310D01*
Y680510D01*
X583330D01*
Y689530D01*
D02*
G37*
G36*
X467890D02*
X458870D01*
Y680510D01*
X467890D01*
Y689530D01*
D02*
G37*
G36*
X456330D02*
X447310D01*
Y680510D01*
X456330D01*
Y689530D01*
D02*
G37*
G36*
X188490D02*
X179470D01*
Y680510D01*
X188490D01*
Y689530D01*
D02*
G37*
G36*
X611218Y674650D02*
X608782D01*
X606430Y674020D01*
X604320Y672802D01*
X602598Y671080D01*
X601381Y668970D01*
X600750Y666618D01*
Y664182D01*
X601381Y661830D01*
X602598Y659721D01*
X604320Y657998D01*
X606430Y656780D01*
X608782Y656150D01*
X611218D01*
X613571Y656780D01*
X615680Y657998D01*
X617402Y659721D01*
X618620Y661830D01*
X619250Y664182D01*
Y666618D01*
X618620Y668970D01*
X617402Y671080D01*
X615680Y672802D01*
X613571Y674020D01*
X611218Y674650D01*
D02*
G37*
G36*
X585818D02*
X583382D01*
X581030Y674020D01*
X578921Y672802D01*
X577198Y671080D01*
X575980Y668970D01*
X575350Y666618D01*
Y664182D01*
X575980Y661830D01*
X577198Y659721D01*
X578921Y657998D01*
X581030Y656780D01*
X583382Y656150D01*
X585818D01*
X588171Y656780D01*
X590280Y657998D01*
X592002Y659721D01*
X593220Y661830D01*
X593850Y664182D01*
Y666618D01*
X593220Y668970D01*
X592002Y671080D01*
X590280Y672802D01*
X588171Y674020D01*
X585818Y674650D01*
D02*
G37*
G36*
X484218D02*
X481782D01*
X479430Y674020D01*
X477321Y672802D01*
X475598Y671080D01*
X474380Y668970D01*
X473750Y666618D01*
Y664182D01*
X474380Y661830D01*
X475598Y659721D01*
X477321Y657998D01*
X479430Y656780D01*
X481782Y656150D01*
X484218D01*
X486571Y656780D01*
X488680Y657998D01*
X490402Y659721D01*
X491620Y661830D01*
X492250Y664182D01*
Y666618D01*
X491620Y668970D01*
X490402Y671080D01*
X488680Y672802D01*
X486571Y674020D01*
X484218Y674650D01*
D02*
G37*
G36*
X458818D02*
X456382D01*
X454030Y674020D01*
X451921Y672802D01*
X450198Y671080D01*
X448980Y668970D01*
X448350Y666618D01*
Y664182D01*
X448980Y661830D01*
X450198Y659721D01*
X451921Y657998D01*
X454030Y656780D01*
X456382Y656150D01*
X458818D01*
X461171Y656780D01*
X463280Y657998D01*
X465002Y659721D01*
X466220Y661830D01*
X466850Y664182D01*
Y666618D01*
X466220Y668970D01*
X465002Y671080D01*
X463280Y672802D01*
X461171Y674020D01*
X458818Y674650D01*
D02*
G37*
G36*
X204818D02*
X202382D01*
X200030Y674020D01*
X197920Y672802D01*
X196198Y671080D01*
X194981Y668970D01*
X194350Y666618D01*
Y664182D01*
X194981Y661830D01*
X196198Y659721D01*
X197920Y657998D01*
X200030Y656780D01*
X202382Y656150D01*
X204818D01*
X207171Y656780D01*
X209280Y657998D01*
X211002Y659721D01*
X212220Y661830D01*
X212850Y664182D01*
Y666618D01*
X212220Y668970D01*
X211002Y671080D01*
X209280Y672802D01*
X207171Y674020D01*
X204818Y674650D01*
D02*
G37*
G36*
X611218Y649250D02*
X608782D01*
X606430Y648620D01*
X604320Y647402D01*
X602598Y645680D01*
X601381Y643570D01*
X600750Y641218D01*
Y638782D01*
X601381Y636430D01*
X602598Y634320D01*
X604320Y632598D01*
X606430Y631381D01*
X608782Y630750D01*
X611218D01*
X613571Y631381D01*
X615680Y632598D01*
X617402Y634320D01*
X618620Y636430D01*
X619250Y638782D01*
Y641218D01*
X618620Y643570D01*
X617402Y645680D01*
X615680Y647402D01*
X613571Y648620D01*
X611218Y649250D01*
D02*
G37*
G36*
X585818D02*
X583382D01*
X581030Y648620D01*
X578921Y647402D01*
X577198Y645680D01*
X575980Y643570D01*
X575350Y641218D01*
Y638782D01*
X575980Y636430D01*
X577198Y634320D01*
X578921Y632598D01*
X581030Y631381D01*
X583382Y630750D01*
X585818D01*
X588171Y631381D01*
X590280Y632598D01*
X592002Y634320D01*
X593220Y636430D01*
X593850Y638782D01*
Y641218D01*
X593220Y643570D01*
X592002Y645680D01*
X590280Y647402D01*
X588171Y648620D01*
X585818Y649250D01*
D02*
G37*
G36*
X484218D02*
X481782D01*
X479430Y648620D01*
X477321Y647402D01*
X475598Y645680D01*
X474380Y643570D01*
X473750Y641218D01*
Y638782D01*
X474380Y636430D01*
X475598Y634320D01*
X477321Y632598D01*
X479430Y631381D01*
X481782Y630750D01*
X484218D01*
X486571Y631381D01*
X488680Y632598D01*
X490402Y634320D01*
X491620Y636430D01*
X492250Y638782D01*
Y641218D01*
X491620Y643570D01*
X490402Y645680D01*
X488680Y647402D01*
X486571Y648620D01*
X484218Y649250D01*
D02*
G37*
G36*
X458818D02*
X456382D01*
X454030Y648620D01*
X451921Y647402D01*
X450198Y645680D01*
X448980Y643570D01*
X448350Y641218D01*
Y638782D01*
X448980Y636430D01*
X450198Y634320D01*
X451921Y632598D01*
X454030Y631381D01*
X456382Y630750D01*
X458818D01*
X461171Y631381D01*
X463280Y632598D01*
X465002Y634320D01*
X466220Y636430D01*
X466850Y638782D01*
Y641218D01*
X466220Y643570D01*
X465002Y645680D01*
X463280Y647402D01*
X461171Y648620D01*
X458818Y649250D01*
D02*
G37*
G36*
X204818D02*
X202382D01*
X200030Y648620D01*
X197920Y647402D01*
X196198Y645680D01*
X194981Y643570D01*
X194350Y641218D01*
Y638782D01*
X194981Y636430D01*
X196198Y634320D01*
X197920Y632598D01*
X200030Y631381D01*
X202382Y630750D01*
X204818D01*
X207171Y631381D01*
X209280Y632598D01*
X211002Y634320D01*
X212220Y636430D01*
X212850Y638782D01*
Y641218D01*
X212220Y643570D01*
X211002Y645680D01*
X209280Y647402D01*
X207171Y648620D01*
X204818Y649250D01*
D02*
G37*
G36*
X519846Y677250D02*
X518155D01*
X516593Y676603D01*
X515397Y675407D01*
X514750Y673846D01*
Y672155D01*
X515397Y670593D01*
X516490Y669500D01*
X515397Y668408D01*
X514750Y666845D01*
Y665155D01*
X515397Y663593D01*
X516490Y662500D01*
X515397Y661407D01*
X514750Y659846D01*
Y658155D01*
X515397Y656593D01*
X516490Y655500D01*
X515397Y654408D01*
X514750Y652846D01*
Y651155D01*
X515397Y649593D01*
X516490Y648500D01*
X515397Y647408D01*
X514750Y645845D01*
Y644155D01*
X515397Y642593D01*
X516490Y641500D01*
X515397Y640407D01*
X514750Y638845D01*
Y637155D01*
X515397Y635593D01*
X516490Y634500D01*
X515397Y633408D01*
X514750Y631846D01*
Y630155D01*
X515397Y628593D01*
X516490Y627500D01*
X515397Y626408D01*
X514750Y624846D01*
Y623155D01*
X515397Y621593D01*
X516593Y620397D01*
X518155Y619750D01*
X519846D01*
X521408Y620397D01*
X522603Y621593D01*
X523250Y623155D01*
Y624846D01*
X522603Y626408D01*
X521511Y627500D01*
X522603Y628593D01*
X523250Y630155D01*
Y631846D01*
X522603Y633408D01*
X521511Y634500D01*
X522603Y635593D01*
X523250Y637155D01*
Y638845D01*
X522603Y640407D01*
X521511Y641500D01*
X522603Y642593D01*
X523250Y644155D01*
Y645845D01*
X522603Y647408D01*
X521511Y648500D01*
X522603Y649593D01*
X523250Y651155D01*
Y652846D01*
X522603Y654408D01*
X521511Y655500D01*
X522603Y656593D01*
X523250Y658155D01*
Y659846D01*
X522603Y661407D01*
X521511Y662500D01*
X522603Y663593D01*
X523250Y665155D01*
Y666845D01*
X522603Y668408D01*
X521511Y669500D01*
X522603Y670593D01*
X523250Y672155D01*
Y673846D01*
X522603Y675407D01*
X521408Y676603D01*
X519846Y677250D01*
D02*
G37*
G36*
X611218Y623850D02*
X608782D01*
X606430Y623220D01*
X604320Y622002D01*
X602598Y620280D01*
X601381Y618171D01*
X600750Y615818D01*
Y613382D01*
X601381Y611030D01*
X602598Y608921D01*
X604320Y607198D01*
X606430Y605980D01*
X608782Y605350D01*
X611218D01*
X613571Y605980D01*
X615680Y607198D01*
X617402Y608921D01*
X618620Y611030D01*
X619250Y613382D01*
Y615818D01*
X618620Y618171D01*
X617402Y620280D01*
X615680Y622002D01*
X613571Y623220D01*
X611218Y623850D01*
D02*
G37*
G36*
X585818D02*
X583382D01*
X581030Y623220D01*
X578921Y622002D01*
X577198Y620280D01*
X575980Y618171D01*
X575350Y615818D01*
Y613382D01*
X575980Y611030D01*
X577198Y608921D01*
X578921Y607198D01*
X581030Y605980D01*
X583382Y605350D01*
X585818D01*
X588171Y605980D01*
X590280Y607198D01*
X592002Y608921D01*
X593220Y611030D01*
X593850Y613382D01*
Y615818D01*
X593220Y618171D01*
X592002Y620280D01*
X590280Y622002D01*
X588171Y623220D01*
X585818Y623850D01*
D02*
G37*
G36*
X484218D02*
X481782D01*
X479430Y623220D01*
X477321Y622002D01*
X475598Y620280D01*
X474380Y618171D01*
X473750Y615818D01*
Y613382D01*
X474380Y611030D01*
X475598Y608921D01*
X477321Y607198D01*
X479430Y605980D01*
X481782Y605350D01*
X484218D01*
X486571Y605980D01*
X488680Y607198D01*
X490402Y608921D01*
X491620Y611030D01*
X492250Y613382D01*
Y615818D01*
X491620Y618171D01*
X490402Y620280D01*
X488680Y622002D01*
X486571Y623220D01*
X484218Y623850D01*
D02*
G37*
G36*
X458818D02*
X456382D01*
X454030Y623220D01*
X451921Y622002D01*
X450198Y620280D01*
X448980Y618171D01*
X448350Y615818D01*
Y613382D01*
X448980Y611030D01*
X450198Y608921D01*
X451921Y607198D01*
X454030Y605980D01*
X456382Y605350D01*
X458818D01*
X461171Y605980D01*
X463280Y607198D01*
X465002Y608921D01*
X466220Y611030D01*
X466850Y613382D01*
Y615818D01*
X466220Y618171D01*
X465002Y620280D01*
X463280Y622002D01*
X461171Y623220D01*
X458818Y623850D01*
D02*
G37*
G36*
X204818D02*
X202382D01*
X200030Y623220D01*
X197920Y622002D01*
X196198Y620280D01*
X194981Y618171D01*
X194350Y615818D01*
Y613382D01*
X194981Y611030D01*
X196198Y608921D01*
X197920Y607198D01*
X200030Y605980D01*
X202382Y605350D01*
X204818D01*
X207171Y605980D01*
X209280Y607198D01*
X211002Y608921D01*
X212220Y611030D01*
X212850Y613382D01*
Y615818D01*
X212220Y618171D01*
X211002Y620280D01*
X209280Y622002D01*
X207171Y623220D01*
X204818Y623850D01*
D02*
G37*
G36*
X350845Y608250D02*
X349155D01*
X347593Y607603D01*
X346397Y606407D01*
X345750Y604845D01*
Y603155D01*
X346397Y601593D01*
X347593Y600397D01*
X349155Y599750D01*
X350845D01*
X352407Y600397D01*
X353603Y601593D01*
X354250Y603155D01*
Y604845D01*
X353603Y606407D01*
X352407Y607603D01*
X350845Y608250D01*
D02*
G37*
G36*
X401085Y613500D02*
X398715D01*
X396426Y612887D01*
X394374Y611702D01*
X392698Y610026D01*
X391513Y607974D01*
X390900Y605685D01*
Y603315D01*
X391513Y601026D01*
X392698Y598974D01*
X394374Y597298D01*
X396426Y596114D01*
X398715Y595500D01*
X401085D01*
X403374Y596114D01*
X405426Y597298D01*
X407102Y598974D01*
X408287Y601026D01*
X408900Y603315D01*
Y605685D01*
X408287Y607974D01*
X407102Y610026D01*
X405426Y611702D01*
X403374Y612887D01*
X401085Y613500D01*
D02*
G37*
G36*
X248685D02*
X246315D01*
X244026Y612887D01*
X241974Y611702D01*
X240298Y610026D01*
X239114Y607974D01*
X238500Y605685D01*
Y603315D01*
X239114Y601026D01*
X240298Y598974D01*
X241974Y597298D01*
X244026Y596114D01*
X246315Y595500D01*
X248685D01*
X250974Y596114D01*
X253026Y597298D01*
X254702Y598974D01*
X255887Y601026D01*
X256500Y603315D01*
Y605685D01*
X255887Y607974D01*
X254702Y610026D01*
X253026Y611702D01*
X250974Y612887D01*
X248685Y613500D01*
D02*
G37*
G36*
X611218Y598450D02*
X608782D01*
X606430Y597820D01*
X604320Y596602D01*
X602598Y594880D01*
X601381Y592771D01*
X600750Y590418D01*
Y587982D01*
X601381Y585630D01*
X602598Y583521D01*
X604320Y581798D01*
X606430Y580580D01*
X608782Y579950D01*
X611218D01*
X613571Y580580D01*
X615680Y581798D01*
X617402Y583521D01*
X618620Y585630D01*
X619250Y587982D01*
Y590418D01*
X618620Y592771D01*
X617402Y594880D01*
X615680Y596602D01*
X613571Y597820D01*
X611218Y598450D01*
D02*
G37*
G36*
X585818D02*
X583382D01*
X581030Y597820D01*
X578921Y596602D01*
X577198Y594880D01*
X575980Y592771D01*
X575350Y590418D01*
Y587982D01*
X575980Y585630D01*
X577198Y583521D01*
X578921Y581798D01*
X581030Y580580D01*
X583382Y579950D01*
X585818D01*
X588171Y580580D01*
X590280Y581798D01*
X592002Y583521D01*
X593220Y585630D01*
X593850Y587982D01*
Y590418D01*
X593220Y592771D01*
X592002Y594880D01*
X590280Y596602D01*
X588171Y597820D01*
X585818Y598450D01*
D02*
G37*
G36*
X484218D02*
X481782D01*
X479430Y597820D01*
X477321Y596602D01*
X475598Y594880D01*
X474380Y592771D01*
X473750Y590418D01*
Y587982D01*
X474380Y585630D01*
X475598Y583521D01*
X477321Y581798D01*
X479430Y580580D01*
X481782Y579950D01*
X484218D01*
X486571Y580580D01*
X488680Y581798D01*
X490402Y583521D01*
X491620Y585630D01*
X492250Y587982D01*
Y590418D01*
X491620Y592771D01*
X490402Y594880D01*
X488680Y596602D01*
X486571Y597820D01*
X484218Y598450D01*
D02*
G37*
G36*
X458818D02*
X456382D01*
X454030Y597820D01*
X451921Y596602D01*
X450198Y594880D01*
X448980Y592771D01*
X448350Y590418D01*
Y587982D01*
X448980Y585630D01*
X450198Y583521D01*
X451921Y581798D01*
X454030Y580580D01*
X456382Y579950D01*
X458818D01*
X461171Y580580D01*
X463280Y581798D01*
X465002Y583521D01*
X466220Y585630D01*
X466850Y587982D01*
Y590418D01*
X466220Y592771D01*
X465002Y594880D01*
X463280Y596602D01*
X461171Y597820D01*
X458818Y598450D01*
D02*
G37*
G36*
X204818D02*
X202382D01*
X200030Y597820D01*
X197920Y596602D01*
X196198Y594880D01*
X194981Y592771D01*
X194350Y590418D01*
Y587982D01*
X194981Y585630D01*
X196198Y583521D01*
X197920Y581798D01*
X200030Y580580D01*
X202382Y579950D01*
X204818D01*
X207171Y580580D01*
X209280Y581798D01*
X211002Y583521D01*
X212220Y585630D01*
X212850Y587982D01*
Y590418D01*
X212220Y592771D01*
X211002Y594880D01*
X209280Y596602D01*
X207171Y597820D01*
X204818Y598450D01*
D02*
G37*
G36*
X401085Y588100D02*
X398715D01*
X396426Y587487D01*
X394374Y586302D01*
X392698Y584626D01*
X391513Y582574D01*
X390900Y580285D01*
Y577915D01*
X391513Y575626D01*
X392698Y573574D01*
X394374Y571898D01*
X396426Y570714D01*
X398715Y570100D01*
X401085D01*
X403374Y570714D01*
X405426Y571898D01*
X407102Y573574D01*
X408287Y575626D01*
X408900Y577915D01*
Y580285D01*
X408287Y582574D01*
X407102Y584626D01*
X405426Y586302D01*
X403374Y587487D01*
X401085Y588100D01*
D02*
G37*
G36*
X248685D02*
X246315D01*
X244026Y587487D01*
X241974Y586302D01*
X240298Y584626D01*
X239114Y582574D01*
X238500Y580285D01*
Y577915D01*
X239114Y575626D01*
X240298Y573574D01*
X241974Y571898D01*
X244026Y570714D01*
X246315Y570100D01*
X248685D01*
X250974Y570714D01*
X253026Y571898D01*
X254702Y573574D01*
X255887Y575626D01*
X256500Y577915D01*
Y580285D01*
X255887Y582574D01*
X254702Y584626D01*
X253026Y586302D01*
X250974Y587487D01*
X248685Y588100D01*
D02*
G37*
G36*
X611355Y574090D02*
X611270D01*
Y565070D01*
X620290D01*
Y565155D01*
X619589Y567772D01*
X618234Y570118D01*
X616318Y572034D01*
X613972Y573389D01*
X611355Y574090D01*
D02*
G37*
G36*
X585955D02*
X585870D01*
Y565070D01*
X594890D01*
Y565155D01*
X594189Y567772D01*
X592834Y570118D01*
X590918Y572034D01*
X588572Y573389D01*
X585955Y574090D01*
D02*
G37*
G36*
X608730D02*
X608645D01*
X606028Y573389D01*
X603682Y572034D01*
X601766Y570118D01*
X600411Y567772D01*
X599710Y565155D01*
Y565070D01*
X608730D01*
Y574090D01*
D02*
G37*
G36*
X583330D02*
X583245D01*
X580628Y573389D01*
X578282Y572034D01*
X576366Y570118D01*
X575011Y567772D01*
X574310Y565155D01*
Y565070D01*
X583330D01*
Y574090D01*
D02*
G37*
G36*
X484218Y573050D02*
X481782D01*
X479430Y572420D01*
X477321Y571202D01*
X475598Y569480D01*
X474380Y567370D01*
X473750Y565018D01*
Y562582D01*
X474380Y560230D01*
X475598Y558120D01*
X477321Y556398D01*
X479430Y555181D01*
X481782Y554550D01*
X484218D01*
X486571Y555181D01*
X488680Y556398D01*
X490402Y558120D01*
X491620Y560230D01*
X492250Y562582D01*
Y565018D01*
X491620Y567370D01*
X490402Y569480D01*
X488680Y571202D01*
X486571Y572420D01*
X484218Y573050D01*
D02*
G37*
G36*
X458818D02*
X456382D01*
X454030Y572420D01*
X451921Y571202D01*
X450198Y569480D01*
X448980Y567370D01*
X448350Y565018D01*
Y562582D01*
X448980Y560230D01*
X450198Y558120D01*
X451921Y556398D01*
X454030Y555181D01*
X456382Y554550D01*
X458818D01*
X461171Y555181D01*
X463280Y556398D01*
X465002Y558120D01*
X466220Y560230D01*
X466850Y562582D01*
Y565018D01*
X466220Y567370D01*
X465002Y569480D01*
X463280Y571202D01*
X461171Y572420D01*
X458818Y573050D01*
D02*
G37*
G36*
X204818D02*
X202382D01*
X200030Y572420D01*
X197920Y571202D01*
X196198Y569480D01*
X194981Y567370D01*
X194350Y565018D01*
Y562582D01*
X194981Y560230D01*
X196198Y558120D01*
X197920Y556398D01*
X200030Y555181D01*
X202382Y554550D01*
X204818D01*
X207171Y555181D01*
X209280Y556398D01*
X211002Y558120D01*
X212220Y560230D01*
X212850Y562582D01*
Y565018D01*
X212220Y567370D01*
X211002Y569480D01*
X209280Y571202D01*
X207171Y572420D01*
X204818Y573050D01*
D02*
G37*
G36*
X620290Y562530D02*
X611270D01*
Y553510D01*
X611355D01*
X613972Y554211D01*
X616318Y555566D01*
X618234Y557482D01*
X619589Y559828D01*
X620290Y562445D01*
Y562530D01*
D02*
G37*
G36*
X608730D02*
X599710D01*
Y562445D01*
X600411Y559828D01*
X601766Y557482D01*
X603682Y555566D01*
X606028Y554211D01*
X608645Y553510D01*
X608730D01*
Y562530D01*
D02*
G37*
G36*
X594890D02*
X585870D01*
Y553510D01*
X585955D01*
X588572Y554211D01*
X590918Y555566D01*
X592834Y557482D01*
X594189Y559828D01*
X594890Y562445D01*
Y562530D01*
D02*
G37*
G36*
X583330D02*
X574310D01*
Y562445D01*
X575011Y559828D01*
X576366Y557482D01*
X578282Y555566D01*
X580628Y554211D01*
X583245Y553510D01*
X583330D01*
Y562530D01*
D02*
G37*
G36*
X401085Y562700D02*
X398715D01*
X396426Y562087D01*
X394374Y560902D01*
X392698Y559226D01*
X391513Y557174D01*
X390900Y554885D01*
Y552515D01*
X391513Y550226D01*
X392698Y548174D01*
X394374Y546498D01*
X396426Y545313D01*
X398715Y544700D01*
X401085D01*
X403374Y545313D01*
X405426Y546498D01*
X407102Y548174D01*
X408287Y550226D01*
X408900Y552515D01*
Y554885D01*
X408287Y557174D01*
X407102Y559226D01*
X405426Y560902D01*
X403374Y562087D01*
X401085Y562700D01*
D02*
G37*
G36*
X248685D02*
X246315D01*
X244026Y562087D01*
X241974Y560902D01*
X240298Y559226D01*
X239114Y557174D01*
X238500Y554885D01*
Y552515D01*
X239114Y550226D01*
X240298Y548174D01*
X241974Y546498D01*
X244026Y545313D01*
X246315Y544700D01*
X248685D01*
X250974Y545313D01*
X253026Y546498D01*
X254702Y548174D01*
X255887Y550226D01*
X256500Y552515D01*
Y554885D01*
X255887Y557174D01*
X254702Y559226D01*
X253026Y560902D01*
X250974Y562087D01*
X248685Y562700D01*
D02*
G37*
G36*
X611218Y547650D02*
X608782D01*
X606430Y547020D01*
X604320Y545802D01*
X602598Y544080D01*
X601381Y541970D01*
X600750Y539618D01*
Y537182D01*
X601381Y534830D01*
X602598Y532720D01*
X604320Y530998D01*
X606430Y529781D01*
X608782Y529150D01*
X611218D01*
X613571Y529781D01*
X615680Y530998D01*
X617402Y532720D01*
X618620Y534830D01*
X619250Y537182D01*
Y539618D01*
X618620Y541970D01*
X617402Y544080D01*
X615680Y545802D01*
X613571Y547020D01*
X611218Y547650D01*
D02*
G37*
G36*
X585818D02*
X583382D01*
X581030Y547020D01*
X578921Y545802D01*
X577198Y544080D01*
X575980Y541970D01*
X575350Y539618D01*
Y537182D01*
X575980Y534830D01*
X577198Y532720D01*
X578921Y530998D01*
X581030Y529781D01*
X583382Y529150D01*
X585818D01*
X588171Y529781D01*
X590280Y530998D01*
X592002Y532720D01*
X593220Y534830D01*
X593850Y537182D01*
Y539618D01*
X593220Y541970D01*
X592002Y544080D01*
X590280Y545802D01*
X588171Y547020D01*
X585818Y547650D01*
D02*
G37*
G36*
X484218D02*
X481782D01*
X479430Y547020D01*
X477321Y545802D01*
X475598Y544080D01*
X474380Y541970D01*
X473750Y539618D01*
Y537182D01*
X474380Y534830D01*
X475598Y532720D01*
X477321Y530998D01*
X479430Y529781D01*
X481782Y529150D01*
X484218D01*
X486571Y529781D01*
X488680Y530998D01*
X490402Y532720D01*
X491620Y534830D01*
X492250Y537182D01*
Y539618D01*
X491620Y541970D01*
X490402Y544080D01*
X488680Y545802D01*
X486571Y547020D01*
X484218Y547650D01*
D02*
G37*
G36*
X458818D02*
X456382D01*
X454030Y547020D01*
X451921Y545802D01*
X450198Y544080D01*
X448980Y541970D01*
X448350Y539618D01*
Y537182D01*
X448980Y534830D01*
X450198Y532720D01*
X451921Y530998D01*
X454030Y529781D01*
X456382Y529150D01*
X458818D01*
X461171Y529781D01*
X463280Y530998D01*
X465002Y532720D01*
X466220Y534830D01*
X466850Y537182D01*
Y539618D01*
X466220Y541970D01*
X465002Y544080D01*
X463280Y545802D01*
X461171Y547020D01*
X458818Y547650D01*
D02*
G37*
G36*
X204818D02*
X202382D01*
X200030Y547020D01*
X197920Y545802D01*
X196198Y544080D01*
X194981Y541970D01*
X194350Y539618D01*
Y537182D01*
X194981Y534830D01*
X196198Y532720D01*
X197920Y530998D01*
X200030Y529781D01*
X202382Y529150D01*
X204818D01*
X207171Y529781D01*
X209280Y530998D01*
X211002Y532720D01*
X212220Y534830D01*
X212850Y537182D01*
Y539618D01*
X212220Y541970D01*
X211002Y544080D01*
X209280Y545802D01*
X207171Y547020D01*
X204818Y547650D01*
D02*
G37*
G36*
X401085Y537300D02*
X398715D01*
X396426Y536687D01*
X394374Y535502D01*
X392698Y533826D01*
X391513Y531774D01*
X390900Y529485D01*
Y527115D01*
X391513Y524826D01*
X392698Y522774D01*
X394374Y521098D01*
X396426Y519913D01*
X398715Y519300D01*
X401085D01*
X403374Y519913D01*
X405426Y521098D01*
X407102Y522774D01*
X408287Y524826D01*
X408900Y527115D01*
Y529485D01*
X408287Y531774D01*
X407102Y533826D01*
X405426Y535502D01*
X403374Y536687D01*
X401085Y537300D01*
D02*
G37*
G36*
X248685D02*
X246315D01*
X244026Y536687D01*
X241974Y535502D01*
X240298Y533826D01*
X239114Y531774D01*
X238500Y529485D01*
Y527115D01*
X239114Y524826D01*
X240298Y522774D01*
X241974Y521098D01*
X244026Y519913D01*
X246315Y519300D01*
X248685D01*
X250974Y519913D01*
X253026Y521098D01*
X254702Y522774D01*
X255887Y524826D01*
X256500Y527115D01*
Y529485D01*
X255887Y531774D01*
X254702Y533826D01*
X253026Y535502D01*
X250974Y536687D01*
X248685Y537300D01*
D02*
G37*
G36*
X611218Y522250D02*
X608782D01*
X606430Y521620D01*
X604320Y520402D01*
X602598Y518680D01*
X601381Y516571D01*
X600750Y514218D01*
Y511782D01*
X601381Y509430D01*
X602598Y507321D01*
X604320Y505598D01*
X606430Y504380D01*
X608782Y503750D01*
X611218D01*
X613571Y504380D01*
X615680Y505598D01*
X617402Y507321D01*
X618620Y509430D01*
X619250Y511782D01*
Y514218D01*
X618620Y516571D01*
X617402Y518680D01*
X615680Y520402D01*
X613571Y521620D01*
X611218Y522250D01*
D02*
G37*
G36*
X585818D02*
X583382D01*
X581030Y521620D01*
X578921Y520402D01*
X577198Y518680D01*
X575980Y516571D01*
X575350Y514218D01*
Y511782D01*
X575980Y509430D01*
X577198Y507321D01*
X578921Y505598D01*
X581030Y504380D01*
X583382Y503750D01*
X585818D01*
X588171Y504380D01*
X590280Y505598D01*
X592002Y507321D01*
X593220Y509430D01*
X593850Y511782D01*
Y514218D01*
X593220Y516571D01*
X592002Y518680D01*
X590280Y520402D01*
X588171Y521620D01*
X585818Y522250D01*
D02*
G37*
G36*
X484218D02*
X481782D01*
X479430Y521620D01*
X477321Y520402D01*
X475598Y518680D01*
X474380Y516571D01*
X473750Y514218D01*
Y511782D01*
X474380Y509430D01*
X475598Y507321D01*
X477321Y505598D01*
X479430Y504380D01*
X481782Y503750D01*
X484218D01*
X486571Y504380D01*
X488680Y505598D01*
X490402Y507321D01*
X491620Y509430D01*
X492250Y511782D01*
Y514218D01*
X491620Y516571D01*
X490402Y518680D01*
X488680Y520402D01*
X486571Y521620D01*
X484218Y522250D01*
D02*
G37*
G36*
X458818D02*
X456382D01*
X454030Y521620D01*
X451921Y520402D01*
X450198Y518680D01*
X448980Y516571D01*
X448350Y514218D01*
Y511782D01*
X448980Y509430D01*
X450198Y507321D01*
X451921Y505598D01*
X454030Y504380D01*
X456382Y503750D01*
X458818D01*
X461171Y504380D01*
X463280Y505598D01*
X465002Y507321D01*
X466220Y509430D01*
X466850Y511782D01*
Y514218D01*
X466220Y516571D01*
X465002Y518680D01*
X463280Y520402D01*
X461171Y521620D01*
X458818Y522250D01*
D02*
G37*
G36*
X204818D02*
X202382D01*
X200030Y521620D01*
X197920Y520402D01*
X196198Y518680D01*
X194981Y516571D01*
X194350Y514218D01*
Y511782D01*
X194981Y509430D01*
X196198Y507321D01*
X197920Y505598D01*
X200030Y504380D01*
X202382Y503750D01*
X204818D01*
X207171Y504380D01*
X209280Y505598D01*
X211002Y507321D01*
X212220Y509430D01*
X212850Y511782D01*
Y514218D01*
X212220Y516571D01*
X211002Y518680D01*
X209280Y520402D01*
X207171Y521620D01*
X204818Y522250D01*
D02*
G37*
G36*
X401085Y511900D02*
X398715D01*
X396426Y511287D01*
X394374Y510102D01*
X392698Y508426D01*
X391513Y506374D01*
X390900Y504085D01*
Y501715D01*
X391513Y499426D01*
X392698Y497374D01*
X394374Y495698D01*
X396426Y494514D01*
X398715Y493900D01*
X401085D01*
X403374Y494514D01*
X405426Y495698D01*
X407102Y497374D01*
X408287Y499426D01*
X408900Y501715D01*
Y504085D01*
X408287Y506374D01*
X407102Y508426D01*
X405426Y510102D01*
X403374Y511287D01*
X401085Y511900D01*
D02*
G37*
G36*
X248685D02*
X246315D01*
X244026Y511287D01*
X241974Y510102D01*
X240298Y508426D01*
X239114Y506374D01*
X238500Y504085D01*
Y501715D01*
X239114Y499426D01*
X240298Y497374D01*
X241974Y495698D01*
X244026Y494514D01*
X246315Y493900D01*
X248685D01*
X250974Y494514D01*
X253026Y495698D01*
X254702Y497374D01*
X255887Y499426D01*
X256500Y501715D01*
Y504085D01*
X255887Y506374D01*
X254702Y508426D01*
X253026Y510102D01*
X250974Y511287D01*
X248685Y511900D01*
D02*
G37*
G36*
X517845Y549250D02*
X516155D01*
X514593Y548603D01*
X513397Y547407D01*
X512750Y545845D01*
Y544155D01*
X513397Y542593D01*
X514490Y541500D01*
X513397Y540407D01*
X512750Y538845D01*
Y537155D01*
X513397Y535593D01*
X514490Y534500D01*
X513397Y533408D01*
X512750Y531846D01*
Y530155D01*
X513397Y528593D01*
X514490Y527500D01*
X513397Y526408D01*
X512750Y524846D01*
Y523155D01*
X513397Y521593D01*
X514490Y520500D01*
X513397Y519408D01*
X512750Y517845D01*
Y516155D01*
X513397Y514593D01*
X514490Y513500D01*
X513397Y512407D01*
X512750Y510845D01*
Y509155D01*
X513397Y507593D01*
X514490Y506500D01*
X513397Y505407D01*
X512750Y503845D01*
Y502155D01*
X513397Y500593D01*
X514490Y499500D01*
X513397Y498408D01*
X512750Y496846D01*
Y495155D01*
X513397Y493593D01*
X514593Y492397D01*
X516155Y491750D01*
X517845D01*
X519408Y492397D01*
X520603Y493593D01*
X521250Y495155D01*
Y496846D01*
X520603Y498408D01*
X519510Y499500D01*
X520603Y500593D01*
X521250Y502155D01*
Y503845D01*
X520603Y505407D01*
X519510Y506500D01*
X520603Y507593D01*
X521250Y509155D01*
Y510845D01*
X520603Y512407D01*
X519510Y513500D01*
X520603Y514593D01*
X521250Y516155D01*
Y517845D01*
X520603Y519408D01*
X519510Y520500D01*
X520603Y521593D01*
X521250Y523155D01*
Y524846D01*
X520603Y526408D01*
X519510Y527500D01*
X520603Y528593D01*
X521250Y530155D01*
Y531846D01*
X520603Y533408D01*
X519510Y534500D01*
X520603Y535593D01*
X521250Y537155D01*
Y538845D01*
X520603Y540407D01*
X519510Y541500D01*
X520603Y542593D01*
X521250Y544155D01*
Y545845D01*
X520603Y547407D01*
X519408Y548603D01*
X517845Y549250D01*
D02*
G37*
G36*
X325022Y487540D02*
X324970D01*
Y478770D01*
X333740D01*
Y478822D01*
X333056Y481375D01*
X331734Y483665D01*
X329865Y485534D01*
X327575Y486856D01*
X325022Y487540D01*
D02*
G37*
G36*
X322430D02*
X322378D01*
X319825Y486856D01*
X317535Y485534D01*
X315666Y483665D01*
X314344Y481375D01*
X313660Y478822D01*
Y478770D01*
X322430D01*
Y487540D01*
D02*
G37*
G36*
X611218Y496850D02*
X608782D01*
X606430Y496220D01*
X604320Y495002D01*
X602598Y493280D01*
X601381Y491171D01*
X600750Y488818D01*
Y486382D01*
X601381Y484030D01*
X602598Y481921D01*
X604320Y480198D01*
X606430Y478980D01*
X608782Y478350D01*
X611218D01*
X613571Y478980D01*
X615680Y480198D01*
X617402Y481921D01*
X618620Y484030D01*
X619250Y486382D01*
Y488818D01*
X618620Y491171D01*
X617402Y493280D01*
X615680Y495002D01*
X613571Y496220D01*
X611218Y496850D01*
D02*
G37*
G36*
X585818D02*
X583382D01*
X581030Y496220D01*
X578921Y495002D01*
X577198Y493280D01*
X575980Y491171D01*
X575350Y488818D01*
Y486382D01*
X575980Y484030D01*
X577198Y481921D01*
X578921Y480198D01*
X581030Y478980D01*
X583382Y478350D01*
X585818D01*
X588171Y478980D01*
X590280Y480198D01*
X592002Y481921D01*
X593220Y484030D01*
X593850Y486382D01*
Y488818D01*
X593220Y491171D01*
X592002Y493280D01*
X590280Y495002D01*
X588171Y496220D01*
X585818Y496850D01*
D02*
G37*
G36*
X484218D02*
X481782D01*
X479430Y496220D01*
X477321Y495002D01*
X475598Y493280D01*
X474380Y491171D01*
X473750Y488818D01*
Y486382D01*
X474380Y484030D01*
X475598Y481921D01*
X477321Y480198D01*
X479430Y478980D01*
X481782Y478350D01*
X484218D01*
X486571Y478980D01*
X488680Y480198D01*
X490402Y481921D01*
X491620Y484030D01*
X492250Y486382D01*
Y488818D01*
X491620Y491171D01*
X490402Y493280D01*
X488680Y495002D01*
X486571Y496220D01*
X484218Y496850D01*
D02*
G37*
G36*
X458818D02*
X456382D01*
X454030Y496220D01*
X451921Y495002D01*
X450198Y493280D01*
X448980Y491171D01*
X448350Y488818D01*
Y486382D01*
X448980Y484030D01*
X450198Y481921D01*
X451921Y480198D01*
X454030Y478980D01*
X456382Y478350D01*
X458818D01*
X461171Y478980D01*
X463280Y480198D01*
X465002Y481921D01*
X466220Y484030D01*
X466850Y486382D01*
Y488818D01*
X466220Y491171D01*
X465002Y493280D01*
X463280Y495002D01*
X461171Y496220D01*
X458818Y496850D01*
D02*
G37*
G36*
X204818D02*
X202382D01*
X200030Y496220D01*
X197920Y495002D01*
X196198Y493280D01*
X194981Y491171D01*
X194350Y488818D01*
Y486382D01*
X194981Y484030D01*
X196198Y481921D01*
X197920Y480198D01*
X200030Y478980D01*
X202382Y478350D01*
X204818D01*
X207171Y478980D01*
X209280Y480198D01*
X211002Y481921D01*
X212220Y484030D01*
X212850Y486382D01*
Y488818D01*
X212220Y491171D01*
X211002Y493280D01*
X209280Y495002D01*
X207171Y496220D01*
X204818Y496850D01*
D02*
G37*
G36*
X401085Y486500D02*
X398715D01*
X396426Y485887D01*
X394374Y484702D01*
X392698Y483026D01*
X391513Y480974D01*
X390900Y478685D01*
Y476315D01*
X391513Y474026D01*
X392698Y471974D01*
X394374Y470298D01*
X396426Y469114D01*
X398715Y468500D01*
X401085D01*
X403374Y469114D01*
X405426Y470298D01*
X407102Y471974D01*
X408287Y474026D01*
X408900Y476315D01*
Y478685D01*
X408287Y480974D01*
X407102Y483026D01*
X405426Y484702D01*
X403374Y485887D01*
X401085Y486500D01*
D02*
G37*
G36*
X375685D02*
X373315D01*
X371026Y485887D01*
X368974Y484702D01*
X367298Y483026D01*
X366114Y480974D01*
X365500Y478685D01*
Y476315D01*
X366114Y474026D01*
X367298Y471974D01*
X368974Y470298D01*
X371026Y469114D01*
X373315Y468500D01*
X375685D01*
X377974Y469114D01*
X380026Y470298D01*
X381702Y471974D01*
X382887Y474026D01*
X383500Y476315D01*
Y478685D01*
X382887Y480974D01*
X381702Y483026D01*
X380026Y484702D01*
X377974Y485887D01*
X375685Y486500D01*
D02*
G37*
G36*
X350285D02*
X347915D01*
X345626Y485887D01*
X343574Y484702D01*
X341898Y483026D01*
X340714Y480974D01*
X340100Y478685D01*
Y476315D01*
X340714Y474026D01*
X341898Y471974D01*
X343574Y470298D01*
X345626Y469114D01*
X347915Y468500D01*
X350285D01*
X352574Y469114D01*
X354626Y470298D01*
X356302Y471974D01*
X357487Y474026D01*
X358100Y476315D01*
Y478685D01*
X357487Y480974D01*
X356302Y483026D01*
X354626Y484702D01*
X352574Y485887D01*
X350285Y486500D01*
D02*
G37*
G36*
X299485D02*
X297115D01*
X294826Y485887D01*
X292774Y484702D01*
X291098Y483026D01*
X289914Y480974D01*
X289300Y478685D01*
Y476315D01*
X289914Y474026D01*
X291098Y471974D01*
X292774Y470298D01*
X294826Y469114D01*
X297115Y468500D01*
X299485D01*
X301774Y469114D01*
X303826Y470298D01*
X305502Y471974D01*
X306687Y474026D01*
X307300Y476315D01*
Y478685D01*
X306687Y480974D01*
X305502Y483026D01*
X303826Y484702D01*
X301774Y485887D01*
X299485Y486500D01*
D02*
G37*
G36*
X274085D02*
X271715D01*
X269426Y485887D01*
X267374Y484702D01*
X265698Y483026D01*
X264513Y480974D01*
X263900Y478685D01*
Y476315D01*
X264513Y474026D01*
X265698Y471974D01*
X267374Y470298D01*
X269426Y469114D01*
X271715Y468500D01*
X274085D01*
X276374Y469114D01*
X278426Y470298D01*
X280102Y471974D01*
X281287Y474026D01*
X281900Y476315D01*
Y478685D01*
X281287Y480974D01*
X280102Y483026D01*
X278426Y484702D01*
X276374Y485887D01*
X274085Y486500D01*
D02*
G37*
G36*
X248685D02*
X246315D01*
X244026Y485887D01*
X241974Y484702D01*
X240298Y483026D01*
X239114Y480974D01*
X238500Y478685D01*
Y476315D01*
X239114Y474026D01*
X240298Y471974D01*
X241974Y470298D01*
X244026Y469114D01*
X246315Y468500D01*
X248685D01*
X250974Y469114D01*
X253026Y470298D01*
X254702Y471974D01*
X255887Y474026D01*
X256500Y476315D01*
Y478685D01*
X255887Y480974D01*
X254702Y483026D01*
X253026Y484702D01*
X250974Y485887D01*
X248685Y486500D01*
D02*
G37*
G36*
X333740Y476230D02*
X324970D01*
Y467460D01*
X325022D01*
X327575Y468144D01*
X329865Y469466D01*
X331734Y471335D01*
X333056Y473625D01*
X333740Y476178D01*
Y476230D01*
D02*
G37*
G36*
X322430D02*
X313660D01*
Y476178D01*
X314344Y473625D01*
X315666Y471335D01*
X317535Y469466D01*
X319825Y468144D01*
X322378Y467460D01*
X322430D01*
Y476230D01*
D02*
G37*
G36*
X611218Y471450D02*
X608782D01*
X606430Y470820D01*
X604320Y469602D01*
X602598Y467880D01*
X601381Y465770D01*
X600750Y463418D01*
Y460982D01*
X601381Y458630D01*
X602598Y456521D01*
X604320Y454798D01*
X606430Y453581D01*
X608782Y452950D01*
X611218D01*
X613571Y453581D01*
X615680Y454798D01*
X617402Y456521D01*
X618620Y458630D01*
X619250Y460982D01*
Y463418D01*
X618620Y465770D01*
X617402Y467880D01*
X615680Y469602D01*
X613571Y470820D01*
X611218Y471450D01*
D02*
G37*
G36*
X585818D02*
X583382D01*
X581030Y470820D01*
X578921Y469602D01*
X577198Y467880D01*
X575980Y465770D01*
X575350Y463418D01*
Y460982D01*
X575980Y458630D01*
X577198Y456521D01*
X578921Y454798D01*
X581030Y453581D01*
X583382Y452950D01*
X585818D01*
X588171Y453581D01*
X590280Y454798D01*
X592002Y456521D01*
X593220Y458630D01*
X593850Y460982D01*
Y463418D01*
X593220Y465770D01*
X592002Y467880D01*
X590280Y469602D01*
X588171Y470820D01*
X585818Y471450D01*
D02*
G37*
G36*
X484218D02*
X481782D01*
X479430Y470820D01*
X477321Y469602D01*
X475598Y467880D01*
X474380Y465770D01*
X473750Y463418D01*
Y460982D01*
X474380Y458630D01*
X475598Y456521D01*
X477321Y454798D01*
X479430Y453581D01*
X481782Y452950D01*
X484218D01*
X486571Y453581D01*
X488680Y454798D01*
X490402Y456521D01*
X491620Y458630D01*
X492250Y460982D01*
Y463418D01*
X491620Y465770D01*
X490402Y467880D01*
X488680Y469602D01*
X486571Y470820D01*
X484218Y471450D01*
D02*
G37*
G36*
X458818D02*
X456382D01*
X454030Y470820D01*
X451921Y469602D01*
X450198Y467880D01*
X448980Y465770D01*
X448350Y463418D01*
Y460982D01*
X448980Y458630D01*
X450198Y456521D01*
X451921Y454798D01*
X454030Y453581D01*
X456382Y452950D01*
X458818D01*
X461171Y453581D01*
X463280Y454798D01*
X465002Y456521D01*
X466220Y458630D01*
X466850Y460982D01*
Y463418D01*
X466220Y465770D01*
X465002Y467880D01*
X463280Y469602D01*
X461171Y470820D01*
X458818Y471450D01*
D02*
G37*
G36*
X204818D02*
X202382D01*
X200030Y470820D01*
X197920Y469602D01*
X196198Y467880D01*
X194981Y465770D01*
X194350Y463418D01*
Y460982D01*
X194981Y458630D01*
X196198Y456521D01*
X197920Y454798D01*
X200030Y453581D01*
X202382Y452950D01*
X204818D01*
X207171Y453581D01*
X209280Y454798D01*
X211002Y456521D01*
X212220Y458630D01*
X212850Y460982D01*
Y463418D01*
X212220Y465770D01*
X211002Y467880D01*
X209280Y469602D01*
X207171Y470820D01*
X204818Y471450D01*
D02*
G37*
G36*
X401085Y461100D02*
X398715D01*
X396426Y460487D01*
X394374Y459302D01*
X392698Y457626D01*
X391513Y455574D01*
X390900Y453285D01*
Y450915D01*
X391513Y448626D01*
X392698Y446574D01*
X394374Y444898D01*
X396426Y443713D01*
X398715Y443100D01*
X401085D01*
X403374Y443713D01*
X405426Y444898D01*
X407102Y446574D01*
X408287Y448626D01*
X408900Y450915D01*
Y453285D01*
X408287Y455574D01*
X407102Y457626D01*
X405426Y459302D01*
X403374Y460487D01*
X401085Y461100D01*
D02*
G37*
G36*
X248685D02*
X246315D01*
X244026Y460487D01*
X241974Y459302D01*
X240298Y457626D01*
X239114Y455574D01*
X238500Y453285D01*
Y450915D01*
X239114Y448626D01*
X240298Y446574D01*
X241974Y444898D01*
X244026Y443713D01*
X246315Y443100D01*
X248685D01*
X250974Y443713D01*
X253026Y444898D01*
X254702Y446574D01*
X255887Y448626D01*
X256500Y450915D01*
Y453285D01*
X255887Y455574D01*
X254702Y457626D01*
X253026Y459302D01*
X250974Y460487D01*
X248685Y461100D01*
D02*
G37*
G36*
X611355Y447090D02*
X611270D01*
Y438070D01*
X620290D01*
Y438155D01*
X619589Y440772D01*
X618234Y443118D01*
X616318Y445034D01*
X613972Y446389D01*
X611355Y447090D01*
D02*
G37*
G36*
X585955D02*
X585870D01*
Y438070D01*
X594890D01*
Y438155D01*
X594189Y440772D01*
X592834Y443118D01*
X590918Y445034D01*
X588572Y446389D01*
X585955Y447090D01*
D02*
G37*
G36*
X608730D02*
X608645D01*
X606028Y446389D01*
X603682Y445034D01*
X601766Y443118D01*
X600411Y440772D01*
X599710Y438155D01*
Y438070D01*
X608730D01*
Y447090D01*
D02*
G37*
G36*
X583330D02*
X583245D01*
X580628Y446389D01*
X578282Y445034D01*
X576366Y443118D01*
X575011Y440772D01*
X574310Y438155D01*
Y438070D01*
X583330D01*
Y447090D01*
D02*
G37*
G36*
X620290Y435530D02*
X611270D01*
Y426510D01*
X611355D01*
X613972Y427211D01*
X616318Y428566D01*
X618234Y430482D01*
X619589Y432828D01*
X620290Y435445D01*
Y435530D01*
D02*
G37*
G36*
X608730D02*
X599710D01*
Y435445D01*
X600411Y432828D01*
X601766Y430482D01*
X603682Y428566D01*
X606028Y427211D01*
X608645Y426510D01*
X608730D01*
Y435530D01*
D02*
G37*
G36*
X594890D02*
X585870D01*
Y426510D01*
X585955D01*
X588572Y427211D01*
X590918Y428566D01*
X592834Y430482D01*
X594189Y432828D01*
X594890Y435445D01*
Y435530D01*
D02*
G37*
G36*
X583330D02*
X574310D01*
Y435445D01*
X575011Y432828D01*
X576366Y430482D01*
X578282Y428566D01*
X580628Y427211D01*
X583245Y426510D01*
X583330D01*
Y435530D01*
D02*
G37*
G36*
X401085Y435700D02*
X398715D01*
X396426Y435087D01*
X394374Y433902D01*
X392698Y432226D01*
X391513Y430174D01*
X390900Y427885D01*
Y425515D01*
X391513Y423226D01*
X392698Y421174D01*
X394374Y419498D01*
X396426Y418313D01*
X398715Y417700D01*
X401085D01*
X403374Y418313D01*
X405426Y419498D01*
X407102Y421174D01*
X408287Y423226D01*
X408900Y425515D01*
Y427885D01*
X408287Y430174D01*
X407102Y432226D01*
X405426Y433902D01*
X403374Y435087D01*
X401085Y435700D01*
D02*
G37*
G36*
X611218Y420650D02*
X608782D01*
X606430Y420020D01*
X604320Y418802D01*
X602598Y417080D01*
X601381Y414971D01*
X600750Y412618D01*
Y410182D01*
X601381Y407830D01*
X602598Y405720D01*
X604320Y403998D01*
X606430Y402780D01*
X608782Y402150D01*
X611218D01*
X613571Y402780D01*
X615680Y403998D01*
X617402Y405720D01*
X618620Y407830D01*
X619250Y410182D01*
Y412618D01*
X618620Y414971D01*
X617402Y417080D01*
X615680Y418802D01*
X613571Y420020D01*
X611218Y420650D01*
D02*
G37*
G36*
X585818D02*
X583382D01*
X581030Y420020D01*
X578921Y418802D01*
X577198Y417080D01*
X575980Y414971D01*
X575350Y412618D01*
Y410182D01*
X575980Y407830D01*
X577198Y405720D01*
X578921Y403998D01*
X581030Y402780D01*
X583382Y402150D01*
X585818D01*
X588171Y402780D01*
X590280Y403998D01*
X592002Y405720D01*
X593220Y407830D01*
X593850Y410182D01*
Y412618D01*
X593220Y414971D01*
X592002Y417080D01*
X590280Y418802D01*
X588171Y420020D01*
X585818Y420650D01*
D02*
G37*
G36*
X401085Y410300D02*
X398715D01*
X396426Y409687D01*
X394374Y408502D01*
X392698Y406826D01*
X391513Y404774D01*
X390900Y402485D01*
Y400115D01*
X391513Y397826D01*
X392698Y395774D01*
X394374Y394098D01*
X396426Y392914D01*
X398715Y392300D01*
X401085D01*
X403374Y392914D01*
X405426Y394098D01*
X407102Y395774D01*
X408287Y397826D01*
X408900Y400115D01*
Y402485D01*
X408287Y404774D01*
X407102Y406826D01*
X405426Y408502D01*
X403374Y409687D01*
X401085Y410300D01*
D02*
G37*
G36*
X248822Y385940D02*
X248770D01*
Y377170D01*
X257540D01*
Y377222D01*
X256856Y379775D01*
X255534Y382065D01*
X253665Y383934D01*
X251375Y385256D01*
X248822Y385940D01*
D02*
G37*
G36*
X611218Y395250D02*
X608782D01*
X606430Y394620D01*
X604320Y393402D01*
X602598Y391680D01*
X601381Y389571D01*
X600750Y387218D01*
Y384782D01*
X601381Y382430D01*
X602598Y380321D01*
X604320Y378598D01*
X606430Y377380D01*
X608782Y376750D01*
X611218D01*
X613571Y377380D01*
X615680Y378598D01*
X617402Y380321D01*
X618620Y382430D01*
X619250Y384782D01*
Y387218D01*
X618620Y389571D01*
X617402Y391680D01*
X615680Y393402D01*
X613571Y394620D01*
X611218Y395250D01*
D02*
G37*
G36*
X585818D02*
X583382D01*
X581030Y394620D01*
X578921Y393402D01*
X577198Y391680D01*
X575980Y389571D01*
X575350Y387218D01*
Y384782D01*
X575980Y382430D01*
X577198Y380321D01*
X578921Y378598D01*
X581030Y377380D01*
X583382Y376750D01*
X585818D01*
X588171Y377380D01*
X590280Y378598D01*
X592002Y380321D01*
X593220Y382430D01*
X593850Y384782D01*
Y387218D01*
X593220Y389571D01*
X592002Y391680D01*
X590280Y393402D01*
X588171Y394620D01*
X585818Y395250D01*
D02*
G37*
G36*
X401085Y384900D02*
X398715D01*
X396426Y384287D01*
X394374Y383102D01*
X392698Y381426D01*
X391513Y379374D01*
X390900Y377085D01*
Y374715D01*
X391513Y372426D01*
X392698Y370374D01*
X394374Y368698D01*
X396426Y367514D01*
X398715Y366900D01*
X401085D01*
X403374Y367514D01*
X405426Y368698D01*
X407102Y370374D01*
X408287Y372426D01*
X408900Y374715D01*
Y377085D01*
X408287Y379374D01*
X407102Y381426D01*
X405426Y383102D01*
X403374Y384287D01*
X401085Y384900D01*
D02*
G37*
G36*
X257540Y374630D02*
X248770D01*
Y365860D01*
X248822D01*
X251375Y366544D01*
X253665Y367866D01*
X255534Y369735D01*
X256856Y372025D01*
X257540Y374578D01*
Y374630D01*
D02*
G37*
G36*
X611218Y369850D02*
X608782D01*
X606430Y369220D01*
X604320Y368002D01*
X602598Y366280D01*
X601381Y364170D01*
X600750Y361818D01*
Y359382D01*
X601381Y357030D01*
X602598Y354921D01*
X604320Y353198D01*
X606430Y351981D01*
X608782Y351350D01*
X611218D01*
X613571Y351981D01*
X615680Y353198D01*
X617402Y354921D01*
X618620Y357030D01*
X619250Y359382D01*
Y361818D01*
X618620Y364170D01*
X617402Y366280D01*
X615680Y368002D01*
X613571Y369220D01*
X611218Y369850D01*
D02*
G37*
G36*
X585818D02*
X583382D01*
X581030Y369220D01*
X578921Y368002D01*
X577198Y366280D01*
X575980Y364170D01*
X575350Y361818D01*
Y359382D01*
X575980Y357030D01*
X577198Y354921D01*
X578921Y353198D01*
X581030Y351981D01*
X583382Y351350D01*
X585818D01*
X588171Y351981D01*
X590280Y353198D01*
X592002Y354921D01*
X593220Y357030D01*
X593850Y359382D01*
Y361818D01*
X593220Y364170D01*
X592002Y366280D01*
X590280Y368002D01*
X588171Y369220D01*
X585818Y369850D01*
D02*
G37*
G36*
X401085Y359500D02*
X398715D01*
X396426Y358887D01*
X394374Y357702D01*
X392698Y356026D01*
X391513Y353974D01*
X390900Y351685D01*
Y349315D01*
X391513Y347026D01*
X392698Y344974D01*
X394374Y343298D01*
X396426Y342113D01*
X398715Y341500D01*
X401085D01*
X403374Y342113D01*
X405426Y343298D01*
X407102Y344974D01*
X408287Y347026D01*
X408900Y349315D01*
Y351685D01*
X408287Y353974D01*
X407102Y356026D01*
X405426Y357702D01*
X403374Y358887D01*
X401085Y359500D01*
D02*
G37*
G36*
X611218Y344450D02*
X608782D01*
X606430Y343820D01*
X604320Y342602D01*
X602598Y340880D01*
X601381Y338770D01*
X600750Y336418D01*
Y333982D01*
X601381Y331630D01*
X602598Y329520D01*
X604320Y327798D01*
X606430Y326581D01*
X608782Y325950D01*
X611218D01*
X613571Y326581D01*
X615680Y327798D01*
X617402Y329520D01*
X618620Y331630D01*
X619250Y333982D01*
Y336418D01*
X618620Y338770D01*
X617402Y340880D01*
X615680Y342602D01*
X613571Y343820D01*
X611218Y344450D01*
D02*
G37*
G36*
X585818D02*
X583382D01*
X581030Y343820D01*
X578921Y342602D01*
X577198Y340880D01*
X575980Y338770D01*
X575350Y336418D01*
Y333982D01*
X575980Y331630D01*
X577198Y329520D01*
X578921Y327798D01*
X581030Y326581D01*
X583382Y325950D01*
X585818D01*
X588171Y326581D01*
X590280Y327798D01*
X592002Y329520D01*
X593220Y331630D01*
X593850Y333982D01*
Y336418D01*
X593220Y338770D01*
X592002Y340880D01*
X590280Y342602D01*
X588171Y343820D01*
X585818Y344450D01*
D02*
G37*
G36*
X401085Y334100D02*
X398715D01*
X396426Y333487D01*
X394374Y332302D01*
X392698Y330626D01*
X391513Y328574D01*
X390900Y326285D01*
Y323915D01*
X391513Y321626D01*
X392698Y319574D01*
X394374Y317898D01*
X396426Y316714D01*
X398715Y316100D01*
X401085D01*
X403374Y316714D01*
X405426Y317898D01*
X407102Y319574D01*
X408287Y321626D01*
X408900Y323915D01*
Y326285D01*
X408287Y328574D01*
X407102Y330626D01*
X405426Y332302D01*
X403374Y333487D01*
X401085Y334100D01*
D02*
G37*
G36*
X611355Y320090D02*
X611270D01*
Y311070D01*
X620290D01*
Y311155D01*
X619589Y313772D01*
X618234Y316118D01*
X616318Y318034D01*
X613972Y319389D01*
X611355Y320090D01*
D02*
G37*
G36*
X585955D02*
X585870D01*
Y311070D01*
X594890D01*
Y311155D01*
X594189Y313772D01*
X592834Y316118D01*
X590918Y318034D01*
X588572Y319389D01*
X585955Y320090D01*
D02*
G37*
G36*
X608730D02*
X608645D01*
X606028Y319389D01*
X603682Y318034D01*
X601766Y316118D01*
X600411Y313772D01*
X599710Y311155D01*
Y311070D01*
X608730D01*
Y320090D01*
D02*
G37*
G36*
X583330D02*
X583245D01*
X580628Y319389D01*
X578282Y318034D01*
X576366Y316118D01*
X575011Y313772D01*
X574310Y311155D01*
Y311070D01*
X583330D01*
Y320090D01*
D02*
G37*
G36*
X620290Y308530D02*
X611270D01*
Y299510D01*
X611355D01*
X613972Y300211D01*
X616318Y301566D01*
X618234Y303482D01*
X619589Y305828D01*
X620290Y308445D01*
Y308530D01*
D02*
G37*
G36*
X608730D02*
X599710D01*
Y308445D01*
X600411Y305828D01*
X601766Y303482D01*
X603682Y301566D01*
X606028Y300211D01*
X608645Y299510D01*
X608730D01*
Y308530D01*
D02*
G37*
G36*
X594890D02*
X585870D01*
Y299510D01*
X585955D01*
X588572Y300211D01*
X590918Y301566D01*
X592834Y303482D01*
X594189Y305828D01*
X594890Y308445D01*
Y308530D01*
D02*
G37*
G36*
X583330D02*
X574310D01*
Y308445D01*
X575011Y305828D01*
X576366Y303482D01*
X578282Y301566D01*
X580628Y300211D01*
X583245Y299510D01*
X583330D01*
Y308530D01*
D02*
G37*
G36*
X401085Y308700D02*
X398715D01*
X396426Y308087D01*
X394374Y306902D01*
X392698Y305226D01*
X391513Y303174D01*
X390900Y300885D01*
Y298515D01*
X391513Y296226D01*
X392698Y294174D01*
X394374Y292498D01*
X396426Y291313D01*
X398715Y290700D01*
X401085D01*
X403374Y291313D01*
X405426Y292498D01*
X407102Y294174D01*
X408287Y296226D01*
X408900Y298515D01*
Y300885D01*
X408287Y303174D01*
X407102Y305226D01*
X405426Y306902D01*
X403374Y308087D01*
X401085Y308700D01*
D02*
G37*
G36*
X611218Y293650D02*
X608782D01*
X606430Y293020D01*
X604320Y291802D01*
X602598Y290080D01*
X601381Y287971D01*
X600750Y285618D01*
Y283182D01*
X601381Y280830D01*
X602598Y278720D01*
X604320Y276998D01*
X606430Y275781D01*
X608782Y275150D01*
X611218D01*
X613571Y275781D01*
X615680Y276998D01*
X617402Y278720D01*
X618620Y280830D01*
X619250Y283182D01*
Y285618D01*
X618620Y287971D01*
X617402Y290080D01*
X615680Y291802D01*
X613571Y293020D01*
X611218Y293650D01*
D02*
G37*
G36*
X585818D02*
X583382D01*
X581030Y293020D01*
X578921Y291802D01*
X577198Y290080D01*
X575980Y287971D01*
X575350Y285618D01*
Y283182D01*
X575980Y280830D01*
X577198Y278720D01*
X578921Y276998D01*
X581030Y275781D01*
X583382Y275150D01*
X585818D01*
X588171Y275781D01*
X590280Y276998D01*
X592002Y278720D01*
X593220Y280830D01*
X593850Y283182D01*
Y285618D01*
X593220Y287971D01*
X592002Y290080D01*
X590280Y291802D01*
X588171Y293020D01*
X585818Y293650D01*
D02*
G37*
G36*
X401085Y283300D02*
X398715D01*
X396426Y282687D01*
X394374Y281502D01*
X392698Y279826D01*
X391513Y277774D01*
X390900Y275485D01*
Y273115D01*
X391513Y270826D01*
X392698Y268774D01*
X394374Y267098D01*
X396426Y265914D01*
X398715Y265300D01*
X401085D01*
X403374Y265914D01*
X405426Y267098D01*
X407102Y268774D01*
X408287Y270826D01*
X408900Y273115D01*
Y275485D01*
X408287Y277774D01*
X407102Y279826D01*
X405426Y281502D01*
X403374Y282687D01*
X401085Y283300D01*
D02*
G37*
G36*
X248685D02*
X246315D01*
X244026Y282687D01*
X241974Y281502D01*
X240298Y279826D01*
X239114Y277774D01*
X238500Y275485D01*
Y273115D01*
X239114Y270826D01*
X240298Y268774D01*
X241974Y267098D01*
X244026Y265914D01*
X246315Y265300D01*
X248685D01*
X250974Y265914D01*
X253026Y267098D01*
X254702Y268774D01*
X255887Y270826D01*
X256500Y273115D01*
Y275485D01*
X255887Y277774D01*
X254702Y279826D01*
X253026Y281502D01*
X250974Y282687D01*
X248685Y283300D01*
D02*
G37*
G36*
X611218Y268250D02*
X608782D01*
X606430Y267620D01*
X604320Y266402D01*
X602598Y264680D01*
X601381Y262570D01*
X600750Y260218D01*
Y257782D01*
X601381Y255430D01*
X602598Y253321D01*
X604320Y251598D01*
X606430Y250380D01*
X608782Y249750D01*
X611218D01*
X613571Y250380D01*
X615680Y251598D01*
X617402Y253321D01*
X618620Y255430D01*
X619250Y257782D01*
Y260218D01*
X618620Y262570D01*
X617402Y264680D01*
X615680Y266402D01*
X613571Y267620D01*
X611218Y268250D01*
D02*
G37*
G36*
X585818D02*
X583382D01*
X581030Y267620D01*
X578921Y266402D01*
X577198Y264680D01*
X575980Y262570D01*
X575350Y260218D01*
Y257782D01*
X575980Y255430D01*
X577198Y253321D01*
X578921Y251598D01*
X581030Y250380D01*
X583382Y249750D01*
X585818D01*
X588171Y250380D01*
X590280Y251598D01*
X592002Y253321D01*
X593220Y255430D01*
X593850Y257782D01*
Y260218D01*
X593220Y262570D01*
X592002Y264680D01*
X590280Y266402D01*
X588171Y267620D01*
X585818Y268250D01*
D02*
G37*
G36*
X401085Y257900D02*
X398715D01*
X396426Y257287D01*
X394374Y256102D01*
X392698Y254426D01*
X391513Y252374D01*
X390900Y250085D01*
Y247715D01*
X391513Y245426D01*
X392698Y243374D01*
X394374Y241698D01*
X396426Y240513D01*
X398715Y239900D01*
X401085D01*
X403374Y240513D01*
X405426Y241698D01*
X407102Y243374D01*
X408287Y245426D01*
X408900Y247715D01*
Y250085D01*
X408287Y252374D01*
X407102Y254426D01*
X405426Y256102D01*
X403374Y257287D01*
X401085Y257900D01*
D02*
G37*
G36*
X248685D02*
X246315D01*
X244026Y257287D01*
X241974Y256102D01*
X240298Y254426D01*
X239114Y252374D01*
X238500Y250085D01*
Y247715D01*
X239114Y245426D01*
X240298Y243374D01*
X241974Y241698D01*
X244026Y240513D01*
X246315Y239900D01*
X248685D01*
X250974Y240513D01*
X253026Y241698D01*
X254702Y243374D01*
X255887Y245426D01*
X256500Y247715D01*
Y250085D01*
X255887Y252374D01*
X254702Y254426D01*
X253026Y256102D01*
X250974Y257287D01*
X248685Y257900D01*
D02*
G37*
G36*
X611218Y242850D02*
X608782D01*
X606430Y242220D01*
X604320Y241002D01*
X602598Y239280D01*
X601381Y237171D01*
X600750Y234818D01*
Y232382D01*
X601381Y230030D01*
X602598Y227920D01*
X604320Y226198D01*
X606430Y224981D01*
X608782Y224350D01*
X611218D01*
X613571Y224981D01*
X615680Y226198D01*
X617402Y227920D01*
X618620Y230030D01*
X619250Y232382D01*
Y234818D01*
X618620Y237171D01*
X617402Y239280D01*
X615680Y241002D01*
X613571Y242220D01*
X611218Y242850D01*
D02*
G37*
G36*
X585818D02*
X583382D01*
X581030Y242220D01*
X578921Y241002D01*
X577198Y239280D01*
X575980Y237171D01*
X575350Y234818D01*
Y232382D01*
X575980Y230030D01*
X577198Y227920D01*
X578921Y226198D01*
X581030Y224981D01*
X583382Y224350D01*
X585818D01*
X588171Y224981D01*
X590280Y226198D01*
X592002Y227920D01*
X593220Y230030D01*
X593850Y232382D01*
Y234818D01*
X593220Y237171D01*
X592002Y239280D01*
X590280Y241002D01*
X588171Y242220D01*
X585818Y242850D01*
D02*
G37*
G36*
X401085Y232500D02*
X398715D01*
X396426Y231887D01*
X394374Y230702D01*
X392698Y229026D01*
X391513Y226974D01*
X390900Y224685D01*
Y222315D01*
X391513Y220026D01*
X392698Y217974D01*
X394374Y216298D01*
X396426Y215114D01*
X398715Y214500D01*
X401085D01*
X403374Y215114D01*
X405426Y216298D01*
X407102Y217974D01*
X408287Y220026D01*
X408900Y222315D01*
Y224685D01*
X408287Y226974D01*
X407102Y229026D01*
X405426Y230702D01*
X403374Y231887D01*
X401085Y232500D01*
D02*
G37*
G36*
X248685D02*
X246315D01*
X244026Y231887D01*
X241974Y230702D01*
X240298Y229026D01*
X239114Y226974D01*
X238500Y224685D01*
Y222315D01*
X239114Y220026D01*
X240298Y217974D01*
X241974Y216298D01*
X244026Y215114D01*
X246315Y214500D01*
X248685D01*
X250974Y215114D01*
X253026Y216298D01*
X254702Y217974D01*
X255887Y220026D01*
X256500Y222315D01*
Y224685D01*
X255887Y226974D01*
X254702Y229026D01*
X253026Y230702D01*
X250974Y231887D01*
X248685Y232500D01*
D02*
G37*
G36*
X449845Y204250D02*
X448155D01*
X446593Y203603D01*
X445808Y202818D01*
X445000Y202543D01*
X444192Y202818D01*
X443407Y203603D01*
X441845Y204250D01*
X440155D01*
X438593Y203603D01*
X437397Y202407D01*
X436750Y200845D01*
Y199155D01*
X437397Y197593D01*
X438593Y196397D01*
X440155Y195750D01*
X441845D01*
X443407Y196397D01*
X444192Y197182D01*
X445000Y197457D01*
X445808Y197182D01*
X446593Y196397D01*
X448155Y195750D01*
X449845D01*
X451407Y196397D01*
X452603Y197593D01*
X453250Y199155D01*
Y200845D01*
X452603Y202407D01*
X451407Y203603D01*
X449845Y204250D01*
D02*
G37*
G36*
X611218Y217450D02*
X608782D01*
X606430Y216820D01*
X604320Y215602D01*
X602598Y213880D01*
X601381Y211770D01*
X600750Y209418D01*
Y206982D01*
X601381Y204630D01*
X602598Y202521D01*
X604320Y200798D01*
X606430Y199580D01*
X608782Y198950D01*
X611218D01*
X613571Y199580D01*
X615680Y200798D01*
X617402Y202521D01*
X618620Y204630D01*
X619250Y206982D01*
Y209418D01*
X618620Y211770D01*
X617402Y213880D01*
X615680Y215602D01*
X613571Y216820D01*
X611218Y217450D01*
D02*
G37*
G36*
X585818D02*
X583382D01*
X581030Y216820D01*
X578921Y215602D01*
X577198Y213880D01*
X575980Y211770D01*
X575350Y209418D01*
Y206982D01*
X575980Y204630D01*
X577198Y202521D01*
X578921Y200798D01*
X581030Y199580D01*
X583382Y198950D01*
X585818D01*
X588171Y199580D01*
X590280Y200798D01*
X592002Y202521D01*
X593220Y204630D01*
X593850Y206982D01*
Y209418D01*
X593220Y211770D01*
X592002Y213880D01*
X590280Y215602D01*
X588171Y216820D01*
X585818Y217450D01*
D02*
G37*
G36*
X401085Y207100D02*
X398715D01*
X396426Y206487D01*
X394374Y205302D01*
X392698Y203626D01*
X391513Y201574D01*
X390900Y199285D01*
Y196915D01*
X391513Y194626D01*
X392698Y192574D01*
X394374Y190898D01*
X396426Y189713D01*
X398715Y189100D01*
X401085D01*
X403374Y189713D01*
X405426Y190898D01*
X407102Y192574D01*
X408287Y194626D01*
X408900Y196915D01*
Y199285D01*
X408287Y201574D01*
X407102Y203626D01*
X405426Y205302D01*
X403374Y206487D01*
X401085Y207100D01*
D02*
G37*
G36*
X248685D02*
X246315D01*
X244026Y206487D01*
X241974Y205302D01*
X240298Y203626D01*
X239114Y201574D01*
X238500Y199285D01*
Y196915D01*
X239114Y194626D01*
X240298Y192574D01*
X241974Y190898D01*
X244026Y189713D01*
X246315Y189100D01*
X248685D01*
X250974Y189713D01*
X253026Y190898D01*
X254702Y192574D01*
X255887Y194626D01*
X256500Y196915D01*
Y199285D01*
X255887Y201574D01*
X254702Y203626D01*
X253026Y205302D01*
X250974Y206487D01*
X248685Y207100D01*
D02*
G37*
G36*
X370722Y195440D02*
X370670D01*
Y186670D01*
X379440D01*
Y186722D01*
X378756Y189275D01*
X377434Y191565D01*
X375565Y193434D01*
X373275Y194756D01*
X370722Y195440D01*
D02*
G37*
G36*
X368130D02*
X368078D01*
X365525Y194756D01*
X363235Y193434D01*
X361366Y191565D01*
X360044Y189275D01*
X359360Y186722D01*
Y186670D01*
X368130D01*
Y195440D01*
D02*
G37*
G36*
X471096Y185111D02*
X469405D01*
X467843Y184464D01*
X466647Y183268D01*
X466000Y181706D01*
Y180016D01*
X466647Y178454D01*
X467843Y177258D01*
X469405Y176611D01*
X471096D01*
X472658Y177258D01*
X473853Y178454D01*
X474500Y180016D01*
Y181706D01*
X473853Y183268D01*
X472658Y184464D01*
X471096Y185111D01*
D02*
G37*
G36*
X379440Y184130D02*
X370670D01*
Y175360D01*
X370722D01*
X373275Y176044D01*
X375565Y177366D01*
X377434Y179235D01*
X378756Y181525D01*
X379440Y184078D01*
Y184130D01*
D02*
G37*
G36*
X368130D02*
X359360D01*
Y184078D01*
X360044Y181525D01*
X361366Y179235D01*
X363235Y177366D01*
X365525Y176044D01*
X368078Y175360D01*
X368130D01*
Y184130D01*
D02*
G37*
G36*
X291270Y179019D02*
Y171270D01*
X299019D01*
X298424Y173489D01*
X297234Y175551D01*
X295551Y177234D01*
X293489Y178424D01*
X291270Y179019D01*
D02*
G37*
G36*
X288730D02*
X286511Y178424D01*
X284449Y177234D01*
X282766Y175551D01*
X281576Y173489D01*
X280982Y171270D01*
X288730D01*
Y179019D01*
D02*
G37*
G36*
X401085Y181700D02*
X398715D01*
X396426Y181087D01*
X394374Y179902D01*
X392698Y178226D01*
X391513Y176174D01*
X390900Y173885D01*
Y171515D01*
X391513Y169226D01*
X392698Y167174D01*
X394374Y165498D01*
X396426Y164314D01*
X398715Y163700D01*
X401085D01*
X403374Y164314D01*
X405426Y165498D01*
X407102Y167174D01*
X408287Y169226D01*
X408900Y171515D01*
Y173885D01*
X408287Y176174D01*
X407102Y178226D01*
X405426Y179902D01*
X403374Y181087D01*
X401085Y181700D01*
D02*
G37*
G36*
X248685D02*
X246315D01*
X244026Y181087D01*
X241974Y179902D01*
X240298Y178226D01*
X239114Y176174D01*
X238500Y173885D01*
Y171515D01*
X239114Y169226D01*
X240298Y167174D01*
X241974Y165498D01*
X244026Y164314D01*
X246315Y163700D01*
X248685D01*
X250974Y164314D01*
X253026Y165498D01*
X254702Y167174D01*
X255887Y169226D01*
X256500Y171515D01*
Y173885D01*
X255887Y176174D01*
X254702Y178226D01*
X253026Y179902D01*
X250974Y181087D01*
X248685Y181700D01*
D02*
G37*
G36*
X311053Y178000D02*
X308947D01*
X306912Y177455D01*
X305088Y176402D01*
X303598Y174912D01*
X302545Y173088D01*
X302000Y171053D01*
Y168947D01*
X302545Y166912D01*
X303598Y165088D01*
X305088Y163599D01*
X306912Y162545D01*
X308947Y162000D01*
X311053D01*
X313088Y162545D01*
X314912Y163599D01*
X316402Y165088D01*
X317455Y166912D01*
X318000Y168947D01*
Y171053D01*
X317455Y173088D01*
X316402Y174912D01*
X314912Y176402D01*
X313088Y177455D01*
X311053Y178000D01*
D02*
G37*
G36*
X271053D02*
X268947D01*
X266912Y177455D01*
X265088Y176402D01*
X263598Y174912D01*
X262545Y173088D01*
X262000Y171053D01*
Y168947D01*
X262545Y166912D01*
X263598Y165088D01*
X265088Y163599D01*
X266912Y162545D01*
X268947Y162000D01*
X271053D01*
X273088Y162545D01*
X274912Y163599D01*
X276402Y165088D01*
X277455Y166912D01*
X278000Y168947D01*
Y171053D01*
X277455Y173088D01*
X276402Y174912D01*
X274912Y176402D01*
X273088Y177455D01*
X271053Y178000D01*
D02*
G37*
G36*
X370722Y170040D02*
X370670D01*
Y161270D01*
X379440D01*
Y161322D01*
X378756Y163875D01*
X377434Y166165D01*
X375565Y168034D01*
X373275Y169356D01*
X370722Y170040D01*
D02*
G37*
G36*
X368130D02*
X368078D01*
X365525Y169356D01*
X363235Y168034D01*
X361366Y166165D01*
X360044Y163875D01*
X359360Y161322D01*
Y161270D01*
X368130D01*
Y170040D01*
D02*
G37*
G36*
X299019Y168730D02*
X291270D01*
Y160982D01*
X293489Y161576D01*
X295551Y162766D01*
X297234Y164450D01*
X298424Y166511D01*
X299019Y168730D01*
D02*
G37*
G36*
X288730D02*
X280982D01*
X281576Y166511D01*
X282766Y164450D01*
X284449Y162766D01*
X286511Y161576D01*
X288730Y160982D01*
Y168730D01*
D02*
G37*
G36*
X184845Y170250D02*
X183155D01*
X181593Y169603D01*
X180397Y168407D01*
X179750Y166845D01*
Y165155D01*
X180397Y163593D01*
X181593Y162397D01*
X181662Y162368D01*
Y160994D01*
X181647Y160988D01*
X180452Y159792D01*
X179805Y158230D01*
Y156539D01*
X180452Y154977D01*
X181647Y153782D01*
X183209Y153135D01*
X184900D01*
X186462Y153782D01*
X187658Y154977D01*
X188305Y156539D01*
Y158230D01*
X187658Y159792D01*
X186462Y160988D01*
X186393Y161016D01*
Y162391D01*
X186407Y162397D01*
X187603Y163593D01*
X188250Y165155D01*
Y166845D01*
X187603Y168407D01*
X186407Y169603D01*
X184845Y170250D01*
D02*
G37*
G36*
X578845Y160500D02*
X577155D01*
X575593Y159853D01*
X574397Y158658D01*
X573750Y157095D01*
Y155405D01*
X574397Y153843D01*
X575593Y152647D01*
X577155Y152000D01*
X578845D01*
X580407Y152647D01*
X581603Y153843D01*
X582250Y155405D01*
Y157095D01*
X581603Y158658D01*
X580407Y159853D01*
X578845Y160500D01*
D02*
G37*
G36*
X379440Y158730D02*
X370670D01*
Y149960D01*
X370722D01*
X373275Y150644D01*
X375565Y151966D01*
X377434Y153835D01*
X378756Y156125D01*
X379440Y158678D01*
Y158730D01*
D02*
G37*
G36*
X368130D02*
X359360D01*
Y158678D01*
X360044Y156125D01*
X361366Y153835D01*
X363235Y151966D01*
X365525Y150644D01*
X368078Y149960D01*
X368130D01*
Y158730D01*
D02*
G37*
G36*
X311053Y158000D02*
X308947D01*
X306912Y157455D01*
X305088Y156402D01*
X303598Y154912D01*
X302545Y153088D01*
X302000Y151053D01*
Y148947D01*
X302545Y146912D01*
X303598Y145088D01*
X305088Y143598D01*
X306912Y142545D01*
X308947Y142000D01*
X311053D01*
X313088Y142545D01*
X314912Y143598D01*
X316402Y145088D01*
X317455Y146912D01*
X318000Y148947D01*
Y151053D01*
X317455Y153088D01*
X316402Y154912D01*
X314912Y156402D01*
X313088Y157455D01*
X311053Y158000D01*
D02*
G37*
G36*
X291053D02*
X288947D01*
X286912Y157455D01*
X285088Y156402D01*
X283598Y154912D01*
X282545Y153088D01*
X282000Y151053D01*
Y148947D01*
X282545Y146912D01*
X283598Y145088D01*
X285088Y143598D01*
X286912Y142545D01*
X288947Y142000D01*
X291053D01*
X293088Y142545D01*
X294912Y143598D01*
X296402Y145088D01*
X297455Y146912D01*
X298000Y148947D01*
Y151053D01*
X297455Y153088D01*
X296402Y154912D01*
X294912Y156402D01*
X293088Y157455D01*
X291053Y158000D01*
D02*
G37*
G36*
X271053D02*
X268947D01*
X266912Y157455D01*
X265088Y156402D01*
X263598Y154912D01*
X262545Y153088D01*
X262000Y151053D01*
Y148947D01*
X262545Y146912D01*
X263598Y145088D01*
X265088Y143598D01*
X266912Y142545D01*
X268947Y142000D01*
X271053D01*
X273088Y142545D01*
X274912Y143598D01*
X276402Y145088D01*
X277455Y146912D01*
X278000Y148947D01*
Y151053D01*
X277455Y153088D01*
X276402Y154912D01*
X274912Y156402D01*
X273088Y157455D01*
X271053Y158000D01*
D02*
G37*
G36*
X184845Y149250D02*
X183155D01*
X181593Y148603D01*
X180397Y147407D01*
X179750Y145845D01*
Y144155D01*
X180397Y142593D01*
X181593Y141397D01*
X183155Y140750D01*
X184845D01*
X186407Y141397D01*
X187603Y142593D01*
X188250Y144155D01*
Y145845D01*
X187603Y147407D01*
X186407Y148603D01*
X184845Y149250D01*
D02*
G37*
G36*
X401085Y156300D02*
X398715D01*
X396426Y155687D01*
X394374Y154502D01*
X392698Y152826D01*
X391513Y150774D01*
X390900Y148485D01*
Y146115D01*
X391513Y143826D01*
X392698Y141774D01*
X394374Y140098D01*
X396426Y138913D01*
X398715Y138300D01*
X401085D01*
X403374Y138913D01*
X405426Y140098D01*
X407102Y141774D01*
X408287Y143826D01*
X408900Y146115D01*
Y148485D01*
X408287Y150774D01*
X407102Y152826D01*
X405426Y154502D01*
X403374Y155687D01*
X401085Y156300D01*
D02*
G37*
G36*
X248685D02*
X246315D01*
X244026Y155687D01*
X241974Y154502D01*
X240298Y152826D01*
X239114Y150774D01*
X238500Y148485D01*
Y146115D01*
X239114Y143826D01*
X240298Y141774D01*
X241974Y140098D01*
X244026Y138913D01*
X246315Y138300D01*
X248685D01*
X250974Y138913D01*
X253026Y140098D01*
X254702Y141774D01*
X255887Y143826D01*
X256500Y146115D01*
Y148485D01*
X255887Y150774D01*
X254702Y152826D01*
X253026Y154502D01*
X250974Y155687D01*
X248685Y156300D01*
D02*
G37*
G36*
X228845Y142250D02*
X227155D01*
X225593Y141603D01*
X224397Y140407D01*
X223750Y138845D01*
Y137155D01*
X224397Y135593D01*
X225593Y134397D01*
X227155Y133750D01*
X228845D01*
X230407Y134397D01*
X231603Y135593D01*
X232250Y137155D01*
Y138845D01*
X231603Y140407D01*
X230407Y141603D01*
X228845Y142250D01*
D02*
G37*
G36*
X443845Y139250D02*
X442155D01*
X440593Y138603D01*
X439397Y137407D01*
X438750Y135845D01*
Y134155D01*
X439397Y132593D01*
X440593Y131397D01*
X442155Y130750D01*
X443845D01*
X445407Y131397D01*
X446603Y132593D01*
X447250Y134155D01*
Y135845D01*
X446603Y137407D01*
X445407Y138603D01*
X443845Y139250D01*
D02*
G37*
G36*
X262632Y135112D02*
X260942D01*
X259380Y134465D01*
X258184Y133269D01*
X257537Y131707D01*
Y130017D01*
X258184Y128455D01*
X259380Y127259D01*
X260942Y126612D01*
X262632D01*
X264194Y127259D01*
X265390Y128455D01*
X266037Y130017D01*
Y131707D01*
X265390Y133269D01*
X264194Y134465D01*
X262632Y135112D01*
D02*
G37*
G36*
X370585Y143600D02*
X368215D01*
X365926Y142987D01*
X363874Y141802D01*
X362198Y140126D01*
X361013Y138074D01*
X360400Y135785D01*
Y133415D01*
X361013Y131126D01*
X362198Y129074D01*
X363874Y127398D01*
X365926Y126214D01*
X368215Y125600D01*
X370585D01*
X372874Y126214D01*
X374926Y127398D01*
X376602Y129074D01*
X377787Y131126D01*
X378400Y133415D01*
Y135785D01*
X377787Y138074D01*
X376602Y140126D01*
X374926Y141802D01*
X372874Y142987D01*
X370585Y143600D01*
D02*
G37*
G36*
X578845Y132250D02*
X577155D01*
X575593Y131603D01*
X574397Y130407D01*
X573750Y128845D01*
Y127155D01*
X574397Y125593D01*
X575593Y124397D01*
X577155Y123750D01*
X578845D01*
X580407Y124397D01*
X581603Y125593D01*
X582250Y127155D01*
Y128845D01*
X581603Y130407D01*
X580407Y131603D01*
X578845Y132250D01*
D02*
G37*
G36*
X436845D02*
X435155D01*
X433593Y131603D01*
X432397Y130407D01*
X431750Y128845D01*
Y127155D01*
X432397Y125593D01*
X433593Y124397D01*
X435155Y123750D01*
X436845D01*
X438407Y124397D01*
X439603Y125593D01*
X440250Y127155D01*
Y128845D01*
X439603Y130407D01*
X438407Y131603D01*
X436845Y132250D01*
D02*
G37*
G36*
X205090Y127796D02*
Y119530D01*
X213356D01*
X212710Y121942D01*
X211454Y124118D01*
X209678Y125894D01*
X207502Y127150D01*
X205090Y127796D01*
D02*
G37*
G36*
X202550D02*
X200138Y127150D01*
X197962Y125894D01*
X196186Y124118D01*
X194930Y121942D01*
X194284Y119530D01*
X202550D01*
Y127796D01*
D02*
G37*
G36*
X90790D02*
Y119530D01*
X99056D01*
X98410Y121942D01*
X97154Y124118D01*
X95378Y125894D01*
X93202Y127150D01*
X90790Y127796D01*
D02*
G37*
G36*
X88250D02*
X85838Y127150D01*
X83662Y125894D01*
X81886Y124118D01*
X80630Y121942D01*
X79984Y119530D01*
X88250D01*
Y127796D01*
D02*
G37*
G36*
X544845Y126250D02*
X543155D01*
X541593Y125603D01*
X540397Y124407D01*
X539750Y122845D01*
Y121155D01*
X540397Y119593D01*
X541593Y118397D01*
X543155Y117750D01*
X544845D01*
X546407Y118397D01*
X547603Y119593D01*
X548250Y121155D01*
Y122845D01*
X547603Y124407D01*
X546407Y125603D01*
X544845Y126250D01*
D02*
G37*
G36*
X476845Y119250D02*
X475155D01*
X473593Y118603D01*
X472500Y117510D01*
X471407Y118603D01*
X469845Y119250D01*
X468155D01*
X466593Y118603D01*
X465397Y117407D01*
X464750Y115845D01*
Y114155D01*
X465397Y112593D01*
X466593Y111397D01*
X468155Y110750D01*
X469845D01*
X471407Y111397D01*
X472500Y112490D01*
X473593Y111397D01*
X475155Y110750D01*
X476845D01*
X478407Y111397D01*
X479603Y112593D01*
X480250Y114155D01*
Y115845D01*
X479603Y117407D01*
X478407Y118603D01*
X476845Y119250D01*
D02*
G37*
G36*
X401085Y130900D02*
X398715D01*
X396426Y130287D01*
X394374Y129102D01*
X392698Y127426D01*
X391513Y125374D01*
X390900Y123085D01*
Y120715D01*
X391513Y118426D01*
X392698Y116374D01*
X394374Y114698D01*
X396426Y113513D01*
X398715Y112900D01*
X401085D01*
X403374Y113513D01*
X405426Y114698D01*
X407102Y116374D01*
X408287Y118426D01*
X408900Y120715D01*
Y123085D01*
X408287Y125374D01*
X407102Y127426D01*
X405426Y129102D01*
X403374Y130287D01*
X401085Y130900D01*
D02*
G37*
G36*
X248685D02*
X246315D01*
X244026Y130287D01*
X241974Y129102D01*
X240298Y127426D01*
X239114Y125374D01*
X238500Y123085D01*
Y120715D01*
X239114Y118426D01*
X240298Y116374D01*
X241974Y114698D01*
X244026Y113513D01*
X246315Y112900D01*
X248685D01*
X250974Y113513D01*
X253026Y114698D01*
X254702Y116374D01*
X255887Y118426D01*
X256500Y120715D01*
Y123085D01*
X255887Y125374D01*
X254702Y127426D01*
X253026Y129102D01*
X250974Y130287D01*
X248685Y130900D01*
D02*
G37*
G36*
X516845Y120650D02*
X515155D01*
X513593Y120003D01*
X512397Y118808D01*
X511750Y117246D01*
Y115555D01*
X512397Y113993D01*
X513593Y112797D01*
X515155Y112150D01*
X516845D01*
X518407Y112797D01*
X519603Y113993D01*
X520250Y115555D01*
Y117246D01*
X519603Y118808D01*
X518407Y120003D01*
X516845Y120650D01*
D02*
G37*
G36*
X436845Y120250D02*
X435155D01*
X433593Y119603D01*
X432397Y118407D01*
X431750Y116845D01*
Y115155D01*
X432397Y113593D01*
X433593Y112397D01*
X435155Y111750D01*
X436845D01*
X438407Y112397D01*
X438610Y112599D01*
X440208Y112560D01*
X440871Y111897D01*
X442433Y111250D01*
X444123D01*
X445686Y111897D01*
X446881Y113093D01*
X447528Y114655D01*
Y116345D01*
X446881Y117907D01*
X445686Y119103D01*
X444123Y119750D01*
X442433D01*
X440871Y119103D01*
X440669Y118901D01*
X439070Y118940D01*
X438407Y119603D01*
X436845Y120250D01*
D02*
G37*
G36*
X455845Y119250D02*
X454155D01*
X452593Y118603D01*
X451397Y117407D01*
X450750Y115845D01*
Y114155D01*
X451397Y112593D01*
X452593Y111397D01*
X454155Y110750D01*
X455845D01*
X457407Y111397D01*
X458603Y112593D01*
X459250Y114155D01*
Y115845D01*
X458603Y117407D01*
X457407Y118603D01*
X455845Y119250D01*
D02*
G37*
G36*
X182079Y126760D02*
X179841D01*
X177679Y126181D01*
X175741Y125062D01*
X174158Y123479D01*
X173039Y121541D01*
X172460Y119379D01*
Y117141D01*
X173039Y114979D01*
X174158Y113041D01*
X175741Y111459D01*
X177679Y110339D01*
X179841Y109760D01*
X182079D01*
X184241Y110339D01*
X186179Y111459D01*
X187762Y113041D01*
X188881Y114979D01*
X189460Y117141D01*
Y119379D01*
X188881Y121541D01*
X187762Y123479D01*
X186179Y125062D01*
X184241Y126181D01*
X182079Y126760D01*
D02*
G37*
G36*
X67779D02*
X65541D01*
X63379Y126181D01*
X61441Y125062D01*
X59858Y123479D01*
X58739Y121541D01*
X58160Y119379D01*
Y117141D01*
X58739Y114979D01*
X59858Y113041D01*
X61441Y111459D01*
X63379Y110339D01*
X65541Y109760D01*
X67779D01*
X69941Y110339D01*
X71879Y111459D01*
X73462Y113041D01*
X74581Y114979D01*
X75160Y117141D01*
Y119379D01*
X74581Y121541D01*
X73462Y123479D01*
X71879Y125062D01*
X69941Y126181D01*
X67779Y126760D01*
D02*
G37*
G36*
X213356Y116990D02*
X205090D01*
Y108724D01*
X207502Y109370D01*
X209678Y110626D01*
X211454Y112402D01*
X212710Y114578D01*
X213356Y116990D01*
D02*
G37*
G36*
X202550D02*
X194284D01*
X194930Y114578D01*
X196186Y112402D01*
X197962Y110626D01*
X200138Y109370D01*
X202550Y108724D01*
Y116990D01*
D02*
G37*
G36*
X99056D02*
X90790D01*
Y108724D01*
X93202Y109370D01*
X95378Y110626D01*
X97154Y112402D01*
X98410Y114578D01*
X99056Y116990D01*
D02*
G37*
G36*
X88250D02*
X79984D01*
X80630Y114578D01*
X81886Y112402D01*
X83662Y110626D01*
X85838Y109370D01*
X88250Y108724D01*
Y116990D01*
D02*
G37*
G36*
X370585Y118200D02*
X368215D01*
X365926Y117587D01*
X363874Y116402D01*
X362198Y114726D01*
X361013Y112674D01*
X360400Y110385D01*
Y108015D01*
X361013Y105726D01*
X362198Y103674D01*
X363874Y101998D01*
X365926Y100814D01*
X368215Y100200D01*
X370585D01*
X372874Y100814D01*
X374926Y101998D01*
X376602Y103674D01*
X377787Y105726D01*
X378400Y108015D01*
Y110385D01*
X377787Y112674D01*
X376602Y114726D01*
X374926Y116402D01*
X372874Y117587D01*
X370585Y118200D01*
D02*
G37*
G36*
X488845Y104250D02*
X487155D01*
X485593Y103603D01*
X484397Y102407D01*
X483750Y100845D01*
Y99155D01*
X484397Y97593D01*
X485593Y96397D01*
X487155Y95750D01*
X488845D01*
X490407Y96397D01*
X491603Y97593D01*
X492250Y99155D01*
Y100845D01*
X491603Y102407D01*
X490407Y103603D01*
X488845Y104250D01*
D02*
G37*
G36*
X584845Y96250D02*
X583155D01*
X581593Y95603D01*
X580397Y94407D01*
X579750Y92845D01*
Y91155D01*
X580397Y89593D01*
X581593Y88397D01*
X583155Y87750D01*
X584845D01*
X586407Y88397D01*
X587603Y89593D01*
X588250Y91155D01*
Y92845D01*
X587603Y94407D01*
X586407Y95603D01*
X584845Y96250D01*
D02*
G37*
G36*
X401085Y105500D02*
X398715D01*
X396426Y104887D01*
X394374Y103702D01*
X392698Y102026D01*
X391513Y99974D01*
X390900Y97685D01*
Y95315D01*
X391513Y93026D01*
X392698Y90974D01*
X394374Y89298D01*
X396426Y88113D01*
X398715Y87500D01*
X401085D01*
X403374Y88113D01*
X405426Y89298D01*
X407102Y90974D01*
X408287Y93026D01*
X408900Y95315D01*
Y97685D01*
X408287Y99974D01*
X407102Y102026D01*
X405426Y103702D01*
X403374Y104887D01*
X401085Y105500D01*
D02*
G37*
G36*
X248685D02*
X246315D01*
X244026Y104887D01*
X241974Y103702D01*
X240298Y102026D01*
X239114Y99974D01*
X238500Y97685D01*
Y95315D01*
X239114Y93026D01*
X240298Y90974D01*
X241974Y89298D01*
X244026Y88113D01*
X246315Y87500D01*
X248685D01*
X250974Y88113D01*
X253026Y89298D01*
X254702Y90974D01*
X255887Y93026D01*
X256500Y95315D01*
Y97685D01*
X255887Y99974D01*
X254702Y102026D01*
X253026Y103702D01*
X250974Y104887D01*
X248685Y105500D01*
D02*
G37*
G36*
X561845Y94250D02*
X560155D01*
X558593Y93603D01*
X557397Y92407D01*
X556750Y90845D01*
Y89155D01*
X557397Y87593D01*
X558593Y86397D01*
X560155Y85750D01*
X561845D01*
X563407Y86397D01*
X564603Y87593D01*
X565250Y89155D01*
Y90845D01*
X564603Y92407D01*
X563407Y93603D01*
X561845Y94250D01*
D02*
G37*
G36*
X549845Y88750D02*
X548155D01*
X546593Y88103D01*
X545397Y86908D01*
X544750Y85345D01*
Y83655D01*
X545397Y82093D01*
X546593Y80897D01*
X548155Y80250D01*
X549845D01*
X551407Y80897D01*
X552603Y82093D01*
X553250Y83655D01*
Y85345D01*
X552603Y86908D01*
X551407Y88103D01*
X549845Y88750D01*
D02*
G37*
G36*
X485845D02*
X484155D01*
X482593Y88103D01*
X481397Y86908D01*
X480750Y85345D01*
Y83655D01*
X481397Y82093D01*
X482593Y80897D01*
X484155Y80250D01*
X485845D01*
X487407Y80897D01*
X488603Y82093D01*
X489250Y83655D01*
Y85345D01*
X488603Y86908D01*
X487407Y88103D01*
X485845Y88750D01*
D02*
G37*
G36*
X466845D02*
X465155D01*
X463593Y88103D01*
X462397Y86908D01*
X461750Y85345D01*
Y83655D01*
X462397Y82093D01*
X463593Y80897D01*
X465155Y80250D01*
X466845D01*
X468407Y80897D01*
X469603Y82093D01*
X470250Y83655D01*
Y85345D01*
X469603Y86908D01*
X468407Y88103D01*
X466845Y88750D01*
D02*
G37*
G36*
X370585Y92800D02*
X368215D01*
X365926Y92187D01*
X363874Y91002D01*
X362198Y89326D01*
X361013Y87274D01*
X360400Y84985D01*
Y82615D01*
X361013Y80326D01*
X362198Y78274D01*
X363874Y76598D01*
X365926Y75413D01*
X368215Y74800D01*
X370585D01*
X372874Y75413D01*
X374926Y76598D01*
X376602Y78274D01*
X377787Y80326D01*
X378400Y82615D01*
Y84985D01*
X377787Y87274D01*
X376602Y89326D01*
X374926Y91002D01*
X372874Y92187D01*
X370585Y92800D01*
D02*
G37*
G36*
X432845Y82250D02*
X431155D01*
X429593Y81603D01*
X428397Y80407D01*
X427750Y78845D01*
Y77155D01*
X428397Y75593D01*
X429593Y74397D01*
X431155Y73750D01*
X432845D01*
X434407Y74397D01*
X435603Y75593D01*
X436250Y77155D01*
Y78845D01*
X435603Y80407D01*
X434407Y81603D01*
X432845Y82250D01*
D02*
G37*
G36*
X517845Y88750D02*
X516155D01*
X514593Y88103D01*
X513397Y86908D01*
X512750Y85345D01*
Y83655D01*
X513397Y82093D01*
X513910Y81580D01*
X514490Y80750D01*
X513910Y79920D01*
X513397Y79407D01*
X512750Y77845D01*
Y76155D01*
X513397Y74593D01*
X514593Y73397D01*
X516155Y72750D01*
X517845D01*
X519407Y73397D01*
X520603Y74593D01*
X521250Y76155D01*
Y77845D01*
X520603Y79407D01*
X520090Y79920D01*
X519510Y80750D01*
X520090Y81580D01*
X520603Y82093D01*
X521250Y83655D01*
Y85345D01*
X520603Y86908D01*
X519407Y88103D01*
X517845Y88750D01*
D02*
G37*
G36*
X401085Y80100D02*
X398715D01*
X396426Y79487D01*
X394374Y78302D01*
X392698Y76626D01*
X391513Y74574D01*
X390900Y72285D01*
Y69915D01*
X391513Y67626D01*
X392698Y65574D01*
X394374Y63898D01*
X396426Y62713D01*
X398715Y62100D01*
X401085D01*
X403374Y62713D01*
X405426Y63898D01*
X407102Y65574D01*
X408287Y67626D01*
X408900Y69915D01*
Y72285D01*
X408287Y74574D01*
X407102Y76626D01*
X405426Y78302D01*
X403374Y79487D01*
X401085Y80100D01*
D02*
G37*
G36*
X248685D02*
X246315D01*
X244026Y79487D01*
X241974Y78302D01*
X240298Y76626D01*
X239114Y74574D01*
X238500Y72285D01*
Y69915D01*
X239114Y67626D01*
X240298Y65574D01*
X241974Y63898D01*
X244026Y62713D01*
X246315Y62100D01*
X248685D01*
X250974Y62713D01*
X253026Y63898D01*
X254702Y65574D01*
X255887Y67626D01*
X256500Y69915D01*
Y72285D01*
X255887Y74574D01*
X254702Y76626D01*
X253026Y78302D01*
X250974Y79487D01*
X248685Y80100D01*
D02*
G37*
G36*
X161759Y78500D02*
X159521D01*
X157359Y77921D01*
X155421Y76802D01*
X153838Y75219D01*
X152719Y73281D01*
X152140Y71119D01*
Y68881D01*
X152719Y66719D01*
X153838Y64781D01*
X155421Y63198D01*
X157359Y62079D01*
X159521Y61500D01*
X161759D01*
X163921Y62079D01*
X165859Y63198D01*
X167442Y64781D01*
X168561Y66719D01*
X169140Y68881D01*
Y71119D01*
X168561Y73281D01*
X167442Y75219D01*
X165859Y76802D01*
X163921Y77921D01*
X161759Y78500D01*
D02*
G37*
G36*
X141439D02*
X139201D01*
X137039Y77921D01*
X135101Y76802D01*
X133518Y75219D01*
X132399Y73281D01*
X131820Y71119D01*
Y68881D01*
X132399Y66719D01*
X133518Y64781D01*
X135101Y63198D01*
X137039Y62079D01*
X139201Y61500D01*
X141439D01*
X143601Y62079D01*
X145539Y63198D01*
X147122Y64781D01*
X148241Y66719D01*
X148820Y68881D01*
Y71119D01*
X148241Y73281D01*
X147122Y75219D01*
X145539Y76802D01*
X143601Y77921D01*
X141439Y78500D01*
D02*
G37*
G36*
X121119D02*
X118881D01*
X116719Y77921D01*
X114781Y76802D01*
X113198Y75219D01*
X112079Y73281D01*
X111500Y71119D01*
Y68881D01*
X112079Y66719D01*
X113198Y64781D01*
X114781Y63198D01*
X116719Y62079D01*
X118881Y61500D01*
X121119D01*
X123281Y62079D01*
X125219Y63198D01*
X126802Y64781D01*
X127921Y66719D01*
X128500Y68881D01*
Y71119D01*
X127921Y73281D01*
X126802Y75219D01*
X125219Y76802D01*
X123281Y77921D01*
X121119Y78500D01*
D02*
G37*
G36*
X100799D02*
X98561D01*
X96399Y77921D01*
X94461Y76802D01*
X92878Y75219D01*
X91759Y73281D01*
X91180Y71119D01*
Y68881D01*
X91759Y66719D01*
X92878Y64781D01*
X94461Y63198D01*
X96399Y62079D01*
X98561Y61500D01*
X100799D01*
X102961Y62079D01*
X104899Y63198D01*
X106482Y64781D01*
X107601Y66719D01*
X108180Y68881D01*
Y71119D01*
X107601Y73281D01*
X106482Y75219D01*
X104899Y76802D01*
X102961Y77921D01*
X100799Y78500D01*
D02*
G37*
G36*
X517845Y66250D02*
X516155D01*
X514593Y65603D01*
X513397Y64407D01*
X512750Y62845D01*
Y61155D01*
X513397Y59593D01*
X514593Y58397D01*
X516155Y57750D01*
X517845D01*
X519407Y58397D01*
X520603Y59593D01*
X521250Y61155D01*
Y62845D01*
X520603Y64407D01*
X519407Y65603D01*
X517845Y66250D01*
D02*
G37*
G36*
X478845D02*
X477155D01*
X475593Y65603D01*
X474397Y64407D01*
X473750Y62845D01*
Y61155D01*
X474397Y59593D01*
X475593Y58397D01*
X477155Y57750D01*
X478845D01*
X480407Y58397D01*
X481603Y59593D01*
X482250Y61155D01*
Y62845D01*
X481603Y64407D01*
X480407Y65603D01*
X478845Y66250D01*
D02*
G37*
G36*
X451845D02*
X450155D01*
X448593Y65603D01*
X447397Y64407D01*
X446750Y62845D01*
Y61155D01*
X447397Y59593D01*
X448593Y58397D01*
X450155Y57750D01*
X451845D01*
X453407Y58397D01*
X454603Y59593D01*
X455250Y61155D01*
Y62845D01*
X454603Y64407D01*
X453407Y65603D01*
X451845Y66250D01*
D02*
G37*
G36*
X431845D02*
X430155D01*
X428593Y65603D01*
X427397Y64407D01*
X426750Y62845D01*
Y61155D01*
X427397Y59593D01*
X428593Y58397D01*
X430155Y57750D01*
X431845D01*
X433407Y58397D01*
X434603Y59593D01*
X435250Y61155D01*
Y62845D01*
X434603Y64407D01*
X433407Y65603D01*
X431845Y66250D01*
D02*
G37*
G36*
X565845Y52250D02*
X564155D01*
X562593Y51603D01*
X561397Y50407D01*
X560750Y48845D01*
Y48836D01*
X559480Y47987D01*
X558845Y48250D01*
X557155D01*
X555593Y47603D01*
X554397Y46407D01*
X553801Y44970D01*
X553537Y44617D01*
X552694Y44054D01*
X552220Y44250D01*
X550530D01*
X548968Y43603D01*
X547772Y42407D01*
X547125Y40845D01*
X546085Y40151D01*
X545845Y40250D01*
X544155D01*
X542593Y39603D01*
X541397Y38407D01*
X541063Y37601D01*
X540578Y36862D01*
X539530Y36966D01*
X538845Y37250D01*
X537155D01*
X535593Y36603D01*
X534397Y35407D01*
X533750Y33845D01*
Y33836D01*
X532480Y32987D01*
X531845Y33250D01*
X530155D01*
X528593Y32603D01*
X527397Y31407D01*
X526750Y29845D01*
Y29836D01*
X525480Y28987D01*
X524846Y29250D01*
X523155D01*
X521593Y28603D01*
X520397Y27408D01*
X519750Y25845D01*
Y24155D01*
X520397Y22593D01*
X521593Y21397D01*
X523155Y20750D01*
X524846D01*
X526408Y21397D01*
X527603Y22593D01*
X528250Y24155D01*
Y24164D01*
X529520Y25013D01*
X530155Y24750D01*
X531845D01*
X533407Y25397D01*
X534603Y26593D01*
X535250Y28155D01*
Y28164D01*
X536520Y29013D01*
X537155Y28750D01*
X538845D01*
X540407Y29397D01*
X541603Y30593D01*
X541937Y31399D01*
X542422Y32138D01*
X543470Y32034D01*
X544155Y31750D01*
X545845D01*
X547407Y32397D01*
X548603Y33593D01*
X549250Y35155D01*
X550290Y35849D01*
X550530Y35750D01*
X552220D01*
X553783Y36397D01*
X554978Y37593D01*
X555574Y39030D01*
X555838Y39383D01*
X556681Y39946D01*
X557155Y39750D01*
X558845D01*
X560407Y40397D01*
X561603Y41593D01*
X562250Y43155D01*
Y43164D01*
X563520Y44013D01*
X564155Y43750D01*
X565845D01*
X567407Y44397D01*
X568603Y45593D01*
X569250Y47155D01*
Y48845D01*
X568603Y50407D01*
X567407Y51603D01*
X565845Y52250D01*
D02*
G37*
G36*
X481845Y49250D02*
X480155D01*
X478593Y48603D01*
X477808Y47818D01*
X477000Y47543D01*
X476192Y47818D01*
X475407Y48603D01*
X473845Y49250D01*
X472155D01*
X470593Y48603D01*
X469397Y47407D01*
X468750Y45845D01*
Y45764D01*
X467694Y45059D01*
X467232Y45250D01*
X465541D01*
X463979Y44603D01*
X462784Y43407D01*
X462137Y41845D01*
X461092Y41148D01*
X460845Y41250D01*
X459155D01*
X457593Y40603D01*
X456397Y39407D01*
X455750Y37845D01*
Y37836D01*
X454480Y36987D01*
X453845Y37250D01*
X452155D01*
X450593Y36603D01*
X449397Y35407D01*
X448750Y33845D01*
Y33836D01*
X447480Y32987D01*
X446845Y33250D01*
X445155D01*
X443593Y32603D01*
X442397Y31407D01*
X441750Y29845D01*
Y29836D01*
X440480Y28987D01*
X439846Y29250D01*
X438155D01*
X436593Y28603D01*
X435397Y27408D01*
X434750Y25845D01*
Y24155D01*
X435397Y22593D01*
X436593Y21397D01*
X438155Y20750D01*
X439846D01*
X441408Y21397D01*
X442603Y22593D01*
X443250Y24155D01*
Y24164D01*
X444520Y25013D01*
X445155Y24750D01*
X446845D01*
X448407Y25397D01*
X449603Y26593D01*
X450250Y28155D01*
Y28164D01*
X451520Y29013D01*
X452155Y28750D01*
X453845D01*
X455407Y29397D01*
X456603Y30593D01*
X457250Y32155D01*
Y32164D01*
X458520Y33013D01*
X459155Y32750D01*
X460845D01*
X462407Y33397D01*
X463603Y34593D01*
X464250Y36155D01*
X465294Y36852D01*
X465541Y36750D01*
X467232D01*
X468794Y37397D01*
X469990Y38593D01*
X470636Y40155D01*
Y40236D01*
X471693Y40941D01*
X472155Y40750D01*
X473845D01*
X475407Y41397D01*
X476192Y42182D01*
X477000Y42457D01*
X477808Y42182D01*
X478593Y41397D01*
X480155Y40750D01*
X481845D01*
X483407Y41397D01*
X484603Y42593D01*
X485250Y44155D01*
Y45845D01*
X484603Y47407D01*
X483407Y48603D01*
X481845Y49250D01*
D02*
G37*
G36*
X248822Y55740D02*
X248770D01*
Y46970D01*
X257540D01*
Y47022D01*
X256856Y49575D01*
X255534Y51865D01*
X253665Y53734D01*
X251375Y55056D01*
X248822Y55740D01*
D02*
G37*
G36*
X246230D02*
X246178D01*
X243625Y55056D01*
X241335Y53734D01*
X239466Y51865D01*
X238144Y49575D01*
X237460Y47022D01*
Y46970D01*
X246230D01*
Y55740D01*
D02*
G37*
G36*
X451845Y55250D02*
X450155D01*
X448593Y54603D01*
X447397Y53407D01*
X446750Y51845D01*
Y50155D01*
X447397Y48593D01*
X448593Y47397D01*
X450155Y46750D01*
X451845D01*
X453407Y47397D01*
X454603Y48593D01*
X455250Y50155D01*
Y51845D01*
X454603Y53407D01*
X453407Y54603D01*
X451845Y55250D01*
D02*
G37*
G36*
X171919Y60720D02*
X169681D01*
X167519Y60141D01*
X165581Y59022D01*
X163998Y57439D01*
X162879Y55501D01*
X162300Y53339D01*
Y51101D01*
X162879Y48939D01*
X163998Y47001D01*
X165581Y45419D01*
X167519Y44299D01*
X169681Y43720D01*
X171919D01*
X174081Y44299D01*
X176019Y45419D01*
X177602Y47001D01*
X178721Y48939D01*
X179300Y51101D01*
Y53339D01*
X178721Y55501D01*
X177602Y57439D01*
X176019Y59022D01*
X174081Y60141D01*
X171919Y60720D01*
D02*
G37*
G36*
X151599D02*
X149361D01*
X147199Y60141D01*
X145261Y59022D01*
X143678Y57439D01*
X142559Y55501D01*
X141980Y53339D01*
Y51101D01*
X142559Y48939D01*
X143678Y47001D01*
X145261Y45419D01*
X147199Y44299D01*
X149361Y43720D01*
X151599D01*
X153761Y44299D01*
X155699Y45419D01*
X157282Y47001D01*
X158401Y48939D01*
X158980Y51101D01*
Y53339D01*
X158401Y55501D01*
X157282Y57439D01*
X155699Y59022D01*
X153761Y60141D01*
X151599Y60720D01*
D02*
G37*
G36*
X131279D02*
X129041D01*
X126879Y60141D01*
X124941Y59022D01*
X123358Y57439D01*
X122239Y55501D01*
X121660Y53339D01*
Y51101D01*
X122239Y48939D01*
X123358Y47001D01*
X124941Y45419D01*
X126879Y44299D01*
X129041Y43720D01*
X131279D01*
X133441Y44299D01*
X135379Y45419D01*
X136962Y47001D01*
X138081Y48939D01*
X138660Y51101D01*
Y53339D01*
X138081Y55501D01*
X136962Y57439D01*
X135379Y59022D01*
X133441Y60141D01*
X131279Y60720D01*
D02*
G37*
G36*
X110959D02*
X108721D01*
X106559Y60141D01*
X104621Y59022D01*
X103038Y57439D01*
X101919Y55501D01*
X101340Y53339D01*
Y51101D01*
X101919Y48939D01*
X103038Y47001D01*
X104621Y45419D01*
X106559Y44299D01*
X108721Y43720D01*
X110959D01*
X113121Y44299D01*
X115059Y45419D01*
X116642Y47001D01*
X117761Y48939D01*
X118340Y51101D01*
Y53339D01*
X117761Y55501D01*
X116642Y57439D01*
X115059Y59022D01*
X113121Y60141D01*
X110959Y60720D01*
D02*
G37*
G36*
X401085Y54700D02*
X398715D01*
X396426Y54087D01*
X394374Y52902D01*
X392698Y51226D01*
X391513Y49174D01*
X390900Y46885D01*
Y44515D01*
X391513Y42226D01*
X392698Y40174D01*
X394374Y38498D01*
X396426Y37313D01*
X398715Y36700D01*
X401085D01*
X403374Y37313D01*
X405426Y38498D01*
X407102Y40174D01*
X408287Y42226D01*
X408900Y44515D01*
Y46885D01*
X408287Y49174D01*
X407102Y51226D01*
X405426Y52902D01*
X403374Y54087D01*
X401085Y54700D01*
D02*
G37*
G36*
X274085D02*
X271715D01*
X269426Y54087D01*
X267374Y52902D01*
X265698Y51226D01*
X264513Y49174D01*
X263900Y46885D01*
Y44515D01*
X264513Y42226D01*
X265698Y40174D01*
X267374Y38498D01*
X269426Y37313D01*
X271715Y36700D01*
X274085D01*
X276374Y37313D01*
X278426Y38498D01*
X280102Y40174D01*
X281287Y42226D01*
X281900Y44515D01*
Y46885D01*
X281287Y49174D01*
X280102Y51226D01*
X278426Y52902D01*
X276374Y54087D01*
X274085Y54700D01*
D02*
G37*
G36*
X257540Y44430D02*
X248770D01*
Y35660D01*
X248822D01*
X251375Y36344D01*
X253665Y37666D01*
X255534Y39535D01*
X256856Y41825D01*
X257540Y44378D01*
Y44430D01*
D02*
G37*
G36*
X246230D02*
X237460D01*
Y44378D01*
X238144Y41825D01*
X239466Y39535D01*
X241335Y37666D01*
X243625Y36344D01*
X246178Y35660D01*
X246230D01*
Y44430D01*
D02*
G37*
G36*
X401222Y30340D02*
X401170D01*
Y21570D01*
X409940D01*
Y21622D01*
X409256Y24175D01*
X407934Y26465D01*
X406065Y28334D01*
X403775Y29656D01*
X401222Y30340D01*
D02*
G37*
G36*
X398630D02*
X398578D01*
X396025Y29656D01*
X393735Y28334D01*
X391866Y26465D01*
X390544Y24175D01*
X389860Y21622D01*
Y21570D01*
X398630D01*
Y30340D01*
D02*
G37*
G36*
X248685Y29300D02*
X246315D01*
X244026Y28687D01*
X241974Y27502D01*
X240298Y25826D01*
X239114Y23774D01*
X238500Y21485D01*
Y19115D01*
X239114Y16826D01*
X240298Y14774D01*
X241974Y13098D01*
X244026Y11913D01*
X246315Y11300D01*
X248685D01*
X250974Y11913D01*
X253026Y13098D01*
X254702Y14774D01*
X255887Y16826D01*
X256500Y19115D01*
Y21485D01*
X255887Y23774D01*
X254702Y25826D01*
X253026Y27502D01*
X250974Y28687D01*
X248685Y29300D01*
D02*
G37*
G36*
X409940Y19030D02*
X401170D01*
Y10260D01*
X401222D01*
X403775Y10944D01*
X406065Y12266D01*
X407934Y14135D01*
X409256Y16425D01*
X409940Y18978D01*
Y19030D01*
D02*
G37*
G36*
X398630D02*
X389860D01*
Y18978D01*
X390544Y16425D01*
X391866Y14135D01*
X393735Y12266D01*
X396025Y10944D01*
X398578Y10260D01*
X398630D01*
Y19030D01*
D02*
G37*
G36*
X200489Y44576D02*
X196991D01*
X193561Y43894D01*
X190329Y42555D01*
X187421Y40612D01*
X184948Y38139D01*
X183005Y35231D01*
X181667Y31999D01*
X180984Y28569D01*
Y25071D01*
X181667Y21641D01*
X183005Y18410D01*
X184948Y15501D01*
X187421Y13028D01*
X190329Y11085D01*
X193561Y9747D01*
X196991Y9064D01*
X200489D01*
X203919Y9747D01*
X207151Y11085D01*
X210059Y13028D01*
X212532Y15501D01*
X214475Y18410D01*
X215814Y21641D01*
X216496Y25071D01*
Y28569D01*
X215814Y31999D01*
X214475Y35231D01*
X212532Y38139D01*
X210059Y40612D01*
X207151Y42555D01*
X203919Y43894D01*
X200489Y44576D01*
D02*
G37*
G36*
X73489D02*
X69991D01*
X66561Y43894D01*
X63330Y42555D01*
X60421Y40612D01*
X57948Y38139D01*
X56005Y35231D01*
X54667Y31999D01*
X53984Y28569D01*
Y25071D01*
X54667Y21641D01*
X56005Y18410D01*
X57948Y15501D01*
X60421Y13028D01*
X63330Y11085D01*
X66561Y9747D01*
X69991Y9064D01*
X73489D01*
X76919Y9747D01*
X80151Y11085D01*
X83059Y13028D01*
X85532Y15501D01*
X87475Y18410D01*
X88814Y21641D01*
X89496Y25071D01*
Y28569D01*
X88814Y31999D01*
X87475Y35231D01*
X85532Y38139D01*
X83059Y40612D01*
X80151Y42555D01*
X76919Y43894D01*
X73489Y44576D01*
D02*
G37*
G36*
X611311Y42775D02*
X607889D01*
X604532Y42107D01*
X601370Y40798D01*
X598524Y38896D01*
X596104Y36476D01*
X594202Y33630D01*
X592893Y30468D01*
X592225Y27111D01*
Y23689D01*
X592893Y20332D01*
X594202Y17170D01*
X596104Y14324D01*
X598524Y11904D01*
X601370Y10002D01*
X604532Y8693D01*
X607889Y8025D01*
X611311D01*
X614668Y8693D01*
X617830Y10002D01*
X620676Y11904D01*
X623096Y14324D01*
X624997Y17170D01*
X626307Y20332D01*
X626975Y23689D01*
Y27111D01*
X626307Y30468D01*
X624997Y33630D01*
X623096Y36476D01*
X620676Y38896D01*
X617830Y40798D01*
X614668Y42107D01*
X611311Y42775D01*
D02*
G37*
G36*
X27111D02*
X23689D01*
X20332Y42107D01*
X17170Y40798D01*
X14324Y38896D01*
X11904Y36476D01*
X10002Y33630D01*
X8693Y30468D01*
X8025Y27111D01*
Y23689D01*
X8693Y20332D01*
X10002Y17170D01*
X11904Y14324D01*
X14324Y11904D01*
X17170Y10002D01*
X20332Y8693D01*
X23689Y8025D01*
X27111D01*
X30468Y8693D01*
X33630Y10002D01*
X36476Y11904D01*
X38896Y14324D01*
X40798Y17170D01*
X42107Y20332D01*
X42775Y23689D01*
Y27111D01*
X42107Y30468D01*
X40798Y33630D01*
X38896Y36476D01*
X36476Y38896D01*
X33630Y40798D01*
X30468Y42107D01*
X27111Y42775D01*
D02*
G37*
G36*
Y753975D02*
X23689D01*
X20332Y753307D01*
X17170Y751998D01*
X14324Y750096D01*
X11904Y747676D01*
X10002Y744830D01*
X8693Y741668D01*
X8025Y738311D01*
Y734889D01*
X8693Y731532D01*
X10002Y728370D01*
X11904Y725524D01*
X14324Y723104D01*
X17170Y721202D01*
X20332Y719893D01*
X23689Y719225D01*
X27111D01*
X30468Y719893D01*
X33630Y721202D01*
X36476Y723104D01*
X38896Y725524D01*
X40798Y728370D01*
X42107Y731532D01*
X42775Y734889D01*
Y738311D01*
X42107Y741668D01*
X40798Y744830D01*
X38896Y747676D01*
X36476Y750096D01*
X33630Y751998D01*
X30468Y753307D01*
X27111Y753975D01*
D02*
G37*
G36*
X120845Y680250D02*
X119155D01*
X117593Y679603D01*
X116397Y678407D01*
X115750Y676845D01*
Y675155D01*
X116397Y673593D01*
X117593Y672397D01*
X119155Y671750D01*
X120845D01*
X122407Y672397D01*
X123603Y673593D01*
X124250Y675155D01*
Y676845D01*
X123603Y678407D01*
X122407Y679603D01*
X120845Y680250D01*
D02*
G37*
G36*
X46540Y678940D02*
X33270D01*
Y665670D01*
X46540D01*
Y678940D01*
D02*
G37*
G36*
X30730D02*
X17460D01*
Y665670D01*
X30730D01*
Y678940D01*
D02*
G37*
G36*
X46540Y663130D02*
X33270D01*
Y649860D01*
X46540D01*
Y663130D01*
D02*
G37*
G36*
X30730D02*
X17460D01*
Y649860D01*
X30730D01*
Y663130D01*
D02*
G37*
G36*
X135845Y651250D02*
X134155D01*
X132593Y650603D01*
X131397Y649407D01*
X130750Y647845D01*
Y646155D01*
X131397Y644593D01*
X132593Y643397D01*
X134155Y642750D01*
X135845D01*
X137407Y643397D01*
X138603Y644593D01*
X139250Y646155D01*
Y647845D01*
X138603Y649407D01*
X137407Y650603D01*
X135845Y651250D01*
D02*
G37*
G36*
X108845Y641250D02*
X107155D01*
X105593Y640603D01*
X104397Y639407D01*
X103750Y637845D01*
Y636155D01*
X104397Y634593D01*
X105593Y633397D01*
X107155Y632750D01*
X108845D01*
X110407Y633397D01*
X111603Y634593D01*
X112250Y636155D01*
Y637845D01*
X111603Y639407D01*
X110407Y640603D01*
X108845Y641250D01*
D02*
G37*
G36*
X33777Y627100D02*
X30223D01*
X26789Y626180D01*
X23711Y624403D01*
X21197Y621889D01*
X19420Y618811D01*
X18500Y615377D01*
Y611823D01*
X19420Y608389D01*
X21197Y605311D01*
X23711Y602797D01*
X26789Y601020D01*
X30223Y600100D01*
X33777D01*
X37211Y601020D01*
X40289Y602797D01*
X42803Y605311D01*
X44580Y608389D01*
X45500Y611823D01*
Y615377D01*
X44580Y618811D01*
X42803Y621889D01*
X40289Y624403D01*
X37211Y626180D01*
X33777Y627100D01*
D02*
G37*
G36*
X108845Y583250D02*
X107155D01*
X105593Y582603D01*
X104397Y581407D01*
X103750Y579845D01*
Y578155D01*
X104397Y576593D01*
X105593Y575397D01*
X107155Y574750D01*
X108845D01*
X110407Y575397D01*
X111603Y576593D01*
X112250Y578155D01*
Y579845D01*
X111603Y581407D01*
X110407Y582603D01*
X108845Y583250D01*
D02*
G37*
G36*
X68707Y559603D02*
X53208D01*
Y544103D01*
X68707D01*
Y559603D01*
D02*
G37*
G36*
X62228Y535213D02*
Y527723D01*
X69717D01*
X69149Y529846D01*
X67991Y531850D01*
X66355Y533487D01*
X64350Y534644D01*
X62228Y535213D01*
D02*
G37*
G36*
X59688Y535213D02*
X57565Y534644D01*
X55560Y533487D01*
X53924Y531850D01*
X52766Y529846D01*
X52198Y527723D01*
X59688D01*
Y535213D01*
D02*
G37*
G36*
X124845Y533250D02*
X123155D01*
X121593Y532603D01*
X120397Y531407D01*
X119750Y529845D01*
Y528155D01*
X120397Y526593D01*
X121593Y525397D01*
X123155Y524750D01*
X124845D01*
X126407Y525397D01*
X127603Y526593D01*
X128250Y528155D01*
Y529845D01*
X127603Y531407D01*
X126407Y532603D01*
X124845Y533250D01*
D02*
G37*
G36*
X59688Y525183D02*
X52198D01*
X52766Y523060D01*
X53924Y521056D01*
X55560Y519420D01*
X57565Y518262D01*
X59688Y517693D01*
Y525183D01*
D02*
G37*
G36*
X69717D02*
X62228D01*
Y517693D01*
X64350Y518262D01*
X66355Y519420D01*
X67991Y521056D01*
X69149Y523060D01*
X69717Y525183D01*
D02*
G37*
G36*
X118845Y515250D02*
X117155D01*
X115593Y514603D01*
X114397Y513407D01*
X113750Y511845D01*
Y510155D01*
X114397Y508593D01*
X115593Y507397D01*
X117155Y506750D01*
X118845D01*
X120407Y507397D01*
X121603Y508593D01*
X122250Y510155D01*
Y511845D01*
X121603Y513407D01*
X120407Y514603D01*
X118845Y515250D01*
D02*
G37*
G36*
X61978Y458003D02*
X59937D01*
X57966Y457475D01*
X56199Y456455D01*
X54756Y455012D01*
X53736Y453245D01*
X53208Y451273D01*
Y449233D01*
X53736Y447262D01*
X54756Y445495D01*
X56199Y444052D01*
X57966Y443031D01*
X59937Y442503D01*
X61978D01*
X63949Y443031D01*
X65716Y444052D01*
X67159Y445495D01*
X68179Y447262D01*
X68707Y449233D01*
Y451273D01*
X68179Y453245D01*
X67159Y455012D01*
X65716Y456455D01*
X63949Y457475D01*
X61978Y458003D01*
D02*
G37*
G36*
X100845Y419250D02*
X99155D01*
X97593Y418603D01*
X96397Y417407D01*
X95750Y415845D01*
Y414155D01*
X96397Y412593D01*
X97593Y411397D01*
X99155Y410750D01*
X100845D01*
X102407Y411397D01*
X103603Y412593D01*
X104250Y414155D01*
Y415845D01*
X103603Y417407D01*
X102407Y418603D01*
X100845Y419250D01*
D02*
G37*
G36*
X147845Y418250D02*
X146155D01*
X144593Y417603D01*
X143397Y416407D01*
X142750Y414845D01*
Y413155D01*
X143397Y411593D01*
X144593Y410397D01*
X146155Y409750D01*
X147845D01*
X149407Y410397D01*
X150603Y411593D01*
X151250Y413155D01*
Y414845D01*
X150603Y416407D01*
X149407Y417603D01*
X147845Y418250D01*
D02*
G37*
G36*
X61978Y407203D02*
X59937D01*
X57966Y406675D01*
X56199Y405655D01*
X54756Y404212D01*
X53736Y402445D01*
X53208Y400474D01*
Y398433D01*
X53736Y396462D01*
X54756Y394695D01*
X56199Y393252D01*
X57966Y392231D01*
X59937Y391703D01*
X61978D01*
X63949Y392231D01*
X65716Y393252D01*
X67159Y394695D01*
X68179Y396462D01*
X68707Y398433D01*
Y400474D01*
X68179Y402445D01*
X67159Y404212D01*
X65716Y405655D01*
X63949Y406675D01*
X61978Y407203D01*
D02*
G37*
G36*
X209845Y344250D02*
X208155D01*
X206593Y343603D01*
X205397Y342407D01*
X204750Y340845D01*
Y339155D01*
X205397Y337593D01*
X206593Y336397D01*
X208155Y335750D01*
X209845D01*
X211407Y336397D01*
X212603Y337593D01*
X213250Y339155D01*
Y340845D01*
X212603Y342407D01*
X211407Y343603D01*
X209845Y344250D01*
D02*
G37*
G36*
X138845Y327250D02*
X137155D01*
X135593Y326603D01*
X134397Y325407D01*
X133750Y323845D01*
Y322155D01*
X134397Y320593D01*
X135593Y319397D01*
X137155Y318750D01*
X138845D01*
X140407Y319397D01*
X141603Y320593D01*
X142250Y322155D01*
Y323845D01*
X141603Y325407D01*
X140407Y326603D01*
X138845Y327250D01*
D02*
G37*
G36*
X107845Y326250D02*
X106155D01*
X104593Y325603D01*
X103397Y324407D01*
X102750Y322845D01*
Y321155D01*
X103397Y319593D01*
X104593Y318397D01*
X106155Y317750D01*
X107845D01*
X109407Y318397D01*
X110603Y319593D01*
X111250Y321155D01*
Y322845D01*
X110603Y324407D01*
X109407Y325603D01*
X107845Y326250D01*
D02*
G37*
G36*
X34845Y354250D02*
X33155D01*
X31593Y353603D01*
X30397Y352407D01*
X29750Y350845D01*
Y349155D01*
X30397Y347593D01*
X31593Y346397D01*
X33155Y345750D01*
X34845D01*
X36407Y346397D01*
X37603Y347593D01*
X38250Y349155D01*
Y350845D01*
X37603Y352407D01*
X36407Y353603D01*
X34845Y354250D01*
D02*
G37*
G36*
X60845Y264250D02*
X59155D01*
X57593Y263603D01*
X56808Y262818D01*
X56000Y262543D01*
X55192Y262818D01*
X54407Y263603D01*
X52845Y264250D01*
X51155D01*
X49593Y263603D01*
X48397Y262407D01*
X47750Y260845D01*
Y259155D01*
X48397Y257593D01*
X49593Y256397D01*
X51155Y255750D01*
X52845D01*
X54407Y256397D01*
X55192Y257182D01*
X56000Y257457D01*
X56808Y257182D01*
X57593Y256397D01*
X59155Y255750D01*
X60845D01*
X62407Y256397D01*
X63603Y257593D01*
X64250Y259155D01*
Y260845D01*
X63603Y262407D01*
X62407Y263603D01*
X60845Y264250D01*
D02*
G37*
G36*
X98845Y257250D02*
X97155D01*
X95593Y256603D01*
X94397Y255407D01*
X93750Y253845D01*
Y252155D01*
X94397Y250593D01*
X95593Y249397D01*
X97155Y248750D01*
X98845D01*
X100407Y249397D01*
X101603Y250593D01*
X102250Y252155D01*
Y253845D01*
X101603Y255407D01*
X100407Y256603D01*
X98845Y257250D01*
D02*
G37*
G36*
Y226250D02*
X97155D01*
X95593Y225603D01*
X94397Y224407D01*
X93750Y222845D01*
Y221155D01*
X94397Y219593D01*
X95593Y218397D01*
X97155Y217750D01*
X98845D01*
X100407Y218397D01*
X101603Y219593D01*
X102250Y221155D01*
Y222845D01*
X101603Y224407D01*
X100407Y225603D01*
X98845Y226250D01*
D02*
G37*
G36*
X60845Y208250D02*
X59155D01*
X57593Y207603D01*
X56808Y206818D01*
X56000Y206543D01*
X55192Y206818D01*
X54407Y207603D01*
X52845Y208250D01*
X51155D01*
X49593Y207603D01*
X48397Y206407D01*
X47750Y204845D01*
Y203155D01*
X48397Y201593D01*
X49593Y200397D01*
X51155Y199750D01*
X52845D01*
X54407Y200397D01*
X55192Y201182D01*
X56000Y201457D01*
X56808Y201182D01*
X57593Y200397D01*
X59155Y199750D01*
X60845D01*
X62407Y200397D01*
X63603Y201593D01*
X64250Y203155D01*
Y204845D01*
X63603Y206407D01*
X62407Y207603D01*
X60845Y208250D01*
D02*
G37*
G36*
X35845Y169250D02*
X34155D01*
X32593Y168603D01*
X31397Y167407D01*
X30750Y165846D01*
Y164155D01*
X31397Y162593D01*
X32182Y161808D01*
X32457Y161000D01*
X32182Y160193D01*
X31397Y159407D01*
X30750Y157845D01*
Y156155D01*
X31397Y154593D01*
X32182Y153808D01*
X32457Y153000D01*
X32182Y152192D01*
X31397Y151407D01*
X30750Y149845D01*
Y148155D01*
X31397Y146593D01*
X32593Y145397D01*
X34155Y144750D01*
X35845D01*
X37407Y145397D01*
X38603Y146593D01*
X39250Y148155D01*
Y149845D01*
X38603Y151407D01*
X37818Y152192D01*
X37543Y153000D01*
X37818Y153808D01*
X38603Y154593D01*
X39250Y156155D01*
Y157845D01*
X38603Y159407D01*
X37818Y160193D01*
X37543Y161000D01*
X37818Y161808D01*
X38603Y162593D01*
X39250Y164155D01*
Y165846D01*
X38603Y167407D01*
X37407Y168603D01*
X35845Y169250D01*
D02*
G37*
G36*
X92845Y161250D02*
X91155D01*
X89593Y160603D01*
X88397Y159407D01*
X87750Y157845D01*
Y156155D01*
X88397Y154593D01*
X89315Y153675D01*
X89533Y153048D01*
X89373Y152113D01*
X88538Y151278D01*
X87891Y149716D01*
Y148025D01*
X88538Y146463D01*
X89733Y145268D01*
X91295Y144621D01*
X92986D01*
X94548Y145268D01*
X95744Y146463D01*
X96390Y148025D01*
Y149716D01*
X95744Y151278D01*
X94826Y152196D01*
X94608Y152822D01*
X94768Y153757D01*
X95603Y154593D01*
X96250Y156155D01*
Y157845D01*
X95603Y159407D01*
X94407Y160603D01*
X92845Y161250D01*
D02*
G37*
%LPD*%
D50*
X60957Y526453D02*
D03*
D65*
X32000Y664400D02*
D03*
D66*
X610000Y690800D02*
D03*
Y563800D02*
D03*
Y436800D02*
D03*
Y309800D02*
D03*
X584600Y563800D02*
D03*
Y436800D02*
D03*
Y309800D02*
D03*
D67*
X457600Y690800D02*
D03*
X178200D02*
D03*
X584600D02*
D03*
D68*
X290000Y170000D02*
D03*
D69*
X369400Y185400D02*
D03*
Y160000D02*
D03*
X323700Y477500D02*
D03*
X247500Y45700D02*
D03*
Y375900D02*
D03*
X399900Y20300D02*
D03*
D70*
X89520Y118260D02*
D03*
X203820D02*
D03*
D71*
X173000Y436000D02*
D03*
Y446000D02*
D03*
X178000Y441000D02*
D03*
X173000Y278000D02*
D03*
X145000Y271000D02*
D03*
X584000Y116000D02*
D03*
X576000Y13000D02*
D03*
X491000Y12000D02*
D03*
X424000Y62000D02*
D03*
X157000Y663000D02*
D03*
X125000Y621000D02*
D03*
X142000Y573000D02*
D03*
X87982Y574286D02*
D03*
X88000Y587000D02*
D03*
X139000Y529000D02*
D03*
X214000Y439000D02*
D03*
X173000Y441000D02*
D03*
X210500Y364813D02*
D03*
X172000Y353000D02*
D03*
X126000D02*
D03*
X107000Y308000D02*
D03*
Y315000D02*
D03*
X45000Y308000D02*
D03*
Y315000D02*
D03*
X50000Y354000D02*
D03*
X34000Y304000D02*
D03*
X46000Y285000D02*
D03*
Y272000D02*
D03*
X100000D02*
D03*
Y285000D02*
D03*
X137000Y279000D02*
D03*
X84000Y260000D02*
D03*
X76000D02*
D03*
X84000Y204000D02*
D03*
X76000D02*
D03*
X91117Y180830D02*
D03*
X91000Y173000D02*
D03*
X35000Y181000D02*
D03*
Y173000D02*
D03*
X515000Y166000D02*
D03*
Y69000D02*
D03*
X544000Y62000D02*
D03*
X436000Y152000D02*
D03*
X547000Y115000D02*
D03*
X492000Y109000D02*
D03*
X462000Y115000D02*
D03*
X458000Y62000D02*
D03*
D72*
X67543Y321250D02*
D03*
X76042D02*
D03*
X84543D02*
D03*
X76042Y329750D02*
D03*
Y312750D02*
D03*
M02*
