M48
;Layer_Color=9474304
;FILE_FORMAT=4:4
METRIC,LZ
;TYPE=PLATED
T1F00S00C0.2000
T2F00S00C0.2500
T3F00S00C0.7500
T4F00S00C0.8000
T5F00S00C0.9000
T6F00S00C1.0000
T7F00S00C1.0200
T8F00S00C1.6000
%
T01
X00067543Y0032125
X00076042
X00084543
X00076042Y0032975
Y0031275
T02
X00261787Y00130862
X00436Y00128
Y00116
X00443278Y001155
X00455Y00115
X00462
X00469
X00476
X00492Y00109
X00488Y001
X00485Y000845
X00466
X00458Y00062
X00451
Y00051
X00453Y00033
X0046Y00037
X00466387Y00041
X00473Y00045
X00481
X00478Y00062
X00517
X00515Y00069
X00517Y00077
Y000845
X00549
X00561Y0009
X00584Y00092
Y00116
X00578Y00128
X00544Y00122
X00547Y00115
X00516Y001164
X00544Y00062
X00545Y00036
X00538Y00033
X00531Y00029
X00524Y00025
X00551375Y0004
X00558Y00044
X00565Y00048
X00576Y00013
X00491Y00012
X00446Y00029
X00439Y00025
X00431Y00062
X00424
X00432Y00078
X00443Y00135
X00436Y00152
X00441Y002
X00449
X0047025Y00180861
X00515Y00166
X00578Y0015625
X00228Y00138
X00214Y00439
X00517Y00496
Y00503
Y0051
Y00517
Y00524
Y00531
X00139Y00529
X00124
X00118Y00511
X001Y00415
X00090611Y00377
X00126Y00353
X00138Y00323
X00107Y00322
Y00315
Y00308
X001Y00285
Y00272
X00098Y00253
X00084Y0026
X00076
X0006
X00052
X00046Y00272
Y00285
X00045Y00308
Y00315
X00034Y00304
Y0035
X0005Y00354
X00172Y00353
X00209Y0034
X002105Y00364813
X00193Y00416
X00173Y00436
Y00441
Y00446
X00178Y00441
X00147Y00414
X00137Y00279
X00145Y00271
X00173Y00278
X00184Y00166
X00184055Y00157385
X00184Y00145
X00092141Y00148871
X00092Y00157
X00091Y00173
X00091117Y0018083
X00084Y00204
X00076
X0006
X00052
X00035Y00181
Y00173
Y00165
Y00157
Y00149
X00071Y00138
X00098Y00222
X00087982Y00574286
X00088Y00587
X00108Y00579
X00142Y00573
X00125Y00621
X00108Y00637
X00135Y00647
X00157Y00663
X0012Y00676
X0035Y00604
X00519Y00624
Y00631
Y00638
Y00645
Y00652
Y00659
Y00666
Y00673
X00517Y00545
Y00538
T03
X00060957Y00399453
Y00450253
Y00526453
Y00551853
T04
X0027Y0015
X0029
Y0017
X0027
X0031
Y0015
T05
X0010984Y0005222
X0013016
X0015048
X001708
X0016064Y0007
X0014032
X0012
X0009968
X0008952Y0011826
X0006666
X0018096
X0020382
T06
X002475Y000203
Y000457
X002729
X002475Y000711
Y000965
Y001219
X003694Y001346
Y001092
Y000838
X003999Y000965
Y001219
Y000711
Y000457
Y000203
Y001473
Y001727
Y001981
Y002235
Y002489
Y002743
Y002997
Y003251
Y003505
Y003759
Y004013
Y004267
Y004521
Y004775
X003745
X003491
X003237
X002983
X002729
X002475
Y004521
Y004267
Y004013
Y003759
Y003505
Y003251
Y002997
Y002743
Y002489
Y002235
Y001981
Y001727
Y001473
X003694Y0016
Y001854
X003999Y005029
Y005283
X002475
Y005029
Y005537
Y005791
Y006045
X003999
Y005791
Y005537
T07
X0061Y002082
Y002336
Y00259
Y002844
Y003098
Y003352
Y003606
Y00386
Y004114
Y004368
Y004622
Y004876
Y00513
X005846
Y004876
Y004622
Y004368
Y004114
Y00386
Y003606
Y003352
Y003098
Y002844
Y00259
Y002336
Y002082
X00483Y004622
Y004876
Y00513
X004576
Y004876
Y004622
X002036
X001782
Y004876
Y00513
X002036
Y004876
Y005384
X001782
Y005638
Y005892
Y006146
Y0064
Y006654
Y006908
X002036
Y006654
Y0064
Y006146
Y005892
Y005638
X004576
X00483
Y005892
Y006146
Y0064
Y006654
Y006908
X004576
Y006654
Y0064
Y006146
Y005892
Y005384
X00483
X005846
Y005638
Y005892
Y006146
Y0064
Y006654
Y006908
X0061
Y006654
Y0064
Y006146
Y005892
Y005638
Y005384
T08
X00032Y006136
Y006644
M30
